# Blender v3.0.1 OBJ File: ''
# www.blender.org
mtllib calyx4.mtl
o obj6.004
v -0.000889 0.001532 -0.000895
v -0.001213 0.001518 0.000078
v -0.000893 0.001051 0.000098
v -0.000593 0.001064 -0.000803
v -0.000293 0.001076 -0.001704
v -0.000566 0.001545 -0.001868
v -0.000861 0.001968 -0.002028
v -0.001205 0.001954 -0.000994
v -0.001548 0.001939 0.000040
v 0.000221 0.000019 -0.001390
v 0.000157 0.000154 -0.001429
v -0.000101 0.000143 -0.000652
v -0.000359 0.000133 0.000124
v -0.000284 -0.000002 0.000128
v -0.000032 0.000008 -0.000631
v -0.000221 0.000001 -0.000062
v -0.000032 0.000008 -0.000631
v 0.000158 0.000016 -0.001200
v -0.002323 0.002953 -0.001352
v -0.002700 0.002937 -0.000218
v -0.002283 0.002653 -0.000118
v -0.001917 0.002668 -0.001221
v -0.001550 0.002684 -0.002323
v -0.001946 0.002968 -0.002485
v -0.002579 0.003307 -0.002717
v -0.002964 0.003291 -0.001560
v -0.003349 0.003275 -0.000403
v -0.004040 0.003786 -0.001911
v -0.004428 0.003769 -0.000746
v -0.003653 0.003802 -0.003076
v -0.004806 0.004410 -0.003386
v -0.005174 0.004395 -0.002280
v -0.005542 0.004379 -0.001173
v -0.006295 0.005063 -0.001608
v -0.005676 0.005090 -0.003472
v -0.005986 0.005076 -0.002540
v -0.006323 0.005771 -0.003413
v -0.006553 0.005761 -0.002719
v -0.006784 0.005752 -0.002026
v -0.007102 0.006374 -0.002400
v -0.006806 0.006387 -0.003288
v -0.006954 0.006380 -0.002844
v -0.007124 0.006823 -0.003123
v -0.007271 0.006966 -0.002941
v -0.007260 0.006817 -0.002711
v -0.000309 0.000548 -0.000716
v -0.000585 0.000537 0.000114
v -0.000033 0.000560 -0.001546
v -0.001546 0.002334 -0.001102
v -0.001902 0.002319 -0.000029
v -0.001189 0.002349 -0.002175
v -0.001053 0.000946 0.000043
v -0.001366 0.001401 0.000025
v -0.001043 0.001415 -0.000948
v -0.000454 0.000971 -0.001759
v -0.000754 0.000959 -0.000858
v -0.001348 0.001824 -0.001044
v -0.001004 0.001838 -0.002077
v -0.000719 0.001428 -0.001920
v -0.001692 0.001809 -0.000010
v -0.000268 0.000049 -0.000709
v -0.000009 0.000060 -0.001486
v 0.000054 -0.000076 -0.001447
v -0.000451 -0.000097 0.000071
v -0.000526 0.000038 0.000068
v -0.000198 -0.000086 -0.000688
v -0.002397 0.002493 -0.000159
v -0.002794 0.002764 -0.000252
v -0.002417 0.002780 -0.001386
v -0.001664 0.002524 -0.002363
v -0.002031 0.002509 -0.001261
v -0.003044 0.003110 -0.001589
v -0.002659 0.003126 -0.002746
v -0.002040 0.002796 -0.002519
v -0.003428 0.003093 -0.000432
v -0.004508 0.003589 -0.000775
v -0.004121 0.003605 -0.001941
v -0.004908 0.004242 -0.003423
v -0.003733 0.003621 -0.003106
v -0.005644 0.004211 -0.001209
v -0.005276 0.004227 -0.002316
v -0.006426 0.004919 -0.001654
v -0.005806 0.004945 -0.003518
v -0.006473 0.005649 -0.003464
v -0.006116 0.004932 -0.002586
v -0.006934 0.005630 -0.002077
v -0.006703 0.005639 -0.002771
v -0.007263 0.006269 -0.002455
v -0.006967 0.006281 -0.003343
v -0.007288 0.006724 -0.003179
v -0.007115 0.006275 -0.002899
v -0.007425 0.006718 -0.002767
v -0.007436 0.006868 -0.002997
v -0.000750 0.000439 0.000058
v -0.000475 0.000451 -0.000772
v -0.000199 0.000463 -0.001602
v -0.002033 0.002174 -0.000074
v -0.001676 0.002189 -0.001147
v -0.001319 0.002204 -0.002220
v 0.001048 0.001269 -0.001407
v 0.000169 0.001229 -0.001937
v 0.000008 0.000840 -0.001539
v 0.000821 0.000852 -0.001047
v 0.001633 0.000863 -0.000555
v 0.001926 0.001310 -0.000877
v 0.002214 0.001744 -0.001213
v 0.001279 0.001661 -0.001775
v 0.000343 0.001579 -0.002336
v 0.001052 -0.000060 0.000084
v 0.001125 0.000056 0.000004
v 0.000425 0.000067 -0.000421
v -0.000275 0.000079 -0.000846
v -0.000315 -0.000033 -0.000747
v 0.000368 -0.000046 -0.000332
v -0.000144 -0.000036 -0.000643
v 0.000368 -0.000046 -0.000332
v 0.000881 -0.000056 -0.000020
v 0.000992 0.002330 -0.003582
v 0.000764 0.002142 -0.003149
v 0.001766 0.002370 -0.002557
v 0.002024 0.002694 -0.002980
v 0.002768 0.002597 -0.001964
v 0.003056 0.003058 -0.002378
v 0.003420 0.003534 -0.003043
v 0.002386 0.002994 -0.003634
v 0.001353 0.002453 -0.004226
v 0.001970 0.002517 -0.005274
v 0.002949 0.003263 -0.004729
v 0.003928 0.004008 -0.004184
v 0.004450 0.004157 -0.005391
v 0.003569 0.003341 -0.005872
v 0.002689 0.002524 -0.006353
v 0.003352 0.002478 -0.007092
v 0.004856 0.003659 -0.006257
v 0.004104 0.003069 -0.006674
v 0.005124 0.002972 -0.006900
v 0.004534 0.002686 -0.007239
v 0.003944 0.002400 -0.007578
v 0.004450 0.002312 -0.007898
v 0.005229 0.002555 -0.007442
v 0.004840 0.002433 -0.007670
v 0.005205 0.002335 -0.007835
v 0.005083 0.002245 -0.008034
v 0.004840 0.002248 -0.008051
v 0.000594 0.000409 -0.000689
v -0.000153 0.000413 -0.001143
v 0.001342 0.000405 -0.000235
v 0.000544 0.001888 -0.002737
v 0.001518 0.002027 -0.002156
v 0.002491 0.002166 -0.001576
v 0.000083 0.000698 -0.001658
v 0.000244 0.001081 -0.002049
v 0.001124 0.001124 -0.001521
v 0.001710 0.000724 -0.000678
v 0.000896 0.000711 -0.001168
v 0.001356 0.001510 -0.001880
v 0.002293 0.001596 -0.001322
v 0.002003 0.001167 -0.000994
v 0.000418 0.001423 -0.002437
v 0.000500 -0.000069 -0.000547
v 0.001200 -0.000079 -0.000123
v 0.001127 -0.000195 -0.000043
v -0.000241 -0.000170 -0.000873
v -0.000200 -0.000058 -0.000971
v 0.000443 -0.000182 -0.000458
v 0.001851 0.002207 -0.002635
v 0.000844 0.001972 -0.003217
v 0.001077 0.002152 -0.003615
v 0.002857 0.002442 -0.002053
v 0.002115 0.002523 -0.003029
v 0.002485 0.002820 -0.003642
v 0.003525 0.003365 -0.003066
v 0.003153 0.002896 -0.002442
v 0.001444 0.002276 -0.004218
v 0.002071 0.002349 -0.005232
v 0.003055 0.003096 -0.004699
v 0.003663 0.003181 -0.005796
v 0.004543 0.003998 -0.005315
v 0.004040 0.003843 -0.004166
v 0.002782 0.002365 -0.006276
v 0.003414 0.002319 -0.006988
v 0.004900 0.003509 -0.006131
v 0.005134 0.002818 -0.006773
v 0.004157 0.002914 -0.006560
v 0.003973 0.002232 -0.007474
v 0.004553 0.002524 -0.007123
v 0.004458 0.002135 -0.007806
v 0.005228 0.002384 -0.007337
v 0.005200 0.002159 -0.007742
v 0.004843 0.002259 -0.007572
v 0.004840 0.002068 -0.007963
v 0.005081 0.002066 -0.007944
v -0.000079 0.000275 -0.001267
v 0.000670 0.000272 -0.000814
v 0.001418 0.000269 -0.000361
v 0.000621 0.001724 -0.002824
v 0.001597 0.001869 -0.002250
v 0.002573 0.002013 -0.001675
v -0.000159 0.001470 -0.001673
v -0.001070 0.001462 -0.001203
v -0.000848 0.001009 -0.000946
v -0.000004 0.001016 -0.001382
v 0.000839 0.001023 -0.001818
v 0.000751 0.001478 -0.002144
v 0.000646 0.001886 -0.002482
v -0.000322 0.001878 -0.001982
v -0.001289 0.001870 -0.001481
v 0.001003 -0.000007 -0.001191
v 0.000983 0.000125 -0.001269
v 0.000256 0.000119 -0.000893
v -0.000471 0.000113 -0.000517
v -0.000418 -0.000019 -0.000456
v 0.000293 -0.000013 -0.000824
v -0.000240 -0.000017 -0.000548
v 0.000293 -0.000013 -0.000824
v 0.000826 -0.000008 -0.001100
v -0.000887 0.002825 -0.003058
v -0.001948 0.002816 -0.002510
v -0.001715 0.002550 -0.002136
v -0.000684 0.002559 -0.002670
v 0.000348 0.002568 -0.003203
v 0.000174 0.002834 -0.003607
v -0.000122 0.003143 -0.004229
v -0.001205 0.003133 -0.003668
v -0.002288 0.003124 -0.003108
v -0.001737 0.003579 -0.004691
v -0.002828 0.003570 -0.004126
v -0.000647 0.003588 -0.005255
v -0.001264 0.004145 -0.006306
v -0.002300 0.004136 -0.005770
v -0.003336 0.004127 -0.005234
v -0.003582 0.004773 -0.006099
v -0.001837 0.004788 -0.007001
v -0.002709 0.004780 -0.006550
v -0.002352 0.005444 -0.007438
v -0.003001 0.005439 -0.007102
v -0.003650 0.005433 -0.006767
v -0.003625 0.006036 -0.007281
v -0.002794 0.006043 -0.007712
v -0.003210 0.006039 -0.007497
v -0.003143 0.006469 -0.007832
v -0.003377 0.006610 -0.007811
v -0.003528 0.006466 -0.007633
v 0.000145 0.000514 -0.001100
v -0.000631 0.000507 -0.000698
v 0.000922 0.000520 -0.001502
v -0.000496 0.002242 -0.002312
v -0.001500 0.002234 -0.001793
v 0.000508 0.002250 -0.002832
v -0.000923 0.000897 -0.001093
v -0.001141 0.001338 -0.001342
v -0.000230 0.001346 -0.001813
v 0.000764 0.000911 -0.001965
v -0.000080 0.000904 -0.001529
v -0.000388 0.001741 -0.002112
v 0.000580 0.001749 -0.002612
v 0.000680 0.001354 -0.002284
v -0.001356 0.001733 -0.001611
v 0.000178 0.000016 -0.001046
v 0.000905 0.000023 -0.001422
v 0.000925 -0.000109 -0.001344
v -0.000496 -0.000121 -0.000609
v -0.000549 0.000010 -0.000670
v 0.000215 -0.000115 -0.000977
v -0.001767 0.002386 -0.002238
v -0.001989 0.002639 -0.002593
v -0.000928 0.002648 -0.003141
v 0.000297 0.002403 -0.003305
v -0.000735 0.002394 -0.002771
v -0.001239 0.002949 -0.003737
v -0.000156 0.002958 -0.004298
v 0.000133 0.002657 -0.003690
v -0.002322 0.002940 -0.003177
v -0.002863 0.003385 -0.004196
v -0.001772 0.003395 -0.004760
v -0.001309 0.003972 -0.006396
v -0.000681 0.003404 -0.005324
v -0.003382 0.003955 -0.005324
v -0.002346 0.003964 -0.005860
v -0.003642 0.004623 -0.006217
v -0.001897 0.004637 -0.007119
v -0.002421 0.005316 -0.007575
v -0.002769 0.004630 -0.006668
v -0.003719 0.005305 -0.006903
v -0.003070 0.005310 -0.007239
v -0.003701 0.005923 -0.007429
v -0.002869 0.005930 -0.007859
v -0.003220 0.006363 -0.007983
v -0.003285 0.005926 -0.007644
v -0.003605 0.006360 -0.007784
v -0.003454 0.006504 -0.007963
v -0.000709 0.000402 -0.000850
v 0.000068 0.000409 -0.001252
v 0.000845 0.000416 -0.001654
v -0.001560 0.002083 -0.001910
v -0.000556 0.002091 -0.002430
v 0.000449 0.002100 -0.002949
v 0.001503 0.001229 0.000158
v 0.002028 0.001218 -0.000720
v 0.001600 0.000811 -0.000801
v 0.001114 0.000846 0.000012
v 0.000628 0.000880 0.000825
v 0.000977 0.001240 0.001036
v 0.001347 0.001537 0.001229
v 0.001906 0.001567 0.000297
v 0.002464 0.001596 -0.000635
v -0.000039 -0.000002 0.000361
v 0.000043 0.000112 0.000420
v 0.000462 0.000068 -0.000281
v 0.000882 0.000024 -0.000983
v 0.000780 -0.000090 -0.001010
v 0.000370 -0.000046 -0.000324
v 0.000678 -0.000079 -0.000839
v 0.000370 -0.000046 -0.000324
v 0.000063 -0.000013 0.000190
v 0.003225 0.002312 0.000761
v 0.003823 0.002585 -0.000229
v 0.003354 0.002280 -0.000384
v 0.002764 0.002110 0.000596
v 0.002174 0.001940 0.001576
v 0.002627 0.002039 0.001751
v 0.003372 0.002094 0.001930
v 0.003928 0.002548 0.001016
v 0.004485 0.003003 0.000102
v 0.005093 0.002901 0.001440
v 0.005512 0.003671 0.000766
v 0.004673 0.002131 0.002115
v 0.005988 0.002250 0.002441
v 0.006252 0.003254 0.002034
v 0.006516 0.004258 0.001627
v 0.006939 0.003494 0.002796
v 0.007105 0.004433 0.002550
v 0.006773 0.002554 0.003041
v 0.007220 0.002954 0.003721
v 0.007313 0.003677 0.003591
v 0.007405 0.004400 0.003460
v 0.007531 0.003860 0.004284
v 0.007543 0.004361 0.004281
v 0.007520 0.003359 0.004286
v 0.007671 0.003735 0.004700
v 0.007672 0.004044 0.004926
v 0.007603 0.004261 0.004831
v 0.000739 0.000412 -0.000152
v 0.001186 0.000369 -0.000901
v 0.000291 0.000455 0.000598
v 0.002325 0.001861 0.000442
v 0.002904 0.001950 -0.000521
v 0.001747 0.001771 0.001406
v 0.001721 0.000671 -0.000724
v 0.002143 0.001070 -0.000650
v 0.001615 0.001078 0.000226
v 0.001086 0.001087 0.001102
v 0.000746 0.000738 0.000901
v 0.001233 0.000705 0.000089
v 0.001446 0.001371 0.001282
v 0.002573 0.001440 -0.000575
v 0.002010 0.001405 0.000353
v 0.000588 -0.000064 -0.000198
v 0.000168 -0.000020 0.000503
v 0.000086 -0.000134 0.000444
v 0.000905 -0.000222 -0.000927
v 0.001007 -0.000107 -0.000900
v 0.000495 -0.000178 -0.000241
v 0.003450 0.002106 -0.000358
v 0.003915 0.002407 -0.000228
v 0.003300 0.002127 0.000750
v 0.002685 0.001849 0.001728
v 0.002245 0.001754 0.001586
v 0.002848 0.001929 0.000614
v 0.003423 0.001914 0.001859
v 0.004583 0.002832 0.000065
v 0.004004 0.002371 0.000962
v 0.005627 0.003531 0.000680
v 0.005184 0.002757 0.001335
v 0.004737 0.001987 0.001993
v 0.006098 0.002154 0.002305
v 0.006657 0.004165 0.001520
v 0.006378 0.003159 0.001912
v 0.007276 0.004376 0.002464
v 0.007105 0.003435 0.002701
v 0.006934 0.002495 0.002938
v 0.007403 0.002919 0.003647
v 0.007595 0.004367 0.003404
v 0.007499 0.003643 0.003526
v 0.007739 0.004356 0.004243
v 0.007725 0.003855 0.004233
v 0.007709 0.003354 0.004223
v 0.007861 0.003748 0.004640
v 0.007800 0.004272 0.004797
v 0.007866 0.004056 0.004879
v 0.001311 0.000235 -0.000819
v 0.000863 0.000278 -0.000070
v 0.000414 0.000321 0.000679
v 0.003006 0.001785 -0.000476
v 0.002420 0.001689 0.000482
v 0.001833 0.001594 0.001440
v 0.000631 0.001373 0.000803
v 0.001638 0.001265 0.000632
v 0.001477 0.000846 0.000265
v 0.000544 0.000921 0.000425
v -0.000390 0.000995 0.000585
v -0.000375 0.001481 0.000975
v -0.000348 0.001955 0.001374
v 0.000720 0.001800 0.001193
v 0.001788 0.001646 0.001012
v -0.000421 -0.000007 -0.000186
v -0.000417 0.000119 -0.000090
v 0.000389 0.000076 -0.000229
v 0.001194 0.000034 -0.000368
v 0.001154 -0.000085 -0.000458
v 0.000367 -0.000046 -0.000322
v 0.000957 -0.000075 -0.000424
v 0.000367 -0.000046 -0.000322
v -0.000224 -0.000016 -0.000220
v 0.002159 0.002506 0.002299
v 0.002036 0.002280 0.001843
v 0.000905 0.002584 0.002030
v 0.001006 0.002949 0.002486
v -0.000226 0.002887 0.002218
v -0.000147 0.003392 0.002672
v 0.000042 0.003927 0.003364
v 0.001180 0.003309 0.003186
v 0.002319 0.002691 0.003007
v 0.002549 0.002858 0.004191
v 0.001492 0.003676 0.004349
v 0.000436 0.004494 0.004508
v 0.000848 0.004742 0.005742
v 0.001784 0.003861 0.005606
v 0.002721 0.002979 0.005470
v 0.002708 0.003029 0.006463
v 0.001088 0.004322 0.006705
v 0.001898 0.003676 0.006584
v 0.001276 0.003692 0.007429
v 0.001928 0.003361 0.007325
v 0.002580 0.003030 0.007222
v 0.002407 0.003006 0.007802
v 0.001533 0.003308 0.007944
v 0.001970 0.003157 0.007873
v 0.001800 0.003103 0.008245
v 0.002018 0.003009 0.008324
v 0.002211 0.002988 0.008177
v 0.000455 0.000444 0.000051
v 0.001316 0.000390 -0.000098
v -0.000405 0.000497 0.000199
v 0.001916 0.001989 0.001415
v 0.000810 0.002202 0.001601
v -0.000296 0.002416 0.001787
v 0.001492 0.000717 0.000417
v 0.001648 0.001129 0.000778
v 0.000642 0.001240 0.000953
v -0.000374 0.000869 0.000740
v 0.000559 0.000793 0.000578
v 0.000724 0.001661 0.001337
v -0.000343 0.001820 0.001521
v -0.000364 0.001351 0.001127
v 0.001790 0.001503 0.001152
v 0.000409 -0.000046 -0.000072
v -0.000396 -0.000003 0.000067
v -0.000400 -0.000129 -0.000029
v 0.001175 -0.000209 -0.000302
v 0.001215 -0.000090 -0.000212
v 0.000387 -0.000169 -0.000165
v 0.000884 0.002434 0.002161
v 0.002012 0.002122 0.001962
v 0.002109 0.002340 0.002397
v -0.000243 0.002746 0.002358
v 0.000962 0.002790 0.002599
v 0.001103 0.003146 0.003273
v -0.000030 0.003771 0.003467
v -0.000185 0.003242 0.002800
v 0.002237 0.002523 0.003078
v 0.002438 0.002699 0.004242
v 0.001385 0.003520 0.004412
v 0.001656 0.003709 0.005625
v 0.000719 0.004590 0.005761
v 0.000332 0.004341 0.004583
v 0.002592 0.002827 0.005489
v 0.002585 0.002873 0.006441
v 0.000965 0.004173 0.006654
v 0.001178 0.003534 0.007355
v 0.001774 0.003523 0.006547
v 0.002481 0.002862 0.007179
v 0.001829 0.003198 0.007267
v 0.002331 0.002827 0.007755
v 0.001457 0.003134 0.007882
v 0.001733 0.002923 0.008188
v 0.001894 0.002981 0.007818
v 0.002145 0.002806 0.008128
v 0.001951 0.002828 0.008271
v 0.001334 0.000265 0.000057
v 0.000474 0.000320 0.000206
v -0.000386 0.000374 0.000355
v 0.001908 0.001837 0.001546
v 0.000804 0.002057 0.001738
v -0.000300 0.002277 0.001930
v -0.000653 0.001355 0.000153
v -0.000198 0.001371 0.001072
v 0.000111 0.000947 0.000842
v -0.000311 0.000933 -0.000009
v -0.000732 0.000918 -0.000860
v -0.001108 0.001339 -0.000765
v -0.001490 0.001714 -0.000654
v -0.001006 0.001731 0.000322
v -0.000523 0.001748 0.001298
v 0.000006 -0.000046 -0.001042
v -0.000086 0.000077 -0.001019
v 0.000278 0.000090 -0.000286
v 0.000641 0.000103 0.000448
v 0.000717 -0.000021 0.000391
v 0.000361 -0.000034 -0.000325
v 0.000628 -0.000025 0.000212
v 0.000361 -0.000034 -0.000325
v 0.000095 -0.000043 -0.000863
v -0.002188 0.002575 0.000893
v -0.001658 0.002593 0.001963
v -0.001254 0.002362 0.001730
v -0.001770 0.002345 0.000690
v -0.002286 0.002327 -0.000351
v -0.002718 0.002556 -0.000178
v -0.003379 0.002681 0.000120
v -0.002838 0.002700 0.001212
v -0.002296 0.002719 0.002305
v -0.003926 0.002668 0.001752
v -0.003381 0.002687 0.002852
v -0.004471 0.002649 0.000652
v -0.005612 0.002473 0.001288
v -0.005094 0.002491 0.002334
v -0.004576 0.002509 0.003379
v -0.005548 0.002195 0.003660
v -0.006420 0.002165 0.001900
v -0.005984 0.002180 0.002780
v -0.006976 0.001800 0.002462
v -0.006651 0.001811 0.003117
v -0.006327 0.001823 0.003772
v -0.006943 0.001468 0.003790
v -0.007359 0.001454 0.002951
v -0.007151 0.001461 0.003370
v -0.007560 0.001201 0.003335
v -0.007567 0.001119 0.003583
v -0.007367 0.001208 0.003724
v 0.000027 0.000462 -0.000168
v 0.000415 0.000475 0.000616
v -0.000362 0.000448 -0.000952
v -0.001377 0.002062 0.000500
v -0.000875 0.002079 0.001513
v -0.001879 0.002045 -0.000513
v -0.000025 0.000819 0.000911
v -0.000326 0.001232 0.001137
v -0.000781 0.001216 0.000219
v -0.000868 0.000789 -0.000790
v -0.000447 0.000804 0.000061
v -0.001124 0.001581 0.000382
v -0.001607 0.001564 -0.000594
v -0.001236 0.001200 -0.000699
v -0.000640 0.001598 0.001359
v 0.000135 -0.000030 -0.000213
v -0.000228 -0.000042 -0.000947
v -0.000136 -0.000166 -0.000969
v 0.000574 -0.000141 0.000464
v 0.000498 -0.000017 0.000520
v 0.000219 -0.000153 -0.000252
v -0.001342 0.002189 0.001777
v -0.001712 0.002403 0.001993
v -0.002242 0.002385 0.000923
v -0.002373 0.002153 -0.000305
v -0.001857 0.002171 0.000736
v -0.002849 0.002501 0.001222
v -0.003391 0.002482 0.000129
v -0.002772 0.002366 -0.000147
v -0.002308 0.002519 0.002314
v -0.003365 0.002488 0.002848
v -0.003910 0.002469 0.001748
v -0.005571 0.002278 0.001272
v -0.004455 0.002450 0.000647
v -0.004536 0.002314 0.003362
v -0.005054 0.002296 0.002317
v -0.005480 0.002010 0.003630
v -0.006352 0.001979 0.001869
v -0.006887 0.001626 0.002421
v -0.005916 0.001994 0.002749
v -0.006238 0.001648 0.003731
v -0.006563 0.001637 0.003076
v -0.006842 0.001302 0.003742
v -0.007257 0.001288 0.002903
v -0.007453 0.001040 0.003285
v -0.007050 0.001295 0.003323
v -0.007260 0.001046 0.003674
v -0.007461 0.000958 0.003532
v 0.000274 0.000353 0.000688
v -0.000115 0.000340 -0.000096
v -0.000503 0.000326 -0.000880
v -0.000979 0.001917 0.001567
v -0.001481 0.001900 0.000554
v -0.001983 0.001883 -0.000459
vt 0.684850 0.341640
vt 0.657620 0.311150
vt 0.676650 0.289600
vt 0.698540 0.314110
vt 0.720440 0.338630
vt 0.712080 0.372130
vt 0.705470 0.405760
vt 0.671740 0.367980
vt 0.638000 0.330200
vt 0.745740 0.273750
vt 0.742160 0.282210
vt 0.724350 0.262270
vt 0.706530 0.242320
vt 0.710930 0.234760
vt 0.728340 0.254250
vt 0.715530 0.239120
vt 0.728680 0.253570
vt 0.741650 0.268360
vt 0.633840 0.444120
vt 0.583180 0.387390
vt 0.600520 0.367490
vt 0.646410 0.418880
vt 0.692300 0.470260
vt 0.684500 0.500850
vt 0.680220 0.516080
vt 0.627710 0.456750
vt 0.575200 0.397420
vt 0.634420 0.444180
vt 0.584870 0.386560
vt 0.683980 0.501800
vt 0.691550 0.471560
vt 0.647390 0.419200
vt 0.603240 0.366830
vt 0.621340 0.350230
vt 0.698710 0.438960
vt 0.660020 0.394600
vt 0.704050 0.405000
vt 0.672160 0.370230
vt 0.640280 0.335460
vt 0.661130 0.321230
vt 0.706180 0.370690
vt 0.683650 0.345960
vt 0.703600 0.341200
vt 0.694820 0.321730
vt 0.680450 0.314370
vt 0.713060 0.284940
vt 0.694030 0.263630
vt 0.732100 0.306250
vt 0.658980 0.393610
vt 0.618880 0.348710
vt 0.699080 0.438520
vt 0.676650 0.289600
vt 0.657620 0.311150
vt 0.684850 0.341640
vt 0.720440 0.338630
vt 0.698540 0.314110
vt 0.671740 0.367980
vt 0.705470 0.405760
vt 0.712080 0.372130
vt 0.638000 0.330200
vt 0.724350 0.262270
vt 0.742160 0.282210
vt 0.745740 0.273750
vt 0.710930 0.234760
vt 0.706530 0.242320
vt 0.728340 0.254250
vt 0.600520 0.367490
vt 0.583180 0.387390
vt 0.633840 0.444120
vt 0.692300 0.470260
vt 0.646410 0.418880
vt 0.627710 0.456750
vt 0.680220 0.516080
vt 0.684500 0.500850
vt 0.575200 0.397420
vt 0.584870 0.386560
vt 0.634420 0.444180
vt 0.691550 0.471560
vt 0.683980 0.501800
vt 0.603240 0.366830
vt 0.647390 0.419200
vt 0.621340 0.350230
vt 0.698710 0.438960
vt 0.704050 0.405000
vt 0.660020 0.394600
vt 0.640280 0.335460
vt 0.672160 0.370230
vt 0.661130 0.321230
vt 0.706180 0.370690
vt 0.703600 0.341200
vt 0.683650 0.345960
vt 0.680450 0.314370
vt 0.694820 0.321730
vt 0.694030 0.263630
vt 0.713060 0.284940
vt 0.732100 0.306250
vt 0.618880 0.348710
vt 0.658980 0.393610
vt 0.699080 0.438520
vt 0.684850 0.341640
vt 0.657620 0.311150
vt 0.676650 0.289600
vt 0.698540 0.314110
vt 0.720440 0.338630
vt 0.712080 0.372130
vt 0.705470 0.405760
vt 0.671740 0.367980
vt 0.638000 0.330200
vt 0.745740 0.273750
vt 0.742160 0.282210
vt 0.724350 0.262270
vt 0.706530 0.242320
vt 0.710930 0.234760
vt 0.728340 0.254250
vt 0.715530 0.239120
vt 0.728680 0.253570
vt 0.741650 0.268360
vt 0.583180 0.387390
vt 0.600520 0.367490
vt 0.646410 0.418880
vt 0.633840 0.444120
vt 0.692300 0.470260
vt 0.684500 0.500850
vt 0.680220 0.516080
vt 0.627710 0.456750
vt 0.575200 0.397420
vt 0.584870 0.386560
vt 0.634420 0.444180
vt 0.683980 0.501800
vt 0.691550 0.471560
vt 0.647390 0.419200
vt 0.603240 0.366830
vt 0.621340 0.350230
vt 0.698710 0.438960
vt 0.660020 0.394600
vt 0.704050 0.405000
vt 0.672160 0.370230
vt 0.640280 0.335460
vt 0.661130 0.321230
vt 0.706180 0.370690
vt 0.683650 0.345960
vt 0.703600 0.341200
vt 0.694820 0.321730
vt 0.680450 0.314370
vt 0.713060 0.284940
vt 0.694030 0.263630
vt 0.732100 0.306250
vt 0.618880 0.348710
vt 0.658980 0.393610
vt 0.699080 0.438520
vt 0.676650 0.289600
vt 0.657620 0.311150
vt 0.684850 0.341640
vt 0.720440 0.338630
vt 0.698540 0.314110
vt 0.671740 0.367980
vt 0.705470 0.405760
vt 0.712080 0.372130
vt 0.638000 0.330200
vt 0.724350 0.262270
vt 0.742160 0.282210
vt 0.745740 0.273750
vt 0.710930 0.234760
vt 0.706530 0.242320
vt 0.728340 0.254250
vt 0.646410 0.418880
vt 0.600520 0.367490
vt 0.583180 0.387390
vt 0.692300 0.470260
vt 0.633840 0.444120
vt 0.627710 0.456750
vt 0.680220 0.516080
vt 0.684500 0.500850
vt 0.575200 0.397420
vt 0.584870 0.386560
vt 0.634420 0.444180
vt 0.647390 0.419200
vt 0.691550 0.471560
vt 0.683980 0.501800
vt 0.603240 0.366830
vt 0.621340 0.350230
vt 0.698710 0.438960
vt 0.704050 0.405000
vt 0.660020 0.394600
vt 0.640280 0.335460
vt 0.672160 0.370230
vt 0.661130 0.321230
vt 0.706180 0.370690
vt 0.703600 0.341200
vt 0.683650 0.345960
vt 0.680450 0.314370
vt 0.694820 0.321730
vt 0.694030 0.263630
vt 0.713060 0.284940
vt 0.732100 0.306250
vt 0.618880 0.348710
vt 0.658980 0.393610
vt 0.699080 0.438520
vt 0.684850 0.341640
vt 0.657620 0.311150
vt 0.676650 0.289600
vt 0.698540 0.314110
vt 0.720440 0.338630
vt 0.712080 0.372130
vt 0.705470 0.405760
vt 0.671740 0.367980
vt 0.638000 0.330200
vt 0.745740 0.273750
vt 0.742160 0.282210
vt 0.724350 0.262270
vt 0.706530 0.242320
vt 0.710930 0.234760
vt 0.728340 0.254250
vt 0.715530 0.239120
vt 0.728680 0.253570
vt 0.741650 0.268360
vt 0.633840 0.444120
vt 0.583180 0.387390
vt 0.600520 0.367490
vt 0.646410 0.418880
vt 0.692300 0.470260
vt 0.684500 0.500850
vt 0.680220 0.516080
vt 0.627710 0.456750
vt 0.575200 0.397420
vt 0.634420 0.444180
vt 0.584870 0.386560
vt 0.683980 0.501800
vt 0.691550 0.471560
vt 0.647390 0.419200
vt 0.603240 0.366830
vt 0.621340 0.350230
vt 0.698710 0.438960
vt 0.660020 0.394600
vt 0.704050 0.405000
vt 0.672160 0.370230
vt 0.640280 0.335460
vt 0.661130 0.321230
vt 0.706180 0.370690
vt 0.683650 0.345960
vt 0.703600 0.341200
vt 0.694820 0.321730
vt 0.680450 0.314370
vt 0.713060 0.284940
vt 0.694030 0.263630
vt 0.732100 0.306250
vt 0.658980 0.393610
vt 0.618880 0.348710
vt 0.699080 0.438520
vt 0.676650 0.289600
vt 0.657620 0.311150
vt 0.684850 0.341640
vt 0.720440 0.338630
vt 0.698540 0.314110
vt 0.671740 0.367980
vt 0.705470 0.405760
vt 0.712080 0.372130
vt 0.638000 0.330200
vt 0.724350 0.262270
vt 0.742160 0.282210
vt 0.745740 0.273750
vt 0.710930 0.234760
vt 0.706530 0.242320
vt 0.728340 0.254250
vt 0.600520 0.367490
vt 0.583180 0.387390
vt 0.633840 0.444120
vt 0.692300 0.470260
vt 0.646410 0.418880
vt 0.627710 0.456750
vt 0.680220 0.516080
vt 0.684500 0.500850
vt 0.575200 0.397420
vt 0.584870 0.386560
vt 0.634420 0.444180
vt 0.691550 0.471560
vt 0.683980 0.501800
vt 0.603240 0.366830
vt 0.647390 0.419200
vt 0.621340 0.350230
vt 0.698710 0.438960
vt 0.704050 0.405000
vt 0.660020 0.394600
vt 0.640280 0.335460
vt 0.672160 0.370230
vt 0.661130 0.321230
vt 0.706180 0.370690
vt 0.703600 0.341200
vt 0.683650 0.345960
vt 0.680450 0.314370
vt 0.694820 0.321730
vt 0.694030 0.263630
vt 0.713060 0.284940
vt 0.732100 0.306250
vt 0.618880 0.348710
vt 0.658980 0.393610
vt 0.699080 0.438520
vt 0.684850 0.341640
vt 0.657620 0.311150
vt 0.676650 0.289600
vt 0.698540 0.314110
vt 0.720440 0.338630
vt 0.712080 0.372130
vt 0.705470 0.405760
vt 0.671740 0.367980
vt 0.638000 0.330200
vt 0.745740 0.273750
vt 0.742160 0.282210
vt 0.724350 0.262270
vt 0.706530 0.242320
vt 0.710930 0.234760
vt 0.728340 0.254250
vt 0.715530 0.239120
vt 0.728680 0.253570
vt 0.741650 0.268360
vt 0.633840 0.444120
vt 0.583180 0.387390
vt 0.600520 0.367490
vt 0.646410 0.418880
vt 0.692300 0.470260
vt 0.684500 0.500850
vt 0.680220 0.516080
vt 0.627710 0.456750
vt 0.575200 0.397420
vt 0.634420 0.444180
vt 0.584870 0.386560
vt 0.683980 0.501800
vt 0.691550 0.471560
vt 0.647390 0.419200
vt 0.603240 0.366830
vt 0.660020 0.394600
vt 0.621340 0.350230
vt 0.698710 0.438960
vt 0.704050 0.405000
vt 0.672160 0.370230
vt 0.640280 0.335460
vt 0.683650 0.345960
vt 0.661130 0.321230
vt 0.706180 0.370690
vt 0.703600 0.341200
vt 0.694820 0.321730
vt 0.680450 0.314370
vt 0.713060 0.284940
vt 0.694030 0.263630
vt 0.732100 0.306250
vt 0.658980 0.393610
vt 0.618880 0.348710
vt 0.699080 0.438520
vt 0.676650 0.289600
vt 0.657620 0.311150
vt 0.684850 0.341640
vt 0.712080 0.372130
vt 0.720440 0.338630
vt 0.698540 0.314110
vt 0.705470 0.405760
vt 0.638000 0.330200
vt 0.671740 0.367980
vt 0.724350 0.262270
vt 0.742160 0.282210
vt 0.745740 0.273750
vt 0.710930 0.234760
vt 0.706530 0.242320
vt 0.728340 0.254250
vt 0.600520 0.367490
vt 0.583180 0.387390
vt 0.633840 0.444120
vt 0.684500 0.500850
vt 0.692300 0.470260
vt 0.646410 0.418880
vt 0.680220 0.516080
vt 0.575200 0.397420
vt 0.627710 0.456750
vt 0.584870 0.386560
vt 0.634420 0.444180
vt 0.683980 0.501800
vt 0.691550 0.471560
vt 0.603240 0.366830
vt 0.647390 0.419200
vt 0.621340 0.350230
vt 0.660020 0.394600
vt 0.698710 0.438960
vt 0.704050 0.405000
vt 0.640280 0.335460
vt 0.672160 0.370230
vt 0.661130 0.321230
vt 0.683650 0.345960
vt 0.706180 0.370690
vt 0.703600 0.341200
vt 0.680450 0.314370
vt 0.694820 0.321730
vt 0.694030 0.263630
vt 0.713060 0.284940
vt 0.732100 0.306250
vt 0.618880 0.348710
vt 0.658980 0.393610
vt 0.699080 0.438520
vt 0.684850 0.341640
vt 0.657620 0.311150
vt 0.676650 0.289600
vt 0.698540 0.314110
vt 0.720440 0.338630
vt 0.712080 0.372130
vt 0.705470 0.405760
vt 0.671740 0.367980
vt 0.638000 0.330200
vt 0.745740 0.273750
vt 0.742160 0.282210
vt 0.724350 0.262270
vt 0.706530 0.242320
vt 0.710930 0.234760
vt 0.728340 0.254250
vt 0.715530 0.239120
vt 0.728680 0.253570
vt 0.741650 0.268360
vt 0.583180 0.387390
vt 0.600520 0.367490
vt 0.646410 0.418880
vt 0.633840 0.444120
vt 0.692300 0.470260
vt 0.684500 0.500850
vt 0.680220 0.516080
vt 0.627710 0.456750
vt 0.575200 0.397420
vt 0.584870 0.386560
vt 0.634420 0.444180
vt 0.683980 0.501800
vt 0.691550 0.471560
vt 0.647390 0.419200
vt 0.603240 0.366830
vt 0.621340 0.350230
vt 0.698710 0.438960
vt 0.660020 0.394600
vt 0.704050 0.405000
vt 0.672160 0.370230
vt 0.640280 0.335460
vt 0.661130 0.321230
vt 0.706180 0.370690
vt 0.683650 0.345960
vt 0.703600 0.341200
vt 0.694820 0.321730
vt 0.680450 0.314370
vt 0.713060 0.284940
vt 0.694030 0.263630
vt 0.732100 0.306250
vt 0.618880 0.348710
vt 0.658980 0.393610
vt 0.699080 0.438520
vt 0.676650 0.289600
vt 0.657620 0.311150
vt 0.684850 0.341640
vt 0.720440 0.338630
vt 0.698540 0.314110
vt 0.671740 0.367980
vt 0.705470 0.405760
vt 0.712080 0.372130
vt 0.638000 0.330200
vt 0.724350 0.262270
vt 0.742160 0.282210
vt 0.745740 0.273750
vt 0.710930 0.234760
vt 0.706530 0.242320
vt 0.728340 0.254250
vt 0.646410 0.418880
vt 0.600520 0.367490
vt 0.583180 0.387390
vt 0.692300 0.470260
vt 0.633840 0.444120
vt 0.627710 0.456750
vt 0.680220 0.516080
vt 0.684500 0.500850
vt 0.575200 0.397420
vt 0.584870 0.386560
vt 0.634420 0.444180
vt 0.647390 0.419200
vt 0.691550 0.471560
vt 0.683980 0.501800
vt 0.603240 0.366830
vt 0.621340 0.350230
vt 0.698710 0.438960
vt 0.704050 0.405000
vt 0.660020 0.394600
vt 0.640280 0.335460
vt 0.672160 0.370230
vt 0.661130 0.321230
vt 0.706180 0.370690
vt 0.703600 0.341200
vt 0.683650 0.345960
vt 0.680450 0.314370
vt 0.694820 0.321730
vt 0.694030 0.263630
vt 0.713060 0.284940
vt 0.732100 0.306250
vt 0.618880 0.348710
vt 0.658980 0.393610
vt 0.699080 0.438520
vt 0.684850 0.341640
vt 0.657620 0.311150
vt 0.676650 0.289600
vt 0.698540 0.314110
vt 0.720440 0.338630
vt 0.712080 0.372130
vt 0.705470 0.405760
vt 0.671740 0.367980
vt 0.638000 0.330200
vt 0.745740 0.273750
vt 0.742160 0.282210
vt 0.724350 0.262270
vt 0.706530 0.242320
vt 0.710930 0.234760
vt 0.728340 0.254250
vt 0.715530 0.239120
vt 0.728680 0.253570
vt 0.741650 0.268360
vt 0.633840 0.444120
vt 0.583180 0.387390
vt 0.600520 0.367490
vt 0.646410 0.418880
vt 0.692300 0.470260
vt 0.684500 0.500850
vt 0.680220 0.516080
vt 0.627710 0.456750
vt 0.575200 0.397420
vt 0.634420 0.444180
vt 0.584870 0.386560
vt 0.683980 0.501800
vt 0.691550 0.471560
vt 0.647390 0.419200
vt 0.603240 0.366830
vt 0.621340 0.350230
vt 0.698710 0.438960
vt 0.660020 0.394600
vt 0.704050 0.405000
vt 0.672160 0.370230
vt 0.640280 0.335460
vt 0.661130 0.321230
vt 0.706180 0.370690
vt 0.683650 0.345960
vt 0.703600 0.341200
vt 0.694820 0.321730
vt 0.680450 0.314370
vt 0.713060 0.284940
vt 0.694030 0.263630
vt 0.732100 0.306250
vt 0.658980 0.393610
vt 0.618880 0.348710
vt 0.699080 0.438520
vt 0.676650 0.289600
vt 0.657620 0.311150
vt 0.684850 0.341640
vt 0.720440 0.338630
vt 0.698540 0.314110
vt 0.671740 0.367980
vt 0.705470 0.405760
vt 0.712080 0.372130
vt 0.638000 0.330200
vt 0.724350 0.262270
vt 0.742160 0.282210
vt 0.745740 0.273750
vt 0.710930 0.234760
vt 0.706530 0.242320
vt 0.728340 0.254250
vt 0.600520 0.367490
vt 0.583180 0.387390
vt 0.633840 0.444120
vt 0.692300 0.470260
vt 0.646410 0.418880
vt 0.627710 0.456750
vt 0.680220 0.516080
vt 0.684500 0.500850
vt 0.575200 0.397420
vt 0.584870 0.386560
vt 0.634420 0.444180
vt 0.691550 0.471560
vt 0.683980 0.501800
vt 0.603240 0.366830
vt 0.647390 0.419200
vt 0.621340 0.350230
vt 0.698710 0.438960
vt 0.704050 0.405000
vt 0.660020 0.394600
vt 0.640280 0.335460
vt 0.672160 0.370230
vt 0.661130 0.321230
vt 0.706180 0.370690
vt 0.703600 0.341200
vt 0.683650 0.345960
vt 0.680450 0.314370
vt 0.694820 0.321730
vt 0.694030 0.263630
vt 0.713060 0.284940
vt 0.732100 0.306250
vt 0.618880 0.348710
vt 0.658980 0.393610
vt 0.699080 0.438520
vn 0.3629 0.7492 0.5541
vn -0.3144 0.5167 0.7964
vn -0.2979 0.4768 0.8270
vn 0.3859 0.7006 0.6002
vn 0.9057 0.3985 0.1445
vn 0.8918 0.4382 0.1124
vn 0.8690 0.4913 0.0582
vn 0.3331 0.8022 0.4955
vn -0.3439 0.5702 0.7460
vn 0.8779 -0.1047 0.4673
vn 0.9191 0.3620 0.1557
vn 0.4041 0.6561 0.6374
vn -0.2991 0.4391 0.8472
vn -0.0569 -0.0439 0.9974
vn 0.2014 0.4043 0.8922
vn 0.2690 0.9552 -0.1231
vn 0.0000 0.0000 1.0000
vn -0.6027 0.7629 0.2339
vn 0.1940 0.9530 0.2329
vn -0.4508 0.7125 0.5377
vn -0.4041 0.6774 0.6147
vn 0.2481 0.9096 0.3332
vn 0.7979 0.5991 -0.0668
vn 0.7591 0.6339 -0.1485
vn 0.7270 0.6496 -0.2226
vn 0.1531 0.9755 0.1581
vn -0.4964 0.7291 0.4711
vn 0.1550 0.9746 0.1614
vn -0.5235 0.7209 0.4542
vn 0.7256 0.6396 -0.2540
vn 0.7475 0.6164 -0.2478
vn 0.2152 0.9379 0.2719
vn -0.5316 0.6996 0.4774
vn -0.4911 0.7028 0.5146
vn 0.7590 0.6215 -0.1943
vn 0.2962 0.8558 0.4242
vn 0.7668 0.6286 -0.1302
vn 0.3524 0.7691 0.5332
vn -0.4396 0.7071 0.5539
vn -0.4108 0.7211 0.5579
vn 0.7569 0.6451 -0.1042
vn 0.3855 0.7015 0.5994
vn 0.6275 0.7610 -0.1647
vn -0.0031 0.9928 -0.1194
vn -0.3853 0.8269 0.4096
vn 0.3999 0.6669 0.6287
vn -0.2963 0.4497 0.8426
vn 0.9156 0.3709 0.1553
vn 0.2952 0.8570 0.4223
vn -0.3737 0.6290 0.6817
vn 0.8349 0.5503 -0.0037
vn -0.8551 -0.5182 -0.0124
vn -0.8390 -0.5435 0.0276
vn -0.3630 -0.7491 -0.5542
vn 0.3734 -0.5981 -0.7091
vn -0.3860 -0.7005 -0.6003
vn -0.3332 -0.8021 -0.4956
vn 0.4203 -0.6402 -0.6430
vn 0.3969 -0.6240 -0.6732
vn -0.8266 -0.5591 0.0641
vn -0.4041 -0.6560 -0.6374
vn 0.3485 -0.5679 -0.7457
vn 0.4058 -0.8709 -0.2771
vn -0.5289 -0.8101 0.2529
vn -0.8708 -0.4886 -0.0542
vn 0.4101 -0.4762 0.7779
vn -0.0828 -0.9961 -0.0317
vn 0.4783 0.3560 0.8028
vn -0.7762 -0.6095 0.1611
vn -0.7451 -0.6272 0.2270
vn -0.1939 -0.9530 -0.2327
vn 0.4727 -0.6907 -0.5472
vn -0.2481 -0.9096 -0.3332
vn -0.1530 -0.9755 -0.1579
vn 0.5216 -0.7247 -0.4502
vn 0.5116 -0.7089 -0.4856
vn -0.7215 -0.6439 0.2548
vn -0.7296 -0.6469 0.2220
vn -0.1551 -0.9746 -0.1617
vn 0.4212 -0.6855 -0.5939
vn 0.4975 -0.7267 -0.4737
vn -0.7895 -0.6067 0.0927
vn -0.2153 -0.9379 -0.2722
vn -0.8621 -0.5015 -0.0726
vn 0.3271 -0.5789 -0.7469
vn 0.2622 -0.4605 -0.8480
vn -0.2961 -0.8559 -0.4239
vn -0.9040 -0.3847 -0.1868
vn -0.3523 -0.7693 -0.5329
vn -0.9259 -0.2671 -0.2670
vn 0.2163 -0.3414 -0.9147
vn 0.1012 -0.1276 -0.9866
vn -0.3854 -0.7017 -0.5992
vn -0.9080 -0.0619 -0.4144
vn -0.4739 0.1971 -0.8582
vn -0.8676 -0.4955 -0.0424
vn -0.4000 -0.6668 -0.6288
vn 0.3563 -0.5751 -0.7364
vn -0.8083 -0.5799 0.1021
vn -0.2953 -0.8569 -0.4224
vn 0.4415 -0.6612 -0.6066
vn 0.3515 0.6988 0.6230
vn -0.3443 0.4667 0.8146
vn -0.3161 0.4497 0.8354
vn 0.3800 0.6712 0.6365
vn 0.9101 0.3764 0.1734
vn 0.8975 0.4057 0.1730
vn 0.8757 0.4539 0.1645
vn 0.3108 0.7326 0.6056
vn -0.3900 0.4928 0.7779
vn 0.8771 -0.1186 0.4654
vn 0.9213 0.3527 0.1639
vn 0.4049 0.6474 0.6457
vn -0.3017 0.4346 0.8486
vn -0.0573 -0.0517 0.9970
vn 0.2453 0.4782 0.8433
vn 0.7449 0.5791 -0.3312
vn 0.6478 -0.7100 -0.2761
vn -0.6008 0.4827 0.6372
vn -0.5060 0.5114 0.6946
vn 0.1787 0.7960 0.5783
vn 0.0402 0.8429 0.5366
vn 0.8090 0.5543 0.1959
vn 0.7097 0.6781 0.1913
vn 0.5400 0.8321 0.1264
vn -0.1541 0.8707 0.4670
vn -0.7226 0.3902 0.5706
vn -0.8145 0.2671 0.5150
vn -0.3419 0.8468 0.4075
vn 0.3291 0.9432 0.0446
vn 0.0860 0.9733 -0.2130
vn -0.5170 0.8230 0.2351
vn -0.8987 0.1996 0.3905
vn -0.9570 0.2111 0.1990
vn -0.0395 0.8212 -0.5693
vn -0.5884 0.8077 -0.0374
vn 0.0561 0.6518 -0.7563
vn -0.5062 0.8429 -0.1823
vn -0.9571 0.2867 0.0429
vn -0.9303 0.3549 -0.0932
vn 0.1043 0.5901 -0.8006
vn -0.3872 0.8979 -0.2094
vn -0.0324 0.4832 -0.8749
vn -0.5401 0.2826 -0.7928
vn -0.8784 0.3280 -0.3477
vn 0.3973 0.6534 0.6444
vn -0.3051 0.4386 0.8453
vn 0.9177 0.3599 0.1683
vn -0.4422 0.5164 0.7334
vn 0.2553 0.7673 0.5883
vn 0.8460 0.5071 0.1649
vn -0.8561 -0.5145 -0.0494
vn -0.8406 -0.5402 -0.0401
vn -0.3516 -0.6988 -0.6230
vn 0.3722 -0.5627 -0.7381
vn -0.3800 -0.6712 -0.6365
vn -0.3108 -0.7326 -0.6055
vn 0.4330 -0.5513 -0.7132
vn 0.3996 -0.5627 -0.7237
vn -0.8242 -0.5648 -0.0405
vn -0.4049 -0.6473 -0.6458
vn 0.3474 -0.5573 -0.7541
vn 0.3993 -0.8698 -0.2897
vn -0.5324 -0.8093 0.2482
vn -0.8716 -0.4865 -0.0607
vn 0.4078 -0.4852 0.7735
vn -0.0874 -0.9953 -0.0424
vn 0.4053 -0.4932 0.7697
vn 0.4801 0.3505 0.8042
vn -0.1790 -0.7960 -0.5782
vn -0.7337 -0.6777 -0.0486
vn -0.6228 -0.7822 -0.0155
vn 0.5135 -0.5098 -0.6902
vn -0.0406 -0.8425 -0.5371
vn 0.1540 -0.8705 -0.4674
vn 0.7246 -0.3238 -0.6083
vn 0.6371 -0.4331 -0.6376
vn -0.4497 -0.8930 0.0167
vn -0.3015 -0.9531 0.0249
vn 0.3414 -0.8465 -0.4085
vn 0.5174 -0.8227 -0.2354
vn 0.7983 -0.0905 -0.5954
vn 0.7804 -0.1952 -0.5940
vn -0.2175 -0.9738 0.0661
vn -0.2103 -0.9660 0.1507
vn 0.8177 -0.2575 -0.5148
vn 0.8020 -0.4597 -0.3813
vn 0.5891 -0.8071 0.0399
vn -0.2975 -0.9342 0.1969
vn 0.5060 -0.8429 0.1829
vn -0.4156 -0.8987 0.1397
vn 0.6660 -0.6041 -0.4375
vn 0.4245 -0.7143 -0.5564
vn 0.3873 -0.8979 0.2091
vn -0.4496 -0.8887 -0.0900
vn -0.1114 -0.8370 -0.5358
vn -0.8676 -0.4938 -0.0581
vn -0.3973 -0.6533 -0.6445
vn 0.3558 -0.5580 -0.7497
vn -0.7937 -0.6064 -0.0477
vn -0.2552 -0.7674 -0.5882
vn 0.4656 -0.5349 -0.7051
vn 0.3630 0.7491 0.5541
vn 0.3331 0.8022 0.4954
vn 0.9199 0.3599 0.1560
vn 0.4041 0.6560 0.6374
vn -0.2991 0.4392 0.8472
vn -0.0569 -0.0438 0.9974
vn 0.2333 0.3680 0.9001
vn 0.2478 0.9573 0.1491
vn 0.1111 0.9828 -0.1476
vn 0.1940 0.9530 0.2328
vn -0.4508 0.7125 0.5376
vn -0.4041 0.6773 0.6147
vn 0.7978 0.5991 -0.0669
vn 0.7591 0.6338 -0.1485
vn -0.4964 0.7292 0.4711
vn 0.1549 0.9746 0.1615
vn -0.5235 0.7208 0.4542
vn 0.7255 0.6396 -0.2541
vn 0.7474 0.6164 -0.2478
vn -0.5316 0.6996 0.4775
vn 0.7589 0.6215 -0.1942
vn 0.7667 0.6286 -0.1302
vn 0.9156 0.3709 0.1554
vn -0.3737 0.6289 0.6817
vn -0.8389 -0.5435 0.0276
vn 0.3734 -0.5982 -0.7091
vn 0.4204 -0.6402 -0.6430
vn 0.3969 -0.6239 -0.6732
vn -0.4041 -0.6560 -0.6375
vn 0.3485 -0.5679 -0.7456
vn 0.4059 -0.8709 -0.2772
vn -0.8708 -0.4886 -0.0543
vn 0.4784 0.3560 0.8027
vn -0.7763 -0.6095 0.1611
vn -0.1530 -0.9755 -0.1580
vn -0.7296 -0.6468 0.2221
vn 0.4975 -0.7266 -0.4738
vn -0.9040 -0.3847 -0.1867
vn -0.3523 -0.7693 -0.5330
vn -0.9260 -0.2671 -0.2670
vn -0.9080 -0.0620 -0.4144
vn -0.4738 0.1971 -0.8583
vn -0.2953 -0.8569 -0.4225
vn 0.3939 0.7470 0.5356
vn -0.2451 0.4755 0.8449
vn -0.2581 0.4475 0.8562
vn 0.3994 0.6998 0.5923
vn 0.8994 0.4279 0.0890
vn 0.8782 0.4781 0.0151
vn 0.8491 0.5214 -0.0844
vn 0.3928 0.7965 0.4597
vn -0.2387 0.5328 0.8119
vn 0.8829 -0.0990 0.4589
vn 0.9166 0.3739 0.1418
vn 0.4054 0.6560 0.6366
vn -0.2904 0.4261 0.8568
vn -0.0486 -0.0496 0.9976
vn 0.1860 0.5152 0.8366
vn -0.8721 0.4830 0.0778
vn 0.7041 -0.3760 0.6024
vn 0.4422 0.8925 0.0887
vn -0.1515 0.7789 0.6085
vn -0.1852 0.6908 0.6989
vn 0.4085 0.8812 0.2379
vn 0.7861 0.5287 -0.3201
vn 0.7544 0.4447 -0.4829
vn 0.7132 0.2675 -0.6479
vn 0.5466 0.8320 -0.0951
vn -0.0170 0.8799 0.4749
vn 0.7263 0.6352 -0.2627
vn 0.2095 0.9265 0.3125
vn 0.7109 -0.0467 -0.7017
vn 0.7339 -0.3872 -0.5581
vn 0.8983 0.3752 -0.2286
vn 0.3595 0.9209 0.1506
vn 0.9808 0.1947 -0.0104
vn 0.4970 0.8674 0.0248
vn 0.7666 -0.5389 -0.3492
vn 0.7694 -0.5877 -0.2500
vn 0.9823 0.0796 0.1697
vn 0.6283 0.7756 0.0599
vn 0.9652 -0.0597 0.2547
vn 0.7213 0.6852 0.1010
vn 0.7185 -0.6363 -0.2807
vn 0.6679 -0.6389 -0.3818
vn 0.7863 -0.1928 -0.5871
vn 0.8332 0.4984 -0.2395
vn 0.4046 0.6666 0.6261
vn -0.2790 0.4330 0.8571
vn 0.9124 0.3879 0.1302
vn 0.3972 0.8436 0.3613
vn -0.2209 0.6102 0.7608
vn 0.8149 0.5446 -0.1985
vn -0.8403 -0.5420 0.0111
vn -0.8209 -0.5659 0.0768
vn -0.3939 -0.7470 -0.5356
vn 0.3531 -0.5899 -0.7262
vn 0.3586 -0.5686 -0.7403
vn -0.3993 -0.6997 -0.5924
vn 0.3341 -0.6217 -0.7084
vn -0.8159 -0.5608 0.1408
vn -0.3926 -0.7965 -0.4598
vn -0.4053 -0.6561 -0.6367
vn 0.3440 -0.5565 -0.7563
vn 0.4132 -0.8658 -0.2822
vn -0.5221 -0.8155 0.2498
vn -0.8654 -0.4991 -0.0454
vn 0.4093 -0.4779 0.7772
vn -0.0832 -0.9960 -0.0313
vn 0.4105 -0.4741 0.7789
vn 0.4779 0.3561 0.8030
vn -0.8110 -0.5078 0.2906
vn -0.8325 -0.4103 0.3724
vn -0.4422 -0.8925 -0.0888
vn 0.2004 -0.8383 -0.5070
vn 0.2664 -0.7585 -0.5948
vn -0.4082 -0.8814 -0.2376
vn 0.0385 -0.9345 -0.3538
vn -0.8714 -0.2274 0.4346
vn -0.5472 -0.8316 0.0948
vn -0.8710 0.0793 0.4849
vn -0.7275 -0.6342 0.2616
vn -0.1988 -0.9742 -0.1072
vn -0.4741 -0.8805 -0.0070
vn -0.8608 0.3973 0.3182
vn -0.8986 -0.3748 0.2279
vn -0.8268 0.5624 -0.0128
vn -0.9807 -0.1953 0.0112
vn -0.6056 -0.7717 -0.1944
vn -0.6120 -0.6878 -0.3904
vn -0.7418 0.6300 -0.2299
vn -0.9824 -0.0799 -0.1686
vn -0.5939 0.7348 -0.3277
vn -0.9654 0.0598 -0.2539
vn -0.6422 -0.5668 -0.5161
vn -0.6334 -0.4149 -0.6532
vn -0.2932 0.6602 -0.6914
vn -0.3823 -0.0805 -0.9205
vn -0.8596 -0.5101 -0.0312
vn -0.4045 -0.6666 -0.6261
vn 0.3509 -0.5585 -0.7516
vn -0.8158 -0.5405 0.2057
vn -0.3970 -0.8437 -0.3613
vn 0.3021 -0.6769 -0.6712
vn -0.3444 0.4666 0.8147
vn 0.3799 0.6712 0.6365
vn 0.9095 0.3771 0.1750
vn 0.8975 0.4057 0.1729
vn 0.8758 0.4539 0.1645
vn 0.3109 0.7326 0.6056
vn -0.3900 0.4927 0.7779
vn 0.8771 -0.1187 0.4654
vn -0.0574 -0.0492 0.9971
vn 0.1239 0.4606 0.8789
vn 0.0213 0.9572 0.2885
vn 0.1389 0.9900 -0.0243
vn 0.0402 0.8428 0.5367
vn 0.8090 0.5543 0.1958
vn 0.7096 0.6781 0.1913
vn -0.7226 0.3902 0.5707
vn -0.8146 0.2670 0.5150
vn -0.3419 0.8468 0.4074
vn 0.3292 0.9432 0.0445
vn -0.8987 0.1995 0.3905
vn -0.9570 0.2111 0.1991
vn -0.0396 0.8212 -0.5693
vn 0.0560 0.6518 -0.7563
vn -0.5062 0.8429 -0.1824
vn -0.9303 0.3548 -0.0932
vn 0.1043 0.5901 -0.8005
vn -0.3871 0.8979 -0.2094
vn -0.0325 0.4832 -0.8749
vn -0.5401 0.2825 -0.7928
vn -0.8784 0.3279 -0.3477
vn -0.3052 0.4387 0.8452
vn 0.9176 0.3600 0.1683
vn 0.8460 0.5071 0.1648
vn -0.8561 -0.5145 -0.0493
vn -0.8405 -0.5403 -0.0400
vn -0.3515 -0.6987 -0.6231
vn -0.3800 -0.6713 -0.6364
vn -0.3109 -0.7326 -0.6055
vn 0.4329 -0.5513 -0.7132
vn 0.3996 -0.5626 -0.7237
vn -0.8241 -0.5649 -0.0405
vn 0.3475 -0.5573 -0.7541
vn -0.5323 -0.8093 0.2483
vn -0.8715 -0.4865 -0.0608
vn -0.0874 -0.9953 -0.0425
vn 0.4052 -0.4930 0.7699
vn 0.4801 0.3504 0.8042
vn -0.7337 -0.6777 -0.0487
vn 0.5136 -0.5098 -0.6902
vn -0.0407 -0.8425 -0.5371
vn 0.7246 -0.3239 -0.6083
vn -0.4498 -0.8930 0.0168
vn -0.3015 -0.9531 0.0250
vn 0.5174 -0.8227 -0.2353
vn 0.7983 -0.0906 -0.5954
vn 0.7804 -0.1953 -0.5940
vn 0.8020 -0.4597 -0.3814
vn 0.5890 -0.8071 0.0400
vn -0.2974 -0.9342 0.1968
vn -0.4157 -0.8987 0.1396
vn 0.6661 -0.6042 -0.4374
vn 0.4245 -0.7143 -0.5565
vn -0.4496 -0.8887 -0.0901
vn -0.8676 -0.4938 -0.0582
vn -0.3974 -0.6534 -0.6444
vn 0.3558 -0.5581 -0.7497
vn -0.7938 -0.6064 -0.0477
vn 0.4656 -0.5349 -0.7050
vn 0.3671 0.7410 0.5623
vn -0.3127 0.5105 0.8010
vn -0.2968 0.4717 0.8303
vn 0.3889 0.6936 0.6063
vn 0.9075 0.3934 0.1474
vn 0.8943 0.4319 0.1166
vn 0.8727 0.4840 0.0647
vn 0.3387 0.7929 0.5065
vn -0.3410 0.5629 0.7529
vn 0.8775 -0.1109 0.4666
vn 0.9210 0.3560 0.1582
vn 0.4064 0.6502 0.6419
vn -0.2981 0.4352 0.8495
vn -0.0580 -0.0501 0.9971
vn 0.1960 0.3412 0.9193
vn 0.3129 0.9400 0.1358
vn 0.9788 -0.0263 -0.2030
vn 0.1685 0.9680 0.1862
vn -0.4519 0.7407 0.4972
vn -0.3970 0.6689 0.6285
vn 0.2586 0.8993 0.3528
vn 0.8052 0.5907 -0.0532
vn 0.7277 0.6640 -0.1718
vn 0.6425 0.6842 -0.3450
vn 0.0514 0.9984 -0.0239
vn -0.5547 0.7621 0.3339
vn -0.0244 0.9874 -0.1564
vn -0.6335 0.7410 0.2226
vn 0.5853 0.6618 -0.4685
vn 0.5068 0.6187 -0.6003
vn -0.0924 0.9576 -0.2728
vn -0.7105 0.6979 0.0901
vn -0.7891 0.6103 -0.0694
vn 0.4019 0.5327 -0.7448
vn -0.1696 0.8997 -0.4023
vn 0.3169 0.4326 -0.8441
vn -0.2278 0.8369 -0.4977
vn -0.8408 0.5079 -0.1876
vn -0.8733 0.3990 -0.2797
vn 0.2441 0.3263 -0.9132
vn -0.2651 0.7866 -0.5576
vn 0.0788 0.1436 -0.9865
vn -0.4952 -0.0548 -0.8670
vn -0.8699 0.2052 -0.4486
vn 0.4022 0.6609 0.6336
vn -0.2954 0.4455 0.8451
vn 0.9169 0.3665 0.1577
vn 0.3029 0.8469 0.4371
vn -0.3692 0.6208 0.6916
vn 0.8404 0.5420 0.0057
vn -0.8579 -0.5135 -0.0181
vn -0.8426 -0.5381 0.0201
vn -0.3671 -0.7409 -0.5624
vn 0.3704 -0.5934 -0.7146
vn -0.3890 -0.6935 -0.6064
vn -0.3388 -0.7928 -0.5066
vn 0.4152 -0.6343 -0.6521
vn 0.3929 -0.6185 -0.6805
vn -0.8312 -0.5532 0.0548
vn -0.4064 -0.6502 -0.6419
vn 0.3465 -0.5638 -0.7497
vn 0.4030 -0.8704 -0.2830
vn -0.5325 -0.8095 0.2474
vn -0.8729 -0.4845 -0.0583
vn 0.4074 -0.4846 0.7741
vn -0.0865 -0.9955 -0.0383
vn 0.4788 0.3524 0.8041
vn -0.7841 -0.6035 0.1450
vn -0.7395 -0.6140 0.2758
vn -0.1690 -0.9677 -0.1870
vn 0.4636 -0.6846 -0.5624
vn -0.2594 -0.8984 -0.3543
vn -0.0509 -0.9984 0.0248
vn 0.6093 -0.7212 -0.3295
vn 0.5517 -0.6980 -0.4564
vn -0.6624 -0.6386 0.3917
vn -0.6198 -0.6417 0.4518
vn 0.0245 -0.9874 0.1565
vn 0.6569 -0.7117 -0.2489
vn 0.6387 -0.7236 -0.2618
vn -0.6169 -0.6288 0.4733
vn 0.0923 -0.9576 0.2728
vn -0.5905 -0.6456 0.4842
vn 0.6512 -0.7264 -0.2198
vn 0.6409 -0.7475 -0.1747
vn 0.1697 -0.8996 0.4025
vn -0.5486 -0.6702 0.4998
vn 0.2279 -0.8368 0.4979
vn -0.5260 -0.7001 0.4829
vn 0.6118 -0.7741 -0.1624
vn 0.4493 -0.8656 -0.2212
vn 0.2652 -0.7865 0.5578
vn -0.5026 -0.8037 0.3187
vn -0.1585 -0.9730 -0.1680
vn -0.8698 -0.4912 -0.0469
vn -0.4023 -0.6608 -0.6336
vn 0.3541 -0.5707 -0.7409
vn -0.8140 -0.5738 0.0903
vn -0.3030 -0.8468 -0.4372
vn 0.4349 -0.6551 -0.6178
usemtl mat5.004
s 1
f 1/1/1 2/2/2 3/3/3
f 1/1/1 4/4/4 5/5/5
f 6/6/6 7/7/7 8/8/8
f 8/8/8 9/9/9 2/2/2
f 10/10/10 11/11/11 12/12/12
f 12/12/12 13/13/13 14/14/14
f 15/15/15 14/14/14 16/16/16
f 15/15/15 17/17/17 18/18/18
f 19/19/19 20/20/20 21/21/21
f 19/19/19 22/22/22 23/23/23
f 24/24/24 25/25/25 26/26/26
f 26/26/26 27/27/27 20/20/20
f 28/28/28 29/29/29 27/27/27
f 28/28/28 26/26/26 25/25/25
f 28/28/28 30/30/30 31/31/31
f 28/28/28 32/32/32 33/33/33
f 34/34/34 33/33/33 32/32/32
f 32/32/32 31/31/31 35/35/35
f 36/36/36 35/35/35 37/37/37
f 36/36/36 38/38/38 39/39/39
f 40/40/40 39/39/39 38/38/38
f 38/38/38 37/37/37 41/41/41
f 42/42/42 41/41/41 43/43/43
f 42/42/42 44/44/44 45/45/45
f 46/46/46 47/47/47 13/13/13
f 46/46/46 12/12/12 11/11/11
f 48/48/48 5/5/5 4/4/4
f 4/4/4 3/3/3 47/47/47
f 49/49/49 50/50/50 9/9/9
f 49/49/49 8/8/8 7/7/7
f 51/51/51 23/23/23 22/22/22
f 22/22/22 21/21/21 50/50/50
f 52/52/52 53/53/53 54/54/54
f 55/55/55 56/56/56 54/54/54
f 57/57/57 58/58/58 59/59/59
f 53/53/53 60/60/60 57/57/57
f 61/61/61 62/62/62 63/63/63
f 64/64/64 65/65/65 61/61/61
f 16/16/66 64/64/64 66/66/67
f 18/18/66 17/17/68 66/66/67
f 67/67/69 68/68/70 69/69/71
f 70/70/72 71/71/73 69/69/71
f 72/72/74 73/73/75 74/74/76
f 68/68/70 75/75/77 72/72/74
f 75/75/77 76/76/78 77/77/79
f 73/73/75 72/72/74 77/77/79
f 78/78/80 79/79/81 77/77/79
f 80/80/82 81/81/83 77/77/79
f 81/81/83 80/80/82 82/82/84
f 83/83/85 78/78/80 81/81/83
f 84/84/86 83/83/85 85/85/87
f 86/86/88 87/87/89 85/85/87
f 87/87/89 86/86/88 88/88/90
f 89/89/91 84/84/86 87/87/89
f 90/90/92 89/89/91 91/91/93
f 92/92/94 93/93/95 91/91/93
f 65/65/65 94/94/96 95/95/97
f 62/62/62 61/61/61 95/95/97
f 56/56/56 55/55/55 96/96/98
f 94/94/96 52/52/52 56/56/56
f 60/60/60 97/97/99 98/98/100
f 58/58/58 57/57/57 98/98/100
f 71/71/73 70/70/72 99/99/101
f 97/97/99 67/67/69 71/71/73
f 47/47/47 3/3/3 52/52/52
f 13/13/13 47/47/47 94/94/96
f 5/5/5 55/55/55 59/59/59
f 6/6/6 59/59/59 58/58/58
f 11/11/11 10/10/10 63/63/63
f 13/13/13 65/65/65 64/64/64
f 14/14/14 64/64/64 16/16/66
f 50/50/50 21/21/21 67/67/69
f 9/9/9 50/50/50 97/97/99
f 23/23/23 70/70/72 74/74/76
f 25/25/25 24/24/24 74/74/76
f 33/33/33 80/80/82 76/76/78
f 29/29/29 76/76/78 75/75/77
f 30/30/30 25/25/25 73/73/75
f 31/31/31 30/30/30 79/79/81
f 34/34/34 39/39/39 86/86/88
f 33/33/33 34/34/34 82/82/84
f 31/31/31 78/78/80 83/83/85
f 35/35/35 83/83/85 84/84/86
f 43/43/43 90/90/92 93/93/95
f 45/45/45 44/44/44 93/93/95
f 40/40/40 45/45/45 92/92/94
f 39/39/39 40/40/40 88/88/90
f 37/37/37 84/84/86 89/89/91
f 41/41/41 89/89/91 90/90/92
f 3/3/3 2/2/2 53/53/53
f 2/2/2 9/9/9 60/60/60
f 48/48/48 96/96/98 55/55/55
f 11/11/11 62/62/62 96/96/98
f 21/21/21 20/20/20 68/68/70
f 27/27/27 75/75/77 68/68/70
f 51/51/51 99/99/101 70/70/72
f 7/7/7 58/58/58 99/99/101
f 4/4/4 1/1/1 3/3/3
f 6/6/6 1/1/1 5/5/5
f 1/1/1 6/6/6 8/8/8
f 1/1/1 8/8/8 2/2/2
f 15/15/15 10/10/10 12/12/12
f 15/15/15 12/12/12 14/14/14
f 17/17/17 15/15/15 16/16/16
f 10/10/10 15/15/15 18/18/18
f 22/22/22 19/19/19 21/21/21
f 24/24/24 19/19/19 23/23/23
f 19/19/19 24/24/24 26/26/26
f 19/19/19 26/26/26 20/20/20
f 26/26/26 28/28/28 27/27/27
f 30/30/30 28/28/28 25/25/25
f 32/32/32 28/28/28 31/31/31
f 29/29/29 28/28/28 33/33/33
f 36/36/36 34/34/34 32/32/32
f 36/36/36 32/32/32 35/35/35
f 38/38/38 36/36/36 37/37/37
f 34/34/34 36/36/36 39/39/39
f 42/42/42 40/40/40 38/38/38
f 42/42/42 38/38/38 41/41/41
f 44/44/44 42/42/42 43/43/43
f 40/40/40 42/42/42 45/45/45
f 12/12/12 46/46/46 13/13/13
f 48/48/48 46/46/46 11/11/11
f 46/46/46 48/48/48 4/4/4
f 46/46/46 4/4/4 47/47/47
f 8/8/8 49/49/49 9/9/9
f 51/51/51 49/49/49 7/7/7
f 49/49/49 51/51/51 22/22/22
f 49/49/49 22/22/22 50/50/50
f 56/56/56 52/52/52 54/54/54
f 59/59/59 55/55/55 54/54/54
f 54/54/54 57/57/57 59/59/59
f 54/54/54 53/53/53 57/57/57
f 66/66/67 61/61/61 63/63/63
f 66/66/67 64/64/64 61/61/61
f 17/17/68 16/16/66 66/66/67
f 63/63/63 18/18/66 66/66/67
f 71/71/73 67/67/69 69/69/71
f 74/74/76 70/70/72 69/69/71
f 69/69/71 72/72/74 74/74/76
f 69/69/71 68/68/70 72/72/74
f 72/72/74 75/75/77 77/77/79
f 79/79/81 73/73/75 77/77/79
f 81/81/83 78/78/80 77/77/79
f 76/76/78 80/80/82 77/77/79
f 85/85/87 81/81/83 82/82/84
f 85/85/87 83/83/85 81/81/83
f 87/87/89 84/84/86 85/85/87
f 82/82/84 86/86/88 85/85/87
f 91/91/93 87/87/89 88/88/90
f 91/91/93 89/89/91 87/87/89
f 93/93/95 90/90/92 91/91/93
f 88/88/90 92/92/94 91/91/93
f 61/61/61 65/65/65 95/95/97
f 96/96/98 62/62/62 95/95/97
f 95/95/97 56/56/56 96/96/98
f 95/95/97 94/94/96 56/56/56
f 57/57/57 60/60/60 98/98/100
f 99/99/101 58/58/58 98/98/100
f 98/98/100 71/71/73 99/99/101
f 98/98/100 97/97/99 71/71/73
f 94/94/96 47/47/47 52/52/52
f 65/65/65 13/13/13 94/94/96
f 6/6/6 5/5/5 59/59/59
f 7/7/7 6/6/6 58/58/58
f 63/63/63 10/10/10 18/18/66
f 62/62/62 11/11/11 63/63/63
f 14/14/14 13/13/13 64/64/64
f 97/97/99 50/50/50 67/67/69
f 60/60/60 9/9/9 97/97/99
f 24/24/24 23/23/23 74/74/76
f 73/73/75 25/25/25 74/74/76
f 29/29/29 33/33/33 76/76/78
f 27/27/27 29/29/29 75/75/77
f 79/79/81 30/30/30 73/73/75
f 78/78/80 31/31/31 79/79/81
f 82/82/84 34/34/34 86/86/88
f 80/80/82 33/33/33 82/82/84
f 35/35/35 31/31/31 83/83/85
f 37/37/37 35/35/35 84/84/86
f 44/44/44 43/43/43 93/93/95
f 92/92/94 45/45/45 93/93/95
f 88/88/90 40/40/40 92/92/94
f 86/86/88 39/39/39 88/88/90
f 41/41/41 37/37/37 89/89/91
f 43/43/43 41/41/41 90/90/92
f 52/52/52 3/3/3 53/53/53
f 53/53/53 2/2/2 60/60/60
f 5/5/5 48/48/48 55/55/55
f 48/48/48 11/11/11 96/96/98
f 67/67/69 21/21/21 68/68/70
f 20/20/20 27/27/27 68/68/70
f 23/23/23 51/51/51 70/70/72
f 51/51/51 7/7/7 99/99/101
usemtl mat0.008
f 100/100/102 101/101/103 102/102/104
f 100/100/102 103/103/105 104/104/106
f 105/105/107 106/106/108 107/107/109
f 107/107/109 108/108/110 101/101/103
f 109/109/111 110/110/112 111/111/113
f 111/111/113 112/112/114 113/113/115
f 114/114/116 113/113/115 115/115/117
f 114/114/116 116/116/17 117/117/118
f 118/118/119 119/119/120 120/120/121
f 121/121/122 120/120/121 122/122/123
f 123/123/124 124/124/125 125/125/126
f 121/121/122 125/125/126 126/126/127
f 127/127/128 126/126/127 125/125/126
f 128/128/129 125/125/126 124/124/125
f 129/129/130 130/130/131 131/131/132
f 128/128/129 131/131/132 132/132/133
f 133/133/134 132/132/133 131/131/132
f 131/131/132 130/130/131 134/134/135
f 135/135/136 134/134/135 136/136/137
f 135/135/136 137/137/138 138/138/139
f 139/139/140 138/138/139 137/137/138
f 137/137/138 136/136/137 140/140/141
f 141/141/142 140/140/141 142/142/143
f 141/141/142 143/143/144 144/144/145
f 145/145/146 146/146/147 112/112/114
f 145/145/146 111/111/113 110/110/112
f 147/147/148 104/104/106 103/103/105
f 103/103/105 102/102/104 146/146/147
f 148/148/149 108/108/110 107/107/109
f 149/149/150 107/107/109 106/106/108
f 150/150/151 122/122/123 120/120/121
f 149/149/150 120/120/121 119/119/120
f 151/151/152 152/152/153 153/153/154
f 154/154/155 155/155/156 153/153/154
f 156/156/157 157/157/158 158/158/159
f 159/159/160 156/156/157 153/153/154
f 160/160/161 161/161/162 162/162/163
f 163/163/164 164/164/165 160/160/161
f 115/115/166 163/163/164 165/165/167
f 117/117/168 116/116/169 165/165/167
f 166/166/170 167/167/171 168/168/172
f 169/169/173 166/166/170 170/170/174
f 171/171/175 172/172/176 173/173/177
f 174/174/178 171/171/175 170/170/174
f 171/171/175 174/174/178 175/175/179
f 172/172/176 171/171/175 176/176/180
f 177/177/181 178/178/182 179/179/183
f 180/180/184 177/177/181 176/176/180
f 177/177/181 180/180/184 181/181/185
f 182/182/186 178/178/182 177/177/181
f 183/183/187 182/182/186 184/184/188
f 185/185/189 186/186/190 184/184/188
f 186/186/190 185/185/189 187/187/191
f 188/188/192 183/183/187 186/186/190
f 189/189/193 188/188/192 190/190/194
f 191/191/195 192/192/196 190/190/194
f 164/164/165 193/193/197 194/194/198
f 161/161/162 160/160/161 194/194/198
f 155/155/156 154/154/155 195/195/199
f 193/193/197 151/151/152 155/155/156
f 156/156/157 159/159/160 196/196/200
f 157/157/158 156/156/157 197/197/201
f 166/166/170 169/169/173 198/198/202
f 167/167/171 166/166/170 197/197/201
f 102/102/104 151/151/152 193/193/197
f 146/146/147 193/193/197 164/164/165
f 104/104/106 154/154/155 158/158/159
f 105/105/107 158/158/159 157/157/158
f 109/109/111 162/162/163 161/161/162
f 112/112/114 164/164/165 163/163/164
f 113/113/115 163/163/164 115/115/166
f 119/119/120 167/167/171 196/196/200
f 148/148/149 196/196/200 159/159/160
f 122/122/123 169/169/173 173/173/177
f 123/123/124 173/173/177 172/172/176
f 132/132/133 180/180/184 175/175/179
f 127/127/128 175/175/179 174/174/178
f 124/124/125 172/172/176 179/179/183
f 129/129/130 179/179/183 178/178/182
f 133/133/134 138/138/139 185/185/189
f 132/132/133 133/133/134 181/181/185
f 134/134/135 130/130/131 178/178/182
f 136/136/137 134/134/135 182/182/186
f 142/142/143 189/189/193 192/192/196
f 143/143/144 192/192/196 191/191/195
f 139/139/140 144/144/145 191/191/195
f 138/138/139 139/139/140 187/187/191
f 140/140/141 136/136/137 183/183/187
f 140/140/141 188/188/192 189/189/193
f 101/101/103 152/152/153 151/151/152
f 108/108/110 159/159/160 152/152/153
f 147/147/148 195/195/199 154/154/155
f 110/110/112 161/161/162 195/195/199
f 118/118/119 168/168/172 167/167/171
f 126/126/127 174/174/178 168/168/172
f 150/150/151 198/198/202 169/169/173
f 106/106/108 157/157/158 198/198/202
f 103/103/105 100/100/102 102/102/104
f 105/105/107 100/100/102 104/104/106
f 100/100/102 105/105/107 107/107/109
f 100/100/102 107/107/109 101/101/103
f 114/114/116 109/109/111 111/111/113
f 114/114/116 111/111/113 113/113/115
f 116/116/17 114/114/116 115/115/117
f 109/109/111 114/114/116 117/117/118
f 121/121/122 118/118/119 120/120/121
f 123/123/124 121/121/122 122/122/123
f 121/121/122 123/123/124 125/125/126
f 118/118/119 121/121/122 126/126/127
f 128/128/129 127/127/128 125/125/126
f 129/129/130 128/128/129 124/124/125
f 128/128/129 129/129/130 131/131/132
f 127/127/128 128/128/129 132/132/133
f 135/135/136 133/133/134 131/131/132
f 135/135/136 131/131/132 134/134/135
f 137/137/138 135/135/136 136/136/137
f 133/133/134 135/135/136 138/138/139
f 141/141/142 139/139/140 137/137/138
f 141/141/142 137/137/138 140/140/141
f 143/143/144 141/141/142 142/142/143
f 139/139/140 141/141/142 144/144/145
f 111/111/113 145/145/146 112/112/114
f 147/147/148 145/145/146 110/110/112
f 145/145/146 147/147/148 103/103/105
f 145/145/146 103/103/105 146/146/147
f 149/149/150 148/148/149 107/107/109
f 150/150/151 149/149/150 106/106/108
f 149/149/150 150/150/151 120/120/121
f 148/148/149 149/149/150 119/119/120
f 155/155/156 151/151/152 153/153/154
f 158/158/159 154/154/155 153/153/154
f 153/153/154 156/156/157 158/158/159
f 152/152/153 159/159/160 153/153/154
f 165/165/167 160/160/161 162/162/163
f 165/165/167 163/163/164 160/160/161
f 116/116/169 115/115/166 165/165/167
f 162/162/163 117/117/168 165/165/167
f 170/170/174 166/166/170 168/168/172
f 173/173/177 169/169/173 170/170/174
f 170/170/174 171/171/175 173/173/177
f 168/168/172 174/174/178 170/170/174
f 176/176/180 171/171/175 175/175/179
f 179/179/183 172/172/176 176/176/180
f 176/176/180 177/177/181 179/179/183
f 175/175/179 180/180/184 176/176/180
f 184/184/188 177/177/181 181/181/185
f 184/184/188 182/182/186 177/177/181
f 186/186/190 183/183/187 184/184/188
f 181/181/185 185/185/189 184/184/188
f 190/190/194 186/186/190 187/187/191
f 190/190/194 188/188/192 186/186/190
f 192/192/196 189/189/193 190/190/194
f 187/187/191 191/191/195 190/190/194
f 160/160/161 164/164/165 194/194/198
f 195/195/199 161/161/162 194/194/198
f 194/194/198 155/155/156 195/195/199
f 194/194/198 193/193/197 155/155/156
f 197/197/201 156/156/157 196/196/200
f 198/198/202 157/157/158 197/197/201
f 197/197/201 166/166/170 198/198/202
f 196/196/200 167/167/171 197/197/201
f 146/146/147 102/102/104 193/193/197
f 112/112/114 146/146/147 164/164/165
f 105/105/107 104/104/106 158/158/159
f 106/106/108 105/105/107 157/157/158
f 162/162/163 109/109/111 117/117/168
f 110/110/112 109/109/111 161/161/162
f 113/113/115 112/112/114 163/163/164
f 148/148/149 119/119/120 196/196/200
f 108/108/110 148/148/149 159/159/160
f 123/123/124 122/122/123 173/173/177
f 124/124/125 123/123/124 172/172/176
f 127/127/128 132/132/133 175/175/179
f 126/126/127 127/127/128 174/174/178
f 129/129/130 124/124/125 179/179/183
f 130/130/131 129/129/130 178/178/182
f 181/181/185 133/133/134 185/185/189
f 180/180/184 132/132/133 181/181/185
f 182/182/186 134/134/135 178/178/182
f 183/183/187 136/136/137 182/182/186
f 143/143/144 142/142/143 192/192/196
f 144/144/145 143/143/144 191/191/195
f 187/187/191 139/139/140 191/191/195
f 185/185/189 138/138/139 187/187/191
f 188/188/192 140/140/141 183/183/187
f 142/142/143 140/140/141 189/189/193
f 102/102/104 101/101/103 151/151/152
f 101/101/103 108/108/110 152/152/153
f 104/104/106 147/147/148 154/154/155
f 147/147/148 110/110/112 195/195/199
f 119/119/120 118/118/119 167/167/171
f 118/118/119 126/126/127 168/168/172
f 122/122/123 150/150/151 169/169/173
f 150/150/151 106/106/108 198/198/202
usemtl mat1.004
f 199/199/203 200/200/2 201/201/3
f 199/199/203 202/202/4 203/203/5
f 204/204/6 205/205/7 206/206/204
f 206/206/204 207/207/9 200/200/2
f 208/208/10 209/209/205 210/210/206
f 210/210/206 211/211/207 212/212/208
f 213/213/209 212/212/208 214/214/210
f 213/213/209 215/215/17 216/216/211
f 217/217/212 218/218/213 219/219/214
f 217/217/212 220/220/22 221/221/215
f 222/222/216 223/223/25 224/224/26
f 224/224/26 225/225/217 218/218/213
f 226/226/218 227/227/219 225/225/217
f 226/226/218 224/224/26 223/223/25
f 226/226/218 228/228/220 229/229/221
f 226/226/218 230/230/32 231/231/222
f 232/232/34 231/231/222 230/230/32
f 230/230/32 229/229/221 233/233/223
f 234/234/36 233/233/223 235/235/224
f 234/234/36 236/236/38 237/237/39
f 238/238/40 237/237/39 236/236/38
f 236/236/38 235/235/224 239/239/41
f 240/240/42 239/239/41 241/241/43
f 240/240/42 242/242/44 243/243/45
f 244/244/46 245/245/47 211/211/207
f 244/244/46 210/210/206 209/209/205
f 246/246/225 203/203/5 202/202/4
f 202/202/4 201/201/3 245/245/47
f 247/247/49 248/248/226 207/207/9
f 247/247/49 206/206/204 205/205/7
f 249/249/51 221/221/215 220/220/22
f 220/220/22 219/219/214 248/248/226
f 250/250/52 251/251/227 252/252/54
f 253/253/228 254/254/56 252/252/54
f 255/255/57 256/256/229 257/257/230
f 251/251/227 258/258/60 255/255/57
f 259/259/231 260/260/232 261/261/233
f 262/262/64 263/263/234 259/259/231
f 214/214/66 262/262/64 264/264/67
f 216/216/66 215/215/235 264/264/67
f 265/265/236 266/266/70 267/267/71
f 268/268/72 269/269/73 267/267/71
f 270/270/237 271/271/75 272/272/76
f 266/266/70 273/273/77 270/270/237
f 273/273/77 274/274/238 275/275/79
f 271/271/75 270/270/237 275/275/79
f 276/276/80 277/277/239 275/275/79
f 278/278/82 279/279/83 275/275/79
f 279/279/83 278/278/82 280/280/84
f 281/281/85 276/276/80 279/279/83
f 282/282/86 281/281/85 283/283/87
f 284/284/240 285/285/241 283/283/87
f 285/285/241 284/284/240 286/286/242
f 287/287/91 282/282/86 285/285/241
f 288/288/92 287/287/91 289/289/93
f 290/290/243 291/291/244 289/289/93
f 263/263/234 292/292/96 293/293/97
f 260/260/232 259/259/231 293/293/97
f 254/254/56 253/253/228 294/294/98
f 292/292/96 250/250/52 254/254/56
f 258/258/60 295/295/99 296/296/245
f 256/256/229 255/255/57 296/296/245
f 269/269/73 268/268/72 297/297/101
f 295/295/99 265/265/236 269/269/73
f 245/245/47 201/201/3 250/250/52
f 211/211/207 245/245/47 292/292/96
f 203/203/5 253/253/228 257/257/230
f 204/204/6 257/257/230 256/256/229
f 209/209/205 208/208/10 261/261/233
f 211/211/207 263/263/234 262/262/64
f 212/212/208 262/262/64 214/214/66
f 248/248/226 219/219/214 265/265/236
f 207/207/9 248/248/226 295/295/99
f 221/221/215 268/268/72 272/272/76
f 223/223/25 222/222/216 272/272/76
f 231/231/222 278/278/82 274/274/238
f 227/227/219 274/274/238 273/273/77
f 228/228/220 223/223/25 271/271/75
f 229/229/221 228/228/220 277/277/239
f 232/232/34 237/237/39 284/284/240
f 231/231/222 232/232/34 280/280/84
f 229/229/221 276/276/80 281/281/85
f 233/233/223 281/281/85 282/282/86
f 241/241/43 288/288/92 291/291/244
f 243/243/45 242/242/44 291/291/244
f 238/238/40 243/243/45 290/290/243
f 237/237/39 238/238/40 286/286/242
f 235/235/224 282/282/86 287/287/91
f 239/239/41 287/287/91 288/288/92
f 201/201/3 200/200/2 251/251/227
f 200/200/2 207/207/9 258/258/60
f 246/246/225 294/294/98 253/253/228
f 209/209/205 260/260/232 294/294/98
f 219/219/214 218/218/213 266/266/70
f 225/225/217 273/273/77 266/266/70
f 249/249/51 297/297/101 268/268/72
f 205/205/7 256/256/229 297/297/101
f 202/202/4 199/199/203 201/201/3
f 204/204/6 199/199/203 203/203/5
f 199/199/203 204/204/6 206/206/204
f 199/199/203 206/206/204 200/200/2
f 213/213/209 208/208/10 210/210/206
f 213/213/209 210/210/206 212/212/208
f 215/215/17 213/213/209 214/214/210
f 208/208/10 213/213/209 216/216/211
f 220/220/22 217/217/212 219/219/214
f 222/222/216 217/217/212 221/221/215
f 217/217/212 222/222/216 224/224/26
f 217/217/212 224/224/26 218/218/213
f 224/224/26 226/226/218 225/225/217
f 228/228/220 226/226/218 223/223/25
f 230/230/32 226/226/218 229/229/221
f 227/227/219 226/226/218 231/231/222
f 234/234/36 232/232/34 230/230/32
f 234/234/36 230/230/32 233/233/223
f 236/236/38 234/234/36 235/235/224
f 232/232/34 234/234/36 237/237/39
f 240/240/42 238/238/40 236/236/38
f 240/240/42 236/236/38 239/239/41
f 242/242/44 240/240/42 241/241/43
f 238/238/40 240/240/42 243/243/45
f 210/210/206 244/244/46 211/211/207
f 246/246/225 244/244/46 209/209/205
f 244/244/46 246/246/225 202/202/4
f 244/244/46 202/202/4 245/245/47
f 206/206/204 247/247/49 207/207/9
f 249/249/51 247/247/49 205/205/7
f 247/247/49 249/249/51 220/220/22
f 247/247/49 220/220/22 248/248/226
f 254/254/56 250/250/52 252/252/54
f 257/257/230 253/253/228 252/252/54
f 252/252/54 255/255/57 257/257/230
f 252/252/54 251/251/227 255/255/57
f 264/264/67 259/259/231 261/261/233
f 264/264/67 262/262/64 259/259/231
f 215/215/235 214/214/66 264/264/67
f 261/261/233 216/216/66 264/264/67
f 269/269/73 265/265/236 267/267/71
f 272/272/76 268/268/72 267/267/71
f 267/267/71 270/270/237 272/272/76
f 267/267/71 266/266/70 270/270/237
f 270/270/237 273/273/77 275/275/79
f 277/277/239 271/271/75 275/275/79
f 279/279/83 276/276/80 275/275/79
f 274/274/238 278/278/82 275/275/79
f 283/283/87 279/279/83 280/280/84
f 283/283/87 281/281/85 279/279/83
f 285/285/241 282/282/86 283/283/87
f 280/280/84 284/284/240 283/283/87
f 289/289/93 285/285/241 286/286/242
f 289/289/93 287/287/91 285/285/241
f 291/291/244 288/288/92 289/289/93
f 286/286/242 290/290/243 289/289/93
f 259/259/231 263/263/234 293/293/97
f 294/294/98 260/260/232 293/293/97
f 293/293/97 254/254/56 294/294/98
f 293/293/97 292/292/96 254/254/56
f 255/255/57 258/258/60 296/296/245
f 297/297/101 256/256/229 296/296/245
f 296/296/245 269/269/73 297/297/101
f 296/296/245 295/295/99 269/269/73
f 292/292/96 245/245/47 250/250/52
f 263/263/234 211/211/207 292/292/96
f 204/204/6 203/203/5 257/257/230
f 205/205/7 204/204/6 256/256/229
f 261/261/233 208/208/10 216/216/66
f 260/260/232 209/209/205 261/261/233
f 212/212/208 211/211/207 262/262/64
f 295/295/99 248/248/226 265/265/236
f 258/258/60 207/207/9 295/295/99
f 222/222/216 221/221/215 272/272/76
f 271/271/75 223/223/25 272/272/76
f 227/227/219 231/231/222 274/274/238
f 225/225/217 227/227/219 273/273/77
f 277/277/239 228/228/220 271/271/75
f 276/276/80 229/229/221 277/277/239
f 280/280/84 232/232/34 284/284/240
f 278/278/82 231/231/222 280/280/84
f 233/233/223 229/229/221 281/281/85
f 235/235/224 233/233/223 282/282/86
f 242/242/44 241/241/43 291/291/244
f 290/290/243 243/243/45 291/291/244
f 286/286/242 238/238/40 290/290/243
f 284/284/240 237/237/39 286/286/242
f 239/239/41 235/235/224 287/287/91
f 241/241/43 239/239/41 288/288/92
f 250/250/52 201/201/3 251/251/227
f 251/251/227 200/200/2 258/258/60
f 203/203/5 246/246/225 253/253/228
f 246/246/225 209/209/205 294/294/98
f 265/265/236 219/219/214 266/266/70
f 218/218/213 225/225/217 266/266/70
f 221/221/215 249/249/51 268/268/72
f 249/249/51 205/205/7 297/297/101
usemtl mat2.004
f 298/298/246 299/299/247 300/300/248
f 301/301/249 302/302/250 303/303/251
f 298/298/246 303/303/251 304/304/252
f 305/305/253 306/306/254 299/299/247
f 307/307/255 308/308/256 309/309/257
f 309/309/257 310/310/258 311/311/259
f 312/312/260 311/311/259 313/313/261
f 312/312/260 314/314/17 315/315/262
f 316/316/263 317/317/264 318/318/265
f 319/319/266 320/320/267 321/321/268
f 316/316/263 321/321/268 322/322/269
f 323/323/270 324/324/271 317/317/264
f 325/325/272 326/326/273 324/324/271
f 323/323/270 322/322/269 327/327/274
f 325/325/272 327/327/274 328/328/275
f 329/329/276 330/330/277 326/326/273
f 331/331/278 332/332/279 330/330/277
f 329/329/276 328/328/275 333/333/280
f 331/331/278 333/333/280 334/334/281
f 331/331/278 335/335/282 336/336/283
f 337/337/284 338/338/285 336/336/283
f 335/335/282 334/334/281 339/339/286
f 337/337/284 339/339/286 340/340/287
f 337/337/284 341/341/288 342/342/289
f 343/343/290 344/344/291 310/310/258
f 343/343/290 309/309/257 308/308/256
f 345/345/292 302/302/250 301/301/249
f 301/301/249 300/300/248 344/344/291
f 346/346/293 347/347/294 306/306/254
f 305/305/253 304/304/252 348/348/295
f 346/346/293 348/348/295 320/320/267
f 319/319/266 318/318/265 347/347/294
f 349/349/296 350/350/297 351/351/298
f 352/352/299 353/353/300 354/354/301
f 355/355/302 352/352/299 351/351/298
f 350/350/297 356/356/303 357/357/304
f 358/358/305 359/359/306 360/360/307
f 361/361/308 362/362/309 358/358/305
f 313/313/310 361/361/308 363/363/311
f 315/315/312 314/314/313 363/363/311
f 364/364/314 365/365/315 366/366/316
f 367/367/317 368/368/318 369/369/319
f 370/370/320 367/367/317 366/366/316
f 365/365/315 371/371/321 372/372/322
f 371/371/321 373/373/323 374/374/324
f 375/375/325 370/370/320 372/372/322
f 376/376/326 375/375/325 374/374/324
f 373/373/323 377/377/327 378/378/328
f 377/377/327 379/379/329 380/380/330
f 381/381/331 376/376/326 378/378/328
f 382/382/332 381/381/331 380/380/330
f 383/383/333 384/384/334 380/380/330
f 383/383/333 385/385/335 386/386/336
f 387/387/337 382/382/332 384/384/334
f 388/388/338 387/387/337 386/386/336
f 389/389/339 390/390/340 386/386/336
f 362/362/309 391/391/341 392/392/342
f 359/359/306 358/358/305 392/392/342
f 354/354/301 353/353/300 393/393/343
f 391/391/341 349/349/296 354/354/301
f 356/356/303 394/394/344 395/395/345
f 396/396/346 355/355/302 357/357/304
f 368/368/318 396/396/346 395/395/345
f 394/394/344 364/364/314 369/369/319
f 344/344/291 300/300/248 349/349/296
f 310/310/258 344/344/291 391/391/341
f 303/303/251 302/302/250 353/353/300
f 304/304/252 303/303/251 352/352/299
f 308/308/256 307/307/255 360/360/307
f 311/311/259 310/310/258 362/362/309
f 311/311/259 361/361/308 313/313/310
f 347/347/294 318/318/265 364/364/314
f 306/306/254 347/347/294 394/394/344
f 321/321/268 320/320/267 368/368/318
f 322/322/269 321/321/268 367/367/317
f 326/326/273 330/330/277 377/377/327
f 324/324/271 326/326/273 373/373/323
f 327/327/274 322/322/269 370/370/320
f 328/328/275 327/327/274 375/375/325
f 332/332/279 336/336/283 383/383/333
f 330/330/277 332/332/279 379/379/329
f 333/333/280 328/328/275 376/376/326
f 333/333/280 381/381/331 382/382/332
f 340/340/287 388/388/338 390/390/340
f 341/341/288 390/390/340 389/389/339
f 338/338/285 342/342/289 389/389/339
f 336/336/283 338/338/285 385/385/335
f 339/339/286 334/334/281 382/382/332
f 340/340/287 339/339/286 387/387/337
f 300/300/248 299/299/247 350/350/297
f 299/299/247 306/306/254 356/356/303
f 345/345/292 393/393/343 353/353/300
f 308/308/256 359/359/306 393/393/343
f 318/318/265 317/317/264 365/365/315
f 317/317/264 324/324/271 371/371/321
f 320/320/267 348/348/295 396/396/346
f 348/348/295 304/304/252 355/355/302
f 301/301/249 298/298/246 300/300/248
f 298/298/246 301/301/249 303/303/251
f 305/305/253 298/298/246 304/304/252
f 298/298/246 305/305/253 299/299/247
f 312/312/260 307/307/255 309/309/257
f 312/312/260 309/309/257 311/311/259
f 314/314/17 312/312/260 313/313/261
f 307/307/255 312/312/260 315/315/262
f 319/319/266 316/316/263 318/318/265
f 316/316/263 319/319/266 321/321/268
f 323/323/270 316/316/263 322/322/269
f 316/316/263 323/323/270 317/317/264
f 323/323/270 325/325/272 324/324/271
f 325/325/272 323/323/270 327/327/274
f 329/329/276 325/325/272 328/328/275
f 325/325/272 329/329/276 326/326/273
f 329/329/276 331/331/278 330/330/277
f 331/331/278 329/329/276 333/333/280
f 335/335/282 331/331/278 334/334/281
f 332/332/279 331/331/278 336/336/283
f 335/335/282 337/337/284 336/336/283
f 337/337/284 335/335/282 339/339/286
f 341/341/288 337/337/284 340/340/287
f 338/338/285 337/337/284 342/342/289
f 309/309/257 343/343/290 310/310/258
f 345/345/292 343/343/290 308/308/256
f 343/343/290 345/345/292 301/301/249
f 343/343/290 301/301/249 344/344/291
f 305/305/253 346/346/293 306/306/254
f 346/346/293 305/305/253 348/348/295
f 319/319/266 346/346/293 320/320/267
f 346/346/293 319/319/266 347/347/294
f 354/354/301 349/349/296 351/351/298
f 351/351/298 352/352/299 354/354/301
f 357/357/304 355/355/302 351/351/298
f 351/351/298 350/350/297 357/357/304
f 363/363/311 358/358/305 360/360/307
f 363/363/311 361/361/308 358/358/305
f 314/314/313 313/313/310 363/363/311
f 360/360/307 315/315/312 363/363/311
f 369/369/319 364/364/314 366/366/316
f 366/366/316 367/367/317 369/369/319
f 372/372/322 370/370/320 366/366/316
f 366/366/316 365/365/315 372/372/322
f 372/372/322 371/371/321 374/374/324
f 374/374/324 375/375/325 372/372/322
f 378/378/328 376/376/326 374/374/324
f 374/374/324 373/373/323 378/378/328
f 378/378/328 377/377/327 380/380/330
f 380/380/330 381/381/331 378/378/328
f 384/384/334 382/382/332 380/380/330
f 379/379/329 383/383/333 380/380/330
f 384/384/334 383/383/333 386/386/336
f 386/386/336 387/387/337 384/384/334
f 390/390/340 388/388/338 386/386/336
f 385/385/335 389/389/339 386/386/336
f 358/358/305 362/362/309 392/392/342
f 393/393/343 359/359/306 392/392/342
f 392/392/342 354/354/301 393/393/343
f 392/392/342 391/391/341 354/354/301
f 357/357/304 356/356/303 395/395/345
f 395/395/345 396/396/346 357/357/304
f 369/369/319 368/368/318 395/395/345
f 395/395/345 394/394/344 369/369/319
f 391/391/341 344/344/291 349/349/296
f 362/362/309 310/310/258 391/391/341
f 352/352/299 303/303/251 353/353/300
f 355/355/302 304/304/252 352/352/299
f 360/360/307 307/307/255 315/315/312
f 359/359/306 308/308/256 360/360/307
f 361/361/308 311/311/259 362/362/309
f 394/394/344 347/347/294 364/364/314
f 356/356/303 306/306/254 394/394/344
f 367/367/317 321/321/268 368/368/318
f 370/370/320 322/322/269 367/367/317
f 373/373/323 326/326/273 377/377/327
f 371/371/321 324/324/271 373/373/323
f 375/375/325 327/327/274 370/370/320
f 376/376/326 328/328/275 375/375/325
f 379/379/329 332/332/279 383/383/333
f 377/377/327 330/330/277 379/379/329
f 381/381/331 333/333/280 376/376/326
f 334/334/281 333/333/280 382/382/332
f 341/341/288 340/340/287 390/390/340
f 342/342/289 341/341/288 389/389/339
f 385/385/335 338/338/285 389/389/339
f 383/383/333 336/336/283 385/385/335
f 387/387/337 339/339/286 382/382/332
f 388/388/338 340/340/287 387/387/337
f 349/349/296 300/300/248 350/350/297
f 350/350/297 299/299/247 356/356/303
f 302/302/250 345/345/292 353/353/300
f 345/345/292 308/308/256 393/393/343
f 364/364/314 318/318/265 365/365/315
f 365/365/315 317/317/264 371/371/321
f 368/368/318 320/320/267 396/396/346
f 396/396/346 348/348/295 355/355/302
usemtl mat3.004
f 397/397/102 398/398/347 399/399/104
f 397/397/102 400/400/348 401/401/349
f 402/402/350 403/403/351 404/404/352
f 404/404/352 405/405/353 398/398/347
f 406/406/354 407/407/112 408/408/113
f 408/408/113 409/409/114 410/410/355
f 411/411/356 410/410/355 412/412/357
f 411/411/356 413/413/17 414/414/358
f 415/415/119 416/416/120 417/417/121
f 418/418/359 417/417/121 419/419/360
f 420/420/361 421/421/125 422/422/126
f 418/418/359 422/422/126 423/423/362
f 424/424/363 423/423/362 422/422/126
f 425/425/364 422/422/126 421/421/125
f 426/426/365 427/427/131 428/428/132
f 425/425/364 428/428/132 429/429/366
f 430/430/367 429/429/366 428/428/132
f 428/428/132 427/427/131 431/431/368
f 432/432/136 431/431/368 433/433/369
f 432/432/136 434/434/370 435/435/139
f 436/436/371 435/435/139 434/434/370
f 434/434/370 433/433/369 437/437/372
f 438/438/373 437/437/372 439/439/374
f 438/438/373 440/440/375 441/441/376
f 442/442/146 443/443/377 409/409/114
f 442/442/146 408/408/113 407/407/112
f 444/444/378 401/401/349 400/400/348
f 400/400/348 399/399/104 443/443/377
f 445/445/149 405/405/353 404/404/352
f 446/446/150 404/404/352 403/403/351
f 447/447/379 419/419/360 417/417/121
f 446/446/150 417/417/121 416/416/120
f 448/448/380 449/449/381 450/450/382
f 451/451/155 452/452/383 450/450/382
f 453/453/384 454/454/385 455/455/386
f 456/456/387 453/453/384 450/450/382
f 457/457/161 458/458/388 459/459/163
f 460/460/389 461/461/390 457/457/161
f 412/412/166 460/460/389 462/462/391
f 414/414/392 413/413/393 462/462/391
f 463/463/170 464/464/394 465/465/172
f 466/466/395 463/463/170 467/467/396
f 468/468/175 469/469/397 470/470/177
f 471/471/398 468/468/175 467/467/396
f 468/468/175 471/471/398 472/472/399
f 469/469/397 468/468/175 473/473/180
f 474/474/400 475/475/401 476/476/402
f 477/477/184 474/474/400 473/473/180
f 474/474/400 477/477/184 478/478/185
f 479/479/186 475/475/401 474/474/400
f 480/480/403 479/479/186 481/481/404
f 482/482/405 483/483/190 481/481/404
f 483/483/190 482/482/405 484/484/406
f 485/485/407 480/480/403 483/483/190
f 486/486/408 485/485/407 487/487/194
f 488/488/409 489/489/196 487/487/194
f 461/461/390 490/490/410 491/491/411
f 458/458/388 457/457/161 491/491/411
f 452/452/383 451/451/155 492/492/412
f 490/490/410 448/448/380 452/452/383
f 453/453/384 456/456/387 493/493/413
f 454/454/385 453/453/384 494/494/201
f 463/463/170 466/466/395 495/495/414
f 464/464/394 463/463/170 494/494/201
f 399/399/104 448/448/380 490/490/410
f 443/443/377 490/490/410 461/461/390
f 401/401/349 451/451/155 455/455/386
f 402/402/350 455/455/386 454/454/385
f 406/406/354 459/459/163 458/458/388
f 409/409/114 461/461/390 460/460/389
f 410/410/355 460/460/389 412/412/166
f 416/416/120 464/464/394 493/493/413
f 445/445/149 493/493/413 456/456/387
f 419/419/360 466/466/395 470/470/177
f 420/420/361 470/470/177 469/469/397
f 429/429/366 477/477/184 472/472/399
f 424/424/363 472/472/399 471/471/398
f 421/421/125 469/469/397 476/476/402
f 426/426/365 476/476/402 475/475/401
f 430/430/367 435/435/139 482/482/405
f 429/429/366 430/430/367 478/478/185
f 431/431/368 427/427/131 475/475/401
f 433/433/369 431/431/368 479/479/186
f 439/439/374 486/486/408 489/489/196
f 440/440/375 489/489/196 488/488/409
f 436/436/371 441/441/376 488/488/409
f 435/435/139 436/436/371 484/484/406
f 437/437/372 433/433/369 480/480/403
f 437/437/372 485/485/407 486/486/408
f 398/398/347 449/449/381 448/448/380
f 405/405/353 456/456/387 449/449/381
f 444/444/378 492/492/412 451/451/155
f 407/407/112 458/458/388 492/492/412
f 415/415/119 465/465/172 464/464/394
f 423/423/362 471/471/398 465/465/172
f 447/447/379 495/495/414 466/466/395
f 403/403/351 454/454/385 495/495/414
f 400/400/348 397/397/102 399/399/104
f 402/402/350 397/397/102 401/401/349
f 397/397/102 402/402/350 404/404/352
f 397/397/102 404/404/352 398/398/347
f 411/411/356 406/406/354 408/408/113
f 411/411/356 408/408/113 410/410/355
f 413/413/17 411/411/356 412/412/357
f 406/406/354 411/411/356 414/414/358
f 418/418/359 415/415/119 417/417/121
f 420/420/361 418/418/359 419/419/360
f 418/418/359 420/420/361 422/422/126
f 415/415/119 418/418/359 423/423/362
f 425/425/364 424/424/363 422/422/126
f 426/426/365 425/425/364 421/421/125
f 425/425/364 426/426/365 428/428/132
f 424/424/363 425/425/364 429/429/366
f 432/432/136 430/430/367 428/428/132
f 432/432/136 428/428/132 431/431/368
f 434/434/370 432/432/136 433/433/369
f 430/430/367 432/432/136 435/435/139
f 438/438/373 436/436/371 434/434/370
f 438/438/373 434/434/370 437/437/372
f 440/440/375 438/438/373 439/439/374
f 436/436/371 438/438/373 441/441/376
f 408/408/113 442/442/146 409/409/114
f 444/444/378 442/442/146 407/407/112
f 442/442/146 444/444/378 400/400/348
f 442/442/146 400/400/348 443/443/377
f 446/446/150 445/445/149 404/404/352
f 447/447/379 446/446/150 403/403/351
f 446/446/150 447/447/379 417/417/121
f 445/445/149 446/446/150 416/416/120
f 452/452/383 448/448/380 450/450/382
f 455/455/386 451/451/155 450/450/382
f 450/450/382 453/453/384 455/455/386
f 449/449/381 456/456/387 450/450/382
f 462/462/391 457/457/161 459/459/163
f 462/462/391 460/460/389 457/457/161
f 413/413/393 412/412/166 462/462/391
f 459/459/163 414/414/392 462/462/391
f 467/467/396 463/463/170 465/465/172
f 470/470/177 466/466/395 467/467/396
f 467/467/396 468/468/175 470/470/177
f 465/465/172 471/471/398 467/467/396
f 473/473/180 468/468/175 472/472/399
f 476/476/402 469/469/397 473/473/180
f 473/473/180 474/474/400 476/476/402
f 472/472/399 477/477/184 473/473/180
f 481/481/404 474/474/400 478/478/185
f 481/481/404 479/479/186 474/474/400
f 483/483/190 480/480/403 481/481/404
f 478/478/185 482/482/405 481/481/404
f 487/487/194 483/483/190 484/484/406
f 487/487/194 485/485/407 483/483/190
f 489/489/196 486/486/408 487/487/194
f 484/484/406 488/488/409 487/487/194
f 457/457/161 461/461/390 491/491/411
f 492/492/412 458/458/388 491/491/411
f 491/491/411 452/452/383 492/492/412
f 491/491/411 490/490/410 452/452/383
f 494/494/201 453/453/384 493/493/413
f 495/495/414 454/454/385 494/494/201
f 494/494/201 463/463/170 495/495/414
f 493/493/413 464/464/394 494/494/201
f 443/443/377 399/399/104 490/490/410
f 409/409/114 443/443/377 461/461/390
f 402/402/350 401/401/349 455/455/386
f 403/403/351 402/402/350 454/454/385
f 459/459/163 406/406/354 414/414/392
f 407/407/112 406/406/354 458/458/388
f 410/410/355 409/409/114 460/460/389
f 445/445/149 416/416/120 493/493/413
f 405/405/353 445/445/149 456/456/387
f 420/420/361 419/419/360 470/470/177
f 421/421/125 420/420/361 469/469/397
f 424/424/363 429/429/366 472/472/399
f 423/423/362 424/424/363 471/471/398
f 426/426/365 421/421/125 476/476/402
f 427/427/131 426/426/365 475/475/401
f 478/478/185 430/430/367 482/482/405
f 477/477/184 429/429/366 478/478/185
f 479/479/186 431/431/368 475/475/401
f 480/480/403 433/433/369 479/479/186
f 440/440/375 439/439/374 489/489/196
f 441/441/376 440/440/375 488/488/409
f 484/484/406 436/436/371 488/488/409
f 482/482/405 435/435/139 484/484/406
f 485/485/407 437/437/372 480/480/403
f 439/439/374 437/437/372 486/486/408
f 399/399/104 398/398/347 448/448/380
f 398/398/347 405/405/353 449/449/381
f 401/401/349 444/444/378 451/451/155
f 444/444/378 407/407/112 492/492/412
f 416/416/120 415/415/119 464/464/394
f 415/415/119 423/423/362 465/465/172
f 419/419/360 447/447/379 466/466/395
f 447/447/379 403/403/351 495/495/414
usemtl mat4.004
f 496/496/415 497/497/416 498/498/417
f 496/496/415 499/499/418 500/500/419
f 501/501/420 502/502/421 503/503/422
f 503/503/422 504/504/423 497/497/416
f 505/505/424 506/506/425 507/507/426
f 507/507/426 508/508/427 509/509/428
f 510/510/429 509/509/428 511/511/430
f 510/510/429 512/512/17 513/513/431
f 514/514/432 515/515/433 516/516/434
f 514/514/432 517/517/435 518/518/436
f 519/519/437 520/520/438 521/521/439
f 521/521/439 522/522/440 515/515/433
f 523/523/441 524/524/442 522/522/440
f 523/523/441 521/521/439 520/520/438
f 523/523/441 525/525/443 526/526/444
f 523/523/441 527/527/445 528/528/446
f 529/529/447 528/528/446 527/527/445
f 527/527/445 526/526/444 530/530/448
f 531/531/449 530/530/448 532/532/450
f 531/531/449 533/533/451 534/534/452
f 535/535/453 534/534/452 533/533/451
f 533/533/451 532/532/450 536/536/454
f 537/537/455 536/536/454 538/538/456
f 537/537/455 539/539/457 540/540/458
f 541/541/459 542/542/460 508/508/427
f 541/541/459 507/507/426 506/506/425
f 543/543/461 500/500/419 499/499/418
f 499/499/418 498/498/417 542/542/460
f 544/544/462 545/545/463 504/504/423
f 544/544/462 503/503/422 502/502/421
f 546/546/464 518/518/436 517/517/435
f 517/517/435 516/516/434 545/545/463
f 547/547/465 548/548/466 549/549/467
f 550/550/468 551/551/469 549/549/467
f 552/552/470 553/553/471 554/554/472
f 548/548/466 555/555/473 552/552/470
f 556/556/474 557/557/475 558/558/476
f 559/559/477 560/560/478 556/556/474
f 511/511/479 559/559/477 561/561/480
f 513/513/479 512/512/481 561/561/480
f 562/562/482 563/563/483 564/564/484
f 565/565/485 566/566/486 564/564/484
f 567/567/487 568/568/488 569/569/489
f 563/563/483 570/570/490 567/567/487
f 570/570/490 571/571/491 572/572/492
f 568/568/488 567/567/487 572/572/492
f 573/573/493 574/574/494 572/572/492
f 575/575/495 576/576/496 572/572/492
f 576/576/496 575/575/495 577/577/497
f 578/578/498 573/573/493 576/576/496
f 579/579/499 578/578/498 580/580/500
f 581/581/501 582/582/502 580/580/500
f 582/582/502 581/581/501 583/583/503
f 584/584/504 579/579/499 582/582/502
f 585/585/505 584/584/504 586/586/506
f 587/587/507 588/588/508 586/586/506
f 560/560/478 589/589/509 590/590/510
f 557/557/475 556/556/474 590/590/510
f 551/551/469 550/550/468 591/591/511
f 589/589/509 547/547/465 551/551/469
f 555/555/473 592/592/512 593/593/513
f 553/553/471 552/552/470 593/593/513
f 566/566/486 565/565/485 594/594/514
f 592/592/512 562/562/482 566/566/486
f 542/542/460 498/498/417 547/547/465
f 508/508/427 542/542/460 589/589/509
f 500/500/419 550/550/468 554/554/472
f 501/501/420 554/554/472 553/553/471
f 505/505/424 558/558/476 557/557/475
f 509/509/428 508/508/427 560/560/478
f 509/509/428 559/559/477 511/511/479
f 545/545/463 516/516/434 562/562/482
f 504/504/423 545/545/463 592/592/512
f 518/518/436 565/565/485 569/569/489
f 520/520/438 519/519/437 569/569/489
f 524/524/442 528/528/446 575/575/495
f 524/524/442 571/571/491 570/570/490
f 525/525/443 520/520/438 568/568/488
f 525/525/443 574/574/494 573/573/493
f 534/534/452 581/581/501 577/577/497
f 529/529/447 577/577/497 575/575/495
f 530/530/448 526/526/444 573/573/493
f 532/532/450 530/530/448 578/578/498
f 539/539/457 538/538/456 585/585/505
f 539/539/457 588/588/508 587/587/507
f 540/540/458 587/587/507 583/583/503
f 535/535/453 583/583/503 581/581/501
f 536/536/454 532/532/450 579/579/499
f 538/538/456 536/536/454 584/584/504
f 498/498/417 497/497/416 548/548/466
f 497/497/416 504/504/423 555/555/473
f 543/543/461 591/591/511 550/550/468
f 506/506/425 557/557/475 591/591/511
f 516/516/434 515/515/433 563/563/483
f 522/522/440 570/570/490 563/563/483
f 546/546/464 594/594/514 565/565/485
f 502/502/421 553/553/471 594/594/514
f 499/499/418 496/496/415 498/498/417
f 501/501/420 496/496/415 500/500/419
f 496/496/415 501/501/420 503/503/422
f 496/496/415 503/503/422 497/497/416
f 510/510/429 505/505/424 507/507/426
f 510/510/429 507/507/426 509/509/428
f 512/512/17 510/510/429 511/511/430
f 505/505/424 510/510/429 513/513/431
f 517/517/435 514/514/432 516/516/434
f 519/519/437 514/514/432 518/518/436
f 514/514/432 519/519/437 521/521/439
f 514/514/432 521/521/439 515/515/433
f 521/521/439 523/523/441 522/522/440
f 525/525/443 523/523/441 520/520/438
f 527/527/445 523/523/441 526/526/444
f 524/524/442 523/523/441 528/528/446
f 531/531/449 529/529/447 527/527/445
f 531/531/449 527/527/445 530/530/448
f 533/533/451 531/531/449 532/532/450
f 529/529/447 531/531/449 534/534/452
f 537/537/455 535/535/453 533/533/451
f 537/537/455 533/533/451 536/536/454
f 539/539/457 537/537/455 538/538/456
f 535/535/453 537/537/455 540/540/458
f 507/507/426 541/541/459 508/508/427
f 543/543/461 541/541/459 506/506/425
f 541/541/459 543/543/461 499/499/418
f 541/541/459 499/499/418 542/542/460
f 503/503/422 544/544/462 504/504/423
f 546/546/464 544/544/462 502/502/421
f 544/544/462 546/546/464 517/517/435
f 544/544/462 517/517/435 545/545/463
f 551/551/469 547/547/465 549/549/467
f 554/554/472 550/550/468 549/549/467
f 549/549/467 552/552/470 554/554/472
f 549/549/467 548/548/466 552/552/470
f 561/561/480 556/556/474 558/558/476
f 561/561/480 559/559/477 556/556/474
f 512/512/481 511/511/479 561/561/480
f 558/558/476 513/513/479 561/561/480
f 566/566/486 562/562/482 564/564/484
f 569/569/489 565/565/485 564/564/484
f 564/564/484 567/567/487 569/569/489
f 564/564/484 563/563/483 567/567/487
f 567/567/487 570/570/490 572/572/492
f 574/574/494 568/568/488 572/572/492
f 576/576/496 573/573/493 572/572/492
f 571/571/491 575/575/495 572/572/492
f 580/580/500 576/576/496 577/577/497
f 580/580/500 578/578/498 576/576/496
f 582/582/502 579/579/499 580/580/500
f 577/577/497 581/581/501 580/580/500
f 586/586/506 582/582/502 583/583/503
f 586/586/506 584/584/504 582/582/502
f 588/588/508 585/585/505 586/586/506
f 583/583/503 587/587/507 586/586/506
f 556/556/474 560/560/478 590/590/510
f 591/591/511 557/557/475 590/590/510
f 590/590/510 551/551/469 591/591/511
f 590/590/510 589/589/509 551/551/469
f 552/552/470 555/555/473 593/593/513
f 594/594/514 553/553/471 593/593/513
f 593/593/513 566/566/486 594/594/514
f 593/593/513 592/592/512 566/566/486
f 589/589/509 542/542/460 547/547/465
f 560/560/478 508/508/427 589/589/509
f 501/501/420 500/500/419 554/554/472
f 502/502/421 501/501/420 553/553/471
f 558/558/476 505/505/424 513/513/479
f 506/506/425 505/505/424 557/557/475
f 559/559/477 509/509/428 560/560/478
f 592/592/512 545/545/463 562/562/482
f 555/555/473 504/504/423 592/592/512
f 519/519/437 518/518/436 569/569/489
f 568/568/488 520/520/438 569/569/489
f 571/571/491 524/524/442 575/575/495
f 522/522/440 524/524/442 570/570/490
f 574/574/494 525/525/443 568/568/488
f 526/526/444 525/525/443 573/573/493
f 529/529/447 534/534/452 577/577/497
f 528/528/446 529/529/447 575/575/495
f 578/578/498 530/530/448 573/573/493
f 579/579/499 532/532/450 578/578/498
f 588/588/508 539/539/457 585/585/505
f 540/540/458 539/539/457 587/587/507
f 535/535/453 540/540/458 583/583/503
f 534/534/452 535/535/453 581/581/501
f 584/584/504 536/536/454 579/579/499
f 585/585/505 538/538/456 584/584/504
f 547/547/465 498/498/417 548/548/466
f 548/548/466 497/497/416 555/555/473
f 500/500/419 543/543/461 550/550/468
f 543/543/461 506/506/425 591/591/511
f 562/562/482 516/516/434 563/563/483
f 515/515/433 522/522/440 563/563/483
f 518/518/436 546/546/464 565/565/485
f 546/546/464 502/502/421 594/594/514
