# Blender v3.0.1 OBJ File: ''
# www.blender.org
mtllib calyx2.mtl
o obj5.002
v -0.000746 0.001190 -0.001554
v -0.001525 0.001163 -0.000888
v -0.001241 0.000715 -0.000690
v -0.000519 0.000740 -0.001307
v 0.000202 0.000765 -0.001924
v 0.000033 0.001217 -0.002220
v -0.000155 0.001622 -0.002523
v -0.000983 0.001594 -0.001815
v -0.001811 0.001565 -0.001108
v 0.000527 -0.000261 -0.001356
v 0.000487 -0.000130 -0.001426
v -0.000135 -0.000151 -0.000894
v -0.000757 -0.000173 -0.000362
v -0.000689 -0.000303 -0.000316
v -0.000081 -0.000282 -0.000836
v -0.000537 -0.000298 -0.000446
v -0.000081 -0.000282 -0.000836
v 0.000375 -0.000267 -0.001226
v -0.001798 0.002528 -0.002731
v -0.002706 0.002497 -0.001955
v -0.002389 0.002236 -0.001646
v -0.001506 0.002267 -0.002400
v -0.000623 0.002297 -0.003155
v -0.000890 0.002559 -0.003507
v -0.001327 0.002861 -0.004044
v -0.002253 0.002829 -0.003252
v -0.003180 0.002797 -0.002459
v -0.003014 0.003262 -0.004124
v -0.003947 0.003230 -0.003326
v -0.002081 0.003294 -0.004922
v -0.002933 0.003837 -0.005802
v -0.003819 0.003806 -0.005044
v -0.004706 0.003776 -0.004286
v -0.005155 0.004415 -0.005070
v -0.003663 0.004467 -0.006346
v -0.004409 0.004441 -0.005708
v -0.004277 0.005112 -0.006652
v -0.004832 0.005093 -0.006177
v -0.005387 0.005073 -0.005702
v -0.005493 0.005676 -0.006207
v -0.004782 0.005700 -0.006815
v -0.005138 0.005688 -0.006511
v -0.005158 0.006119 -0.006851
v -0.005385 0.006255 -0.006777
v -0.005488 0.006108 -0.006569
v -0.000299 0.000241 -0.001069
v -0.000963 0.000218 -0.000501
v 0.000366 0.000264 -0.001637
v -0.001235 0.001954 -0.002096
v -0.002095 0.001925 -0.001362
v -0.000376 0.001984 -0.002831
v -0.001345 0.000601 -0.000817
v -0.001623 0.001038 -0.001009
v -0.000844 0.001064 -0.001675
v 0.000098 0.000650 -0.002051
v -0.000624 0.000626 -0.001434
v -0.001074 0.001456 -0.001928
v -0.000246 0.001484 -0.002635
v -0.000066 0.001091 -0.002340
v -0.001902 0.001427 -0.001220
v -0.000244 -0.000255 -0.001026
v 0.000378 -0.000234 -0.001558
v 0.000418 -0.000365 -0.001487
v -0.000798 -0.000407 -0.000448
v -0.000866 -0.000277 -0.000494
v -0.000190 -0.000386 -0.000967
v -0.002458 0.002071 -0.001734
v -0.002761 0.002319 -0.002028
v -0.001854 0.002350 -0.002803
v -0.000693 0.002131 -0.003243
v -0.001576 0.002101 -0.002488
v -0.002298 0.002644 -0.003312
v -0.001372 0.002676 -0.004104
v -0.000946 0.002381 -0.003579
v -0.003225 0.002612 -0.002520
v -0.003992 0.003045 -0.003387
v -0.003059 0.003077 -0.004185
v -0.002994 0.003663 -0.005880
v -0.002126 0.003109 -0.004982
v -0.004767 0.003602 -0.004365
v -0.003880 0.003633 -0.005122
v -0.005237 0.004264 -0.005172
v -0.003744 0.004315 -0.006448
v -0.004373 0.004981 -0.006769
v -0.004491 0.004289 -0.005810
v -0.005483 0.004943 -0.005820
v -0.004928 0.004962 -0.006295
v -0.005598 0.005561 -0.006333
v -0.004886 0.005586 -0.006941
v -0.005266 0.006011 -0.006981
v -0.005242 0.005574 -0.006637
v -0.005595 0.006000 -0.006699
v -0.005492 0.006147 -0.006907
v -0.001071 0.000112 -0.000632
v -0.000406 0.000134 -0.001200
v 0.000258 0.000157 -0.001768
v -0.002176 0.001773 -0.001463
v -0.001317 0.001802 -0.002198
v -0.000458 0.001832 -0.002932
v 0.001300 0.001017 -0.000199
v 0.001494 0.000971 -0.001205
v 0.001081 0.000576 -0.001189
v 0.000901 0.000618 -0.000258
v 0.000722 0.000661 0.000674
v 0.001107 0.001063 0.000807
v 0.001503 0.001418 0.000932
v 0.001709 0.001369 -0.000136
v 0.001915 0.001320 -0.001205
v -0.000042 -0.000266 0.000416
v 0.000053 -0.000147 0.000448
v 0.000208 -0.000183 -0.000355
v 0.000363 -0.000220 -0.001158
v 0.000260 -0.000337 -0.001153
v 0.000109 -0.000301 -0.000368
v 0.000223 -0.000328 -0.000957
v 0.000109 -0.000301 -0.000368
v -0.000004 -0.000275 0.000220
v 0.003051 0.002132 0.000087
v 0.003277 0.002079 -0.001084
v 0.002800 0.001878 -0.001134
v 0.002581 0.001930 0.000006
v 0.002361 0.001982 0.001146
v 0.002825 0.002186 0.001259
v 0.003539 0.002269 0.001418
v 0.003769 0.002214 0.000222
v 0.004000 0.002160 -0.000974
v 0.004957 0.002110 0.000456
v 0.005189 0.002055 -0.000749
v 0.004725 0.002165 0.001660
v 0.006003 0.001908 0.001856
v 0.006223 0.001856 0.000711
v 0.006444 0.001804 -0.000433
v 0.007364 0.001443 -0.000051
v 0.006992 0.001531 0.001876
v 0.007178 0.001487 0.000912
v 0.007748 0.001108 0.001784
v 0.007886 0.001075 0.001067
v 0.008024 0.001042 0.000350
v 0.008500 0.000671 0.000727
v 0.008323 0.000713 0.001645
v 0.008411 0.000692 0.001186
v 0.008697 0.000425 0.001475
v 0.008846 0.000323 0.001287
v 0.008779 0.000405 0.001049
v 0.000505 0.000171 -0.000314
v 0.000670 0.000132 -0.001172
v 0.000339 0.000210 0.000544
v 0.002135 0.001674 -0.000068
v 0.002348 0.001624 -0.001178
v 0.001921 0.001725 0.001041
v 0.001222 0.000438 -0.001156
v 0.001626 0.000824 -0.001172
v 0.001432 0.000870 -0.000167
v 0.000863 0.000523 0.000707
v 0.001043 0.000481 -0.000224
v 0.001828 0.001211 -0.000106
v 0.001623 0.001260 0.000963
v 0.001238 0.000916 0.000839
v 0.002034 0.001162 -0.001175
v 0.000357 -0.000312 -0.000320
v 0.000202 -0.000276 0.000483
v 0.000107 -0.000394 0.000451
v 0.000409 -0.000466 -0.001119
v 0.000512 -0.000349 -0.001123
v 0.000258 -0.000430 -0.000334
v 0.002885 0.001699 -0.001109
v 0.003325 0.001885 -0.001066
v 0.003099 0.001939 0.000106
v 0.002446 0.001803 0.001170
v 0.002666 0.001751 0.000031
v 0.003770 0.002014 0.000231
v 0.003539 0.002069 0.001428
v 0.002873 0.001992 0.001277
v 0.004001 0.001960 -0.000965
v 0.005160 0.001858 -0.000745
v 0.004928 0.001913 0.000459
v 0.005947 0.001716 0.001854
v 0.004696 0.001968 0.001664
v 0.006388 0.001612 -0.000435
v 0.006168 0.001664 0.000709
v 0.007279 0.001262 -0.000059
v 0.006907 0.001350 0.001868
v 0.007640 0.000939 0.001771
v 0.007093 0.001306 0.000904
v 0.007917 0.000874 0.000338
v 0.007779 0.000906 0.001054
v 0.008379 0.000512 0.000711
v 0.008202 0.000554 0.001629
v 0.008570 0.000271 0.001457
v 0.008290 0.000533 0.001170
v 0.008652 0.000252 0.001032
v 0.008720 0.000169 0.001270
v 0.000817 0.000001 -0.001137
v 0.000652 0.000040 -0.000279
v 0.000486 0.000079 0.000579
v 0.002452 0.001455 -0.001150
v 0.002239 0.001506 -0.000041
v 0.002025 0.001557 0.001069
v 0.000313 0.001286 0.000967
v 0.001319 0.001201 0.000785
v 0.001152 0.000738 0.000506
v 0.000221 0.000817 0.000674
v -0.000711 0.000895 0.000842
v -0.000692 0.001371 0.001148
v -0.000662 0.001802 0.001473
v 0.000406 0.001711 0.001281
v 0.001474 0.001621 0.001088
v -0.000753 -0.000176 0.000265
v -0.000747 -0.000039 0.000337
v 0.000055 -0.000107 0.000192
v 0.000858 -0.000175 0.000047
v 0.000816 -0.000309 -0.000018
v 0.000032 -0.000242 0.000124
v 0.000620 -0.000292 0.000018
v 0.000032 -0.000242 0.000124
v -0.000557 -0.000192 0.000230
v 0.000695 0.002720 0.002409
v 0.001866 0.002621 0.002198
v 0.001736 0.002335 0.001791
v 0.000596 0.002431 0.001997
v -0.000543 0.002528 0.002203
v -0.000476 0.002819 0.002621
v -0.000354 0.003166 0.003279
v 0.000842 0.003065 0.003064
v 0.002038 0.002964 0.002848
v 0.001084 0.003571 0.004165
v 0.002288 0.003469 0.003947
v -0.000121 0.003673 0.004382
v 0.000201 0.004289 0.005527
v 0.001345 0.004192 0.005321
v 0.002489 0.004095 0.005115
v 0.002515 0.004800 0.005968
v 0.000588 0.004963 0.006316
v 0.001552 0.004882 0.006142
v 0.000996 0.005632 0.006839
v 0.001712 0.005571 0.006710
v 0.002429 0.005510 0.006580
v 0.002296 0.006154 0.007023
v 0.001377 0.006232 0.007189
v 0.001837 0.006193 0.007106
v 0.001703 0.006652 0.007378
v 0.001943 0.006781 0.007417
v 0.002129 0.006616 0.007301
v 0.000127 0.000299 0.000395
v 0.000984 0.000226 0.000240
v -0.000731 0.000372 0.000550
v 0.000500 0.002094 0.001622
v 0.001609 0.002000 0.001422
v -0.000609 0.002188 0.001823
v 0.001174 0.000635 0.000676
v 0.001338 0.001086 0.000948
v 0.000333 0.001172 0.001129
v -0.000689 0.000793 0.001012
v 0.000243 0.000714 0.000844
v 0.000423 0.001583 0.001433
v -0.000646 0.001674 0.001626
v -0.000672 0.001257 0.001311
v 0.001491 0.001492 0.001241
v 0.000079 -0.000199 0.000368
v -0.000724 -0.000131 0.000512
v -0.000729 -0.000268 0.000441
v 0.000840 -0.000401 0.000158
v 0.000882 -0.000267 0.000223
v 0.000056 -0.000334 0.000300
v 0.001744 0.002178 0.001915
v 0.001871 0.002450 0.002301
v 0.000699 0.002549 0.002513
v -0.000534 0.002371 0.002326
v 0.000605 0.002274 0.002120
v 0.000843 0.002885 0.003152
v -0.000353 0.002987 0.003368
v -0.000472 0.002648 0.002724
v 0.002039 0.002784 0.002936
v 0.002289 0.003290 0.004036
v 0.001085 0.003392 0.004254
v 0.000207 0.004123 0.005639
v -0.000120 0.003494 0.004471
v 0.002495 0.003929 0.005226
v 0.001351 0.004026 0.005432
v 0.002528 0.004658 0.006108
v 0.000601 0.004821 0.006456
v 0.001014 0.005512 0.006998
v 0.001565 0.004739 0.006282
v 0.002448 0.005391 0.006740
v 0.001731 0.005451 0.006869
v 0.002318 0.006051 0.007193
v 0.001399 0.006129 0.007359
v 0.001726 0.006556 0.007552
v 0.001859 0.006090 0.007276
v 0.002152 0.006520 0.007475
v 0.001966 0.006685 0.007591
v 0.001008 0.000132 0.000415
v 0.000150 0.000204 0.000570
v -0.000708 0.000277 0.000724
v 0.001622 0.001858 0.001562
v 0.000513 0.001951 0.001762
v -0.000596 0.002045 0.001962
v -0.000867 0.001111 0.000256
v -0.000282 0.001083 0.001100
v -0.000001 0.000657 0.000827
v -0.000542 0.000657 0.000046
v -0.001084 0.000657 -0.000734
v -0.001451 0.001140 -0.000588
v -0.001820 0.001611 -0.000426
v -0.001200 0.001541 0.000473
v -0.000579 0.001470 0.001371
v -0.000357 -0.000336 -0.001022
v -0.000448 -0.000211 -0.000986
v 0.000019 -0.000190 -0.000314
v 0.000486 -0.000170 0.000357
v 0.000556 -0.000290 0.000291
v 0.000099 -0.000313 -0.000366
v 0.000442 -0.000296 0.000127
v 0.000099 -0.000313 -0.000366
v -0.000243 -0.000330 -0.000858
v -0.001624 0.002346 0.002195
v -0.001253 0.002115 0.001906
v -0.001912 0.002328 0.000943
v -0.002297 0.002696 0.001203
v -0.002572 0.002542 -0.000020
v -0.002970 0.003047 0.000212
v -0.003540 0.003589 0.000639
v -0.002873 0.003062 0.001633
v -0.002205 0.002535 0.002627
v -0.003188 0.002708 0.003325
v -0.003810 0.003441 0.002384
v -0.004433 0.004174 0.001442
v -0.005387 0.004442 0.002320
v -0.004833 0.003637 0.003167
v -0.004279 0.002831 0.004014
v -0.005186 0.002871 0.004420
v -0.006141 0.004033 0.002972
v -0.005664 0.003452 0.003696
v -0.006692 0.003412 0.003491
v -0.006310 0.003133 0.004058
v -0.005928 0.002855 0.004626
v -0.006525 0.002812 0.004716
v -0.007035 0.003045 0.003967
v -0.006780 0.002928 0.004341
v -0.007186 0.002858 0.004349
v -0.007162 0.002780 0.004585
v -0.006947 0.002776 0.004699
v -0.000221 0.000178 -0.000160
v 0.000278 0.000193 0.000558
v -0.000720 0.000164 -0.000879
v -0.000904 0.001819 0.001636
v -0.001548 0.001945 0.000701
v -0.002191 0.002071 -0.000234
v -0.000127 0.000528 0.000914
v -0.000405 0.000947 0.001180
v -0.000992 0.000978 0.000338
v -0.001212 0.000532 -0.000646
v -0.000669 0.000530 0.000134
v -0.001323 0.001401 0.000546
v -0.001946 0.001475 -0.000350
v -0.001578 0.001010 -0.000504
v -0.000699 0.001327 0.001442
v -0.000109 -0.000313 -0.000222
v -0.000577 -0.000333 -0.000893
v -0.000486 -0.000458 -0.000929
v 0.000428 -0.000413 0.000383
v 0.000359 -0.000293 0.000450
v -0.000029 -0.000435 -0.000273
v -0.002033 0.002176 0.000990
v -0.001365 0.001954 0.001945
v -0.001727 0.002174 0.002202
v -0.002700 0.002399 0.000034
v -0.002412 0.002533 0.001221
v -0.002977 0.002893 0.001611
v -0.003656 0.003427 0.000628
v -0.003096 0.002894 0.000240
v -0.002297 0.002361 0.002594
v -0.003274 0.002541 0.003256
v -0.003906 0.003277 0.002323
v -0.004898 0.003475 0.003069
v -0.005452 0.004280 0.002222
v -0.004538 0.004012 0.001390
v -0.004344 0.002670 0.003916
v -0.005211 0.002706 0.004309
v -0.006141 0.003875 0.002850
v -0.006660 0.003248 0.003381
v -0.005676 0.003290 0.003579
v -0.005924 0.002680 0.004529
v -0.006292 0.002963 0.003955
v -0.006507 0.002628 0.004639
v -0.007003 0.002866 0.003883
v -0.007156 0.002674 0.004276
v -0.006755 0.002747 0.004261
v -0.006923 0.002589 0.004631
v -0.007135 0.002595 0.004514
v 0.000151 0.000068 0.000649
v -0.000349 0.000055 -0.000069
v -0.000849 0.000041 -0.000787
v -0.001020 0.001666 0.001693
v -0.001668 0.001798 0.000763
v -0.002317 0.001930 -0.000168
v -0.001078 0.001032 -0.000529
v -0.001165 0.001077 0.000491
v -0.000763 0.000670 0.000468
v -0.000683 0.000628 -0.000478
v -0.000602 0.000586 -0.001423
v -0.000991 0.000987 -0.001550
v -0.001392 0.001340 -0.001664
v -0.001484 0.001388 -0.000580
v -0.001576 0.001437 0.000505
v 0.000166 -0.000337 -0.001166
v 0.000071 -0.000218 -0.001198
v 0.000001 -0.000182 -0.000383
v -0.000068 -0.000146 0.000431
v 0.000031 -0.000266 0.000426
v 0.000099 -0.000301 -0.000370
v 0.000048 -0.000275 0.000227
v 0.000099 -0.000301 -0.000370
v 0.000149 -0.000328 -0.000967
v -0.002827 0.002169 -0.000729
v -0.002928 0.002221 0.000460
v -0.002453 0.002012 0.000477
v -0.002354 0.001961 -0.000679
v -0.002256 0.001909 -0.001836
v -0.002726 0.002116 -0.001917
v -0.003450 0.002206 -0.002008
v -0.003553 0.002259 -0.000794
v -0.003657 0.002313 0.000420
v -0.004761 0.002170 -0.000893
v -0.004865 0.002224 0.000329
v -0.004657 0.002116 -0.002116
v -0.005953 0.001880 -0.002154
v -0.006052 0.001932 -0.000993
v -0.006151 0.001983 0.000169
v -0.007113 0.001618 -0.000082
v -0.006946 0.001531 -0.002038
v -0.007030 0.001575 -0.001060
v -0.007696 0.001139 -0.001832
v -0.007758 0.001171 -0.001104
v -0.007820 0.001204 -0.000377
v -0.008340 0.000815 -0.000668
v -0.008261 0.000774 -0.001600
v -0.008301 0.000795 -0.001134
v -0.008620 0.000513 -0.001366
v -0.008751 0.000432 -0.001156
v -0.008657 0.000532 -0.000934
v -0.000291 0.000176 -0.000424
v -0.000365 0.000214 0.000446
v -0.000217 0.000137 -0.001295
v -0.001908 0.001699 -0.000629
v -0.002004 0.001749 0.000496
v -0.001812 0.001649 -0.001755
v -0.000910 0.000534 0.000461
v -0.001302 0.000932 0.000486
v -0.001215 0.000886 -0.000534
v -0.000749 0.000450 -0.001429
v -0.000829 0.000492 -0.000484
v -0.001609 0.001232 -0.000583
v -0.001516 0.001184 -0.001668
v -0.001128 0.000841 -0.001555
v -0.001701 0.001280 0.000501
v -0.000153 -0.000309 -0.000391
v -0.000084 -0.000345 -0.001206
v 0.000012 -0.000464 -0.001174
v -0.000124 -0.000393 0.000419
v -0.000223 -0.000273 0.000424
v -0.000056 -0.000428 -0.000377
v -0.002544 0.001834 0.000478
v -0.002982 0.002029 0.000464
v -0.002880 0.001976 -0.000725
v -0.002347 0.001731 -0.001835
v -0.002445 0.001783 -0.000679
v -0.003559 0.002060 -0.000786
v -0.003456 0.002006 -0.002000
v -0.002779 0.001923 -0.001913
v -0.003662 0.002114 0.000428
v -0.004840 0.002026 0.000340
v -0.004736 0.001972 -0.000882
v -0.005902 0.001688 -0.002141
v -0.004632 0.001918 -0.002105
v -0.006099 0.001791 0.000182
v -0.006000 0.001739 -0.000980
v -0.007031 0.001436 -0.000067
v -0.006865 0.001349 -0.002023
v -0.007591 0.000969 -0.001815
v -0.006948 0.001393 -0.001045
v -0.007715 0.001034 -0.000360
v -0.007653 0.001002 -0.001088
v -0.008222 0.000655 -0.000650
v -0.008142 0.000614 -0.001582
v -0.008495 0.000357 -0.001349
v -0.008182 0.000635 -0.001116
v -0.008532 0.000376 -0.000917
v -0.008626 0.000276 -0.001138
v -0.000518 0.000085 0.000439
v -0.000444 0.000047 -0.000431
v -0.000370 0.000008 -0.001302
v -0.002113 0.001582 0.000494
v -0.002018 0.001532 -0.000631
v -0.001922 0.001482 -0.001757
v 0.001056 0.000942 -0.001178
v 0.000414 0.000915 -0.001976
v 0.000143 0.000540 -0.001649
v 0.000739 0.000565 -0.000909
v 0.001334 0.000590 -0.000170
v 0.001699 0.000969 -0.000379
v 0.002064 0.001299 -0.000602
v 0.001381 0.001270 -0.001450
v 0.000698 0.001242 -0.002299
v 0.000609 -0.000293 0.000251
v 0.000700 -0.000179 0.000198
v 0.000187 -0.000201 -0.000439
v -0.000327 -0.000222 -0.001077
v -0.000394 -0.000334 -0.000995
v 0.000108 -0.000314 -0.000372
v -0.000268 -0.000329 -0.000839
v 0.000108 -0.000314 -0.000372
v 0.000484 -0.000298 0.000095
v 0.002447 0.001950 -0.002331
v 0.001699 0.001919 -0.003262
v 0.001345 0.001749 -0.002929
v 0.002074 0.001779 -0.002025
v 0.002802 0.001809 -0.001120
v 0.003196 0.001981 -0.001401
v 0.003782 0.002081 -0.001844
v 0.003018 0.002050 -0.002794
v 0.002253 0.002018 -0.003744
v 0.003962 0.002062 -0.003554
v 0.003192 0.002030 -0.004510
v 0.004731 0.002095 -0.002598
v 0.005701 0.002063 -0.003456
v 0.004969 0.002032 -0.004364
v 0.004238 0.002002 -0.005273
v 0.005115 0.001977 -0.005741
v 0.006346 0.002028 -0.004211
v 0.005730 0.002002 -0.004976
v 0.006754 0.001995 -0.004861
v 0.006296 0.001976 -0.005430
v 0.005838 0.001957 -0.005999
v 0.006423 0.001944 -0.006133
v 0.007010 0.001968 -0.005404
v 0.006716 0.001956 -0.005768
v 0.007114 0.001949 -0.005809
v 0.007065 0.001940 -0.006048
v 0.006842 0.001938 -0.006147
v 0.000423 0.000138 -0.000641
v -0.000125 0.000115 -0.001322
v 0.000971 0.000161 0.000040
v 0.001719 0.001551 -0.001732
v 0.001010 0.001522 -0.002613
v 0.002428 0.001581 -0.000851
v 0.000254 0.000397 -0.001733
v 0.000516 0.000762 -0.002053
v 0.001159 0.000789 -0.001255
v 0.001444 0.000446 -0.000254
v 0.000849 0.000421 -0.000994
v 0.001474 0.001107 -0.001519
v 0.002156 0.001135 -0.000671
v 0.001801 0.000816 -0.000457
v 0.000791 0.001079 -0.002368
v 0.000304 -0.000336 -0.000529
v 0.000817 -0.000314 0.000108
v 0.000726 -0.000428 0.000161
v -0.000276 -0.000469 -0.001085
v -0.000209 -0.000357 -0.001167
v 0.000225 -0.000449 -0.000462
v 0.001409 0.001565 -0.002975
v 0.001738 0.001725 -0.003287
v 0.002487 0.001756 -0.002357
v 0.002866 0.001625 -0.001165
v 0.002137 0.001595 -0.002070
v 0.003032 0.001850 -0.002799
v 0.003797 0.001882 -0.001849
v 0.003236 0.001787 -0.001427
v 0.002268 0.001818 -0.003749
v 0.003194 0.001831 -0.004506
v 0.003964 0.001863 -0.003549
v 0.005700 0.001863 -0.003448
v 0.004734 0.001895 -0.002593
v 0.004237 0.001802 -0.005265
v 0.004968 0.001832 -0.004357
v 0.005113 0.001777 -0.005732
v 0.006344 0.001828 -0.004203
v 0.006751 0.001795 -0.004852
v 0.005728 0.001802 -0.004968
v 0.005835 0.001757 -0.005991
v 0.006293 0.001776 -0.005422
v 0.006421 0.001744 -0.006124
v 0.007008 0.001768 -0.005395
v 0.007111 0.001750 -0.005801
v 0.006714 0.001756 -0.005760
v 0.006839 0.001738 -0.006139
v 0.007063 0.001740 -0.006040
v -0.000010 -0.000022 -0.001410
v 0.000538 0.000001 -0.000729
v 0.001087 0.000024 -0.000048
v 0.001090 0.001347 -0.002671
v 0.001799 0.001377 -0.001790
v 0.002508 0.001406 -0.000909
vt 0.684850 0.341640
vt 0.657620 0.311150
vt 0.676650 0.289600
vt 0.698540 0.314110
vt 0.720440 0.338630
vt 0.712080 0.372130
vt 0.705470 0.405760
vt 0.671740 0.367980
vt 0.638000 0.330200
vt 0.745740 0.273750
vt 0.742160 0.282210
vt 0.724350 0.262270
vt 0.706530 0.242320
vt 0.710930 0.234760
vt 0.728340 0.254250
vt 0.715530 0.239120
vt 0.728680 0.253570
vt 0.741650 0.268360
vt 0.633840 0.444120
vt 0.583180 0.387390
vt 0.600520 0.367490
vt 0.646410 0.418880
vt 0.692300 0.470260
vt 0.684500 0.500850
vt 0.680220 0.516080
vt 0.627710 0.456750
vt 0.575200 0.397420
vt 0.634420 0.444180
vt 0.584870 0.386560
vt 0.683980 0.501800
vt 0.691550 0.471560
vt 0.647390 0.419200
vt 0.603240 0.366830
vt 0.621340 0.350230
vt 0.698710 0.438960
vt 0.660020 0.394600
vt 0.704050 0.405000
vt 0.672160 0.370230
vt 0.640280 0.335460
vt 0.661130 0.321230
vt 0.706180 0.370690
vt 0.683650 0.345960
vt 0.703600 0.341200
vt 0.694820 0.321730
vt 0.680450 0.314370
vt 0.713060 0.284940
vt 0.694030 0.263630
vt 0.732100 0.306250
vt 0.658980 0.393610
vt 0.618880 0.348710
vt 0.699080 0.438520
vt 0.676650 0.289600
vt 0.657620 0.311150
vt 0.684850 0.341640
vt 0.720440 0.338630
vt 0.698540 0.314110
vt 0.671740 0.367980
vt 0.705470 0.405760
vt 0.712080 0.372130
vt 0.638000 0.330200
vt 0.724350 0.262270
vt 0.742160 0.282210
vt 0.745740 0.273750
vt 0.710930 0.234760
vt 0.706530 0.242320
vt 0.728340 0.254250
vt 0.600520 0.367490
vt 0.583180 0.387390
vt 0.633840 0.444120
vt 0.692300 0.470260
vt 0.646410 0.418880
vt 0.627710 0.456750
vt 0.680220 0.516080
vt 0.684500 0.500850
vt 0.575200 0.397420
vt 0.584870 0.386560
vt 0.634420 0.444180
vt 0.691550 0.471560
vt 0.683980 0.501800
vt 0.603240 0.366830
vt 0.647390 0.419200
vt 0.621340 0.350230
vt 0.698710 0.438960
vt 0.704050 0.405000
vt 0.660020 0.394600
vt 0.640280 0.335460
vt 0.672160 0.370230
vt 0.661130 0.321230
vt 0.706180 0.370690
vt 0.703600 0.341200
vt 0.683650 0.345960
vt 0.680450 0.314370
vt 0.694820 0.321730
vt 0.694030 0.263630
vt 0.713060 0.284940
vt 0.732100 0.306250
vt 0.618880 0.348710
vt 0.658980 0.393610
vt 0.699080 0.438520
vt 0.684850 0.341640
vt 0.657620 0.311150
vt 0.676650 0.289600
vt 0.698540 0.314110
vt 0.720440 0.338630
vt 0.712080 0.372130
vt 0.705470 0.405760
vt 0.671740 0.367980
vt 0.638000 0.330200
vt 0.745740 0.273750
vt 0.742160 0.282210
vt 0.724350 0.262270
vt 0.706530 0.242320
vt 0.710930 0.234760
vt 0.728340 0.254250
vt 0.715530 0.239120
vt 0.728680 0.253570
vt 0.741650 0.268360
vt 0.633840 0.444120
vt 0.583180 0.387390
vt 0.600520 0.367490
vt 0.646410 0.418880
vt 0.692300 0.470260
vt 0.684500 0.500850
vt 0.680220 0.516080
vt 0.627710 0.456750
vt 0.575200 0.397420
vt 0.634420 0.444180
vt 0.584870 0.386560
vt 0.683980 0.501800
vt 0.691550 0.471560
vt 0.647390 0.419200
vt 0.603240 0.366830
vt 0.621340 0.350230
vt 0.698710 0.438960
vt 0.660020 0.394600
vt 0.704050 0.405000
vt 0.672160 0.370230
vt 0.640280 0.335460
vt 0.661130 0.321230
vt 0.706180 0.370690
vt 0.683650 0.345960
vt 0.703600 0.341200
vt 0.694820 0.321730
vt 0.680450 0.314370
vt 0.713060 0.284940
vt 0.694030 0.263630
vt 0.732100 0.306250
vt 0.658980 0.393610
vt 0.618880 0.348710
vt 0.699080 0.438520
vt 0.676650 0.289600
vt 0.657620 0.311150
vt 0.684850 0.341640
vt 0.720440 0.338630
vt 0.698540 0.314110
vt 0.671740 0.367980
vt 0.705470 0.405760
vt 0.712080 0.372130
vt 0.638000 0.330200
vt 0.724350 0.262270
vt 0.742160 0.282210
vt 0.745740 0.273750
vt 0.710930 0.234760
vt 0.706530 0.242320
vt 0.728340 0.254250
vt 0.600520 0.367490
vt 0.583180 0.387390
vt 0.633840 0.444120
vt 0.692300 0.470260
vt 0.646410 0.418880
vt 0.627710 0.456750
vt 0.680220 0.516080
vt 0.684500 0.500850
vt 0.575200 0.397420
vt 0.584870 0.386560
vt 0.634420 0.444180
vt 0.691550 0.471560
vt 0.683980 0.501800
vt 0.603240 0.366830
vt 0.647390 0.419200
vt 0.621340 0.350230
vt 0.698710 0.438960
vt 0.704050 0.405000
vt 0.660020 0.394600
vt 0.640280 0.335460
vt 0.672160 0.370230
vt 0.661130 0.321230
vt 0.706180 0.370690
vt 0.703600 0.341200
vt 0.683650 0.345960
vt 0.680450 0.314370
vt 0.694820 0.321730
vt 0.694030 0.263630
vt 0.713060 0.284940
vt 0.732100 0.306250
vt 0.618880 0.348710
vt 0.658980 0.393610
vt 0.699080 0.438520
vt 0.684850 0.341640
vt 0.657620 0.311150
vt 0.676650 0.289600
vt 0.698540 0.314110
vt 0.720440 0.338630
vt 0.712080 0.372130
vt 0.705470 0.405760
vt 0.671740 0.367980
vt 0.638000 0.330200
vt 0.745740 0.273750
vt 0.742160 0.282210
vt 0.724350 0.262270
vt 0.706530 0.242320
vt 0.710930 0.234760
vt 0.728340 0.254250
vt 0.715530 0.239120
vt 0.728680 0.253570
vt 0.741650 0.268360
vt 0.633840 0.444120
vt 0.583180 0.387390
vt 0.600520 0.367490
vt 0.646410 0.418880
vt 0.692300 0.470260
vt 0.684500 0.500850
vt 0.680220 0.516080
vt 0.627710 0.456750
vt 0.575200 0.397420
vt 0.634420 0.444180
vt 0.584870 0.386560
vt 0.683980 0.501800
vt 0.691550 0.471560
vt 0.647390 0.419200
vt 0.603240 0.366830
vt 0.621340 0.350230
vt 0.698710 0.438960
vt 0.660020 0.394600
vt 0.704050 0.405000
vt 0.672160 0.370230
vt 0.640280 0.335460
vt 0.661130 0.321230
vt 0.706180 0.370690
vt 0.683650 0.345960
vt 0.703600 0.341200
vt 0.694820 0.321730
vt 0.680450 0.314370
vt 0.713060 0.284940
vt 0.694030 0.263630
vt 0.732100 0.306250
vt 0.658980 0.393610
vt 0.618880 0.348710
vt 0.699080 0.438520
vt 0.676650 0.289600
vt 0.657620 0.311150
vt 0.684850 0.341640
vt 0.720440 0.338630
vt 0.698540 0.314110
vt 0.671740 0.367980
vt 0.705470 0.405760
vt 0.712080 0.372130
vt 0.638000 0.330200
vt 0.724350 0.262270
vt 0.742160 0.282210
vt 0.745740 0.273750
vt 0.710930 0.234760
vt 0.706530 0.242320
vt 0.728340 0.254250
vt 0.600520 0.367490
vt 0.583180 0.387390
vt 0.633840 0.444120
vt 0.692300 0.470260
vt 0.646410 0.418880
vt 0.627710 0.456750
vt 0.680220 0.516080
vt 0.684500 0.500850
vt 0.575200 0.397420
vt 0.584870 0.386560
vt 0.634420 0.444180
vt 0.691550 0.471560
vt 0.683980 0.501800
vt 0.603240 0.366830
vt 0.647390 0.419200
vt 0.621340 0.350230
vt 0.698710 0.438960
vt 0.704050 0.405000
vt 0.660020 0.394600
vt 0.640280 0.335460
vt 0.672160 0.370230
vt 0.661130 0.321230
vt 0.706180 0.370690
vt 0.703600 0.341200
vt 0.683650 0.345960
vt 0.680450 0.314370
vt 0.694820 0.321730
vt 0.694030 0.263630
vt 0.713060 0.284940
vt 0.732100 0.306250
vt 0.618880 0.348710
vt 0.658980 0.393610
vt 0.699080 0.438520
vt 0.684850 0.341640
vt 0.657620 0.311150
vt 0.676650 0.289600
vt 0.698540 0.314110
vt 0.720440 0.338630
vt 0.712080 0.372130
vt 0.705470 0.405760
vt 0.671740 0.367980
vt 0.638000 0.330200
vt 0.745740 0.273750
vt 0.742160 0.282210
vt 0.724350 0.262270
vt 0.706530 0.242320
vt 0.710930 0.234760
vt 0.728340 0.254250
vt 0.715530 0.239120
vt 0.728680 0.253570
vt 0.741650 0.268360
vt 0.583180 0.387390
vt 0.600520 0.367490
vt 0.646410 0.418880
vt 0.633840 0.444120
vt 0.692300 0.470260
vt 0.684500 0.500850
vt 0.680220 0.516080
vt 0.627710 0.456750
vt 0.575200 0.397420
vt 0.584870 0.386560
vt 0.634420 0.444180
vt 0.683980 0.501800
vt 0.691550 0.471560
vt 0.647390 0.419200
vt 0.603240 0.366830
vt 0.621340 0.350230
vt 0.698710 0.438960
vt 0.660020 0.394600
vt 0.704050 0.405000
vt 0.672160 0.370230
vt 0.640280 0.335460
vt 0.661130 0.321230
vt 0.706180 0.370690
vt 0.683650 0.345960
vt 0.703600 0.341200
vt 0.694820 0.321730
vt 0.680450 0.314370
vt 0.713060 0.284940
vt 0.694030 0.263630
vt 0.732100 0.306250
vt 0.618880 0.348710
vt 0.658980 0.393610
vt 0.699080 0.438520
vt 0.676650 0.289600
vt 0.657620 0.311150
vt 0.684850 0.341640
vt 0.720440 0.338630
vt 0.698540 0.314110
vt 0.671740 0.367980
vt 0.705470 0.405760
vt 0.712080 0.372130
vt 0.638000 0.330200
vt 0.724350 0.262270
vt 0.742160 0.282210
vt 0.745740 0.273750
vt 0.710930 0.234760
vt 0.706530 0.242320
vt 0.728340 0.254250
vt 0.646410 0.418880
vt 0.600520 0.367490
vt 0.583180 0.387390
vt 0.692300 0.470260
vt 0.633840 0.444120
vt 0.627710 0.456750
vt 0.680220 0.516080
vt 0.684500 0.500850
vt 0.575200 0.397420
vt 0.584870 0.386560
vt 0.634420 0.444180
vt 0.647390 0.419200
vt 0.691550 0.471560
vt 0.683980 0.501800
vt 0.603240 0.366830
vt 0.621340 0.350230
vt 0.698710 0.438960
vt 0.704050 0.405000
vt 0.660020 0.394600
vt 0.640280 0.335460
vt 0.672160 0.370230
vt 0.661130 0.321230
vt 0.706180 0.370690
vt 0.703600 0.341200
vt 0.683650 0.345960
vt 0.680450 0.314370
vt 0.694820 0.321730
vt 0.694030 0.263630
vt 0.713060 0.284940
vt 0.732100 0.306250
vt 0.618880 0.348710
vt 0.658980 0.393610
vt 0.699080 0.438520
vt 0.684850 0.341640
vt 0.657620 0.311150
vt 0.676650 0.289600
vt 0.698540 0.314110
vt 0.720440 0.338630
vt 0.712080 0.372130
vt 0.705470 0.405760
vt 0.671740 0.367980
vt 0.638000 0.330200
vt 0.745740 0.273750
vt 0.742160 0.282210
vt 0.724350 0.262270
vt 0.706530 0.242320
vt 0.710930 0.234760
vt 0.728340 0.254250
vt 0.715530 0.239120
vt 0.728680 0.253570
vt 0.741650 0.268360
vt 0.633840 0.444120
vt 0.583180 0.387390
vt 0.600520 0.367490
vt 0.646410 0.418880
vt 0.692300 0.470260
vt 0.684500 0.500850
vt 0.680220 0.516080
vt 0.627710 0.456750
vt 0.575200 0.397420
vt 0.634420 0.444180
vt 0.584870 0.386560
vt 0.683980 0.501800
vt 0.691550 0.471560
vt 0.647390 0.419200
vt 0.603240 0.366830
vt 0.621340 0.350230
vt 0.698710 0.438960
vt 0.660020 0.394600
vt 0.704050 0.405000
vt 0.672160 0.370230
vt 0.640280 0.335460
vt 0.661130 0.321230
vt 0.706180 0.370690
vt 0.683650 0.345960
vt 0.703600 0.341200
vt 0.694820 0.321730
vt 0.680450 0.314370
vt 0.713060 0.284940
vt 0.694030 0.263630
vt 0.732100 0.306250
vt 0.658980 0.393610
vt 0.618880 0.348710
vt 0.699080 0.438520
vt 0.676650 0.289600
vt 0.657620 0.311150
vt 0.684850 0.341640
vt 0.720440 0.338630
vt 0.698540 0.314110
vt 0.671740 0.367980
vt 0.705470 0.405760
vt 0.712080 0.372130
vt 0.638000 0.330200
vt 0.724350 0.262270
vt 0.742160 0.282210
vt 0.745740 0.273750
vt 0.710930 0.234760
vt 0.706530 0.242320
vt 0.728340 0.254250
vt 0.600520 0.367490
vt 0.583180 0.387390
vt 0.633840 0.444120
vt 0.692300 0.470260
vt 0.646410 0.418880
vt 0.627710 0.456750
vt 0.680220 0.516080
vt 0.684500 0.500850
vt 0.575200 0.397420
vt 0.584870 0.386560
vt 0.634420 0.444180
vt 0.691550 0.471560
vt 0.683980 0.501800
vt 0.603240 0.366830
vt 0.647390 0.419200
vt 0.621340 0.350230
vt 0.698710 0.438960
vt 0.704050 0.405000
vt 0.660020 0.394600
vt 0.640280 0.335460
vt 0.672160 0.370230
vt 0.661130 0.321230
vt 0.706180 0.370690
vt 0.703600 0.341200
vt 0.683650 0.345960
vt 0.680450 0.314370
vt 0.694820 0.321730
vt 0.694030 0.263630
vt 0.713060 0.284940
vt 0.732100 0.306250
vt 0.618880 0.348710
vt 0.658980 0.393610
vt 0.699080 0.438520
vt 0.684850 0.341640
vt 0.657620 0.311150
vt 0.676650 0.289600
vt 0.698540 0.314110
vt 0.720440 0.338630
vt 0.712080 0.372130
vt 0.705470 0.405760
vt 0.671740 0.367980
vt 0.638000 0.330200
vt 0.745740 0.273750
vt 0.742160 0.282210
vt 0.724350 0.262270
vt 0.706530 0.242320
vt 0.710930 0.234760
vt 0.728340 0.254250
vt 0.715530 0.239120
vt 0.728680 0.253570
vt 0.741650 0.268360
vt 0.633840 0.444120
vt 0.583180 0.387390
vt 0.600520 0.367490
vt 0.646410 0.418880
vt 0.692300 0.470260
vt 0.684500 0.500850
vt 0.680220 0.516080
vt 0.627710 0.456750
vt 0.575200 0.397420
vt 0.634420 0.444180
vt 0.584870 0.386560
vt 0.683980 0.501800
vt 0.691550 0.471560
vt 0.647390 0.419200
vt 0.603240 0.366830
vt 0.621340 0.350230
vt 0.698710 0.438960
vt 0.660020 0.394600
vt 0.704050 0.405000
vt 0.672160 0.370230
vt 0.640280 0.335460
vt 0.661130 0.321230
vt 0.706180 0.370690
vt 0.683650 0.345960
vt 0.703600 0.341200
vt 0.694820 0.321730
vt 0.680450 0.314370
vt 0.713060 0.284940
vt 0.694030 0.263630
vt 0.732100 0.306250
vt 0.658980 0.393610
vt 0.618880 0.348710
vt 0.699080 0.438520
vt 0.676650 0.289600
vt 0.657620 0.311150
vt 0.684850 0.341640
vt 0.720440 0.338630
vt 0.698540 0.314110
vt 0.671740 0.367980
vt 0.705470 0.405760
vt 0.712080 0.372130
vt 0.638000 0.330200
vt 0.724350 0.262270
vt 0.742160 0.282210
vt 0.745740 0.273750
vt 0.710930 0.234760
vt 0.706530 0.242320
vt 0.728340 0.254250
vt 0.600520 0.367490
vt 0.583180 0.387390
vt 0.633840 0.444120
vt 0.692300 0.470260
vt 0.646410 0.418880
vt 0.627710 0.456750
vt 0.680220 0.516080
vt 0.684500 0.500850
vt 0.575200 0.397420
vt 0.584870 0.386560
vt 0.634420 0.444180
vt 0.691550 0.471560
vt 0.683980 0.501800
vt 0.603240 0.366830
vt 0.647390 0.419200
vt 0.621340 0.350230
vt 0.698710 0.438960
vt 0.704050 0.405000
vt 0.660020 0.394600
vt 0.640280 0.335460
vt 0.672160 0.370230
vt 0.661130 0.321230
vt 0.706180 0.370690
vt 0.703600 0.341200
vt 0.683650 0.345960
vt 0.680450 0.314370
vt 0.694820 0.321730
vt 0.694030 0.263630
vt 0.713060 0.284940
vt 0.732100 0.306250
vt 0.618880 0.348710
vt 0.658980 0.393610
vt 0.699080 0.438520
vn -0.0099 0.7707 0.6372
vn -0.7037 0.5024 0.5024
vn -0.7036 0.4637 0.5384
vn -0.0119 0.7236 0.6901
vn 0.6816 0.4485 0.5782
vn 0.6846 0.4872 0.5423
vn 0.6907 0.5387 0.4824
vn -0.0074 0.8217 0.5699
vn -0.7053 0.5540 0.4424
vn 0.5133 -0.0540 0.8565
vn 0.6888 0.4128 0.5959
vn -0.0136 0.6804 0.7327
vn -0.7134 0.4260 0.5563
vn -0.5626 -0.0422 0.8256
vn -0.0247 0.4276 0.9036
vn -0.4163 0.8293 0.3728
vn 0.0000 0.0000 1.0000
vn 0.0841 0.9638 0.2529
vn 0.0028 0.9633 0.2684
vn -0.6952 0.6892 0.2042
vn -0.6936 0.6570 0.2954
vn -0.0009 0.9235 0.3836
vn 0.6897 0.6418 0.3351
vn 0.6972 0.6740 0.2441
vn 0.7075 0.6876 0.1636
vn 0.0055 0.9832 0.1826
vn -0.7005 0.7029 0.1232
vn 0.0054 0.9825 0.1864
vn -0.7145 0.6931 0.0950
vn 0.7229 0.6774 0.1362
vn 0.7395 0.6554 0.1537
vn 0.0014 0.9497 0.3133
vn -0.7325 0.6716 0.1115
vn -0.7173 0.6771 0.1640
vn 0.7214 0.6614 0.2053
vn -0.0045 0.8728 0.4880
vn 0.6946 0.6692 0.2640
vn -0.0089 0.7899 0.6132
vn -0.6938 0.6844 0.2241
vn -0.6719 0.7000 0.2419
vn 0.6720 0.6853 0.2805
vn -0.0118 0.7245 0.6891
vn 0.5875 0.7936 0.1582
vn 0.0148 0.9906 -0.1362
vn -0.5781 0.8063 0.1247
vn -0.0132 0.6909 0.7228
vn -0.7091 0.4368 0.5535
vn 0.6856 0.4215 0.5935
vn -0.0044 0.8740 0.4859
vn -0.7001 0.6107 0.3700
vn 0.6910 0.5955 0.4099
vn -0.7013 -0.5646 -0.4352
vn -0.7070 -0.5888 -0.3918
vn 0.0099 -0.7706 -0.6373
vn 0.7126 -0.5800 -0.3946
vn 0.0119 -0.7235 -0.6902
vn 0.0074 -0.8216 -0.5700
vn 0.7204 -0.6192 -0.3125
vn 0.7153 -0.6044 -0.3509
vn -0.7147 -0.6034 -0.3537
vn 0.0136 -0.6803 -0.7328
vn 0.7089 -0.5514 -0.4398
vn 0.5291 -0.8486 0.0007
vn -0.5467 -0.8368 -0.0302
vn -0.6944 -0.5361 -0.4800
vn -0.0305 -0.4491 0.8929
vn -0.0099 -0.9993 -0.0374
vn -0.0223 0.3857 0.9224
vn -0.7195 -0.6506 -0.2430
vn -0.7262 -0.6662 -0.1699
vn -0.0028 -0.9634 -0.2682
vn 0.7179 -0.6663 -0.2018
vn 0.0009 -0.9235 -0.3836
vn -0.0055 -0.9832 -0.1824
vn 0.7111 -0.6970 -0.0924
vn 0.7200 -0.6820 -0.1284
vn -0.7196 -0.6814 -0.1334
vn -0.7095 -0.6850 -0.1655
vn -0.0054 -0.9824 -0.1868
vn 0.6978 -0.6641 -0.2685
vn 0.7027 -0.7004 -0.1250
vn -0.6956 -0.6488 -0.3085
vn -0.0014 -0.9496 -0.3135
vn -0.6769 -0.5486 -0.4908
vn 0.6918 -0.5635 -0.4515
vn 0.6833 -0.4495 -0.5754
vn 0.0044 -0.8730 -0.4878
vn -0.6588 -0.4348 -0.6139
vn 0.0089 -0.7901 -0.6129
vn -0.6414 -0.3190 -0.6978
vn 0.6732 -0.3334 -0.6601
vn 0.6025 -0.1266 -0.7880
vn 0.0118 -0.7248 -0.6889
vn -0.5590 -0.1138 -0.8213
vn 0.0301 0.1666 -0.9856
vn -0.6975 -0.5427 -0.4680
vn 0.0132 -0.6908 -0.7229
vn 0.7111 -0.5581 -0.4276
vn -0.7177 -0.6230 -0.3110
vn 0.0044 -0.8739 -0.4860
vn 0.7206 -0.6387 -0.2697
vn -0.0103 0.7627 0.6466
vn -0.7044 0.4963 0.5075
vn -0.7041 0.4587 0.5420
vn -0.0122 0.7169 0.6971
vn 0.6818 0.4435 0.5818
vn 0.6848 0.4811 0.5474
vn 0.6908 0.5316 0.4901
vn -0.0078 0.8128 0.5825
vn -0.7059 0.5469 0.4500
vn 0.5136 -0.0602 0.8559
vn 0.6894 0.4069 0.5992
vn -0.0138 0.6747 0.7380
vn -0.7137 0.4222 0.5590
vn -0.5630 -0.0484 0.8250
vn 0.0491 0.4812 0.8752
vn 0.1432 0.9693 0.1997
vn -0.3513 0.9082 0.2277
vn 0.0045 0.9767 0.2148
vn -0.6764 0.7171 0.1681
vn -0.6942 0.6490 0.3112
vn -0.0016 0.9138 0.4061
vn 0.6893 0.6339 0.3508
vn 0.6812 0.7022 0.2071
vn 0.6970 0.7170 0.0142
vn 0.0117 0.9996 -0.0264
vn -0.6808 0.7320 -0.0254
vn 0.0159 0.9838 -0.1786
vn -0.6896 0.7061 -0.1606
vn 0.7130 0.6908 -0.1204
vn 0.7160 0.6429 -0.2723
vn 0.0193 0.9498 -0.3124
vn -0.6850 0.6581 -0.3124
vn -0.6658 0.5656 -0.4866
vn 0.7049 0.5505 -0.4473
vn 0.0229 0.8870 -0.4612
vn 0.6881 0.4453 -0.5728
vn 0.0253 0.8207 -0.5708
vn -0.6442 0.4600 -0.6110
vn -0.6196 0.3489 -0.7032
vn 0.6663 0.3349 -0.6662
vn 0.0267 0.7681 -0.6397
vn 0.5711 0.1430 -0.8083
vn 0.0276 -0.0862 -0.9959
vn -0.5206 0.1549 -0.8396
vn -0.0134 0.6850 0.7284
vn -0.7095 0.4325 0.5563
vn 0.6858 0.4174 0.5963
vn -0.0050 0.8643 0.5029
vn -0.7010 0.6028 0.3811
vn 0.6910 0.5876 0.4210
vn -0.7010 -0.5600 -0.4416
vn -0.7065 -0.5837 -0.4002
vn 0.0103 -0.7627 -0.6467
vn 0.7128 -0.5754 -0.4011
vn 0.0121 -0.7168 -0.6971
vn 0.0078 -0.8127 -0.5826
vn 0.7205 -0.6136 -0.3230
vn 0.7154 -0.5992 -0.3594
vn -0.7140 -0.5979 -0.3642
vn 0.0138 -0.6747 -0.7380
vn 0.7091 -0.5474 -0.4444
vn 0.5296 -0.8482 -0.0059
vn -0.5469 -0.8364 -0.0368
vn -0.6943 -0.5320 -0.4847
vn -0.0305 -0.4577 0.8886
vn -0.0096 -0.9989 -0.0450
vn -0.0224 0.3821 0.9239
vn -0.7183 -0.6450 -0.2610
vn -0.7473 -0.6525 -0.1257
vn -0.0045 -0.9764 -0.2158
vn 0.7178 -0.6607 -0.2197
vn 0.0017 -0.9130 -0.4079
vn -0.0117 -0.9996 0.0275
vn 0.7234 -0.6882 0.0561
vn 0.7388 -0.6688 -0.0831
vn -0.7403 -0.6721 0.0141
vn -0.7348 -0.6726 0.0876
vn -0.0159 -0.9838 0.1787
vn 0.7220 -0.6756 0.1493
vn 0.7137 -0.6885 0.1292
vn -0.7440 -0.6596 0.1071
vn -0.0193 -0.9498 0.3123
vn -0.7263 -0.6748 0.1307
vn 0.7027 -0.6905 0.1716
vn 0.6715 -0.7119 0.2058
vn -0.0229 -0.8869 0.4614
vn -0.6975 -0.6970 0.1665
vn -0.0254 -0.8205 0.5710
vn -0.6681 -0.7257 0.1645
vn 0.6415 -0.7400 0.2021
vn 0.5371 -0.8405 0.0709
vn -0.0267 -0.7680 0.6399
vn -0.5585 -0.8286 0.0395
vn -0.0052 -0.9810 -0.1939
vn -0.6973 -0.5385 -0.4732
vn 0.0134 -0.6850 -0.7285
vn 0.7114 -0.5539 -0.4327
vn -0.7168 -0.6173 -0.3243
vn 0.0049 -0.8643 -0.5030
vn 0.7205 -0.6331 -0.2830
vn -0.0099 0.7706 0.6372
vn -0.7036 0.4637 0.5385
vn 0.6816 0.4486 0.5781
vn 0.6846 0.4872 0.5422
vn 0.5132 -0.0539 0.8566
vn 0.6895 0.4108 0.5966
vn -0.0137 0.6804 0.7328
vn -0.7134 0.4261 0.5563
vn -0.5625 -0.0421 0.8257
vn -0.1459 0.3951 0.9070
vn 0.0011 0.9923 -0.1240
vn -0.0602 0.9124 0.4049
vn -0.6960 0.6559 0.2921
vn -0.0009 0.9235 0.3835
vn 0.6897 0.6419 0.3351
vn 0.6973 0.6739 0.2441
vn 0.7075 0.6875 0.1635
vn 0.0056 0.9832 0.1826
vn -0.7005 0.7030 0.1232
vn 0.7395 0.6554 0.1536
vn -0.7326 0.6715 0.1114
vn -0.7173 0.6772 0.1640
vn -0.0044 0.8728 0.4881
vn 0.6945 0.6693 0.2640
vn -0.6937 0.6845 0.2242
vn -0.6719 0.7000 0.2420
vn -0.0119 0.7245 0.6891
vn 0.5875 0.7936 0.1581
vn -0.5781 0.8064 0.1248
vn -0.0132 0.6910 0.7228
vn -0.7092 0.4368 0.5534
vn -0.7001 0.6107 0.3701
vn 0.6909 0.5955 0.4099
vn 0.0098 -0.7706 -0.6372
vn 0.7126 -0.5801 -0.3946
vn 0.0120 -0.7235 -0.6902
vn 0.0073 -0.8216 -0.5700
vn 0.7205 -0.6191 -0.3124
vn 0.7153 -0.6043 -0.3509
vn -0.7147 -0.6034 -0.3536
vn 0.7089 -0.5515 -0.4397
vn 0.5291 -0.8486 0.0006
vn -0.0305 -0.4491 0.8930
vn -0.0223 0.3856 0.9224
vn -0.7196 -0.6505 -0.2429
vn -0.7262 -0.6662 -0.1698
vn 0.7179 -0.6662 -0.2017
vn 0.0010 -0.9235 -0.3836
vn -0.0056 -0.9832 -0.1824
vn 0.7110 -0.6971 -0.0924
vn 0.7200 -0.6820 -0.1283
vn -0.7196 -0.6814 -0.1335
vn -0.7096 -0.6849 -0.1654
vn -0.0054 -0.9824 -0.1867
vn 0.7028 -0.7004 -0.1249
vn -0.6956 -0.6488 -0.3084
vn -0.6768 -0.5486 -0.4909
vn 0.6918 -0.5635 -0.4516
vn 0.6833 -0.4494 -0.5754
vn 0.0045 -0.8730 -0.4878
vn -0.6588 -0.4348 -0.6140
vn -0.6414 -0.3189 -0.6978
vn 0.6732 -0.3333 -0.6600
vn -0.5590 -0.1139 -0.8213
vn 0.0302 0.1666 -0.9856
vn 0.0132 -0.6909 -0.7229
vn 0.7112 -0.5581 -0.4275
vn 0.7206 -0.6388 -0.2696
vn -0.0530 0.7200 0.6919
vn -0.7365 0.4509 0.5042
vn -0.7224 0.4356 0.5371
vn -0.0344 0.6942 0.7190
vn 0.6713 0.4268 0.6060
vn 0.6595 0.4553 0.5981
vn 0.6432 0.5022 0.5780
vn -0.0802 0.7514 0.6549
vn -0.7577 0.4742 0.4484
vn 0.5143 -0.0679 0.8549
vn 0.6869 0.4037 0.6044
vn -0.0168 0.6717 0.7406
vn -0.7162 0.4214 0.5564
vn -0.5626 -0.0473 0.8254
vn 0.0013 0.3837 0.9235
vn 0.2119 0.9762 0.0459
vn -0.4645 0.6601 0.5904
vn -0.8646 0.4520 0.2194
vn -0.8146 0.4860 0.3166
vn -0.1819 0.8074 0.5613
vn -0.2809 0.8463 0.4526
vn 0.5653 0.5990 0.5671
vn 0.4773 0.7171 0.5079
vn 0.3590 0.8612 0.3598
vn -0.4121 0.8631 0.2919
vn -0.9301 0.3526 0.1026
vn -0.9745 0.2242 0.0116
vn -0.5408 0.8287 0.1446
vn 0.2161 0.9601 0.1773
vn 0.1402 0.9755 -0.1696
vn -0.6003 0.7944 -0.0924
vn -0.9790 0.1516 -0.1362
vn -0.9303 0.1591 -0.3305
vn 0.2240 0.8150 -0.5344
vn -0.5196 0.7739 -0.3620
vn 0.4099 0.6502 -0.6397
vn -0.3760 0.8129 -0.4448
vn -0.8530 0.2337 -0.4667
vn -0.7627 0.3027 -0.5716
vn 0.4768 0.5912 -0.6505
vn -0.2627 0.8742 -0.4083
vn 0.4032 0.4765 -0.7813
vn -0.0642 0.2486 -0.9665
vn -0.5855 0.2774 -0.7617
vn -0.0230 0.6774 0.7353
vn -0.7176 0.4252 0.5516
vn 0.6812 0.4108 0.6060
vn -0.7803 0.4947 0.3825
vn -0.1204 0.7830 0.6103
vn 0.6151 0.5537 0.5613
vn -0.6831 -0.5612 -0.4674
vn -0.6735 -0.5860 -0.4506
vn 0.0530 -0.7200 -0.6919
vn 0.7250 -0.5449 -0.4212
vn 0.0343 -0.6942 -0.7190
vn 0.0803 -0.7515 -0.6548
vn 0.7636 -0.5300 -0.3689
vn 0.7410 -0.5432 -0.3947
vn -0.6583 -0.6096 -0.4417
vn 0.0168 -0.6717 -0.7406
vn 0.7119 -0.5409 -0.4480
vn 0.5300 -0.8479 -0.0135
vn -0.5472 -0.8362 -0.0361
vn -0.6918 -0.5340 -0.4861
vn -0.0299 -0.4582 0.8883
vn -0.0083 -0.9988 -0.0490
vn -0.0299 -0.4663 0.8841
vn -0.0213 0.3802 0.9246
vn 0.1816 -0.8074 -0.5614
vn -0.5717 -0.7173 -0.3983
vn -0.4894 -0.8153 -0.3094
vn 0.8187 -0.4841 -0.3090
vn 0.2807 -0.8460 -0.4533
vn 0.4122 -0.8629 -0.2922
vn 0.9484 -0.2863 -0.1360
vn 0.8936 -0.4005 -0.2027
vn -0.3531 -0.9163 -0.1888
vn -0.2280 -0.9682 -0.1032
vn 0.5409 -0.8284 -0.1458
vn 0.6007 -0.7941 0.0924
vn 0.9943 -0.0493 -0.0944
vn 0.9830 -0.1548 -0.0992
vn -0.1770 -0.9839 -0.0237
vn -0.2144 -0.9754 0.0519
vn 0.9767 -0.2145 -0.0101
vn 0.9032 -0.4167 0.1027
vn 0.5189 -0.7732 0.3645
vn -0.3143 -0.9482 0.0454
vn 0.3756 -0.8129 0.4451
vn -0.3873 -0.9196 -0.0658
vn 0.8225 -0.5687 -0.0109
vn 0.6825 -0.6925 -0.2338
vn 0.2629 -0.8742 0.4082
vn -0.2980 -0.9125 -0.2801
vn 0.2193 -0.8444 -0.4888
vn -0.6894 -0.5411 -0.4815
vn 0.0230 -0.6773 -0.7353
vn 0.7168 -0.5412 -0.4397
vn -0.6266 -0.6494 -0.4309
vn 0.1204 -0.7831 -0.6101
vn 0.7865 -0.5118 -0.3457
vn -0.0102 0.7628 0.6466
vn -0.7042 0.4586 0.5420
vn -0.0079 0.8128 0.5825
vn -0.7060 0.5469 0.4500
vn 0.5135 -0.0603 0.8559
vn 0.6894 0.4069 0.5993
vn -0.7136 0.4222 0.5590
vn -0.0568 0.5102 0.8582
vn 0.0775 0.9626 0.2596
vn 0.6337 0.7224 0.2766
vn 0.0045 0.9766 0.2148
vn -0.6943 0.6490 0.3111
vn 0.6811 0.7023 0.2070
vn 0.6970 0.7169 0.0141
vn -0.6897 0.7061 -0.1606
vn 0.7160 0.6428 -0.2723
vn 0.0193 0.9497 -0.3124
vn -0.6850 0.6582 -0.3124
vn 0.6881 0.4453 -0.5729
vn 0.0254 0.8207 -0.5708
vn -0.6443 0.4599 -0.6111
vn -0.6195 0.3490 -0.7031
vn 0.0267 0.7682 -0.6397
vn 0.0276 -0.0861 -0.9959
vn -0.5206 0.1548 -0.8396
vn -0.7095 0.4326 0.5563
vn 0.6857 0.4172 0.5964
vn -0.0050 0.8644 0.5029
vn 0.6911 0.5875 0.4210
vn -0.7009 -0.5601 -0.4416
vn -0.7065 -0.5836 -0.4002
vn 0.0102 -0.7627 -0.6467
vn 0.7127 -0.5755 -0.4011
vn 0.0122 -0.7168 -0.6972
vn 0.7205 -0.6136 -0.3231
vn 0.7154 -0.5991 -0.3594
vn -0.7141 -0.5979 -0.3642
vn 0.5297 -0.8482 -0.0058
vn -0.5469 -0.8364 -0.0367
vn -0.6943 -0.5321 -0.4847
vn -0.7182 -0.6450 -0.2610
vn 0.7177 -0.6608 -0.2197
vn 0.7234 -0.6881 0.0560
vn -0.7402 -0.6722 0.0141
vn -0.7347 -0.6727 0.0876
vn 0.7136 -0.6885 0.1292
vn -0.7439 -0.6596 0.1071
vn -0.0194 -0.9498 0.3123
vn -0.7263 -0.6748 0.1306
vn 0.7027 -0.6905 0.1717
vn 0.6715 -0.7119 0.2057
vn -0.6975 -0.6970 0.1664
vn 0.5371 -0.8406 0.0709
vn -0.6972 -0.5386 -0.4731
vn 0.7113 -0.5539 -0.4327
vn 0.0050 -0.8643 -0.5030
vn 0.7205 -0.6331 -0.2829
vn -0.0098 0.7706 0.6372
vn -0.7036 0.4636 0.5384
vn -0.0119 0.7237 0.6901
vn 0.6845 0.4872 0.5423
vn -0.7052 0.5540 0.4424
vn 0.5133 -0.0539 0.8565
vn -0.0136 0.6803 0.7328
vn -0.5626 -0.0421 0.8257
vn 0.0294 0.4377 0.8986
vn 0.2205 0.9743 0.0465
vn -0.7732 0.3640 0.5193
vn 0.0041 0.9735 0.2285
vn -0.6854 0.7062 0.1773
vn -0.6934 0.6572 0.2956
vn 0.6895 0.6420 0.3353
vn 0.6855 0.6963 0.2126
vn 0.7026 0.7070 0.0810
vn 0.0090 0.9978 0.0658
vn -0.6904 0.7222 0.0411
vn 0.0113 0.9999 -0.0130
vn -0.7006 0.7122 -0.0437
vn 0.7174 0.6967 -0.0031
vn 0.7267 0.6815 -0.0868
vn 0.0119 0.9994 -0.0337
vn -0.7054 0.6972 -0.1278
vn -0.6841 0.6911 -0.2331
vn 0.7113 0.6759 -0.1931
vn 0.0120 0.9991 -0.0404
vn 0.6809 0.6740 -0.2864
vn 0.0122 0.9990 -0.0433
vn -0.6485 0.6886 -0.3245
vn -0.6016 0.6760 -0.4256
vn 0.6396 0.6624 -0.3900
vn 0.5092 0.6289 -0.5875
vn 0.0297 0.5821 -0.8126
vn -0.4608 0.6396 -0.6153
vn -0.7092 0.4367 0.5535
vn 0.6857 0.4215 0.5935
vn -0.7002 0.6107 0.3700
vn -0.7070 -0.5888 -0.3917
vn 0.7204 -0.6192 -0.3124
vn -0.7147 -0.6035 -0.3536
vn -0.0222 0.3856 0.9224
vn -0.7195 -0.6505 -0.2433
vn -0.7369 -0.6617 -0.1383
vn -0.0041 -0.9735 -0.2288
vn 0.7179 -0.6662 -0.2021
vn 0.0009 -0.9232 -0.3843
vn -0.0090 -0.9978 -0.0652
vn 0.7167 -0.6974 -0.0087
vn 0.7289 -0.6778 -0.0962
vn -0.7300 -0.6816 -0.0502
vn -0.7238 -0.6895 -0.0260
vn -0.0113 -0.9998 0.0132
vn 0.7117 -0.7013 -0.0407
vn 0.7088 -0.7052 0.0151
vn -0.7234 -0.6856 -0.0818
vn -0.0119 -0.9994 0.0337
vn -0.7019 -0.6896 -0.1783
vn 0.6957 -0.7049 -0.1383
vn 0.6642 -0.7125 -0.2264
vn -0.0120 -0.9991 0.0404
vn -0.6655 -0.6979 -0.2645
vn -0.0122 -0.9990 0.0433
vn -0.6183 -0.6954 -0.3663
vn 0.6229 -0.7090 -0.3306
vn 0.4931 -0.6896 -0.5304
vn -0.4769 -0.6790 -0.5582
vn 0.0146 -0.6508 -0.7591
vn 0.7112 -0.5581 -0.4276
vn 0.7206 -0.6388 -0.2697
usemtl mat4.002
s 1
f 1/1/1 2/2/2 3/3/3
f 1/1/1 4/4/4 5/5/5
f 6/6/6 7/7/7 8/8/8
f 8/8/8 9/9/9 2/2/2
f 10/10/10 11/11/11 12/12/12
f 12/12/12 13/13/13 14/14/14
f 15/15/15 14/14/14 16/16/16
f 15/15/15 17/17/17 18/18/18
f 19/19/19 20/20/20 21/21/21
f 19/19/19 22/22/22 23/23/23
f 24/24/24 25/25/25 26/26/26
f 26/26/26 27/27/27 20/20/20
f 28/28/28 29/29/29 27/27/27
f 28/28/28 26/26/26 25/25/25
f 28/28/28 30/30/30 31/31/31
f 28/28/28 32/32/32 33/33/33
f 34/34/34 33/33/33 32/32/32
f 32/32/32 31/31/31 35/35/35
f 36/36/36 35/35/35 37/37/37
f 36/36/36 38/38/38 39/39/39
f 40/40/40 39/39/39 38/38/38
f 38/38/38 37/37/37 41/41/41
f 42/42/42 41/41/41 43/43/43
f 42/42/42 44/44/44 45/45/45
f 46/46/46 47/47/47 13/13/13
f 46/46/46 12/12/12 11/11/11
f 48/48/48 5/5/5 4/4/4
f 4/4/4 3/3/3 47/47/47
f 49/49/49 50/50/50 9/9/9
f 49/49/49 8/8/8 7/7/7
f 51/51/51 23/23/23 22/22/22
f 22/22/22 21/21/21 50/50/50
f 52/52/52 53/53/53 54/54/54
f 55/55/55 56/56/56 54/54/54
f 57/57/57 58/58/58 59/59/59
f 53/53/53 60/60/60 57/57/57
f 61/61/61 62/62/62 63/63/63
f 64/64/64 65/65/65 61/61/61
f 16/16/66 64/64/64 66/66/67
f 18/18/66 17/17/68 66/66/67
f 67/67/69 68/68/70 69/69/71
f 70/70/72 71/71/73 69/69/71
f 72/72/74 73/73/75 74/74/76
f 68/68/70 75/75/77 72/72/74
f 75/75/77 76/76/78 77/77/79
f 73/73/75 72/72/74 77/77/79
f 78/78/80 79/79/81 77/77/79
f 80/80/82 81/81/83 77/77/79
f 81/81/83 80/80/82 82/82/84
f 83/83/85 78/78/80 81/81/83
f 84/84/86 83/83/85 85/85/87
f 86/86/88 87/87/89 85/85/87
f 87/87/89 86/86/88 88/88/90
f 89/89/91 84/84/86 87/87/89
f 90/90/92 89/89/91 91/91/93
f 92/92/94 93/93/95 91/91/93
f 65/65/65 94/94/96 95/95/97
f 62/62/62 61/61/61 95/95/97
f 56/56/56 55/55/55 96/96/98
f 94/94/96 52/52/52 56/56/56
f 60/60/60 97/97/99 98/98/100
f 58/58/58 57/57/57 98/98/100
f 71/71/73 70/70/72 99/99/101
f 97/97/99 67/67/69 71/71/73
f 47/47/47 3/3/3 52/52/52
f 13/13/13 47/47/47 94/94/96
f 5/5/5 55/55/55 59/59/59
f 6/6/6 59/59/59 58/58/58
f 11/11/11 10/10/10 63/63/63
f 13/13/13 65/65/65 64/64/64
f 14/14/14 64/64/64 16/16/66
f 50/50/50 21/21/21 67/67/69
f 9/9/9 50/50/50 97/97/99
f 23/23/23 70/70/72 74/74/76
f 25/25/25 24/24/24 74/74/76
f 33/33/33 80/80/82 76/76/78
f 29/29/29 76/76/78 75/75/77
f 30/30/30 25/25/25 73/73/75
f 31/31/31 30/30/30 79/79/81
f 34/34/34 39/39/39 86/86/88
f 33/33/33 34/34/34 82/82/84
f 31/31/31 78/78/80 83/83/85
f 35/35/35 83/83/85 84/84/86
f 43/43/43 90/90/92 93/93/95
f 45/45/45 44/44/44 93/93/95
f 40/40/40 45/45/45 92/92/94
f 39/39/39 40/40/40 88/88/90
f 37/37/37 84/84/86 89/89/91
f 41/41/41 89/89/91 90/90/92
f 3/3/3 2/2/2 53/53/53
f 2/2/2 9/9/9 60/60/60
f 48/48/48 96/96/98 55/55/55
f 11/11/11 62/62/62 96/96/98
f 21/21/21 20/20/20 68/68/70
f 27/27/27 75/75/77 68/68/70
f 51/51/51 99/99/101 70/70/72
f 7/7/7 58/58/58 99/99/101
f 4/4/4 1/1/1 3/3/3
f 6/6/6 1/1/1 5/5/5
f 1/1/1 6/6/6 8/8/8
f 1/1/1 8/8/8 2/2/2
f 15/15/15 10/10/10 12/12/12
f 15/15/15 12/12/12 14/14/14
f 17/17/17 15/15/15 16/16/16
f 10/10/10 15/15/15 18/18/18
f 22/22/22 19/19/19 21/21/21
f 24/24/24 19/19/19 23/23/23
f 19/19/19 24/24/24 26/26/26
f 19/19/19 26/26/26 20/20/20
f 26/26/26 28/28/28 27/27/27
f 30/30/30 28/28/28 25/25/25
f 32/32/32 28/28/28 31/31/31
f 29/29/29 28/28/28 33/33/33
f 36/36/36 34/34/34 32/32/32
f 36/36/36 32/32/32 35/35/35
f 38/38/38 36/36/36 37/37/37
f 34/34/34 36/36/36 39/39/39
f 42/42/42 40/40/40 38/38/38
f 42/42/42 38/38/38 41/41/41
f 44/44/44 42/42/42 43/43/43
f 40/40/40 42/42/42 45/45/45
f 12/12/12 46/46/46 13/13/13
f 48/48/48 46/46/46 11/11/11
f 46/46/46 48/48/48 4/4/4
f 46/46/46 4/4/4 47/47/47
f 8/8/8 49/49/49 9/9/9
f 51/51/51 49/49/49 7/7/7
f 49/49/49 51/51/51 22/22/22
f 49/49/49 22/22/22 50/50/50
f 56/56/56 52/52/52 54/54/54
f 59/59/59 55/55/55 54/54/54
f 54/54/54 57/57/57 59/59/59
f 54/54/54 53/53/53 57/57/57
f 66/66/67 61/61/61 63/63/63
f 66/66/67 64/64/64 61/61/61
f 17/17/68 16/16/66 66/66/67
f 63/63/63 18/18/66 66/66/67
f 71/71/73 67/67/69 69/69/71
f 74/74/76 70/70/72 69/69/71
f 69/69/71 72/72/74 74/74/76
f 69/69/71 68/68/70 72/72/74
f 72/72/74 75/75/77 77/77/79
f 79/79/81 73/73/75 77/77/79
f 81/81/83 78/78/80 77/77/79
f 76/76/78 80/80/82 77/77/79
f 85/85/87 81/81/83 82/82/84
f 85/85/87 83/83/85 81/81/83
f 87/87/89 84/84/86 85/85/87
f 82/82/84 86/86/88 85/85/87
f 91/91/93 87/87/89 88/88/90
f 91/91/93 89/89/91 87/87/89
f 93/93/95 90/90/92 91/91/93
f 88/88/90 92/92/94 91/91/93
f 61/61/61 65/65/65 95/95/97
f 96/96/98 62/62/62 95/95/97
f 95/95/97 56/56/56 96/96/98
f 95/95/97 94/94/96 56/56/56
f 57/57/57 60/60/60 98/98/100
f 99/99/101 58/58/58 98/98/100
f 98/98/100 71/71/73 99/99/101
f 98/98/100 97/97/99 71/71/73
f 94/94/96 47/47/47 52/52/52
f 65/65/65 13/13/13 94/94/96
f 6/6/6 5/5/5 59/59/59
f 7/7/7 6/6/6 58/58/58
f 63/63/63 10/10/10 18/18/66
f 62/62/62 11/11/11 63/63/63
f 14/14/14 13/13/13 64/64/64
f 97/97/99 50/50/50 67/67/69
f 60/60/60 9/9/9 97/97/99
f 24/24/24 23/23/23 74/74/76
f 73/73/75 25/25/25 74/74/76
f 29/29/29 33/33/33 76/76/78
f 27/27/27 29/29/29 75/75/77
f 79/79/81 30/30/30 73/73/75
f 78/78/80 31/31/31 79/79/81
f 82/82/84 34/34/34 86/86/88
f 80/80/82 33/33/33 82/82/84
f 35/35/35 31/31/31 83/83/85
f 37/37/37 35/35/35 84/84/86
f 44/44/44 43/43/43 93/93/95
f 92/92/94 45/45/45 93/93/95
f 88/88/90 40/40/40 92/92/94
f 86/86/88 39/39/39 88/88/90
f 41/41/41 37/37/37 89/89/91
f 43/43/43 41/41/41 90/90/92
f 52/52/52 3/3/3 53/53/53
f 53/53/53 2/2/2 60/60/60
f 5/5/5 48/48/48 55/55/55
f 48/48/48 11/11/11 96/96/98
f 67/67/69 21/21/21 68/68/70
f 20/20/20 27/27/27 68/68/70
f 23/23/23 51/51/51 70/70/72
f 51/51/51 7/7/7 99/99/101
usemtl mat0.005
f 100/100/102 101/101/103 102/102/104
f 100/100/102 103/103/105 104/104/106
f 105/105/107 106/106/108 107/107/109
f 107/107/109 108/108/110 101/101/103
f 109/109/111 110/110/112 111/111/113
f 111/111/113 112/112/114 113/113/115
f 114/114/116 113/113/115 115/115/117
f 114/114/116 116/116/17 117/117/118
f 118/118/119 119/119/120 120/120/121
f 118/118/119 121/121/122 122/122/123
f 123/123/124 124/124/125 125/125/126
f 125/125/126 126/126/127 119/119/120
f 127/127/128 128/128/129 126/126/127
f 127/127/128 125/125/126 124/124/125
f 127/127/128 129/129/130 130/130/131
f 127/127/128 131/131/132 132/132/133
f 133/133/134 132/132/133 131/131/132
f 131/131/132 130/130/131 134/134/135
f 135/135/136 134/134/135 136/136/137
f 135/135/136 137/137/138 138/138/139
f 139/139/140 138/138/139 137/137/138
f 137/137/138 136/136/137 140/140/141
f 141/141/142 140/140/141 142/142/143
f 141/141/142 143/143/144 144/144/145
f 145/145/146 146/146/147 112/112/114
f 145/145/146 111/111/113 110/110/112
f 147/147/148 104/104/106 103/103/105
f 103/103/105 102/102/104 146/146/147
f 148/148/149 149/149/150 108/108/110
f 148/148/149 107/107/109 106/106/108
f 150/150/151 122/122/123 121/121/122
f 121/121/122 120/120/121 149/149/150
f 151/151/152 152/152/153 153/153/154
f 154/154/155 155/155/156 153/153/154
f 156/156/157 157/157/158 158/158/159
f 152/152/153 159/159/160 156/156/157
f 160/160/161 161/161/162 162/162/163
f 163/163/164 164/164/165 160/160/161
f 115/115/166 163/163/164 165/165/167
f 117/117/166 116/116/168 165/165/167
f 166/166/169 167/167/170 168/168/171
f 169/169/172 170/170/173 168/168/171
f 171/171/174 172/172/175 173/173/176
f 167/167/170 174/174/177 171/171/174
f 174/174/177 175/175/178 176/176/179
f 172/172/175 171/171/174 176/176/179
f 177/177/180 178/178/181 176/176/179
f 179/179/182 180/180/183 176/176/179
f 180/180/183 179/179/182 181/181/184
f 182/182/185 177/177/180 180/180/183
f 183/183/186 182/182/185 184/184/187
f 185/185/188 186/186/189 184/184/187
f 186/186/189 185/185/188 187/187/190
f 188/188/191 183/183/186 186/186/189
f 189/189/192 188/188/191 190/190/193
f 191/191/194 192/192/195 190/190/193
f 164/164/165 193/193/196 194/194/197
f 161/161/162 160/160/161 194/194/197
f 155/155/156 154/154/155 195/195/198
f 193/193/196 151/151/152 155/155/156
f 159/159/160 196/196/199 197/197/200
f 157/157/158 156/156/157 197/197/200
f 170/170/173 169/169/172 198/198/201
f 196/196/199 166/166/169 170/170/173
f 146/146/147 102/102/104 151/151/152
f 112/112/114 146/146/147 193/193/196
f 104/104/106 154/154/155 158/158/159
f 105/105/107 158/158/159 157/157/158
f 109/109/111 162/162/163 161/161/162
f 113/113/115 112/112/114 164/164/165
f 113/113/115 163/163/164 115/115/166
f 149/149/150 120/120/121 166/166/169
f 108/108/110 149/149/150 196/196/199
f 122/122/123 169/169/172 173/173/176
f 124/124/125 123/123/124 173/173/176
f 128/128/129 132/132/133 179/179/182
f 128/128/129 175/175/178 174/174/177
f 129/129/130 124/124/125 172/172/175
f 129/129/130 178/178/181 177/177/180
f 138/138/139 185/185/188 181/181/184
f 133/133/134 181/181/184 179/179/182
f 134/134/135 130/130/131 177/177/180
f 136/136/137 134/134/135 182/182/185
f 143/143/144 142/142/143 189/189/192
f 143/143/144 192/192/195 191/191/194
f 144/144/145 191/191/194 187/187/190
f 139/139/140 187/187/190 185/185/188
f 140/140/141 136/136/137 183/183/186
f 142/142/143 140/140/141 188/188/191
f 102/102/104 101/101/103 152/152/153
f 101/101/103 108/108/110 159/159/160
f 147/147/148 195/195/198 154/154/155
f 110/110/112 161/161/162 195/195/198
f 120/120/121 119/119/120 167/167/170
f 126/126/127 174/174/177 167/167/170
f 150/150/151 198/198/201 169/169/172
f 106/106/108 157/157/158 198/198/201
f 103/103/105 100/100/102 102/102/104
f 105/105/107 100/100/102 104/104/106
f 100/100/102 105/105/107 107/107/109
f 100/100/102 107/107/109 101/101/103
f 114/114/116 109/109/111 111/111/113
f 114/114/116 111/111/113 113/113/115
f 116/116/17 114/114/116 115/115/117
f 109/109/111 114/114/116 117/117/118
f 121/121/122 118/118/119 120/120/121
f 123/123/124 118/118/119 122/122/123
f 118/118/119 123/123/124 125/125/126
f 118/118/119 125/125/126 119/119/120
f 125/125/126 127/127/128 126/126/127
f 129/129/130 127/127/128 124/124/125
f 131/131/132 127/127/128 130/130/131
f 128/128/129 127/127/128 132/132/133
f 135/135/136 133/133/134 131/131/132
f 135/135/136 131/131/132 134/134/135
f 137/137/138 135/135/136 136/136/137
f 133/133/134 135/135/136 138/138/139
f 141/141/142 139/139/140 137/137/138
f 141/141/142 137/137/138 140/140/141
f 143/143/144 141/141/142 142/142/143
f 139/139/140 141/141/142 144/144/145
f 111/111/113 145/145/146 112/112/114
f 147/147/148 145/145/146 110/110/112
f 145/145/146 147/147/148 103/103/105
f 145/145/146 103/103/105 146/146/147
f 107/107/109 148/148/149 108/108/110
f 150/150/151 148/148/149 106/106/108
f 148/148/149 150/150/151 121/121/122
f 148/148/149 121/121/122 149/149/150
f 155/155/156 151/151/152 153/153/154
f 158/158/159 154/154/155 153/153/154
f 153/153/154 156/156/157 158/158/159
f 153/153/154 152/152/153 156/156/157
f 165/165/167 160/160/161 162/162/163
f 165/165/167 163/163/164 160/160/161
f 116/116/168 115/115/166 165/165/167
f 162/162/163 117/117/166 165/165/167
f 170/170/173 166/166/169 168/168/171
f 173/173/176 169/169/172 168/168/171
f 168/168/171 171/171/174 173/173/176
f 168/168/171 167/167/170 171/171/174
f 171/171/174 174/174/177 176/176/179
f 178/178/181 172/172/175 176/176/179
f 180/180/183 177/177/180 176/176/179
f 175/175/178 179/179/182 176/176/179
f 184/184/187 180/180/183 181/181/184
f 184/184/187 182/182/185 180/180/183
f 186/186/189 183/183/186 184/184/187
f 181/181/184 185/185/188 184/184/187
f 190/190/193 186/186/189 187/187/190
f 190/190/193 188/188/191 186/186/189
f 192/192/195 189/189/192 190/190/193
f 187/187/190 191/191/194 190/190/193
f 160/160/161 164/164/165 194/194/197
f 195/195/198 161/161/162 194/194/197
f 194/194/197 155/155/156 195/195/198
f 194/194/197 193/193/196 155/155/156
f 156/156/157 159/159/160 197/197/200
f 198/198/201 157/157/158 197/197/200
f 197/197/200 170/170/173 198/198/201
f 197/197/200 196/196/199 170/170/173
f 193/193/196 146/146/147 151/151/152
f 164/164/165 112/112/114 193/193/196
f 105/105/107 104/104/106 158/158/159
f 106/106/108 105/105/107 157/157/158
f 162/162/163 109/109/111 117/117/166
f 110/110/112 109/109/111 161/161/162
f 163/163/164 113/113/115 164/164/165
f 196/196/199 149/149/150 166/166/169
f 159/159/160 108/108/110 196/196/199
f 123/123/124 122/122/123 173/173/176
f 172/172/175 124/124/125 173/173/176
f 175/175/178 128/128/129 179/179/182
f 126/126/127 128/128/129 174/174/177
f 178/178/181 129/129/130 172/172/175
f 130/130/131 129/129/130 177/177/180
f 133/133/134 138/138/139 181/181/184
f 132/132/133 133/133/134 179/179/182
f 182/182/185 134/134/135 177/177/180
f 183/183/186 136/136/137 182/182/185
f 192/192/195 143/143/144 189/189/192
f 144/144/145 143/143/144 191/191/194
f 139/139/140 144/144/145 187/187/190
f 138/138/139 139/139/140 185/185/188
f 188/188/191 140/140/141 183/183/186
f 189/189/192 142/142/143 188/188/191
f 151/151/152 102/102/104 152/152/153
f 152/152/153 101/101/103 159/159/160
f 104/104/106 147/147/148 154/154/155
f 147/147/148 110/110/112 195/195/198
f 166/166/169 120/120/121 167/167/170
f 119/119/120 126/126/127 167/167/170
f 122/122/123 150/150/151 169/169/172
f 150/150/151 106/106/108 198/198/201
usemtl mat1.002
f 199/199/202 200/200/2 201/201/203
f 199/199/202 202/202/4 203/203/204
f 204/204/205 205/205/7 206/206/8
f 206/206/8 207/207/9 200/200/2
f 208/208/206 209/209/207 210/210/208
f 210/210/208 211/211/209 212/212/210
f 213/213/211 212/212/210 214/214/212
f 213/213/211 215/215/17 216/216/213
f 217/217/19 218/218/20 219/219/214
f 217/217/19 220/220/215 221/221/216
f 222/222/217 223/223/218 224/224/219
f 224/224/219 225/225/220 218/218/20
f 226/226/28 227/227/29 225/225/220
f 226/226/28 224/224/219 223/223/218
f 226/226/28 228/228/30 229/229/221
f 226/226/28 230/230/32 231/231/222
f 232/232/223 231/231/222 230/230/32
f 230/230/32 229/229/221 233/233/35
f 234/234/224 233/233/35 235/235/225
f 234/234/224 236/236/38 237/237/226
f 238/238/227 237/237/226 236/236/38
f 236/236/38 235/235/225 239/239/41
f 240/240/228 239/239/41 241/241/229
f 240/240/228 242/242/44 243/243/230
f 244/244/231 245/245/232 211/211/209
f 244/244/231 210/210/208 209/209/207
f 246/246/48 203/203/204 202/202/4
f 202/202/4 201/201/203 245/245/232
f 247/247/49 248/248/233 207/207/9
f 247/247/49 206/206/8 205/205/7
f 249/249/234 221/221/216 220/220/215
f 220/220/215 219/219/214 248/248/233
f 250/250/52 251/251/53 252/252/235
f 253/253/236 254/254/237 252/252/235
f 255/255/238 256/256/239 257/257/240
f 251/251/53 258/258/241 255/255/238
f 259/259/61 260/260/242 261/261/243
f 262/262/64 263/263/65 259/259/61
f 214/214/244 262/262/64 264/264/67
f 216/216/244 215/215/245 264/264/67
f 265/265/246 266/266/247 267/267/71
f 268/268/248 269/269/249 267/267/71
f 270/270/250 271/271/251 272/272/252
f 266/266/247 273/273/253 270/270/250
f 273/273/253 274/274/254 275/275/255
f 271/271/251 270/270/250 275/275/255
f 276/276/80 277/277/256 275/275/255
f 278/278/257 279/279/83 275/275/255
f 279/279/83 278/278/257 280/280/258
f 281/281/259 276/276/80 279/279/83
f 282/282/260 281/281/259 283/283/261
f 284/284/262 285/285/89 283/283/261
f 285/285/89 284/284/262 286/286/263
f 287/287/264 282/282/260 285/285/89
f 288/288/92 287/287/264 289/289/93
f 290/290/265 291/291/266 289/289/93
f 263/263/65 292/292/96 293/293/267
f 260/260/242 259/259/61 293/293/267
f 254/254/237 253/253/236 294/294/268
f 292/292/96 250/250/52 254/254/237
f 258/258/241 295/295/99 296/296/100
f 256/256/239 255/255/238 296/296/100
f 269/269/249 268/268/248 297/297/269
f 295/295/99 265/265/246 269/269/249
f 245/245/232 201/201/203 250/250/52
f 211/211/209 245/245/232 292/292/96
f 203/203/204 253/253/236 257/257/240
f 204/204/205 257/257/240 256/256/239
f 209/209/207 208/208/206 261/261/243
f 211/211/209 263/263/65 262/262/64
f 212/212/210 262/262/64 214/214/244
f 248/248/233 219/219/214 265/265/246
f 207/207/9 248/248/233 295/295/99
f 221/221/216 268/268/248 272/272/252
f 223/223/218 222/222/217 272/272/252
f 231/231/222 278/278/257 274/274/254
f 227/227/29 274/274/254 273/273/253
f 228/228/30 223/223/218 271/271/251
f 229/229/221 228/228/30 277/277/256
f 232/232/223 237/237/226 284/284/262
f 231/231/222 232/232/223 280/280/258
f 229/229/221 276/276/80 281/281/259
f 233/233/35 281/281/259 282/282/260
f 241/241/229 288/288/92 291/291/266
f 243/243/230 242/242/44 291/291/266
f 238/238/227 243/243/230 290/290/265
f 237/237/226 238/238/227 286/286/263
f 235/235/225 282/282/260 287/287/264
f 239/239/41 287/287/264 288/288/92
f 201/201/203 200/200/2 251/251/53
f 200/200/2 207/207/9 258/258/241
f 246/246/48 294/294/268 253/253/236
f 209/209/207 260/260/242 294/294/268
f 219/219/214 218/218/20 266/266/247
f 225/225/220 273/273/253 266/266/247
f 249/249/234 297/297/269 268/268/248
f 205/205/7 256/256/239 297/297/269
f 202/202/4 199/199/202 201/201/203
f 204/204/205 199/199/202 203/203/204
f 199/199/202 204/204/205 206/206/8
f 199/199/202 206/206/8 200/200/2
f 213/213/211 208/208/206 210/210/208
f 213/213/211 210/210/208 212/212/210
f 215/215/17 213/213/211 214/214/212
f 208/208/206 213/213/211 216/216/213
f 220/220/215 217/217/19 219/219/214
f 222/222/217 217/217/19 221/221/216
f 217/217/19 222/222/217 224/224/219
f 217/217/19 224/224/219 218/218/20
f 224/224/219 226/226/28 225/225/220
f 228/228/30 226/226/28 223/223/218
f 230/230/32 226/226/28 229/229/221
f 227/227/29 226/226/28 231/231/222
f 234/234/224 232/232/223 230/230/32
f 234/234/224 230/230/32 233/233/35
f 236/236/38 234/234/224 235/235/225
f 232/232/223 234/234/224 237/237/226
f 240/240/228 238/238/227 236/236/38
f 240/240/228 236/236/38 239/239/41
f 242/242/44 240/240/228 241/241/229
f 238/238/227 240/240/228 243/243/230
f 210/210/208 244/244/231 211/211/209
f 246/246/48 244/244/231 209/209/207
f 244/244/231 246/246/48 202/202/4
f 244/244/231 202/202/4 245/245/232
f 206/206/8 247/247/49 207/207/9
f 249/249/234 247/247/49 205/205/7
f 247/247/49 249/249/234 220/220/215
f 247/247/49 220/220/215 248/248/233
f 254/254/237 250/250/52 252/252/235
f 257/257/240 253/253/236 252/252/235
f 252/252/235 255/255/238 257/257/240
f 252/252/235 251/251/53 255/255/238
f 264/264/67 259/259/61 261/261/243
f 264/264/67 262/262/64 259/259/61
f 215/215/245 214/214/244 264/264/67
f 261/261/243 216/216/244 264/264/67
f 269/269/249 265/265/246 267/267/71
f 272/272/252 268/268/248 267/267/71
f 267/267/71 270/270/250 272/272/252
f 267/267/71 266/266/247 270/270/250
f 270/270/250 273/273/253 275/275/255
f 277/277/256 271/271/251 275/275/255
f 279/279/83 276/276/80 275/275/255
f 274/274/254 278/278/257 275/275/255
f 283/283/261 279/279/83 280/280/258
f 283/283/261 281/281/259 279/279/83
f 285/285/89 282/282/260 283/283/261
f 280/280/258 284/284/262 283/283/261
f 289/289/93 285/285/89 286/286/263
f 289/289/93 287/287/264 285/285/89
f 291/291/266 288/288/92 289/289/93
f 286/286/263 290/290/265 289/289/93
f 259/259/61 263/263/65 293/293/267
f 294/294/268 260/260/242 293/293/267
f 293/293/267 254/254/237 294/294/268
f 293/293/267 292/292/96 254/254/237
f 255/255/238 258/258/241 296/296/100
f 297/297/269 256/256/239 296/296/100
f 296/296/100 269/269/249 297/297/269
f 296/296/100 295/295/99 269/269/249
f 292/292/96 245/245/232 250/250/52
f 263/263/65 211/211/209 292/292/96
f 204/204/205 203/203/204 257/257/240
f 205/205/7 204/204/205 256/256/239
f 261/261/243 208/208/206 216/216/244
f 260/260/242 209/209/207 261/261/243
f 212/212/210 211/211/209 262/262/64
f 295/295/99 248/248/233 265/265/246
f 258/258/241 207/207/9 295/295/99
f 222/222/217 221/221/216 272/272/252
f 271/271/251 223/223/218 272/272/252
f 227/227/29 231/231/222 274/274/254
f 225/225/220 227/227/29 273/273/253
f 277/277/256 228/228/30 271/271/251
f 276/276/80 229/229/221 277/277/256
f 280/280/258 232/232/223 284/284/262
f 278/278/257 231/231/222 280/280/258
f 233/233/35 229/229/221 281/281/259
f 235/235/225 233/233/35 282/282/260
f 242/242/44 241/241/229 291/291/266
f 290/290/265 243/243/230 291/291/266
f 286/286/263 238/238/227 290/290/265
f 284/284/262 237/237/226 286/286/263
f 239/239/41 235/235/225 287/287/264
f 241/241/229 239/239/41 288/288/92
f 250/250/52 201/201/203 251/251/53
f 251/251/53 200/200/2 258/258/241
f 203/203/204 246/246/48 253/253/236
f 246/246/48 209/209/207 294/294/268
f 265/265/246 219/219/214 266/266/247
f 218/218/20 225/225/220 266/266/247
f 221/221/216 249/249/234 268/268/248
f 249/249/234 205/205/7 297/297/269
usemtl mat2.002
f 298/298/270 299/299/271 300/300/272
f 298/298/270 301/301/273 302/302/274
f 303/303/275 304/304/276 305/305/277
f 305/305/277 306/306/278 299/299/271
f 307/307/279 308/308/280 309/309/281
f 309/309/281 310/310/282 311/311/283
f 312/312/284 311/311/283 313/313/285
f 312/312/284 314/314/17 315/315/286
f 316/316/287 317/317/288 318/318/289
f 319/319/290 318/318/289 320/320/291
f 321/321/292 322/322/293 323/323/294
f 319/319/290 323/323/294 324/324/295
f 325/325/296 324/324/295 323/323/294
f 326/326/297 323/323/294 322/322/293
f 327/327/298 328/328/299 329/329/300
f 326/326/297 329/329/300 330/330/301
f 331/331/302 330/330/301 329/329/300
f 329/329/300 328/328/299 332/332/303
f 333/333/304 332/332/303 334/334/305
f 333/333/304 335/335/306 336/336/307
f 337/337/308 336/336/307 335/335/306
f 335/335/306 334/334/305 338/338/309
f 339/339/310 338/338/309 340/340/311
f 339/339/310 341/341/312 342/342/313
f 343/343/314 344/344/315 310/310/282
f 343/343/314 309/309/281 308/308/280
f 345/345/316 302/302/274 301/301/273
f 301/301/273 300/300/272 344/344/315
f 346/346/317 306/306/278 305/305/277
f 347/347/318 305/305/277 304/304/276
f 348/348/319 320/320/291 318/318/289
f 347/347/318 318/318/289 317/317/288
f 349/349/320 350/350/321 351/351/322
f 352/352/323 353/353/324 351/351/322
f 354/354/325 355/355/326 356/356/327
f 357/357/328 354/354/325 351/351/322
f 358/358/329 359/359/330 360/360/331
f 361/361/332 362/362/333 358/358/329
f 313/313/334 361/361/332 363/363/335
f 315/315/336 314/314/337 363/363/335
f 364/364/338 365/365/339 366/366/340
f 367/367/341 364/364/338 368/368/342
f 369/369/343 370/370/344 371/371/345
f 372/372/346 369/369/343 368/368/342
f 369/369/343 372/372/346 373/373/347
f 370/370/344 369/369/343 374/374/348
f 375/375/349 376/376/350 377/377/351
f 378/378/352 375/375/349 374/374/348
f 375/375/349 378/378/352 379/379/353
f 380/380/354 376/376/350 375/375/349
f 381/381/355 380/380/354 382/382/356
f 383/383/357 384/384/358 382/382/356
f 384/384/358 383/383/357 385/385/359
f 386/386/360 381/381/355 384/384/358
f 387/387/361 386/386/360 388/388/362
f 389/389/363 390/390/364 388/388/362
f 362/362/333 391/391/365 392/392/366
f 359/359/330 358/358/329 392/392/366
f 353/353/324 352/352/323 393/393/367
f 391/391/365 349/349/320 353/353/324
f 354/354/325 357/357/328 394/394/368
f 355/355/326 354/354/325 395/395/369
f 364/364/338 367/367/341 396/396/370
f 365/365/339 364/364/338 395/395/369
f 300/300/272 349/349/320 391/391/365
f 344/344/315 391/391/365 362/362/333
f 302/302/274 352/352/323 356/356/327
f 303/303/275 356/356/327 355/355/326
f 307/307/279 360/360/331 359/359/330
f 310/310/282 362/362/333 361/361/332
f 311/311/283 361/361/332 313/313/334
f 317/317/288 365/365/339 394/394/368
f 346/346/317 394/394/368 357/357/328
f 320/320/291 367/367/341 371/371/345
f 321/321/292 371/371/345 370/370/344
f 330/330/301 378/378/352 373/373/347
f 325/325/296 373/373/347 372/372/346
f 322/322/293 370/370/344 377/377/351
f 327/327/298 377/377/351 376/376/350
f 331/331/302 336/336/307 383/383/357
f 330/330/301 331/331/302 379/379/353
f 332/332/303 328/328/299 376/376/350
f 334/334/305 332/332/303 380/380/354
f 340/340/311 387/387/361 390/390/364
f 341/341/312 390/390/364 389/389/363
f 337/337/308 342/342/313 389/389/363
f 336/336/307 337/337/308 385/385/359
f 338/338/309 334/334/305 381/381/355
f 338/338/309 386/386/360 387/387/361
f 299/299/271 350/350/321 349/349/320
f 306/306/278 357/357/328 350/350/321
f 345/345/316 393/393/367 352/352/323
f 308/308/280 359/359/330 393/393/367
f 316/316/287 366/366/340 365/365/339
f 324/324/295 372/372/346 366/366/340
f 348/348/319 396/396/370 367/367/341
f 304/304/276 355/355/326 396/396/370
f 301/301/273 298/298/270 300/300/272
f 303/303/275 298/298/270 302/302/274
f 298/298/270 303/303/275 305/305/277
f 298/298/270 305/305/277 299/299/271
f 312/312/284 307/307/279 309/309/281
f 312/312/284 309/309/281 311/311/283
f 314/314/17 312/312/284 313/313/285
f 307/307/279 312/312/284 315/315/286
f 319/319/290 316/316/287 318/318/289
f 321/321/292 319/319/290 320/320/291
f 319/319/290 321/321/292 323/323/294
f 316/316/287 319/319/290 324/324/295
f 326/326/297 325/325/296 323/323/294
f 327/327/298 326/326/297 322/322/293
f 326/326/297 327/327/298 329/329/300
f 325/325/296 326/326/297 330/330/301
f 333/333/304 331/331/302 329/329/300
f 333/333/304 329/329/300 332/332/303
f 335/335/306 333/333/304 334/334/305
f 331/331/302 333/333/304 336/336/307
f 339/339/310 337/337/308 335/335/306
f 339/339/310 335/335/306 338/338/309
f 341/341/312 339/339/310 340/340/311
f 337/337/308 339/339/310 342/342/313
f 309/309/281 343/343/314 310/310/282
f 345/345/316 343/343/314 308/308/280
f 343/343/314 345/345/316 301/301/273
f 343/343/314 301/301/273 344/344/315
f 347/347/318 346/346/317 305/305/277
f 348/348/319 347/347/318 304/304/276
f 347/347/318 348/348/319 318/318/289
f 346/346/317 347/347/318 317/317/288
f 353/353/324 349/349/320 351/351/322
f 356/356/327 352/352/323 351/351/322
f 351/351/322 354/354/325 356/356/327
f 350/350/321 357/357/328 351/351/322
f 363/363/335 358/358/329 360/360/331
f 363/363/335 361/361/332 358/358/329
f 314/314/337 313/313/334 363/363/335
f 360/360/331 315/315/336 363/363/335
f 368/368/342 364/364/338 366/366/340
f 371/371/345 367/367/341 368/368/342
f 368/368/342 369/369/343 371/371/345
f 366/366/340 372/372/346 368/368/342
f 374/374/348 369/369/343 373/373/347
f 377/377/351 370/370/344 374/374/348
f 374/374/348 375/375/349 377/377/351
f 373/373/347 378/378/352 374/374/348
f 382/382/356 375/375/349 379/379/353
f 382/382/356 380/380/354 375/375/349
f 384/384/358 381/381/355 382/382/356
f 379/379/353 383/383/357 382/382/356
f 388/388/362 384/384/358 385/385/359
f 388/388/362 386/386/360 384/384/358
f 390/390/364 387/387/361 388/388/362
f 385/385/359 389/389/363 388/388/362
f 358/358/329 362/362/333 392/392/366
f 393/393/367 359/359/330 392/392/366
f 392/392/366 353/353/324 393/393/367
f 392/392/366 391/391/365 353/353/324
f 395/395/369 354/354/325 394/394/368
f 396/396/370 355/355/326 395/395/369
f 395/395/369 364/364/338 396/396/370
f 394/394/368 365/365/339 395/395/369
f 344/344/315 300/300/272 391/391/365
f 310/310/282 344/344/315 362/362/333
f 303/303/275 302/302/274 356/356/327
f 304/304/276 303/303/275 355/355/326
f 360/360/331 307/307/279 315/315/336
f 308/308/280 307/307/279 359/359/330
f 311/311/283 310/310/282 361/361/332
f 346/346/317 317/317/288 394/394/368
f 306/306/278 346/346/317 357/357/328
f 321/321/292 320/320/291 371/371/345
f 322/322/293 321/321/292 370/370/344
f 325/325/296 330/330/301 373/373/347
f 324/324/295 325/325/296 372/372/346
f 327/327/298 322/322/293 377/377/351
f 328/328/299 327/327/298 376/376/350
f 379/379/353 331/331/302 383/383/357
f 378/378/352 330/330/301 379/379/353
f 380/380/354 332/332/303 376/376/350
f 381/381/355 334/334/305 380/380/354
f 341/341/312 340/340/311 390/390/364
f 342/342/313 341/341/312 389/389/363
f 385/385/359 337/337/308 389/389/363
f 383/383/357 336/336/307 385/385/359
f 386/386/360 338/338/309 381/381/355
f 340/340/311 338/338/309 387/387/361
f 300/300/272 299/299/271 349/349/320
f 299/299/271 306/306/278 350/350/321
f 302/302/274 345/345/316 352/352/323
f 345/345/316 308/308/280 393/393/367
f 317/317/288 316/316/287 365/365/339
f 316/316/287 324/324/295 366/366/340
f 320/320/291 348/348/319 367/367/341
f 348/348/319 304/304/276 396/396/370
usemtl mat3.002
f 397/397/371 398/398/103 399/399/372
f 397/397/371 400/400/105 401/401/106
f 402/402/107 403/403/108 404/404/373
f 404/404/373 405/405/374 398/398/103
f 406/406/375 407/407/376 408/408/113
f 408/408/113 409/409/377 410/410/115
f 411/411/378 410/410/115 412/412/379
f 411/411/378 413/413/17 414/414/380
f 415/415/381 416/416/120 417/417/382
f 415/415/381 418/418/122 419/419/123
f 420/420/383 421/421/384 422/422/126
f 422/422/126 423/423/127 416/416/120
f 424/424/128 425/425/385 423/423/127
f 424/424/128 422/422/126 421/421/384
f 424/424/128 426/426/130 427/427/386
f 424/424/128 428/428/387 429/429/388
f 430/430/134 429/429/388 428/428/387
f 428/428/387 427/427/386 431/431/135
f 432/432/136 431/431/135 433/433/389
f 432/432/136 434/434/390 435/435/391
f 436/436/392 435/435/391 434/434/390
f 434/434/390 433/433/389 437/437/141
f 438/438/393 437/437/141 439/439/143
f 438/438/393 440/440/394 441/441/395
f 442/442/146 443/443/396 409/409/377
f 442/442/146 408/408/113 407/407/376
f 444/444/397 401/401/106 400/400/105
f 400/400/105 399/399/372 443/443/396
f 445/445/398 446/446/150 405/405/374
f 445/445/398 404/404/373 403/403/108
f 447/447/399 419/419/123 418/418/122
f 418/418/122 417/417/382 446/446/150
f 448/448/400 449/449/401 450/450/402
f 451/451/403 452/452/404 450/450/402
f 453/453/157 454/454/405 455/455/406
f 449/449/401 456/456/407 453/453/157
f 457/457/161 458/458/162 459/459/408
f 460/460/409 461/461/410 457/457/161
f 412/412/166 460/460/409 462/462/167
f 414/414/166 413/413/168 462/462/167
f 463/463/411 464/464/170 465/465/171
f 466/466/412 467/467/173 465/465/171
f 468/468/174 469/469/413 470/470/176
f 464/464/170 471/471/414 468/468/174
f 471/471/414 472/472/415 473/473/179
f 469/469/413 468/468/174 473/473/179
f 474/474/180 475/475/416 473/473/179
f 476/476/417 477/477/418 473/473/179
f 477/477/418 476/476/417 478/478/419
f 479/479/420 474/474/180 477/477/418
f 480/480/421 479/479/420 481/481/187
f 482/482/422 483/483/189 481/481/187
f 483/483/189 482/482/422 484/484/190
f 485/485/191 480/480/421 483/483/189
f 486/486/423 485/485/191 487/487/193
f 488/488/194 489/489/195 487/487/193
f 461/461/410 490/490/424 491/491/197
f 458/458/162 457/457/161 491/491/197
f 452/452/404 451/451/403 492/492/425
f 490/490/424 448/448/400 452/452/404
f 456/456/407 493/493/199 494/494/426
f 454/454/405 453/453/157 494/494/426
f 467/467/173 466/466/412 495/495/427
f 493/493/199 463/463/411 467/467/173
f 443/443/396 399/399/372 448/448/400
f 409/409/377 443/443/396 490/490/424
f 401/401/106 451/451/403 455/455/406
f 402/402/107 455/455/406 454/454/405
f 406/406/375 459/459/408 458/458/162
f 410/410/115 409/409/377 461/461/410
f 410/410/115 460/460/409 412/412/166
f 446/446/150 417/417/382 463/463/411
f 405/405/374 446/446/150 493/493/199
f 419/419/123 466/466/412 470/470/176
f 421/421/384 420/420/383 470/470/176
f 425/425/385 429/429/388 476/476/417
f 425/425/385 472/472/415 471/471/414
f 426/426/130 421/421/384 469/469/413
f 426/426/130 475/475/416 474/474/180
f 435/435/391 482/482/422 478/478/419
f 430/430/134 478/478/419 476/476/417
f 431/431/135 427/427/386 474/474/180
f 433/433/389 431/431/135 479/479/420
f 440/440/394 439/439/143 486/486/423
f 440/440/394 489/489/195 488/488/194
f 441/441/395 488/488/194 484/484/190
f 436/436/392 484/484/190 482/482/422
f 437/437/141 433/433/389 480/480/421
f 439/439/143 437/437/141 485/485/191
f 399/399/372 398/398/103 449/449/401
f 398/398/103 405/405/374 456/456/407
f 444/444/397 492/492/425 451/451/403
f 407/407/376 458/458/162 492/492/425
f 417/417/382 416/416/120 464/464/170
f 423/423/127 471/471/414 464/464/170
f 447/447/399 495/495/427 466/466/412
f 403/403/108 454/454/405 495/495/427
f 400/400/105 397/397/371 399/399/372
f 402/402/107 397/397/371 401/401/106
f 397/397/371 402/402/107 404/404/373
f 397/397/371 404/404/373 398/398/103
f 411/411/378 406/406/375 408/408/113
f 411/411/378 408/408/113 410/410/115
f 413/413/17 411/411/378 412/412/379
f 406/406/375 411/411/378 414/414/380
f 418/418/122 415/415/381 417/417/382
f 420/420/383 415/415/381 419/419/123
f 415/415/381 420/420/383 422/422/126
f 415/415/381 422/422/126 416/416/120
f 422/422/126 424/424/128 423/423/127
f 426/426/130 424/424/128 421/421/384
f 428/428/387 424/424/128 427/427/386
f 425/425/385 424/424/128 429/429/388
f 432/432/136 430/430/134 428/428/387
f 432/432/136 428/428/387 431/431/135
f 434/434/390 432/432/136 433/433/389
f 430/430/134 432/432/136 435/435/391
f 438/438/393 436/436/392 434/434/390
f 438/438/393 434/434/390 437/437/141
f 440/440/394 438/438/393 439/439/143
f 436/436/392 438/438/393 441/441/395
f 408/408/113 442/442/146 409/409/377
f 444/444/397 442/442/146 407/407/376
f 442/442/146 444/444/397 400/400/105
f 442/442/146 400/400/105 443/443/396
f 404/404/373 445/445/398 405/405/374
f 447/447/399 445/445/398 403/403/108
f 445/445/398 447/447/399 418/418/122
f 445/445/398 418/418/122 446/446/150
f 452/452/404 448/448/400 450/450/402
f 455/455/406 451/451/403 450/450/402
f 450/450/402 453/453/157 455/455/406
f 450/450/402 449/449/401 453/453/157
f 462/462/167 457/457/161 459/459/408
f 462/462/167 460/460/409 457/457/161
f 413/413/168 412/412/166 462/462/167
f 459/459/408 414/414/166 462/462/167
f 467/467/173 463/463/411 465/465/171
f 470/470/176 466/466/412 465/465/171
f 465/465/171 468/468/174 470/470/176
f 465/465/171 464/464/170 468/468/174
f 468/468/174 471/471/414 473/473/179
f 475/475/416 469/469/413 473/473/179
f 477/477/418 474/474/180 473/473/179
f 472/472/415 476/476/417 473/473/179
f 481/481/187 477/477/418 478/478/419
f 481/481/187 479/479/420 477/477/418
f 483/483/189 480/480/421 481/481/187
f 478/478/419 482/482/422 481/481/187
f 487/487/193 483/483/189 484/484/190
f 487/487/193 485/485/191 483/483/189
f 489/489/195 486/486/423 487/487/193
f 484/484/190 488/488/194 487/487/193
f 457/457/161 461/461/410 491/491/197
f 492/492/425 458/458/162 491/491/197
f 491/491/197 452/452/404 492/492/425
f 491/491/197 490/490/424 452/452/404
f 453/453/157 456/456/407 494/494/426
f 495/495/427 454/454/405 494/494/426
f 494/494/426 467/467/173 495/495/427
f 494/494/426 493/493/199 467/467/173
f 490/490/424 443/443/396 448/448/400
f 461/461/410 409/409/377 490/490/424
f 402/402/107 401/401/106 455/455/406
f 403/403/108 402/402/107 454/454/405
f 459/459/408 406/406/375 414/414/166
f 407/407/376 406/406/375 458/458/162
f 460/460/409 410/410/115 461/461/410
f 493/493/199 446/446/150 463/463/411
f 456/456/407 405/405/374 493/493/199
f 420/420/383 419/419/123 470/470/176
f 469/469/413 421/421/384 470/470/176
f 472/472/415 425/425/385 476/476/417
f 423/423/127 425/425/385 471/471/414
f 475/475/416 426/426/130 469/469/413
f 427/427/386 426/426/130 474/474/180
f 430/430/134 435/435/391 478/478/419
f 429/429/388 430/430/134 476/476/417
f 479/479/420 431/431/135 474/474/180
f 480/480/421 433/433/389 479/479/420
f 489/489/195 440/440/394 486/486/423
f 441/441/395 440/440/394 488/488/194
f 436/436/392 441/441/395 484/484/190
f 435/435/391 436/436/392 482/482/422
f 485/485/191 437/437/141 480/480/421
f 486/486/423 439/439/143 485/485/191
f 448/448/400 399/399/372 449/449/401
f 449/449/401 398/398/103 456/456/407
f 401/401/106 444/444/397 451/451/403
f 444/444/397 407/407/376 492/492/425
f 463/463/411 417/417/382 464/464/170
f 416/416/120 423/423/127 464/464/170
f 419/419/123 447/447/399 466/466/412
f 447/447/399 403/403/108 495/495/427
usemtl mat5.002
f 496/496/428 497/497/2 498/498/429
f 496/496/428 499/499/430 500/500/204
f 501/501/431 502/502/7 503/503/8
f 503/503/8 504/504/432 497/497/2
f 505/505/433 506/506/207 507/507/434
f 507/507/434 508/508/209 509/509/435
f 510/510/436 509/509/435 511/511/437
f 510/510/436 512/512/17 513/513/438
f 514/514/439 515/515/440 516/516/441
f 514/514/439 517/517/215 518/518/442
f 519/519/443 520/520/444 521/521/445
f 521/521/445 522/522/446 515/515/440
f 523/523/447 524/524/448 522/522/446
f 523/523/447 521/521/445 520/520/444
f 523/523/447 525/525/449 526/526/450
f 523/523/447 527/527/451 528/528/452
f 529/529/453 528/528/452 527/527/451
f 527/527/451 526/526/450 530/530/454
f 531/531/455 530/530/454 532/532/456
f 531/531/455 533/533/457 534/534/458
f 535/535/459 534/534/458 533/533/457
f 533/533/457 532/532/456 536/536/460
f 537/537/457 536/536/460 538/538/461
f 537/537/457 539/539/462 540/540/463
f 541/541/46 542/542/464 508/508/209
f 541/541/46 507/507/434 506/506/207
f 543/543/465 500/500/204 499/499/430
f 499/499/430 498/498/429 542/542/464
f 544/544/49 545/545/466 504/504/432
f 544/544/49 503/503/8 502/502/7
f 546/546/234 518/518/442 517/517/215
f 517/517/215 516/516/441 545/545/466
f 547/547/52 548/548/467 549/549/54
f 550/550/236 551/551/56 549/549/54
f 552/552/57 553/553/468 554/554/59
f 548/548/467 555/555/469 552/552/57
f 556/556/61 557/557/62 558/558/63
f 559/559/64 560/560/65 556/556/61
f 511/511/66 559/559/64 561/561/67
f 513/513/66 512/512/470 561/561/67
f 562/562/471 563/563/472 564/564/473
f 565/565/474 566/566/475 564/564/473
f 567/567/476 568/568/477 569/569/478
f 563/563/472 570/570/479 567/567/476
f 570/570/479 571/571/480 572/572/481
f 568/568/477 567/567/476 572/572/481
f 573/573/482 574/574/483 572/572/481
f 575/575/484 576/576/485 572/572/481
f 576/576/485 575/575/484 577/577/486
f 578/578/487 573/573/482 576/576/485
f 579/579/488 578/578/487 580/580/489
f 581/581/490 582/582/491 580/580/489
f 582/582/491 581/581/490 583/583/492
f 584/584/493 579/579/488 582/582/491
f 585/585/494 584/584/493 586/586/491
f 587/587/495 588/588/496 586/586/491
f 560/560/65 589/589/96 590/590/97
f 557/557/62 556/556/61 590/590/97
f 551/551/56 550/550/236 591/591/497
f 589/589/96 547/547/52 551/551/56
f 555/555/469 592/592/99 593/593/100
f 553/553/468 552/552/57 593/593/100
f 566/566/475 565/565/474 594/594/498
f 592/592/99 562/562/471 566/566/475
f 542/542/464 498/498/429 547/547/52
f 508/508/209 542/542/464 589/589/96
f 500/500/204 550/550/236 554/554/59
f 501/501/431 554/554/59 553/553/468
f 506/506/207 505/505/433 558/558/63
f 508/508/209 560/560/65 559/559/64
f 509/509/435 559/559/64 511/511/66
f 545/545/466 516/516/441 562/562/471
f 504/504/432 545/545/466 592/592/99
f 518/518/442 565/565/474 569/569/478
f 520/520/444 519/519/443 569/569/478
f 528/528/452 575/575/484 571/571/480
f 524/524/448 571/571/480 570/570/479
f 525/525/449 520/520/444 568/568/477
f 526/526/450 525/525/449 574/574/483
f 534/534/458 581/581/490 577/577/486
f 529/529/453 577/577/486 575/575/484
f 530/530/454 526/526/450 573/573/482
f 532/532/456 530/530/454 578/578/487
f 539/539/462 538/538/461 585/585/494
f 540/540/463 539/539/462 588/588/496
f 535/535/459 540/540/463 587/587/495
f 534/534/458 535/535/459 583/583/492
f 536/536/460 532/532/456 579/579/488
f 538/538/461 536/536/460 584/584/493
f 498/498/429 497/497/2 548/548/467
f 497/497/2 504/504/432 555/555/469
f 543/543/465 591/591/497 550/550/236
f 506/506/207 557/557/62 591/591/497
f 516/516/441 515/515/440 563/563/472
f 522/522/446 570/570/479 563/563/472
f 546/546/234 594/594/498 565/565/474
f 502/502/7 553/553/468 594/594/498
f 499/499/430 496/496/428 498/498/429
f 501/501/431 496/496/428 500/500/204
f 496/496/428 501/501/431 503/503/8
f 496/496/428 503/503/8 497/497/2
f 510/510/436 505/505/433 507/507/434
f 510/510/436 507/507/434 509/509/435
f 512/512/17 510/510/436 511/511/437
f 505/505/433 510/510/436 513/513/438
f 517/517/215 514/514/439 516/516/441
f 519/519/443 514/514/439 518/518/442
f 514/514/439 519/519/443 521/521/445
f 514/514/439 521/521/445 515/515/440
f 521/521/445 523/523/447 522/522/446
f 525/525/449 523/523/447 520/520/444
f 527/527/451 523/523/447 526/526/450
f 524/524/448 523/523/447 528/528/452
f 531/531/455 529/529/453 527/527/451
f 531/531/455 527/527/451 530/530/454
f 533/533/457 531/531/455 532/532/456
f 529/529/453 531/531/455 534/534/458
f 537/537/457 535/535/459 533/533/457
f 537/537/457 533/533/457 536/536/460
f 539/539/462 537/537/457 538/538/461
f 535/535/459 537/537/457 540/540/463
f 507/507/434 541/541/46 508/508/209
f 543/543/465 541/541/46 506/506/207
f 541/541/46 543/543/465 499/499/430
f 541/541/46 499/499/430 542/542/464
f 503/503/8 544/544/49 504/504/432
f 546/546/234 544/544/49 502/502/7
f 544/544/49 546/546/234 517/517/215
f 544/544/49 517/517/215 545/545/466
f 551/551/56 547/547/52 549/549/54
f 554/554/59 550/550/236 549/549/54
f 549/549/54 552/552/57 554/554/59
f 549/549/54 548/548/467 552/552/57
f 561/561/67 556/556/61 558/558/63
f 561/561/67 559/559/64 556/556/61
f 512/512/470 511/511/66 561/561/67
f 558/558/63 513/513/66 561/561/67
f 566/566/475 562/562/471 564/564/473
f 569/569/478 565/565/474 564/564/473
f 564/564/473 567/567/476 569/569/478
f 564/564/473 563/563/472 567/567/476
f 567/567/476 570/570/479 572/572/481
f 574/574/483 568/568/477 572/572/481
f 576/576/485 573/573/482 572/572/481
f 571/571/480 575/575/484 572/572/481
f 580/580/489 576/576/485 577/577/486
f 580/580/489 578/578/487 576/576/485
f 582/582/491 579/579/488 580/580/489
f 577/577/486 581/581/490 580/580/489
f 586/586/491 582/582/491 583/583/492
f 586/586/491 584/584/493 582/582/491
f 588/588/496 585/585/494 586/586/491
f 583/583/492 587/587/495 586/586/491
f 556/556/61 560/560/65 590/590/97
f 591/591/497 557/557/62 590/590/97
f 590/590/97 551/551/56 591/591/497
f 590/590/97 589/589/96 551/551/56
f 552/552/57 555/555/469 593/593/100
f 594/594/498 553/553/468 593/593/100
f 593/593/100 566/566/475 594/594/498
f 593/593/100 592/592/99 566/566/475
f 589/589/96 542/542/464 547/547/52
f 560/560/65 508/508/209 589/589/96
f 501/501/431 500/500/204 554/554/59
f 502/502/7 501/501/431 553/553/468
f 558/558/63 505/505/433 513/513/66
f 557/557/62 506/506/207 558/558/63
f 509/509/435 508/508/209 559/559/64
f 592/592/99 545/545/466 562/562/471
f 555/555/469 504/504/432 592/592/99
f 519/519/443 518/518/442 569/569/478
f 568/568/477 520/520/444 569/569/478
f 524/524/448 528/528/452 571/571/480
f 522/522/446 524/524/448 570/570/479
f 574/574/483 525/525/449 568/568/477
f 573/573/482 526/526/450 574/574/483
f 529/529/453 534/534/458 577/577/486
f 528/528/452 529/529/453 575/575/484
f 578/578/487 530/530/454 573/573/482
f 579/579/488 532/532/456 578/578/487
f 588/588/496 539/539/462 585/585/494
f 587/587/495 540/540/463 588/588/496
f 583/583/492 535/535/459 587/587/495
f 581/581/490 534/534/458 583/583/492
f 584/584/493 536/536/460 579/579/488
f 585/585/494 538/538/461 584/584/493
f 547/547/52 498/498/429 548/548/467
f 548/548/467 497/497/2 555/555/469
f 500/500/204 543/543/465 550/550/236
f 543/543/465 506/506/207 591/591/497
f 562/562/471 516/516/441 563/563/472
f 515/515/440 522/522/446 563/563/472
f 518/518/442 546/546/234 565/565/474
f 546/546/234 502/502/7 594/594/498
