# Blender v3.0.1 OBJ File: ''
# www.blender.org
mtllib calyx1.mtl
o obj6.001
v 0.000590 0.000508 -0.000805
v -0.000282 0.000537 -0.001343
v -0.000437 0.000140 -0.000971
v 0.000371 0.000113 -0.000472
v 0.001178 0.000085 0.000027
v 0.001461 0.000479 -0.000266
v 0.001739 0.000824 -0.000575
v 0.000813 0.000855 -0.001147
v -0.000114 0.000886 -0.001719
v 0.000615 -0.000826 0.000605
v 0.000686 -0.000709 0.000533
v -0.000011 -0.000685 0.000103
v -0.000707 -0.000662 -0.000327
v -0.000745 -0.000780 -0.000236
v -0.000065 -0.000803 0.000184
v -0.000575 -0.000786 -0.000131
v -0.000065 -0.000803 0.000184
v 0.000445 -0.000820 0.000500
v 0.001541 0.001597 -0.002286
v 0.000525 0.001631 -0.002913
v 0.000298 0.001437 -0.002494
v 0.001286 0.001404 -0.001884
v 0.002274 0.001371 -0.001274
v 0.002556 0.001563 -0.001658
v 0.002964 0.001694 -0.002263
v 0.001927 0.001729 -0.002904
v 0.000889 0.001764 -0.003544
v 0.002564 0.001797 -0.003933
v 0.001520 0.001832 -0.004578
v 0.003609 0.001762 -0.003288
v 0.004236 0.001792 -0.004420
v 0.003244 0.001826 -0.005032
v 0.002252 0.001859 -0.005645
v 0.002922 0.001868 -0.006379
v 0.004593 0.001812 -0.005347
v 0.003758 0.001840 -0.005863
v 0.004761 0.001825 -0.006097
v 0.004139 0.001846 -0.006480
v 0.003517 0.001867 -0.006864
v 0.004025 0.001864 -0.007186
v 0.004821 0.001837 -0.006694
v 0.004423 0.001851 -0.006940
v 0.004784 0.001848 -0.007112
v 0.004658 0.001855 -0.007321
v 0.004415 0.001860 -0.007339
v 0.000153 -0.000333 -0.000143
v -0.000591 -0.000308 -0.000602
v 0.000897 -0.000358 0.000317
v 0.001044 0.001155 -0.001506
v 0.000082 0.001188 -0.002100
v 0.002006 0.001123 -0.000912
v -0.000364 0.000002 -0.001096
v -0.000215 0.000390 -0.001460
v 0.000657 0.000361 -0.000922
v 0.001252 -0.000052 -0.000099
v 0.000444 -0.000025 -0.000598
v 0.000873 0.000697 -0.001254
v 0.001800 0.000666 -0.000682
v 0.001529 0.000332 -0.000384
v -0.000053 0.000728 -0.001826
v 0.000067 -0.000813 -0.000030
v 0.000763 -0.000837 0.000400
v 0.000693 -0.000954 0.000472
v -0.000668 -0.000908 -0.000368
v -0.000629 -0.000790 -0.000460
v 0.000012 -0.000931 0.000052
v 0.000339 0.001257 -0.002570
v 0.000549 0.001439 -0.002963
v 0.001565 0.001405 -0.002336
v 0.002315 0.001191 -0.001350
v 0.001327 0.001224 -0.001960
v 0.001934 0.001531 -0.002927
v 0.002972 0.001496 -0.002286
v 0.002581 0.001371 -0.001709
v 0.000897 0.001566 -0.003567
v 0.001519 0.001632 -0.004587
v 0.002563 0.001597 -0.003942
v 0.004233 0.001592 -0.004426
v 0.003608 0.001562 -0.003297
v 0.002249 0.001659 -0.005651
v 0.003241 0.001626 -0.005038
v 0.002919 0.001668 -0.006384
v 0.004589 0.001612 -0.005352
v 0.004757 0.001625 -0.006101
v 0.003754 0.001640 -0.005868
v 0.003513 0.001667 -0.006869
v 0.004135 0.001646 -0.006485
v 0.004021 0.001664 -0.007190
v 0.004817 0.001638 -0.006699
v 0.004780 0.001648 -0.007116
v 0.004419 0.001651 -0.006945
v 0.004411 0.001660 -0.007344
v 0.004654 0.001655 -0.007325
v -0.000515 -0.000438 -0.000733
v 0.000229 -0.000463 -0.000274
v 0.000973 -0.000488 0.000186
v 0.000134 0.001018 -0.002193
v 0.001096 0.000986 -0.001599
v 0.002058 0.000954 -0.001005
v 0.001161 0.000557 0.000248
v 0.001185 0.000521 -0.000777
v 0.000773 0.000118 -0.000721
v 0.000751 0.000124 0.000229
v 0.000729 0.000131 0.001179
v 0.001137 0.000592 0.001274
v 0.001557 0.001041 0.001359
v 0.001581 0.000964 0.000267
v 0.001605 0.000886 -0.000824
v -0.000082 -0.000820 0.000989
v 0.000019 -0.000701 0.001012
v 0.000039 -0.000685 0.000194
v 0.000059 -0.000670 -0.000624
v -0.000043 -0.000785 -0.000610
v -0.000063 -0.000803 0.000189
v -0.000048 -0.000790 -0.000411
v -0.000063 -0.000803 0.000189
v -0.000077 -0.000816 0.000789
v 0.002981 0.001686 -0.000878
v 0.002499 0.001482 -0.000861
v 0.002476 0.001704 0.000304
v 0.002959 0.002045 0.000318
v 0.002453 0.001925 0.001469
v 0.002938 0.002404 0.001514
v 0.003679 0.002906 0.001502
v 0.003697 0.002371 0.000308
v 0.003714 0.001836 -0.000885
v 0.004927 0.001943 -0.000870
v 0.004916 0.002683 0.000253
v 0.004904 0.003424 0.001376
v 0.006205 0.003620 0.001228
v 0.006213 0.002807 0.000222
v 0.006220 0.001995 -0.000784
v 0.007192 0.001982 -0.000578
v 0.007175 0.003156 0.001148
v 0.007184 0.002569 0.000285
v 0.007890 0.002494 0.001058
v 0.007900 0.002211 0.000376
v 0.007911 0.001928 -0.000306
v 0.008443 0.001857 -0.000027
v 0.008427 0.002096 0.000877
v 0.008435 0.001977 0.000425
v 0.008763 0.001889 0.000659
v 0.008878 0.001804 0.000454
v 0.008772 0.001804 0.000235
v 0.000344 -0.000333 0.000209
v 0.000364 -0.000324 -0.000665
v 0.000323 -0.000342 0.001084
v 0.002042 0.001211 -0.000847
v 0.002018 0.001344 0.000286
v 0.001994 0.001478 0.001420
v 0.000919 -0.000020 -0.000716
v 0.001324 0.000378 -0.000769
v 0.001303 0.000416 0.000257
v 0.000877 -0.000003 0.001184
v 0.000898 -0.000011 0.000234
v 0.001715 0.000816 0.000281
v 0.001695 0.000898 0.001372
v 0.001282 0.000454 0.001283
v 0.001735 0.000735 -0.000809
v 0.000190 -0.000816 0.000196
v 0.000171 -0.000831 0.001014
v 0.000070 -0.000950 0.000990
v 0.000107 -0.000917 -0.000610
v 0.000209 -0.000802 -0.000623
v 0.000089 -0.000934 0.000190
v 0.002592 0.001544 0.000338
v 0.002603 0.001315 -0.000826
v 0.003058 0.001511 -0.000822
v 0.002580 0.001775 0.001502
v 0.003054 0.001877 0.000372
v 0.003759 0.002199 0.000389
v 0.003758 0.002740 0.001580
v 0.003048 0.002245 0.001566
v 0.003759 0.001659 -0.000803
v 0.004947 0.001775 -0.000763
v 0.004949 0.002517 0.000359
v 0.006199 0.002647 0.000340
v 0.006192 0.003459 0.001347
v 0.004950 0.003260 0.001481
v 0.006206 0.001834 -0.000666
v 0.007139 0.001820 -0.000473
v 0.007094 0.003003 0.001248
v 0.007791 0.002336 0.001128
v 0.007116 0.002411 0.000388
v 0.007841 0.001757 -0.000230
v 0.007815 0.002046 0.000449
v 0.008374 0.001677 0.000025
v 0.008342 0.001922 0.000927
v 0.008686 0.001710 0.000701
v 0.008358 0.001799 0.000476
v 0.008702 0.001622 0.000278
v 0.008805 0.001622 0.000496
v 0.000514 -0.000457 -0.000663
v 0.000494 -0.000465 0.000212
v 0.000474 -0.000473 0.001086
v 0.002161 0.001052 -0.000825
v 0.002144 0.001191 0.000308
v 0.002126 0.001330 0.001442
v 0.000008 0.000472 0.001423
v 0.001031 0.000497 0.001462
v 0.000910 0.000086 0.001047
v -0.000037 0.000088 0.001011
v -0.000985 0.000090 0.000975
v -0.001014 0.000448 0.001384
v -0.001016 0.000743 0.001802
v 0.000068 0.000810 0.001845
v 0.001152 0.000878 0.001887
v -0.000867 -0.000786 0.000164
v -0.000884 -0.000673 0.000266
v -0.000066 -0.000688 0.000296
v 0.000752 -0.000704 0.000327
v 0.000731 -0.000819 0.000224
v -0.000068 -0.000803 0.000194
v 0.000531 -0.000815 0.000217
v -0.000068 -0.000803 0.000194
v -0.000668 -0.000791 0.000172
v 0.000269 0.001559 0.003227
v 0.001414 0.001872 0.003277
v 0.001336 0.001565 0.002790
v 0.000199 0.001356 0.002743
v -0.000938 0.001147 0.002695
v -0.000876 0.001246 0.003177
v -0.000678 0.001306 0.003917
v 0.000375 0.001797 0.003967
v 0.001427 0.002288 0.004018
v 0.000549 0.002152 0.005193
v 0.001315 0.002948 0.005240
v -0.000217 0.001355 0.005147
v 0.000124 0.001482 0.006457
v 0.000573 0.002502 0.006496
v 0.001021 0.003522 0.006535
v 0.000226 0.002727 0.007466
v 0.000488 0.003676 0.007496
v -0.000036 0.001778 0.007435
v -0.000431 0.002161 0.008155
v -0.000297 0.002889 0.008176
v -0.000164 0.003618 0.008197
v -0.000807 0.003054 0.008701
v -0.000816 0.003554 0.008711
v -0.000797 0.002553 0.008690
v -0.001100 0.002917 0.009022
v -0.001309 0.003218 0.009133
v -0.001266 0.003437 0.009027
v -0.000059 -0.000345 0.000602
v 0.000815 -0.000358 0.000635
v -0.000932 -0.000332 0.000569
v 0.000132 0.001106 0.002283
v 0.001251 0.001234 0.002329
v -0.000987 0.000977 0.002238
v 0.000905 -0.000054 0.001189
v 0.001030 0.000348 0.001596
v 0.000008 0.000321 0.001554
v -0.001014 0.000293 0.001511
v -0.000990 -0.000053 0.001115
v -0.000042 -0.000054 0.001152
v -0.001009 0.000577 0.001914
v 0.001158 0.000721 0.002011
v 0.000074 0.000649 0.001962
v -0.000074 -0.000821 0.000446
v -0.000892 -0.000806 0.000415
v -0.000876 -0.000920 0.000313
v 0.000723 -0.000952 0.000374
v 0.000744 -0.000836 0.000477
v -0.000076 -0.000936 0.000344
v 0.001365 0.001392 0.002886
v 0.001463 0.001695 0.003357
v 0.000321 0.001376 0.003287
v -0.000822 0.001058 0.003216
v -0.000906 0.000961 0.002762
v 0.000230 0.001176 0.002824
v -0.000585 0.001129 0.003927
v 0.001512 0.002120 0.004086
v 0.000464 0.001623 0.004007
v 0.001450 0.002814 0.005299
v 0.000690 0.002013 0.005222
v -0.000074 0.001215 0.005144
v 0.000300 0.001392 0.006488
v 0.001186 0.003435 0.006608
v 0.000744 0.002413 0.006548
v 0.000648 0.003624 0.007605
v 0.000391 0.002674 0.007566
v 0.000134 0.001724 0.007526
v -0.000277 0.002132 0.008280
v -0.000023 0.003589 0.008335
v -0.000150 0.002861 0.008308
v -0.000688 0.003553 0.008864
v -0.000669 0.003053 0.008846
v -0.000650 0.002553 0.008826
v -0.000957 0.002935 0.009161
v -0.001142 0.003452 0.009184
v -0.001175 0.003235 0.009281
v 0.000807 -0.000493 0.000783
v -0.000066 -0.000480 0.000749
v -0.000939 -0.000468 0.000716
v 0.001266 0.001068 0.002439
v 0.000148 0.000934 0.002385
v -0.000970 0.000800 0.002330
v -0.000981 0.000583 0.000969
v -0.000343 0.000494 0.001769
v -0.000085 0.000086 0.001451
v -0.000675 0.000142 0.000709
v -0.001266 0.000197 -0.000032
v -0.001618 0.000671 0.000169
v -0.001971 0.001132 0.000386
v -0.001295 0.000999 0.001235
v -0.000618 0.000865 0.002085
v -0.000570 -0.000779 -0.000433
v -0.000657 -0.000656 -0.000383
v -0.000147 -0.000683 0.000257
v 0.000363 -0.000710 0.000897
v 0.000426 -0.000827 0.000818
v -0.000072 -0.000803 0.000192
v 0.000302 -0.000821 0.000661
v -0.000072 -0.000803 0.000192
v -0.000446 -0.000785 -0.000277
v -0.001598 0.001689 0.003031
v -0.001249 0.001476 0.002704
v -0.001967 0.001757 0.001802
v -0.002330 0.002109 0.002111
v -0.002685 0.002039 0.000901
v -0.003063 0.002529 0.001191
v -0.003598 0.003045 0.001690
v -0.002873 0.002449 0.002601
v -0.002148 0.001853 0.003512
v -0.003082 0.001985 0.004282
v -0.003756 0.002783 0.003434
v -0.004431 0.003581 0.002586
v -0.005323 0.003795 0.003541
v -0.004724 0.002931 0.004295
v -0.004125 0.002068 0.005048
v -0.005003 0.002086 0.005514
v -0.006038 0.003348 0.004212
v -0.005520 0.002717 0.004863
v -0.006560 0.002697 0.004723
v -0.006145 0.002379 0.005245
v -0.005730 0.002061 0.005766
v -0.006320 0.002016 0.005892
v -0.006875 0.002301 0.005195
v -0.006598 0.002158 0.005544
v -0.007003 0.002090 0.005573
v -0.006965 0.001996 0.005801
v -0.006742 0.001983 0.005901
v -0.000373 -0.000324 0.000450
v 0.000172 -0.000361 0.001134
v -0.000918 -0.000288 -0.000233
v -0.000921 0.001197 0.002392
v -0.001623 0.001389 0.001512
v -0.002324 0.001581 0.000631
v -0.000206 -0.000048 0.001537
v -0.000463 0.000354 0.001848
v -0.001102 0.000445 0.001050
v -0.001390 0.000067 0.000056
v -0.000798 0.000010 0.000796
v -0.001414 0.000855 0.001307
v -0.002094 0.000993 0.000461
v -0.001741 0.000537 0.000252
v -0.000734 0.000717 0.002153
v -0.000271 -0.000811 0.000349
v -0.000781 -0.000783 -0.000290
v -0.000694 -0.000906 -0.000340
v 0.000304 -0.000955 0.000910
v 0.000240 -0.000838 0.000989
v -0.000195 -0.000930 0.000285
v -0.002086 0.001603 0.001846
v -0.001360 0.001313 0.002739
v -0.001702 0.001518 0.003033
v -0.002811 0.001893 0.000954
v -0.002446 0.001946 0.002126
v -0.002981 0.002283 0.002574
v -0.003716 0.002885 0.001676
v -0.003188 0.002376 0.001218
v -0.002244 0.001682 0.003473
v -0.003174 0.001823 0.004209
v -0.003858 0.002623 0.003370
v -0.004797 0.002777 0.004190
v -0.005396 0.003641 0.003437
v -0.004541 0.003424 0.002531
v -0.004198 0.001914 0.004944
v -0.005037 0.001929 0.005395
v -0.006047 0.003198 0.004080
v -0.006537 0.002540 0.004601
v -0.005542 0.002563 0.004737
v -0.005734 0.001893 0.005658
v -0.006135 0.002216 0.005129
v -0.006309 0.001837 0.005803
v -0.006851 0.002128 0.005098
v -0.006980 0.001911 0.005487
v -0.006580 0.001982 0.005450
v -0.006725 0.001801 0.005819
v -0.006944 0.001816 0.005717
v 0.000049 -0.000490 0.001224
v -0.000496 -0.000453 0.000541
v -0.001042 -0.000415 -0.000142
v -0.001035 0.001041 0.002447
v -0.001741 0.001239 0.001572
v -0.002447 0.001437 0.000696
v -0.001027 0.000568 -0.000469
v -0.001614 0.000561 0.000371
v -0.001250 0.000149 0.000530
v -0.000706 0.000156 -0.000248
v -0.000162 0.000163 -0.001027
v -0.000439 0.000575 -0.001310
v -0.000733 0.000941 -0.001590
v -0.001357 0.000933 -0.000697
v -0.001981 0.000925 0.000196
v 0.000386 -0.000785 -0.000469
v 0.000318 -0.000663 -0.000539
v -0.000151 -0.000669 0.000132
v -0.000620 -0.000675 0.000803
v -0.000530 -0.000796 0.000842
v -0.000072 -0.000791 0.000186
v -0.000416 -0.000795 0.000678
v -0.000072 -0.000791 0.000186
v 0.000272 -0.000786 -0.000306
v -0.002454 0.001742 -0.001457
v -0.003138 0.001733 -0.000478
v -0.002733 0.001516 -0.000236
v -0.002067 0.001524 -0.001189
v -0.001402 0.001532 -0.002141
v -0.001770 0.001750 -0.002436
v -0.002352 0.001856 -0.002873
v -0.003051 0.001847 -0.001873
v -0.003749 0.001839 -0.000874
v -0.004045 0.001783 -0.002569
v -0.004748 0.001774 -0.001562
v -0.003341 0.001792 -0.003575
v -0.004441 0.001579 -0.004271
v -0.005109 0.001571 -0.003314
v -0.005778 0.001563 -0.002358
v -0.006479 0.001227 -0.003077
v -0.005354 0.001241 -0.004687
v -0.005917 0.001234 -0.003882
v -0.006101 0.000850 -0.004906
v -0.006520 0.000845 -0.004307
v -0.006938 0.000840 -0.003708
v -0.007238 0.000476 -0.004241
v -0.006701 0.000483 -0.005008
v -0.006970 0.000479 -0.004624
v -0.007126 0.000215 -0.005000
v -0.007343 0.000125 -0.004889
v -0.007374 0.000212 -0.004645
v -0.000388 -0.000305 -0.000030
v -0.000889 -0.000311 0.000686
v 0.000113 -0.000299 -0.000747
v -0.001703 0.001253 -0.000936
v -0.002351 0.001245 -0.000009
v -0.001055 0.001261 -0.001863
v -0.001372 0.000016 0.000443
v -0.001728 0.000418 0.000290
v -0.001141 0.000425 -0.000550
v -0.000284 0.000030 -0.001113
v -0.000828 0.000023 -0.000335
v -0.001461 0.000779 -0.000771
v -0.000837 0.000787 -0.001664
v -0.000554 0.000432 -0.001391
v -0.002086 0.000772 0.000121
v -0.000279 -0.000793 0.000041
v 0.000190 -0.000787 -0.000630
v 0.000258 -0.000909 -0.000560
v -0.000659 -0.000920 0.000751
v -0.000748 -0.000799 0.000712
v -0.000200 -0.000914 0.000096
v -0.002810 0.001339 -0.000291
v -0.003184 0.001541 -0.000512
v -0.002500 0.001550 -0.001491
v -0.001478 0.001356 -0.002196
v -0.002144 0.001348 -0.001244
v -0.003057 0.001648 -0.001880
v -0.002359 0.001656 -0.002879
v -0.001816 0.001558 -0.002470
v -0.003756 0.001639 -0.000880
v -0.004730 0.001576 -0.001551
v -0.004026 0.001584 -0.002557
v -0.004400 0.001385 -0.004244
v -0.003323 0.001593 -0.003564
v -0.005737 0.001369 -0.002332
v -0.005069 0.001377 -0.003288
v -0.006414 0.001043 -0.003033
v -0.005288 0.001057 -0.004643
v -0.006016 0.000678 -0.004848
v -0.005851 0.001050 -0.003838
v -0.006854 0.000668 -0.003650
v -0.006435 0.000673 -0.004249
v -0.007142 0.000314 -0.004175
v -0.006605 0.000320 -0.004942
v -0.007025 0.000057 -0.004931
v -0.006873 0.000317 -0.004559
v -0.007273 0.000054 -0.004576
v -0.007243 -0.000033 -0.004820
v -0.001016 -0.000437 0.000597
v -0.000515 -0.000431 -0.000120
v -0.000014 -0.000425 -0.000837
v -0.002443 0.001080 -0.000075
v -0.001795 0.001088 -0.001002
v -0.001147 0.001096 -0.001929
v -0.000227 0.000774 -0.001180
v -0.001235 0.000725 -0.000996
v -0.001083 0.000263 -0.000707
v -0.000150 0.000308 -0.000877
v 0.000784 0.000354 -0.001047
v 0.000780 0.000824 -0.001363
v 0.000764 0.001248 -0.001697
v -0.000307 0.001195 -0.001502
v -0.001377 0.001143 -0.001308
v 0.000792 -0.000706 -0.000448
v 0.000791 -0.000570 -0.000522
v -0.000014 -0.000610 -0.000376
v -0.000818 -0.000649 -0.000229
v -0.000780 -0.000783 -0.000162
v 0.000006 -0.000744 -0.000305
v -0.000584 -0.000773 -0.000198
v 0.000006 -0.000744 -0.000305
v 0.000596 -0.000715 -0.000413
v -0.000565 0.002189 -0.002652
v -0.001738 0.002132 -0.002438
v -0.001616 0.001851 -0.002026
v -0.000475 0.001906 -0.002234
v 0.000667 0.001962 -0.002441
v 0.000609 0.002247 -0.002865
v 0.000497 0.002584 -0.003531
v -0.000701 0.002525 -0.003313
v -0.001900 0.002466 -0.003095
v -0.000928 0.003016 -0.004424
v -0.002134 0.002957 -0.004205
v 0.000279 0.003075 -0.004644
v -0.000023 0.003677 -0.005802
v -0.001170 0.003621 -0.005594
v -0.002316 0.003564 -0.005385
v -0.002320 0.004251 -0.006253
v -0.000390 0.004346 -0.006604
v -0.001355 0.004299 -0.006429
v -0.000776 0.005016 -0.007141
v -0.001494 0.004981 -0.007011
v -0.002212 0.004946 -0.006880
v -0.002059 0.005575 -0.007336
v -0.001139 0.005620 -0.007504
v -0.001599 0.005598 -0.007420
v -0.001451 0.006047 -0.007701
v -0.001686 0.006182 -0.007743
v -0.001878 0.006026 -0.007624
v -0.000072 -0.000206 -0.000588
v -0.000931 -0.000248 -0.000431
v 0.000788 -0.000164 -0.000744
v -0.000389 0.001574 -0.001852
v -0.001500 0.001520 -0.001650
v 0.000722 0.001628 -0.002054
v -0.001108 0.000157 -0.000875
v -0.001258 0.000608 -0.001157
v -0.000251 0.000657 -0.001340
v 0.000758 0.000248 -0.001215
v -0.000175 0.000203 -0.001045
v -0.000328 0.001065 -0.001652
v 0.000743 0.001117 -0.001847
v 0.000756 0.000706 -0.001523
v -0.001398 0.001012 -0.001458
v -0.000040 -0.000705 -0.000550
v 0.000764 -0.000665 -0.000696
v 0.000765 -0.000801 -0.000622
v -0.000807 -0.000878 -0.000336
v -0.000845 -0.000744 -0.000403
v -0.000021 -0.000839 -0.000479
v -0.001630 0.001691 -0.002146
v -0.001748 0.001959 -0.002538
v -0.000574 0.002016 -0.002752
v 0.000653 0.001803 -0.002561
v -0.000489 0.001747 -0.002353
v -0.000708 0.002344 -0.003398
v 0.000491 0.002402 -0.003616
v 0.000600 0.002074 -0.002965
v -0.001906 0.002285 -0.003180
v -0.002141 0.002776 -0.004290
v -0.000934 0.002835 -0.004510
v -0.000035 0.003508 -0.005910
v 0.000273 0.002894 -0.004729
v -0.002328 0.003396 -0.005493
v -0.001181 0.003452 -0.005701
v -0.002338 0.004107 -0.006390
v -0.000408 0.004201 -0.006741
v -0.000799 0.004894 -0.007298
v -0.001373 0.004154 -0.006566
v -0.002235 0.004823 -0.007037
v -0.001517 0.004859 -0.007167
v -0.002084 0.005470 -0.007504
v -0.001164 0.005515 -0.007672
v -0.001478 0.005948 -0.007873
v -0.001624 0.005492 -0.007588
v -0.001904 0.005927 -0.007795
v -0.001713 0.006083 -0.007915
v -0.000958 -0.000346 -0.000604
v -0.000098 -0.000304 -0.000760
v 0.000761 -0.000261 -0.000917
v -0.001518 0.001375 -0.001787
v -0.000407 0.001429 -0.001989
v 0.000705 0.001483 -0.002191
vt 0.684850 0.341640
vt 0.657620 0.311150
vt 0.676650 0.289600
vt 0.698540 0.314110
vt 0.720440 0.338630
vt 0.712080 0.372130
vt 0.705470 0.405760
vt 0.671740 0.367980
vt 0.638000 0.330200
vt 0.745740 0.273750
vt 0.742160 0.282210
vt 0.724350 0.262270
vt 0.706530 0.242320
vt 0.710930 0.234760
vt 0.728340 0.254250
vt 0.715530 0.239120
vt 0.728680 0.253570
vt 0.741650 0.268360
vt 0.633840 0.444120
vt 0.583180 0.387390
vt 0.600520 0.367490
vt 0.646410 0.418880
vt 0.692300 0.470260
vt 0.684500 0.500850
vt 0.680220 0.516080
vt 0.627710 0.456750
vt 0.575200 0.397420
vt 0.634420 0.444180
vt 0.584870 0.386560
vt 0.683980 0.501800
vt 0.691550 0.471560
vt 0.647390 0.419200
vt 0.603240 0.366830
vt 0.621340 0.350230
vt 0.698710 0.438960
vt 0.660020 0.394600
vt 0.704050 0.405000
vt 0.672160 0.370230
vt 0.640280 0.335460
vt 0.661130 0.321230
vt 0.706180 0.370690
vt 0.683650 0.345960
vt 0.703600 0.341200
vt 0.694820 0.321730
vt 0.680450 0.314370
vt 0.713060 0.284940
vt 0.694030 0.263630
vt 0.732100 0.306250
vt 0.658980 0.393610
vt 0.618880 0.348710
vt 0.699080 0.438520
vt 0.676650 0.289600
vt 0.657620 0.311150
vt 0.684850 0.341640
vt 0.720440 0.338630
vt 0.698540 0.314110
vt 0.671740 0.367980
vt 0.705470 0.405760
vt 0.712080 0.372130
vt 0.638000 0.330200
vt 0.724350 0.262270
vt 0.742160 0.282210
vt 0.745740 0.273750
vt 0.710930 0.234760
vt 0.706530 0.242320
vt 0.728340 0.254250
vt 0.600520 0.367490
vt 0.583180 0.387390
vt 0.633840 0.444120
vt 0.692300 0.470260
vt 0.646410 0.418880
vt 0.627710 0.456750
vt 0.680220 0.516080
vt 0.684500 0.500850
vt 0.575200 0.397420
vt 0.584870 0.386560
vt 0.634420 0.444180
vt 0.691550 0.471560
vt 0.683980 0.501800
vt 0.603240 0.366830
vt 0.647390 0.419200
vt 0.621340 0.350230
vt 0.698710 0.438960
vt 0.704050 0.405000
vt 0.660020 0.394600
vt 0.640280 0.335460
vt 0.672160 0.370230
vt 0.661130 0.321230
vt 0.706180 0.370690
vt 0.703600 0.341200
vt 0.683650 0.345960
vt 0.680450 0.314370
vt 0.694820 0.321730
vt 0.694030 0.263630
vt 0.713060 0.284940
vt 0.732100 0.306250
vt 0.618880 0.348710
vt 0.658980 0.393610
vt 0.699080 0.438520
vt 0.684850 0.341640
vt 0.657620 0.311150
vt 0.676650 0.289600
vt 0.698540 0.314110
vt 0.720440 0.338630
vt 0.712080 0.372130
vt 0.705470 0.405760
vt 0.671740 0.367980
vt 0.638000 0.330200
vt 0.745740 0.273750
vt 0.742160 0.282210
vt 0.724350 0.262270
vt 0.706530 0.242320
vt 0.710930 0.234760
vt 0.728340 0.254250
vt 0.715530 0.239120
vt 0.728680 0.253570
vt 0.741650 0.268360
vt 0.583180 0.387390
vt 0.600520 0.367490
vt 0.646410 0.418880
vt 0.633840 0.444120
vt 0.692300 0.470260
vt 0.684500 0.500850
vt 0.680220 0.516080
vt 0.627710 0.456750
vt 0.575200 0.397420
vt 0.584870 0.386560
vt 0.634420 0.444180
vt 0.683980 0.501800
vt 0.691550 0.471560
vt 0.647390 0.419200
vt 0.603240 0.366830
vt 0.621340 0.350230
vt 0.698710 0.438960
vt 0.660020 0.394600
vt 0.704050 0.405000
vt 0.672160 0.370230
vt 0.640280 0.335460
vt 0.661130 0.321230
vt 0.706180 0.370690
vt 0.683650 0.345960
vt 0.703600 0.341200
vt 0.694820 0.321730
vt 0.680450 0.314370
vt 0.713060 0.284940
vt 0.694030 0.263630
vt 0.732100 0.306250
vt 0.618880 0.348710
vt 0.658980 0.393610
vt 0.699080 0.438520
vt 0.676650 0.289600
vt 0.657620 0.311150
vt 0.684850 0.341640
vt 0.720440 0.338630
vt 0.698540 0.314110
vt 0.671740 0.367980
vt 0.705470 0.405760
vt 0.712080 0.372130
vt 0.638000 0.330200
vt 0.724350 0.262270
vt 0.742160 0.282210
vt 0.745740 0.273750
vt 0.710930 0.234760
vt 0.706530 0.242320
vt 0.728340 0.254250
vt 0.646410 0.418880
vt 0.600520 0.367490
vt 0.583180 0.387390
vt 0.692300 0.470260
vt 0.633840 0.444120
vt 0.627710 0.456750
vt 0.680220 0.516080
vt 0.684500 0.500850
vt 0.575200 0.397420
vt 0.584870 0.386560
vt 0.634420 0.444180
vt 0.647390 0.419200
vt 0.691550 0.471560
vt 0.683980 0.501800
vt 0.603240 0.366830
vt 0.621340 0.350230
vt 0.698710 0.438960
vt 0.704050 0.405000
vt 0.660020 0.394600
vt 0.640280 0.335460
vt 0.672160 0.370230
vt 0.661130 0.321230
vt 0.706180 0.370690
vt 0.703600 0.341200
vt 0.683650 0.345960
vt 0.680450 0.314370
vt 0.694820 0.321730
vt 0.694030 0.263630
vt 0.713060 0.284940
vt 0.732100 0.306250
vt 0.618880 0.348710
vt 0.658980 0.393610
vt 0.699080 0.438520
vt 0.684850 0.341640
vt 0.657620 0.311150
vt 0.676650 0.289600
vt 0.698540 0.314110
vt 0.720440 0.338630
vt 0.712080 0.372130
vt 0.705470 0.405760
vt 0.671740 0.367980
vt 0.638000 0.330200
vt 0.745740 0.273750
vt 0.742160 0.282210
vt 0.724350 0.262270
vt 0.706530 0.242320
vt 0.710930 0.234760
vt 0.728340 0.254250
vt 0.715530 0.239120
vt 0.728680 0.253570
vt 0.741650 0.268360
vt 0.633840 0.444120
vt 0.583180 0.387390
vt 0.600520 0.367490
vt 0.646410 0.418880
vt 0.692300 0.470260
vt 0.684500 0.500850
vt 0.680220 0.516080
vt 0.627710 0.456750
vt 0.575200 0.397420
vt 0.634420 0.444180
vt 0.584870 0.386560
vt 0.683980 0.501800
vt 0.691550 0.471560
vt 0.647390 0.419200
vt 0.603240 0.366830
vt 0.660020 0.394600
vt 0.621340 0.350230
vt 0.698710 0.438960
vt 0.704050 0.405000
vt 0.672160 0.370230
vt 0.640280 0.335460
vt 0.683650 0.345960
vt 0.661130 0.321230
vt 0.706180 0.370690
vt 0.703600 0.341200
vt 0.694820 0.321730
vt 0.680450 0.314370
vt 0.713060 0.284940
vt 0.694030 0.263630
vt 0.732100 0.306250
vt 0.658980 0.393610
vt 0.618880 0.348710
vt 0.699080 0.438520
vt 0.676650 0.289600
vt 0.657620 0.311150
vt 0.684850 0.341640
vt 0.712080 0.372130
vt 0.720440 0.338630
vt 0.698540 0.314110
vt 0.705470 0.405760
vt 0.638000 0.330200
vt 0.671740 0.367980
vt 0.724350 0.262270
vt 0.742160 0.282210
vt 0.745740 0.273750
vt 0.710930 0.234760
vt 0.706530 0.242320
vt 0.728340 0.254250
vt 0.600520 0.367490
vt 0.583180 0.387390
vt 0.633840 0.444120
vt 0.684500 0.500850
vt 0.692300 0.470260
vt 0.646410 0.418880
vt 0.680220 0.516080
vt 0.575200 0.397420
vt 0.627710 0.456750
vt 0.584870 0.386560
vt 0.634420 0.444180
vt 0.683980 0.501800
vt 0.691550 0.471560
vt 0.603240 0.366830
vt 0.647390 0.419200
vt 0.621340 0.350230
vt 0.660020 0.394600
vt 0.698710 0.438960
vt 0.704050 0.405000
vt 0.640280 0.335460
vt 0.672160 0.370230
vt 0.661130 0.321230
vt 0.683650 0.345960
vt 0.706180 0.370690
vt 0.703600 0.341200
vt 0.680450 0.314370
vt 0.694820 0.321730
vt 0.694030 0.263630
vt 0.713060 0.284940
vt 0.732100 0.306250
vt 0.618880 0.348710
vt 0.658980 0.393610
vt 0.699080 0.438520
vt 0.684850 0.341640
vt 0.657620 0.311150
vt 0.676650 0.289600
vt 0.698540 0.314110
vt 0.720440 0.338630
vt 0.712080 0.372130
vt 0.705470 0.405760
vt 0.671740 0.367980
vt 0.638000 0.330200
vt 0.745740 0.273750
vt 0.742160 0.282210
vt 0.724350 0.262270
vt 0.706530 0.242320
vt 0.710930 0.234760
vt 0.728340 0.254250
vt 0.715530 0.239120
vt 0.728680 0.253570
vt 0.741650 0.268360
vt 0.583180 0.387390
vt 0.600520 0.367490
vt 0.646410 0.418880
vt 0.633840 0.444120
vt 0.692300 0.470260
vt 0.684500 0.500850
vt 0.680220 0.516080
vt 0.627710 0.456750
vt 0.575200 0.397420
vt 0.584870 0.386560
vt 0.634420 0.444180
vt 0.683980 0.501800
vt 0.691550 0.471560
vt 0.647390 0.419200
vt 0.603240 0.366830
vt 0.621340 0.350230
vt 0.698710 0.438960
vt 0.660020 0.394600
vt 0.704050 0.405000
vt 0.672160 0.370230
vt 0.640280 0.335460
vt 0.661130 0.321230
vt 0.706180 0.370690
vt 0.683650 0.345960
vt 0.703600 0.341200
vt 0.694820 0.321730
vt 0.680450 0.314370
vt 0.713060 0.284940
vt 0.694030 0.263630
vt 0.732100 0.306250
vt 0.618880 0.348710
vt 0.658980 0.393610
vt 0.699080 0.438520
vt 0.676650 0.289600
vt 0.657620 0.311150
vt 0.684850 0.341640
vt 0.720440 0.338630
vt 0.698540 0.314110
vt 0.671740 0.367980
vt 0.705470 0.405760
vt 0.712080 0.372130
vt 0.638000 0.330200
vt 0.724350 0.262270
vt 0.742160 0.282210
vt 0.745740 0.273750
vt 0.710930 0.234760
vt 0.706530 0.242320
vt 0.728340 0.254250
vt 0.646410 0.418880
vt 0.600520 0.367490
vt 0.583180 0.387390
vt 0.692300 0.470260
vt 0.633840 0.444120
vt 0.627710 0.456750
vt 0.680220 0.516080
vt 0.684500 0.500850
vt 0.575200 0.397420
vt 0.584870 0.386560
vt 0.634420 0.444180
vt 0.647390 0.419200
vt 0.691550 0.471560
vt 0.683980 0.501800
vt 0.603240 0.366830
vt 0.621340 0.350230
vt 0.698710 0.438960
vt 0.704050 0.405000
vt 0.660020 0.394600
vt 0.640280 0.335460
vt 0.672160 0.370230
vt 0.661130 0.321230
vt 0.706180 0.370690
vt 0.703600 0.341200
vt 0.683650 0.345960
vt 0.680450 0.314370
vt 0.694820 0.321730
vt 0.694030 0.263630
vt 0.713060 0.284940
vt 0.732100 0.306250
vt 0.618880 0.348710
vt 0.658980 0.393610
vt 0.699080 0.438520
vt 0.684850 0.341640
vt 0.657620 0.311150
vt 0.676650 0.289600
vt 0.698540 0.314110
vt 0.720440 0.338630
vt 0.712080 0.372130
vt 0.705470 0.405760
vt 0.671740 0.367980
vt 0.638000 0.330200
vt 0.745740 0.273750
vt 0.742160 0.282210
vt 0.724350 0.262270
vt 0.706530 0.242320
vt 0.710930 0.234760
vt 0.728340 0.254250
vt 0.715530 0.239120
vt 0.728680 0.253570
vt 0.741650 0.268360
vt 0.633840 0.444120
vt 0.583180 0.387390
vt 0.600520 0.367490
vt 0.646410 0.418880
vt 0.692300 0.470260
vt 0.684500 0.500850
vt 0.680220 0.516080
vt 0.627710 0.456750
vt 0.575200 0.397420
vt 0.634420 0.444180
vt 0.584870 0.386560
vt 0.683980 0.501800
vt 0.691550 0.471560
vt 0.647390 0.419200
vt 0.603240 0.366830
vt 0.621340 0.350230
vt 0.698710 0.438960
vt 0.660020 0.394600
vt 0.704050 0.405000
vt 0.672160 0.370230
vt 0.640280 0.335460
vt 0.661130 0.321230
vt 0.706180 0.370690
vt 0.683650 0.345960
vt 0.703600 0.341200
vt 0.694820 0.321730
vt 0.680450 0.314370
vt 0.713060 0.284940
vt 0.694030 0.263630
vt 0.732100 0.306250
vt 0.658980 0.393610
vt 0.618880 0.348710
vt 0.699080 0.438520
vt 0.676650 0.289600
vt 0.657620 0.311150
vt 0.684850 0.341640
vt 0.720440 0.338630
vt 0.698540 0.314110
vt 0.671740 0.367980
vt 0.705470 0.405760
vt 0.712080 0.372130
vt 0.638000 0.330200
vt 0.724350 0.262270
vt 0.742160 0.282210
vt 0.745740 0.273750
vt 0.710930 0.234760
vt 0.706530 0.242320
vt 0.728340 0.254250
vt 0.600520 0.367490
vt 0.583180 0.387390
vt 0.633840 0.444120
vt 0.692300 0.470260
vt 0.646410 0.418880
vt 0.627710 0.456750
vt 0.680220 0.516080
vt 0.684500 0.500850
vt 0.575200 0.397420
vt 0.584870 0.386560
vt 0.634420 0.444180
vt 0.691550 0.471560
vt 0.683980 0.501800
vt 0.603240 0.366830
vt 0.647390 0.419200
vt 0.621340 0.350230
vt 0.698710 0.438960
vt 0.704050 0.405000
vt 0.660020 0.394600
vt 0.640280 0.335460
vt 0.672160 0.370230
vt 0.661130 0.321230
vt 0.706180 0.370690
vt 0.703600 0.341200
vt 0.683650 0.345960
vt 0.680450 0.314370
vt 0.694820 0.321730
vt 0.694030 0.263630
vt 0.713060 0.284940
vt 0.732100 0.306250
vt 0.618880 0.348710
vt 0.658980 0.393610
vt 0.699080 0.438520
vt 0.684850 0.341640
vt 0.657620 0.311150
vt 0.676650 0.289600
vt 0.698540 0.314110
vt 0.720440 0.338630
vt 0.712080 0.372130
vt 0.705470 0.405760
vt 0.671740 0.367980
vt 0.638000 0.330200
vt 0.745740 0.273750
vt 0.742160 0.282210
vt 0.724350 0.262270
vt 0.706530 0.242320
vt 0.710930 0.234760
vt 0.728340 0.254250
vt 0.715530 0.239120
vt 0.728680 0.253570
vt 0.741650 0.268360
vt 0.633840 0.444120
vt 0.583180 0.387390
vt 0.600520 0.367490
vt 0.646410 0.418880
vt 0.692300 0.470260
vt 0.684500 0.500850
vt 0.680220 0.516080
vt 0.627710 0.456750
vt 0.575200 0.397420
vt 0.634420 0.444180
vt 0.584870 0.386560
vt 0.683980 0.501800
vt 0.691550 0.471560
vt 0.647390 0.419200
vt 0.603240 0.366830
vt 0.621340 0.350230
vt 0.698710 0.438960
vt 0.660020 0.394600
vt 0.704050 0.405000
vt 0.672160 0.370230
vt 0.640280 0.335460
vt 0.661130 0.321230
vt 0.706180 0.370690
vt 0.683650 0.345960
vt 0.703600 0.341200
vt 0.694820 0.321730
vt 0.680450 0.314370
vt 0.713060 0.284940
vt 0.694030 0.263630
vt 0.732100 0.306250
vt 0.658980 0.393610
vt 0.618880 0.348710
vt 0.699080 0.438520
vt 0.676650 0.289600
vt 0.657620 0.311150
vt 0.684850 0.341640
vt 0.720440 0.338630
vt 0.698540 0.314110
vt 0.671740 0.367980
vt 0.705470 0.405760
vt 0.712080 0.372130
vt 0.638000 0.330200
vt 0.724350 0.262270
vt 0.742160 0.282210
vt 0.745740 0.273750
vt 0.710930 0.234760
vt 0.706530 0.242320
vt 0.728340 0.254250
vt 0.600520 0.367490
vt 0.583180 0.387390
vt 0.633840 0.444120
vt 0.692300 0.470260
vt 0.646410 0.418880
vt 0.627710 0.456750
vt 0.680220 0.516080
vt 0.684500 0.500850
vt 0.575200 0.397420
vt 0.584870 0.386560
vt 0.634420 0.444180
vt 0.691550 0.471560
vt 0.683980 0.501800
vt 0.603240 0.366830
vt 0.647390 0.419200
vt 0.621340 0.350230
vt 0.698710 0.438960
vt 0.704050 0.405000
vt 0.660020 0.394600
vt 0.640280 0.335460
vt 0.672160 0.370230
vt 0.661130 0.321230
vt 0.706180 0.370690
vt 0.703600 0.341200
vt 0.683650 0.345960
vt 0.680450 0.314370
vt 0.694820 0.321730
vt 0.694030 0.263630
vt 0.713060 0.284940
vt 0.732100 0.306250
vt 0.618880 0.348710
vt 0.658980 0.393610
vt 0.699080 0.438520
vn -0.3376 0.7360 0.5868
vn -0.8670 0.4864 0.1082
vn -0.8845 0.4459 0.1373
vn -0.3653 0.6863 0.6289
vn 0.2942 0.4063 0.8651
vn 0.3142 0.4469 0.8376
vn 0.3488 0.5015 0.7917
vn -0.3024 0.7905 0.5326
vn -0.8388 0.5414 0.0585
vn 0.0152 -0.1073 0.9941
vn 0.2923 0.3674 0.8829
vn -0.3876 0.6408 0.6626
vn -0.9015 0.4075 0.1458
vn -0.9001 -0.0766 0.4289
vn -0.2126 0.3514 0.9118
vn -0.4605 -0.1998 0.8649
vn 0.0000 0.0000 1.0000
vn -0.6663 -0.1774 0.7243
vn -0.1232 0.9599 0.2517
vn -0.6908 0.7068 -0.1525
vn -0.7563 0.6518 -0.0567
vn -0.2046 0.9019 0.3804
vn 0.4202 0.6123 0.6697
vn 0.4792 0.6675 0.5699
vn 0.5583 0.6904 0.4601
vn -0.0377 0.9927 0.1150
vn -0.6270 0.7301 -0.2717
vn 0.0038 0.9988 0.0482
vn -0.5931 0.7248 -0.3506
vn 0.6133 0.6843 0.3943
vn 0.6636 0.6734 0.3259
vn 0.0147 0.9994 0.0305
vn -0.5549 0.7142 -0.4265
vn -0.4837 0.7134 -0.5070
vn 0.7037 0.6736 0.2261
vn 0.0182 0.9995 0.0249
vn 0.7243 0.6771 0.1302
vn 0.0197 0.9996 0.0224
vn -0.4070 0.7150 -0.5684
vn -0.3156 0.7071 -0.6328
vn 0.7406 0.6716 0.0193
vn 0.7271 0.6508 -0.2184
vn 0.4257 0.6236 -0.6556
vn -0.0982 0.6785 -0.7280
vn -0.3824 0.6519 0.6548
vn -0.8966 0.4182 0.1459
vn 0.2905 0.3783 0.8789
vn -0.2583 0.8471 0.4644
vn -0.7986 0.6019 0.0017
vn 0.3845 0.5622 0.7322
vn -0.3815 -0.5296 -0.7577
vn -0.4079 -0.5559 -0.7243
vn 0.3377 -0.7359 -0.5869
vn 0.8217 -0.5698 -0.0148
vn 0.3654 -0.6862 -0.6290
vn 0.3024 -0.7904 -0.5327
vn 0.7878 -0.6133 0.0580
vn 0.8023 -0.5965 0.0229
vn -0.4333 -0.5727 -0.6959
vn 0.3877 -0.6408 -0.6626
vn 0.8406 -0.5390 -0.0542
vn 0.4681 -0.8558 0.2202
vn -0.4473 -0.8251 -0.3451
vn -0.3533 -0.4989 -0.7914
vn -0.4684 -0.4951 0.7318
vn 0.0228 -0.9956 -0.0910
vn -0.4684 -0.4950 0.7318
vn -0.4864 0.3368 0.8062
vn -0.4923 -0.6251 -0.6057
vn -0.5599 -0.6413 -0.5247
vn 0.1234 -0.9598 -0.2519
vn 0.7307 -0.6661 0.1495
vn 0.2050 -0.9015 -0.3810
vn 0.0374 -0.9927 -0.1145
vn 0.6331 -0.7075 0.3141
vn 0.6878 -0.6831 0.2456
vn -0.5978 -0.6662 -0.4459
vn -0.6046 -0.6753 -0.4224
vn -0.0039 -0.9988 -0.0480
vn 0.6450 -0.7095 0.2839
vn 0.6147 -0.7162 0.3305
vn -0.5762 -0.6685 -0.4701
vn -0.0147 -0.9994 -0.0305
vn -0.5092 -0.6678 -0.5429
vn 0.6801 -0.7077 0.1914
vn 0.6970 -0.7102 0.0991
vn -0.0182 -0.9995 -0.0249
vn -0.4344 -0.6723 -0.5995
vn -0.0197 -0.9996 -0.0224
vn -0.3426 -0.6650 -0.6636
vn 0.7136 -0.7005 -0.0114
vn 0.7011 -0.6685 -0.2480
vn -0.1242 -0.6408 -0.7576
vn 0.4014 -0.6099 -0.6833
vn -0.3619 -0.5061 -0.7829
vn 0.3825 -0.6519 -0.6548
vn 0.8366 -0.5461 -0.0429
vn -0.4571 -0.5945 -0.6615
vn 0.2584 -0.8470 -0.4645
vn 0.7663 -0.6355 0.0939
vn -0.4018 0.6833 0.6097
vn -0.8956 0.4355 0.0905
vn -0.8997 0.4183 0.1252
vn -0.3989 0.6557 0.6410
vn 0.2716 0.3833 0.8828
vn 0.2650 0.4125 0.8715
vn 0.2603 0.4605 0.8486
vn -0.4072 0.7170 0.5657
vn -0.8862 0.4621 0.0330
vn 0.0171 -0.1212 0.9925
vn 0.2862 0.3602 0.8879
vn -0.3943 0.6319 0.6672
vn -0.9038 0.4029 0.1442
vn -0.8996 -0.0855 0.4283
vn -0.1569 0.3742 0.9140
vn 0.1761 0.9487 0.2628
vn 0.3726 0.8899 0.2632
vn -0.8638 0.4535 -0.2195
vn -0.8696 0.4817 -0.1087
vn -0.4489 0.7795 0.4369
vn -0.4805 0.8257 0.2956
vn 0.1973 0.5590 0.8054
vn 0.1493 0.6814 0.7165
vn 0.1194 0.8351 0.5370
vn -0.5137 0.8531 0.0918
vn -0.8606 0.3616 -0.3586
vn -0.8517 0.2390 -0.4663
vn -0.5508 0.8285 -0.1016
vn 0.0861 0.9458 0.3131
vn 0.1941 0.9807 -0.0238
vn -0.4829 0.8078 -0.3381
vn -0.7806 0.1743 -0.6002
vn -0.6412 0.1912 -0.7432
vn 0.4515 0.8384 -0.3055
vn -0.2777 0.8002 -0.5315
vn 0.6671 0.6765 -0.3120
vn -0.1125 0.8411 -0.5290
vn -0.5069 0.2717 -0.8180
vn -0.3771 0.3447 -0.8596
vn 0.7313 0.6169 -0.2910
vn -0.0336 0.8987 -0.4374
vn 0.7345 0.5106 -0.4470
vn 0.4259 0.3002 -0.8535
vn -0.1282 0.3267 -0.9364
vn -0.3970 0.6379 0.6599
vn -0.9027 0.4069 0.1396
vn 0.2804 0.3672 0.8869
vn -0.8731 0.4863 -0.0341
vn -0.4200 0.7515 0.5088
vn 0.2438 0.5134 0.8228
vn -0.3497 -0.5246 -0.7763
vn -0.3495 -0.5505 -0.7582
vn 0.4017 -0.6833 -0.6097
vn 0.8453 -0.5335 -0.0297
vn 0.3989 -0.6557 -0.6410
vn 0.4072 -0.7170 -0.5657
vn 0.8522 -0.5220 0.0356
vn 0.8458 -0.5335 0.0013
vn -0.3404 -0.5748 -0.7441
vn 0.3943 -0.6319 -0.6672
vn 0.8472 -0.5279 -0.0591
vn 0.4759 -0.8544 0.2084
vn -0.4449 -0.8242 -0.3503
vn -0.3481 -0.4964 -0.7952
vn -0.4655 -0.5039 0.7276
vn 0.0299 -0.9945 -0.1001
vn -0.4632 -0.5117 0.7236
vn -0.4867 0.3312 0.8083
vn 0.4487 -0.7795 -0.4371
vn -0.2860 -0.6860 -0.6690
vn -0.2581 -0.7899 -0.5563
vn 0.8692 -0.4802 0.1174
vn 0.4807 -0.8253 -0.2962
vn 0.5139 -0.8529 -0.0921
vn 0.8923 -0.2940 0.3425
vn 0.8798 -0.4034 0.2514
vn -0.1994 -0.8993 -0.3893
vn -0.1333 -0.9576 -0.2555
vn 0.5515 -0.8281 0.1007
vn 0.4833 -0.8075 0.3382
vn 0.9082 -0.0603 0.4141
vn 0.9021 -0.1652 0.3987
vn -0.1284 -0.9784 -0.1621
vn -0.1993 -0.9732 -0.1151
vn 0.8527 -0.2295 0.4692
vn 0.7353 -0.4360 0.5190
vn 0.2759 -0.7996 0.5334
vn -0.2828 -0.9441 -0.1693
vn 0.1119 -0.8412 0.5291
vn -0.2906 -0.9085 -0.3004
vn 0.7242 -0.5804 0.3723
vn 0.7164 -0.6901 0.1029
vn 0.0338 -0.8987 0.4374
vn -0.1060 -0.8915 -0.4404
vn 0.4453 -0.8209 -0.3576
vn -0.3483 -0.5038 -0.7905
vn 0.3969 -0.6379 -0.6600
vn 0.8474 -0.5287 -0.0496
vn -0.3180 -0.6155 -0.7211
vn 0.4198 -0.7516 -0.5087
vn 0.8602 -0.5054 0.0682
vn -0.3065 0.7349 0.6050
vn -0.8748 0.4447 0.1922
vn -0.8901 0.4161 0.1861
vn -0.3519 0.6860 0.6369
vn 0.3388 0.4374 0.8330
vn 0.3916 0.4896 0.7791
vn 0.4634 0.5356 0.7060
vn -0.2422 0.7867 0.5678
vn -0.8448 0.5031 0.1821
vn 0.0250 -0.1015 0.9945
vn 0.3026 0.3819 0.8733
vn -0.3863 0.6409 0.6633
vn -0.9053 0.3943 0.1580
vn -0.8961 -0.0822 0.4363
vn -0.1782 0.4519 0.8741
vn 0.4165 0.7327 0.5383
vn -0.3018 -0.8958 0.3261
vn 0.1034 0.8953 0.4332
vn -0.6333 0.7568 0.1617
vn -0.7256 0.6654 0.1754
vn -0.0432 0.8788 0.4753
vn 0.6395 0.5497 0.5375
vn 0.7699 0.4705 0.4312
vn 0.9009 0.2981 0.3154
vn 0.3168 0.8422 0.4364
vn -0.4551 0.8639 0.2159
vn 0.5568 0.6534 0.5129
vn -0.2057 0.9189 0.3367
vn 0.9580 -0.0143 0.2865
vn 0.8549 -0.3589 0.3746
vn 0.6185 0.3948 0.6794
vn 0.0084 0.9206 0.3905
vn 0.4731 0.2086 0.8559
vn 0.1866 0.8730 0.4505
vn 0.6928 -0.5166 0.5031
vn 0.6090 -0.5686 0.5530
vn 0.3200 0.0879 0.9433
vn 0.2220 0.7820 0.5824
vn 0.2421 -0.0543 0.9687
vn 0.2338 0.6917 0.6833
vn 0.6131 -0.6169 0.4935
vn 0.6775 -0.6169 0.4005
vn 0.8987 -0.1628 0.4072
vn 0.5925 0.5175 0.6174
vn -0.3779 0.6518 0.6576
vn -0.9004 0.4013 0.1682
vn 0.3103 0.3963 0.8641
vn -0.1555 0.8371 0.5245
vn -0.7942 0.5824 0.1734
vn 0.5462 0.5620 0.6212
vn -0.3942 -0.5538 -0.7335
vn -0.4416 -0.5795 -0.6849
vn 0.3065 -0.7349 -0.6050
vn 0.8266 -0.5613 -0.0408
vn 0.8409 -0.5395 -0.0427
vn 0.3520 -0.6859 -0.6369
vn 0.8030 -0.5939 -0.0490
vn -0.4955 -0.5763 -0.6498
vn 0.2423 -0.7868 -0.5677
vn 0.3864 -0.6409 -0.6633
vn 0.8474 -0.5271 -0.0631
vn 0.4759 -0.8505 0.2242
vn -0.4411 -0.8303 -0.3406
vn -0.3582 -0.5095 -0.7824
vn -0.4682 -0.4968 0.7308
vn 0.0222 -0.9956 -0.0911
vn -0.4692 -0.4930 0.7326
vn -0.4869 0.3368 0.8059
vn -0.6263 -0.5281 -0.5735
vn -0.7117 -0.4336 -0.5527
vn -0.1033 -0.8953 -0.4333
vn 0.5698 -0.8187 -0.0703
vn 0.6757 -0.7352 -0.0543
vn 0.0430 -0.8790 -0.4749
vn 0.3612 -0.9221 -0.1390
vn -0.7913 -0.2534 -0.5564
vn -0.3168 -0.8418 -0.4370
vn -0.8459 0.0515 -0.5309
vn -0.5564 -0.6524 -0.5145
vn 0.0325 -0.9729 -0.2289
vn -0.1907 -0.8863 -0.4220
vn -0.7059 0.3748 -0.6010
vn -0.6180 -0.3945 -0.6800
vn -0.4052 0.5509 -0.7296
vn -0.4737 -0.2093 -0.8555
vn -0.0934 -0.7734 -0.6270
vn 0.0724 -0.6835 -0.7264
vn -0.1765 0.6267 -0.7590
vn -0.3210 -0.0882 -0.9430
vn -0.0234 0.7365 -0.6760
vn -0.2428 0.0544 -0.9685
vn 0.1639 -0.5589 -0.8129
vn 0.2831 -0.4026 -0.8705
vn 0.4424 0.6779 -0.5872
vn 0.6262 -0.0562 -0.7776
vn -0.3674 -0.5208 -0.7706
vn 0.3779 -0.6518 -0.6576
vn 0.8467 -0.5292 -0.0548
vn -0.5530 -0.5581 -0.6186
vn 0.1556 -0.8372 -0.5244
vn 0.7570 -0.6508 -0.0594
vn -0.4018 0.6833 0.6096
vn -0.8957 0.4354 0.0906
vn -0.8997 0.4182 0.1253
vn 0.2700 0.3840 0.8830
vn 0.2651 0.4125 0.8716
vn 0.2603 0.4606 0.8486
vn -0.4071 0.7171 0.5658
vn -0.8862 0.4620 0.0329
vn 0.0172 -0.1211 0.9925
vn 0.2863 0.3601 0.8879
vn -0.3942 0.6320 0.6672
vn -0.9038 0.4030 0.1442
vn -0.8999 -0.0818 0.4283
vn -0.1457 0.4531 0.8795
vn -0.4355 0.8697 0.2321
vn -0.4456 0.8928 0.0661
vn -0.8638 0.4536 -0.2195
vn -0.8695 0.4817 -0.1087
vn -0.4489 0.7795 0.4370
vn -0.4805 0.8257 0.2955
vn 0.1974 0.5590 0.8053
vn 0.1493 0.6815 0.7164
vn -0.8606 0.3615 -0.3586
vn -0.8517 0.2390 -0.4664
vn -0.5508 0.8284 -0.1016
vn 0.4515 0.8383 -0.3055
vn -0.2778 0.8002 -0.5315
vn 0.6671 0.6764 -0.3120
vn -0.1126 0.8411 -0.5290
vn -0.5069 0.2718 -0.8180
vn -0.3771 0.3446 -0.8597
vn -0.0335 0.8987 -0.4374
vn 0.7345 0.5105 -0.4471
vn -0.1282 0.3266 -0.9364
vn -0.3969 0.6379 0.6600
vn -0.9027 0.4071 0.1395
vn 0.2804 0.3673 0.8868
vn -0.4199 0.7515 0.5088
vn 0.2439 0.5133 0.8228
vn -0.3498 -0.5246 -0.7762
vn -0.3495 -0.5504 -0.7582
vn 0.4018 -0.6832 -0.6097
vn 0.3989 -0.6558 -0.6410
vn 0.4071 -0.7171 -0.5658
vn 0.8458 -0.5335 0.0012
vn 0.3943 -0.6319 -0.6673
vn 0.8472 -0.5280 -0.0591
vn -0.4449 -0.8242 -0.3502
vn -0.3481 -0.4965 -0.7952
vn -0.4654 -0.5040 0.7276
vn 0.0300 -0.9945 -0.1001
vn -0.4867 0.3312 0.8084
vn 0.4487 -0.7795 -0.4372
vn -0.2859 -0.6860 -0.6691
vn -0.2581 -0.7899 -0.5562
vn 0.8693 -0.4801 0.1175
vn 0.4807 -0.8254 -0.2962
vn 0.5140 -0.8529 -0.0921
vn 0.8923 -0.2941 0.3425
vn 0.8798 -0.4035 0.2513
vn -0.1995 -0.8993 -0.3893
vn -0.1334 -0.9576 -0.2555
vn 0.5514 -0.8281 0.1007
vn 0.4833 -0.8075 0.3383
vn -0.1993 -0.9731 -0.1151
vn 0.8527 -0.2294 0.4692
vn 0.7353 -0.4360 0.5189
vn 0.2758 -0.7997 0.5334
vn -0.2827 -0.9441 -0.1693
vn 0.1119 -0.8412 0.5290
vn 0.0339 -0.8987 0.4373
vn -0.1059 -0.8915 -0.4404
vn 0.4454 -0.8208 -0.3576
vn 0.8473 -0.5287 -0.0497
vn -0.3181 -0.6156 -0.7210
vn 0.4199 -0.7517 -0.5086
vn 0.8601 -0.5055 0.0682
vn -0.3425 0.7277 0.5943
vn -0.8700 0.4801 0.1119
vn -0.8867 0.4406 0.1398
vn -0.3690 0.6792 0.6345
vn 0.2927 0.4011 0.8680
vn 0.3120 0.4404 0.8418
vn 0.3453 0.4938 0.7981
vn -0.3090 0.7809 0.5428
vn -0.8432 0.5337 0.0642
vn 0.0159 -0.1137 0.9934
vn 0.2909 0.3636 0.8850
vn -0.3903 0.6349 0.6667
vn -0.9029 0.4036 0.1478
vn -0.9001 -0.0828 0.4277
vn -0.2155 0.5491 0.8075
vn -0.8509 0.4605 -0.2529
vn -0.1459 0.9609 0.2355
vn -0.1160 0.9638 0.2403
vn -0.6785 0.7180 -0.1553
vn -0.7648 0.6428 -0.0444
vn -0.2165 0.8910 0.3990
vn 0.4126 0.6033 0.6825
vn 0.4767 0.6793 0.5579
vn 0.5870 0.7039 0.4001
vn 0.0108 0.9993 0.0367
vn -0.5855 0.7432 -0.3238
vn 0.0909 0.9915 -0.0934
vn -0.5250 0.7246 -0.4465
vn 0.6686 0.6846 0.2905
vn 0.7479 0.6446 0.1583
vn 0.1614 0.9645 -0.2091
vn -0.4443 0.6847 -0.5778
vn -0.3392 0.6011 -0.7236
vn 0.8272 0.5619 -0.0035
vn 0.2399 0.9096 -0.3391
vn 0.8769 0.4638 -0.1260
vn 0.2978 0.8492 -0.4361
vn -0.2568 0.5018 -0.8260
vn -0.1879 0.3955 -0.8990
vn 0.9063 0.3588 -0.2234
vn 0.3342 0.8003 -0.4978
vn 0.8976 0.1762 -0.4041
vn 0.5243 -0.0339 -0.8509
vn -0.0314 0.2072 -0.9778
vn -0.3854 0.6458 0.6591
vn -0.8982 0.4140 0.1481
vn 0.2891 0.3741 0.8812
vn -0.2672 0.8366 0.4782
vn -0.8051 0.5931 0.0101
vn 0.3795 0.5533 0.7416
vn -0.3780 -0.5246 -0.7628
vn -0.4033 -0.5502 -0.7311
vn 0.3426 -0.7275 -0.5944
vn 0.8249 -0.5649 -0.0201
vn 0.3690 -0.6791 -0.6345
vn 0.3090 -0.7808 -0.5429
vn 0.7930 -0.6072 0.0491
vn 0.8067 -0.5908 0.0159
vn -0.4277 -0.5663 -0.7045
vn 0.3903 -0.6349 -0.6667
vn 0.8432 -0.5345 -0.0578
vn 0.4718 -0.8551 0.2149
vn -0.4443 -0.8244 -0.3508
vn -0.3510 -0.4945 -0.7951
vn -0.4661 -0.5034 0.7276
vn 0.0268 -0.9949 -0.0974
vn -0.4873 0.3331 0.8072
vn -0.4824 -0.6187 -0.6200
vn -0.5753 -0.6329 -0.5182
vn 0.1165 -0.9635 -0.2411
vn 0.7394 -0.6597 0.1345
vn 0.2174 -0.8902 -0.4005
vn -0.0114 -0.9993 -0.0358
vn 0.6064 -0.7017 0.3740
vn 0.6892 -0.6753 0.2626
vn -0.6390 -0.6600 -0.3950
vn -0.6712 -0.6644 -0.3288
vn -0.0910 -0.9914 0.0935
vn 0.5583 -0.6941 0.4545
vn 0.5613 -0.7058 0.4323
vn -0.6891 -0.6523 -0.3158
vn -0.1614 -0.9645 0.2090
vn -0.6854 -0.6690 -0.2875
vn 0.5305 -0.7098 0.4634
vn 0.4867 -0.7325 0.4759
vn -0.2400 -0.9095 0.3393
vn -0.6781 -0.6935 -0.2433
vn -0.2979 -0.8490 0.4363
vn -0.6514 -0.7225 -0.2318
vn 0.4630 -0.7599 0.4563
vn 0.4397 -0.8517 0.2852
vn -0.3343 -0.8001 0.4980
vn -0.4926 -0.8204 -0.2903
vn 0.1050 -0.9692 -0.2227
vn -0.3593 -0.5015 -0.7870
vn 0.3854 -0.6457 -0.6592
vn 0.8393 -0.5416 -0.0470
vn -0.4498 -0.5877 -0.6725
vn 0.2673 -0.8365 -0.4784
vn 0.7731 -0.6288 0.0827
vn 0.3143 0.4468 0.8376
vn 0.3490 0.5013 0.7918
vn -0.8389 0.5412 0.0583
vn 0.0154 -0.1072 0.9941
vn 0.2920 0.3696 0.8821
vn -0.3876 0.6409 0.6626
vn -0.9001 -0.0766 0.4288
vn -0.2311 0.4131 0.8809
vn -0.5405 0.7968 -0.2702
vn 0.1677 0.8408 0.5147
vn -0.1442 0.9476 0.2850
vn -0.7125 0.6885 -0.1351
vn -0.7564 0.6516 -0.0572
vn -0.2047 0.9019 0.3804
vn 0.4207 0.6121 0.6696
vn 0.4724 0.6488 0.5965
vn 0.5214 0.6665 0.5328
vn -0.0991 0.9719 0.2133
vn -0.6766 0.7066 -0.2070
vn -0.1011 0.9710 0.2165
vn -0.6745 0.6985 -0.2389
vn 0.5486 0.6575 0.5164
vn 0.5545 0.6344 0.5386
vn -0.1677 0.9317 0.3223
vn -0.6980 0.6765 -0.2349
vn -0.7113 0.6790 -0.1815
vn 0.5129 0.6379 0.5744
vn -0.2595 0.8458 0.4661
vn 0.4603 0.6431 0.6120
vn -0.3251 0.7564 0.5676
vn -0.7212 0.6827 -0.1174
vn -0.7114 0.6970 -0.0902
vn 0.4322 0.6587 0.6159
vn -0.3648 0.6873 0.6282
vn 0.4190 0.7746 0.4737
vn 0.0686 0.9960 -0.0570
vn -0.5728 0.8079 -0.1387
vn -0.8965 0.4183 0.1461
vn 0.2904 0.3785 0.8789
vn -0.2584 0.8471 0.4644
vn -0.7988 0.6015 0.0015
vn 0.3848 0.5618 0.7323
vn -0.3815 -0.5295 -0.7577
vn -0.4079 -0.5558 -0.7244
vn 0.8216 -0.5698 -0.0148
vn 0.3653 -0.6862 -0.6290
vn 0.7877 -0.6133 0.0579
vn 0.8023 -0.5964 0.0230
vn -0.4335 -0.5723 -0.6961
vn 0.3876 -0.6408 -0.6626
vn 0.8407 -0.5388 -0.0541
vn -0.4474 -0.8251 -0.3450
vn -0.3534 -0.4987 -0.7914
vn -0.4865 0.3367 0.8062
vn -0.4925 -0.6252 -0.6055
vn -0.5348 -0.6445 -0.5465
vn 0.1441 -0.9477 -0.2848
vn 0.7306 -0.6662 0.1497
vn 0.2047 -0.9018 -0.3805
vn 0.0990 -0.9720 -0.2131
vn 0.6703 -0.7025 0.2391
vn 0.6959 -0.6857 0.2134
vn -0.5472 -0.6617 -0.5125
vn -0.5223 -0.6638 -0.5354
vn 0.1013 -0.9710 -0.2167
vn 0.7466 -0.6601 0.0821
vn 0.6794 -0.7041 0.2066
vn -0.4391 -0.6203 -0.6499
vn 0.1679 -0.9316 -0.3225
vn -0.3327 -0.5109 -0.7926
vn 0.8319 -0.5500 -0.0736
vn 0.8853 -0.4294 -0.1786
vn 0.2593 -0.8460 -0.4659
vn -0.2568 -0.3911 -0.8838
vn 0.3249 -0.7567 -0.5673
vn -0.2011 -0.2713 -0.9412
vn 0.9175 -0.3089 -0.2506
vn 0.9179 -0.0945 -0.3854
vn 0.3647 -0.6875 -0.6280
vn -0.0704 -0.0613 -0.9956
vn 0.5180 0.2179 -0.8272
vn -0.3620 -0.5059 -0.7829
vn 0.3825 -0.6518 -0.6548
vn 0.8366 -0.5461 -0.0428
vn -0.4572 -0.5941 -0.6618
vn 0.7667 -0.6351 0.0939
usemtl mat5.001
s 1
f 1/1/1 2/2/2 3/3/3
f 1/1/1 4/4/4 5/5/5
f 6/6/6 7/7/7 8/8/8
f 8/8/8 9/9/9 2/2/2
f 10/10/10 11/11/11 12/12/12
f 12/12/12 13/13/13 14/14/14
f 15/15/15 14/14/14 16/16/16
f 15/15/15 17/17/17 18/18/18
f 19/19/19 20/20/20 21/21/21
f 19/19/19 22/22/22 23/23/23
f 24/24/24 25/25/25 26/26/26
f 26/26/26 27/27/27 20/20/20
f 28/28/28 29/29/29 27/27/27
f 28/28/28 26/26/26 25/25/25
f 28/28/28 30/30/30 31/31/31
f 28/28/28 32/32/32 33/33/33
f 34/34/34 33/33/33 32/32/32
f 32/32/32 31/31/31 35/35/35
f 36/36/36 35/35/35 37/37/37
f 36/36/36 38/38/38 39/39/39
f 40/40/40 39/39/39 38/38/38
f 38/38/38 37/37/37 41/41/41
f 42/42/38 41/41/41 43/43/42
f 42/42/38 44/44/43 45/45/44
f 46/46/45 47/47/46 13/13/13
f 46/46/45 12/12/12 11/11/11
f 48/48/47 5/5/5 4/4/4
f 4/4/4 3/3/3 47/47/46
f 49/49/48 50/50/49 9/9/9
f 49/49/48 8/8/8 7/7/7
f 51/51/50 23/23/23 22/22/22
f 22/22/22 21/21/21 50/50/49
f 52/52/51 53/53/52 54/54/53
f 55/55/54 56/56/55 54/54/53
f 57/57/56 58/58/57 59/59/58
f 53/53/52 60/60/59 57/57/56
f 61/61/60 62/62/61 63/63/62
f 64/64/63 65/65/64 61/61/60
f 16/16/65 64/64/63 66/66/66
f 18/18/67 17/17/68 66/66/66
f 67/67/69 68/68/70 69/69/71
f 70/70/72 71/71/73 69/69/71
f 72/72/74 73/73/75 74/74/76
f 68/68/70 75/75/77 72/72/74
f 75/75/77 76/76/78 77/77/79
f 73/73/75 72/72/74 77/77/79
f 78/78/80 79/79/81 77/77/79
f 80/80/82 81/81/83 77/77/79
f 81/81/83 80/80/82 82/82/84
f 83/83/85 78/78/80 81/81/83
f 84/84/86 83/83/85 85/85/87
f 86/86/88 87/87/89 85/85/87
f 87/87/89 86/86/88 88/88/90
f 89/89/91 84/84/86 87/87/89
f 90/90/92 89/89/91 91/91/89
f 92/92/93 93/93/94 91/91/89
f 65/65/64 94/94/95 95/95/96
f 62/62/61 61/61/60 95/95/96
f 56/56/55 55/55/54 96/96/97
f 94/94/95 52/52/51 56/56/55
f 60/60/59 97/97/98 98/98/99
f 58/58/57 57/57/56 98/98/99
f 71/71/73 70/70/72 99/99/100
f 97/97/98 67/67/69 71/71/73
f 47/47/46 3/3/3 52/52/51
f 13/13/13 47/47/46 94/94/95
f 5/5/5 55/55/54 59/59/58
f 6/6/6 59/59/58 58/58/57
f 11/11/11 10/10/10 63/63/62
f 13/13/13 65/65/64 64/64/63
f 14/14/14 64/64/63 16/16/65
f 50/50/49 21/21/21 67/67/69
f 9/9/9 50/50/49 97/97/98
f 23/23/23 70/70/72 74/74/76
f 25/25/25 24/24/24 74/74/76
f 33/33/33 80/80/82 76/76/78
f 29/29/29 76/76/78 75/75/77
f 30/30/30 25/25/25 73/73/75
f 31/31/31 30/30/30 79/79/81
f 39/39/39 86/86/88 82/82/84
f 34/34/34 82/82/84 80/80/82
f 35/35/35 31/31/31 78/78/80
f 37/37/37 35/35/35 83/83/85
f 44/44/43 43/43/42 90/90/92
f 45/45/44 44/44/43 93/93/94
f 40/40/40 45/45/44 92/92/93
f 39/39/39 40/40/40 88/88/90
f 41/41/41 37/37/37 84/84/86
f 43/43/42 41/41/41 89/89/91
f 3/3/3 2/2/2 53/53/52
f 2/2/2 9/9/9 60/60/59
f 48/48/47 96/96/97 55/55/54
f 11/11/11 62/62/61 96/96/97
f 21/21/21 20/20/20 68/68/70
f 27/27/27 75/75/77 68/68/70
f 51/51/50 99/99/100 70/70/72
f 7/7/7 58/58/57 99/99/100
f 4/4/4 1/1/1 3/3/3
f 6/6/6 1/1/1 5/5/5
f 1/1/1 6/6/6 8/8/8
f 1/1/1 8/8/8 2/2/2
f 15/15/15 10/10/10 12/12/12
f 15/15/15 12/12/12 14/14/14
f 17/17/17 15/15/15 16/16/16
f 10/10/10 15/15/15 18/18/18
f 22/22/22 19/19/19 21/21/21
f 24/24/24 19/19/19 23/23/23
f 19/19/19 24/24/24 26/26/26
f 19/19/19 26/26/26 20/20/20
f 26/26/26 28/28/28 27/27/27
f 30/30/30 28/28/28 25/25/25
f 32/32/32 28/28/28 31/31/31
f 29/29/29 28/28/28 33/33/33
f 36/36/36 34/34/34 32/32/32
f 36/36/36 32/32/32 35/35/35
f 38/38/38 36/36/36 37/37/37
f 34/34/34 36/36/36 39/39/39
f 42/42/38 40/40/40 38/38/38
f 42/42/38 38/38/38 41/41/41
f 44/44/43 42/42/38 43/43/42
f 40/40/40 42/42/38 45/45/44
f 12/12/12 46/46/45 13/13/13
f 48/48/47 46/46/45 11/11/11
f 46/46/45 48/48/47 4/4/4
f 46/46/45 4/4/4 47/47/46
f 8/8/8 49/49/48 9/9/9
f 51/51/50 49/49/48 7/7/7
f 49/49/48 51/51/50 22/22/22
f 49/49/48 22/22/22 50/50/49
f 56/56/55 52/52/51 54/54/53
f 59/59/58 55/55/54 54/54/53
f 54/54/53 57/57/56 59/59/58
f 54/54/53 53/53/52 57/57/56
f 66/66/66 61/61/60 63/63/62
f 66/66/66 64/64/63 61/61/60
f 17/17/68 16/16/65 66/66/66
f 63/63/62 18/18/67 66/66/66
f 71/71/73 67/67/69 69/69/71
f 74/74/76 70/70/72 69/69/71
f 69/69/71 72/72/74 74/74/76
f 69/69/71 68/68/70 72/72/74
f 72/72/74 75/75/77 77/77/79
f 79/79/81 73/73/75 77/77/79
f 81/81/83 78/78/80 77/77/79
f 76/76/78 80/80/82 77/77/79
f 85/85/87 81/81/83 82/82/84
f 85/85/87 83/83/85 81/81/83
f 87/87/89 84/84/86 85/85/87
f 82/82/84 86/86/88 85/85/87
f 91/91/89 87/87/89 88/88/90
f 91/91/89 89/89/91 87/87/89
f 93/93/94 90/90/92 91/91/89
f 88/88/90 92/92/93 91/91/89
f 61/61/60 65/65/64 95/95/96
f 96/96/97 62/62/61 95/95/96
f 95/95/96 56/56/55 96/96/97
f 95/95/96 94/94/95 56/56/55
f 57/57/56 60/60/59 98/98/99
f 99/99/100 58/58/57 98/98/99
f 98/98/99 71/71/73 99/99/100
f 98/98/99 97/97/98 71/71/73
f 94/94/95 47/47/46 52/52/51
f 65/65/64 13/13/13 94/94/95
f 6/6/6 5/5/5 59/59/58
f 7/7/7 6/6/6 58/58/57
f 63/63/62 10/10/10 18/18/67
f 62/62/61 11/11/11 63/63/62
f 14/14/14 13/13/13 64/64/63
f 97/97/98 50/50/49 67/67/69
f 60/60/59 9/9/9 97/97/98
f 24/24/24 23/23/23 74/74/76
f 73/73/75 25/25/25 74/74/76
f 29/29/29 33/33/33 76/76/78
f 27/27/27 29/29/29 75/75/77
f 79/79/81 30/30/30 73/73/75
f 78/78/80 31/31/31 79/79/81
f 34/34/34 39/39/39 82/82/84
f 33/33/33 34/34/34 80/80/82
f 83/83/85 35/35/35 78/78/80
f 84/84/86 37/37/37 83/83/85
f 93/93/94 44/44/43 90/90/92
f 92/92/93 45/45/44 93/93/94
f 88/88/90 40/40/40 92/92/93
f 86/86/88 39/39/39 88/88/90
f 89/89/91 41/41/41 84/84/86
f 90/90/92 43/43/42 89/89/91
f 52/52/51 3/3/3 53/53/52
f 53/53/52 2/2/2 60/60/59
f 5/5/5 48/48/47 55/55/54
f 48/48/47 11/11/11 96/96/97
f 67/67/69 21/21/21 68/68/70
f 20/20/20 27/27/27 68/68/70
f 23/23/23 51/51/50 70/70/72
f 51/51/50 7/7/7 99/99/100
usemtl mat0.002
f 100/100/101 101/101/102 102/102/103
f 100/100/101 103/103/104 104/104/105
f 105/105/106 106/106/107 107/107/108
f 107/107/108 108/108/109 101/101/102
f 109/109/110 110/110/111 111/111/112
f 111/111/112 112/112/113 113/113/114
f 114/114/115 113/113/114 115/115/116
f 114/114/115 116/116/17 117/117/117
f 118/118/118 119/119/119 120/120/120
f 121/121/121 120/120/120 122/122/122
f 123/123/123 124/124/124 125/125/125
f 121/121/121 125/125/125 126/126/126
f 127/127/127 126/126/126 125/125/125
f 128/128/128 125/125/125 124/124/124
f 129/129/129 130/130/130 131/131/131
f 128/128/128 131/131/131 132/132/132
f 133/133/133 132/132/132 131/131/131
f 131/131/131 130/130/130 134/134/134
f 135/135/135 134/134/134 136/136/136
f 135/135/135 137/137/137 138/138/138
f 139/139/139 138/138/138 137/137/137
f 137/137/137 136/136/136 140/140/140
f 141/141/141 140/140/140 142/142/142
f 141/141/141 143/143/143 144/144/144
f 145/145/145 146/146/146 112/112/113
f 145/145/145 111/111/112 110/110/111
f 147/147/147 104/104/105 103/103/104
f 103/103/104 102/102/103 146/146/146
f 148/148/148 108/108/109 107/107/108
f 149/149/149 107/107/108 106/106/107
f 150/150/150 122/122/122 120/120/120
f 149/149/149 120/120/120 119/119/119
f 151/151/151 152/152/152 153/153/153
f 154/154/154 155/155/155 153/153/153
f 156/156/156 157/157/157 158/158/158
f 159/159/159 156/156/156 153/153/153
f 160/160/160 161/161/161 162/162/162
f 163/163/163 164/164/164 160/160/160
f 115/115/165 163/163/163 165/165/166
f 117/117/167 116/116/168 165/165/166
f 166/166/169 167/167/170 168/168/171
f 169/169/172 166/166/169 170/170/173
f 171/171/174 172/172/175 173/173/176
f 174/174/177 171/171/174 170/170/173
f 171/171/174 174/174/177 175/175/178
f 172/172/175 171/171/174 176/176/179
f 177/177/180 178/178/181 179/179/182
f 180/180/183 177/177/180 176/176/179
f 177/177/180 180/180/183 181/181/184
f 182/182/185 178/178/181 177/177/180
f 183/183/186 182/182/185 184/184/187
f 185/185/188 186/186/189 184/184/187
f 186/186/189 185/185/188 187/187/190
f 188/188/191 183/183/186 186/186/189
f 189/189/192 188/188/191 190/190/193
f 191/191/194 192/192/195 190/190/193
f 164/164/164 193/193/196 194/194/197
f 161/161/161 160/160/160 194/194/197
f 155/155/155 154/154/154 195/195/198
f 193/193/196 151/151/151 155/155/155
f 156/156/156 159/159/159 196/196/199
f 157/157/157 156/156/156 197/197/200
f 166/166/169 169/169/172 198/198/201
f 167/167/170 166/166/169 197/197/200
f 102/102/103 151/151/151 193/193/196
f 146/146/146 193/193/196 164/164/164
f 104/104/105 154/154/154 158/158/158
f 105/105/106 158/158/158 157/157/157
f 109/109/110 162/162/162 161/161/161
f 112/112/113 164/164/164 163/163/163
f 113/113/114 163/163/163 115/115/165
f 119/119/119 167/167/170 196/196/199
f 148/148/148 196/196/199 159/159/159
f 122/122/122 169/169/172 173/173/176
f 123/123/123 173/173/176 172/172/175
f 132/132/132 180/180/183 175/175/178
f 127/127/127 175/175/178 174/174/177
f 124/124/124 172/172/175 179/179/182
f 129/129/129 179/179/182 178/178/181
f 133/133/133 138/138/138 185/185/188
f 132/132/132 133/133/133 181/181/184
f 134/134/134 130/130/130 178/178/181
f 136/136/136 134/134/134 182/182/185
f 142/142/142 189/189/192 192/192/195
f 143/143/143 192/192/195 191/191/194
f 139/139/139 144/144/144 191/191/194
f 138/138/138 139/139/139 187/187/190
f 140/140/140 136/136/136 183/183/186
f 140/140/140 188/188/191 189/189/192
f 101/101/102 152/152/152 151/151/151
f 108/108/109 159/159/159 152/152/152
f 147/147/147 195/195/198 154/154/154
f 110/110/111 161/161/161 195/195/198
f 118/118/118 168/168/171 167/167/170
f 126/126/126 174/174/177 168/168/171
f 150/150/150 198/198/201 169/169/172
f 106/106/107 157/157/157 198/198/201
f 103/103/104 100/100/101 102/102/103
f 105/105/106 100/100/101 104/104/105
f 100/100/101 105/105/106 107/107/108
f 100/100/101 107/107/108 101/101/102
f 114/114/115 109/109/110 111/111/112
f 114/114/115 111/111/112 113/113/114
f 116/116/17 114/114/115 115/115/116
f 109/109/110 114/114/115 117/117/117
f 121/121/121 118/118/118 120/120/120
f 123/123/123 121/121/121 122/122/122
f 121/121/121 123/123/123 125/125/125
f 118/118/118 121/121/121 126/126/126
f 128/128/128 127/127/127 125/125/125
f 129/129/129 128/128/128 124/124/124
f 128/128/128 129/129/129 131/131/131
f 127/127/127 128/128/128 132/132/132
f 135/135/135 133/133/133 131/131/131
f 135/135/135 131/131/131 134/134/134
f 137/137/137 135/135/135 136/136/136
f 133/133/133 135/135/135 138/138/138
f 141/141/141 139/139/139 137/137/137
f 141/141/141 137/137/137 140/140/140
f 143/143/143 141/141/141 142/142/142
f 139/139/139 141/141/141 144/144/144
f 111/111/112 145/145/145 112/112/113
f 147/147/147 145/145/145 110/110/111
f 145/145/145 147/147/147 103/103/104
f 145/145/145 103/103/104 146/146/146
f 149/149/149 148/148/148 107/107/108
f 150/150/150 149/149/149 106/106/107
f 149/149/149 150/150/150 120/120/120
f 148/148/148 149/149/149 119/119/119
f 155/155/155 151/151/151 153/153/153
f 158/158/158 154/154/154 153/153/153
f 153/153/153 156/156/156 158/158/158
f 152/152/152 159/159/159 153/153/153
f 165/165/166 160/160/160 162/162/162
f 165/165/166 163/163/163 160/160/160
f 116/116/168 115/115/165 165/165/166
f 162/162/162 117/117/167 165/165/166
f 170/170/173 166/166/169 168/168/171
f 173/173/176 169/169/172 170/170/173
f 170/170/173 171/171/174 173/173/176
f 168/168/171 174/174/177 170/170/173
f 176/176/179 171/171/174 175/175/178
f 179/179/182 172/172/175 176/176/179
f 176/176/179 177/177/180 179/179/182
f 175/175/178 180/180/183 176/176/179
f 184/184/187 177/177/180 181/181/184
f 184/184/187 182/182/185 177/177/180
f 186/186/189 183/183/186 184/184/187
f 181/181/184 185/185/188 184/184/187
f 190/190/193 186/186/189 187/187/190
f 190/190/193 188/188/191 186/186/189
f 192/192/195 189/189/192 190/190/193
f 187/187/190 191/191/194 190/190/193
f 160/160/160 164/164/164 194/194/197
f 195/195/198 161/161/161 194/194/197
f 194/194/197 155/155/155 195/195/198
f 194/194/197 193/193/196 155/155/155
f 197/197/200 156/156/156 196/196/199
f 198/198/201 157/157/157 197/197/200
f 197/197/200 166/166/169 198/198/201
f 196/196/199 167/167/170 197/197/200
f 146/146/146 102/102/103 193/193/196
f 112/112/113 146/146/146 164/164/164
f 105/105/106 104/104/105 158/158/158
f 106/106/107 105/105/106 157/157/157
f 162/162/162 109/109/110 117/117/167
f 110/110/111 109/109/110 161/161/161
f 113/113/114 112/112/113 163/163/163
f 148/148/148 119/119/119 196/196/199
f 108/108/109 148/148/148 159/159/159
f 123/123/123 122/122/122 173/173/176
f 124/124/124 123/123/123 172/172/175
f 127/127/127 132/132/132 175/175/178
f 126/126/126 127/127/127 174/174/177
f 129/129/129 124/124/124 179/179/182
f 130/130/130 129/129/129 178/178/181
f 181/181/184 133/133/133 185/185/188
f 180/180/183 132/132/132 181/181/184
f 182/182/185 134/134/134 178/178/181
f 183/183/186 136/136/136 182/182/185
f 143/143/143 142/142/142 192/192/195
f 144/144/144 143/143/143 191/191/194
f 187/187/190 139/139/139 191/191/194
f 185/185/188 138/138/138 187/187/190
f 188/188/191 140/140/140 183/183/186
f 142/142/142 140/140/140 189/189/192
f 102/102/103 101/101/102 151/151/151
f 101/101/102 108/108/109 152/152/152
f 104/104/105 147/147/147 154/154/154
f 147/147/147 110/110/111 195/195/198
f 119/119/119 118/118/118 167/167/170
f 118/118/118 126/126/126 168/168/171
f 122/122/122 150/150/150 169/169/172
f 150/150/150 106/106/107 198/198/201
usemtl mat1.001
f 199/199/202 200/200/203 201/201/204
f 202/202/205 203/203/206 204/204/207
f 199/199/202 204/204/207 205/205/208
f 206/206/209 207/207/210 200/200/203
f 208/208/211 209/209/212 210/210/213
f 210/210/213 211/211/214 212/212/215
f 213/213/216 212/212/215 214/214/217
f 213/213/216 215/215/17 216/216/218
f 217/217/219 218/218/220 219/219/221
f 220/220/222 221/221/223 222/222/224
f 217/217/219 222/222/224 223/223/225
f 224/224/226 225/225/227 218/218/220
f 226/226/228 227/227/229 225/225/227
f 224/224/226 223/223/225 228/228/230
f 226/226/228 228/228/230 229/229/231
f 230/230/232 231/231/233 227/227/229
f 232/232/234 233/233/235 231/231/233
f 230/230/232 229/229/231 234/234/236
f 232/232/234 234/234/236 235/235/237
f 232/232/234 236/236/238 237/237/239
f 238/238/240 239/239/241 237/237/239
f 236/236/238 235/235/237 240/240/242
f 238/238/240 240/240/242 241/241/243
f 238/238/240 242/242/244 243/243/245
f 244/244/246 245/245/247 211/211/214
f 244/244/246 210/210/213 209/209/212
f 246/246/248 203/203/206 202/202/205
f 202/202/205 201/201/204 245/245/247
f 247/247/249 248/248/250 207/207/210
f 206/206/209 205/205/208 249/249/251
f 247/247/249 249/249/251 221/221/223
f 220/220/222 219/219/221 248/248/250
f 250/250/252 251/251/253 252/252/254
f 253/253/255 254/254/256 255/255/257
f 256/256/258 253/253/255 252/252/254
f 251/251/253 257/257/259 258/258/260
f 259/259/261 260/260/262 261/261/263
f 262/262/264 263/263/265 259/259/261
f 214/214/266 262/262/264 264/264/267
f 216/216/268 215/215/269 264/264/267
f 265/265/270 266/266/271 267/267/272
f 268/268/273 269/269/274 270/270/275
f 271/271/276 268/268/273 267/267/272
f 266/266/271 272/272/277 273/273/278
f 272/272/277 274/274/279 275/275/280
f 276/276/281 271/271/276 273/273/278
f 277/277/282 276/276/281 275/275/280
f 274/274/279 278/278/283 279/279/284
f 278/278/283 280/280/285 281/281/286
f 282/282/287 277/277/282 279/279/284
f 283/283/288 282/282/287 281/281/286
f 284/284/289 285/285/290 281/281/286
f 284/284/289 286/286/291 287/287/292
f 288/288/293 283/283/288 285/285/290
f 289/289/294 288/288/293 287/287/292
f 290/290/295 291/291/296 287/287/292
f 263/263/265 292/292/297 293/293/298
f 260/260/262 259/259/261 293/293/298
f 255/255/257 254/254/256 294/294/299
f 292/292/297 250/250/252 255/255/257
f 257/257/259 295/295/300 296/296/301
f 297/297/302 256/256/258 258/258/260
f 269/269/274 297/297/302 296/296/301
f 295/295/300 265/265/270 270/270/275
f 245/245/247 201/201/204 250/250/252
f 211/211/214 245/245/247 292/292/297
f 204/204/207 203/203/206 254/254/256
f 205/205/208 204/204/207 253/253/255
f 209/209/212 208/208/211 261/261/263
f 212/212/215 211/211/214 263/263/265
f 212/212/215 262/262/264 214/214/266
f 248/248/250 219/219/221 265/265/270
f 207/207/210 248/248/250 295/295/300
f 222/222/224 221/221/223 269/269/274
f 223/223/225 222/222/224 268/268/273
f 227/227/229 231/231/233 278/278/283
f 225/225/227 227/227/229 274/274/279
f 228/228/230 223/223/225 271/271/276
f 229/229/231 228/228/230 276/276/281
f 233/233/235 237/237/239 284/284/289
f 231/231/233 233/233/235 280/280/285
f 234/234/236 229/229/231 277/277/282
f 234/234/236 282/282/287 283/283/288
f 241/241/243 289/289/294 291/291/296
f 242/242/244 291/291/296 290/290/295
f 239/239/241 243/243/245 290/290/295
f 237/237/239 239/239/241 286/286/291
f 240/240/242 235/235/237 283/283/288
f 241/241/243 240/240/242 288/288/293
f 201/201/204 200/200/203 251/251/253
f 200/200/203 207/207/210 257/257/259
f 246/246/248 294/294/299 254/254/256
f 209/209/212 260/260/262 294/294/299
f 219/219/221 218/218/220 266/266/271
f 218/218/220 225/225/227 272/272/277
f 221/221/223 249/249/251 297/297/302
f 249/249/251 205/205/208 256/256/258
f 202/202/205 199/199/202 201/201/204
f 199/199/202 202/202/205 204/204/207
f 206/206/209 199/199/202 205/205/208
f 199/199/202 206/206/209 200/200/203
f 213/213/216 208/208/211 210/210/213
f 213/213/216 210/210/213 212/212/215
f 215/215/17 213/213/216 214/214/217
f 208/208/211 213/213/216 216/216/218
f 220/220/222 217/217/219 219/219/221
f 217/217/219 220/220/222 222/222/224
f 224/224/226 217/217/219 223/223/225
f 217/217/219 224/224/226 218/218/220
f 224/224/226 226/226/228 225/225/227
f 226/226/228 224/224/226 228/228/230
f 230/230/232 226/226/228 229/229/231
f 226/226/228 230/230/232 227/227/229
f 230/230/232 232/232/234 231/231/233
f 232/232/234 230/230/232 234/234/236
f 236/236/238 232/232/234 235/235/237
f 233/233/235 232/232/234 237/237/239
f 236/236/238 238/238/240 237/237/239
f 238/238/240 236/236/238 240/240/242
f 242/242/244 238/238/240 241/241/243
f 239/239/241 238/238/240 243/243/245
f 210/210/213 244/244/246 211/211/214
f 246/246/248 244/244/246 209/209/212
f 244/244/246 246/246/248 202/202/205
f 244/244/246 202/202/205 245/245/247
f 206/206/209 247/247/249 207/207/210
f 247/247/249 206/206/209 249/249/251
f 220/220/222 247/247/249 221/221/223
f 247/247/249 220/220/222 248/248/250
f 255/255/257 250/250/252 252/252/254
f 252/252/254 253/253/255 255/255/257
f 258/258/260 256/256/258 252/252/254
f 252/252/254 251/251/253 258/258/260
f 264/264/267 259/259/261 261/261/263
f 264/264/267 262/262/264 259/259/261
f 215/215/269 214/214/266 264/264/267
f 261/261/263 216/216/268 264/264/267
f 270/270/275 265/265/270 267/267/272
f 267/267/272 268/268/273 270/270/275
f 273/273/278 271/271/276 267/267/272
f 267/267/272 266/266/271 273/273/278
f 273/273/278 272/272/277 275/275/280
f 275/275/280 276/276/281 273/273/278
f 279/279/284 277/277/282 275/275/280
f 275/275/280 274/274/279 279/279/284
f 279/279/284 278/278/283 281/281/286
f 281/281/286 282/282/287 279/279/284
f 285/285/290 283/283/288 281/281/286
f 280/280/285 284/284/289 281/281/286
f 285/285/290 284/284/289 287/287/292
f 287/287/292 288/288/293 285/285/290
f 291/291/296 289/289/294 287/287/292
f 286/286/291 290/290/295 287/287/292
f 259/259/261 263/263/265 293/293/298
f 294/294/299 260/260/262 293/293/298
f 293/293/298 255/255/257 294/294/299
f 293/293/298 292/292/297 255/255/257
f 258/258/260 257/257/259 296/296/301
f 296/296/301 297/297/302 258/258/260
f 270/270/275 269/269/274 296/296/301
f 296/296/301 295/295/300 270/270/275
f 292/292/297 245/245/247 250/250/252
f 263/263/265 211/211/214 292/292/297
f 253/253/255 204/204/207 254/254/256
f 256/256/258 205/205/208 253/253/255
f 261/261/263 208/208/211 216/216/268
f 260/260/262 209/209/212 261/261/263
f 262/262/264 212/212/215 263/263/265
f 295/295/300 248/248/250 265/265/270
f 257/257/259 207/207/210 295/295/300
f 268/268/273 222/222/224 269/269/274
f 271/271/276 223/223/225 268/268/273
f 274/274/279 227/227/229 278/278/283
f 272/272/277 225/225/227 274/274/279
f 276/276/281 228/228/230 271/271/276
f 277/277/282 229/229/231 276/276/281
f 280/280/285 233/233/235 284/284/289
f 278/278/283 231/231/233 280/280/285
f 282/282/287 234/234/236 277/277/282
f 235/235/237 234/234/236 283/283/288
f 242/242/244 241/241/243 291/291/296
f 243/243/245 242/242/244 290/290/295
f 286/286/291 239/239/241 290/290/295
f 284/284/289 237/237/239 286/286/291
f 288/288/293 240/240/242 283/283/288
f 289/289/294 241/241/243 288/288/293
f 250/250/252 201/201/204 251/251/253
f 251/251/253 200/200/203 257/257/259
f 203/203/206 246/246/248 254/254/256
f 246/246/248 209/209/212 294/294/299
f 265/265/270 219/219/221 266/266/271
f 266/266/271 218/218/220 272/272/277
f 269/269/274 221/221/223 297/297/302
f 297/297/302 249/249/251 256/256/258
usemtl mat2.001
f 298/298/303 299/299/304 300/300/305
f 298/298/303 301/301/104 302/302/306
f 303/303/307 304/304/308 305/305/309
f 305/305/309 306/306/310 299/299/304
f 307/307/311 308/308/312 309/309/313
f 309/309/313 310/310/314 311/311/315
f 312/312/316 311/311/315 313/313/317
f 312/312/316 314/314/17 315/315/318
f 316/316/319 317/317/320 318/318/321
f 319/319/322 318/318/321 320/320/323
f 321/321/324 322/322/124 323/323/125
f 319/319/322 323/323/125 324/324/325
f 325/325/326 324/324/325 323/323/125
f 326/326/327 323/323/125 322/322/124
f 327/327/129 328/328/130 329/329/131
f 326/326/327 329/329/131 330/330/132
f 331/331/133 330/330/132 329/329/131
f 329/329/131 328/328/130 332/332/328
f 333/333/329 332/332/328 334/334/330
f 333/333/329 335/335/331 336/336/332
f 337/337/333 336/336/332 335/335/331
f 335/335/331 334/334/330 338/338/140
f 339/339/334 338/338/140 340/340/335
f 339/339/334 341/341/143 342/342/336
f 343/343/337 344/344/338 310/310/314
f 343/343/337 309/309/313 308/308/312
f 345/345/339 302/302/306 301/301/104
f 301/301/104 300/300/305 344/344/338
f 346/346/148 306/306/310 305/305/309
f 347/347/340 305/305/309 304/304/308
f 348/348/341 320/320/323 318/318/321
f 347/347/340 318/318/321 317/317/320
f 349/349/342 350/350/343 351/351/344
f 352/352/154 353/353/345 351/351/344
f 354/354/346 355/355/157 356/356/347
f 357/357/159 354/354/346 351/351/344
f 358/358/348 359/359/349 360/360/162
f 361/361/350 362/362/351 358/358/348
f 313/313/352 361/361/350 363/363/353
f 315/315/167 314/314/354 363/363/353
f 364/364/355 365/365/356 366/366/357
f 367/367/358 364/364/355 368/368/359
f 369/369/360 370/370/361 371/371/362
f 372/372/363 369/369/360 368/368/359
f 369/369/360 372/372/363 373/373/364
f 370/370/361 369/369/360 374/374/365
f 375/375/366 376/376/181 377/377/182
f 378/378/183 375/375/366 374/374/365
f 375/375/366 378/378/183 379/379/367
f 380/380/368 376/376/181 375/375/366
f 381/381/369 380/380/368 382/382/370
f 383/383/371 384/384/372 382/382/370
f 384/384/372 383/383/371 385/385/190
f 386/386/191 381/381/369 384/384/372
f 387/387/192 386/386/191 388/388/373
f 389/389/374 390/390/375 388/388/373
f 362/362/351 391/391/196 392/392/197
f 359/359/349 358/358/348 392/392/197
f 353/353/345 352/352/154 393/393/376
f 391/391/196 349/349/342 353/353/345
f 354/354/346 357/357/159 394/394/377
f 355/355/157 354/354/346 395/395/378
f 364/364/355 367/367/358 396/396/379
f 365/365/356 364/364/355 395/395/378
f 300/300/305 349/349/342 391/391/196
f 344/344/338 391/391/196 362/362/351
f 302/302/306 352/352/154 356/356/347
f 303/303/307 356/356/347 355/355/157
f 307/307/311 360/360/162 359/359/349
f 310/310/314 362/362/351 361/361/350
f 311/311/315 361/361/350 313/313/352
f 317/317/320 365/365/356 394/394/377
f 346/346/148 394/394/377 357/357/159
f 320/320/323 367/367/358 371/371/362
f 321/321/324 371/371/362 370/370/361
f 330/330/132 378/378/183 373/373/364
f 325/325/326 373/373/364 372/372/363
f 322/322/124 370/370/361 377/377/182
f 327/327/129 377/377/182 376/376/181
f 331/331/133 336/336/332 383/383/371
f 330/330/132 331/331/133 379/379/367
f 332/332/328 328/328/130 376/376/181
f 334/334/330 332/332/328 380/380/368
f 340/340/335 387/387/192 390/390/375
f 341/341/143 390/390/375 389/389/374
f 337/337/333 342/342/336 389/389/374
f 336/336/332 337/337/333 385/385/190
f 338/338/140 334/334/330 381/381/369
f 338/338/140 386/386/191 387/387/192
f 299/299/304 350/350/343 349/349/342
f 306/306/310 357/357/159 350/350/343
f 345/345/339 393/393/376 352/352/154
f 308/308/312 359/359/349 393/393/376
f 316/316/319 366/366/357 365/365/356
f 324/324/325 372/372/363 366/366/357
f 348/348/341 396/396/379 367/367/358
f 304/304/308 355/355/157 396/396/379
f 301/301/104 298/298/303 300/300/305
f 303/303/307 298/298/303 302/302/306
f 298/298/303 303/303/307 305/305/309
f 298/298/303 305/305/309 299/299/304
f 312/312/316 307/307/311 309/309/313
f 312/312/316 309/309/313 311/311/315
f 314/314/17 312/312/316 313/313/317
f 307/307/311 312/312/316 315/315/318
f 319/319/322 316/316/319 318/318/321
f 321/321/324 319/319/322 320/320/323
f 319/319/322 321/321/324 323/323/125
f 316/316/319 319/319/322 324/324/325
f 326/326/327 325/325/326 323/323/125
f 327/327/129 326/326/327 322/322/124
f 326/326/327 327/327/129 329/329/131
f 325/325/326 326/326/327 330/330/132
f 333/333/329 331/331/133 329/329/131
f 333/333/329 329/329/131 332/332/328
f 335/335/331 333/333/329 334/334/330
f 331/331/133 333/333/329 336/336/332
f 339/339/334 337/337/333 335/335/331
f 339/339/334 335/335/331 338/338/140
f 341/341/143 339/339/334 340/340/335
f 337/337/333 339/339/334 342/342/336
f 309/309/313 343/343/337 310/310/314
f 345/345/339 343/343/337 308/308/312
f 343/343/337 345/345/339 301/301/104
f 343/343/337 301/301/104 344/344/338
f 347/347/340 346/346/148 305/305/309
f 348/348/341 347/347/340 304/304/308
f 347/347/340 348/348/341 318/318/321
f 346/346/148 347/347/340 317/317/320
f 353/353/345 349/349/342 351/351/344
f 356/356/347 352/352/154 351/351/344
f 351/351/344 354/354/346 356/356/347
f 350/350/343 357/357/159 351/351/344
f 363/363/353 358/358/348 360/360/162
f 363/363/353 361/361/350 358/358/348
f 314/314/354 313/313/352 363/363/353
f 360/360/162 315/315/167 363/363/353
f 368/368/359 364/364/355 366/366/357
f 371/371/362 367/367/358 368/368/359
f 368/368/359 369/369/360 371/371/362
f 366/366/357 372/372/363 368/368/359
f 374/374/365 369/369/360 373/373/364
f 377/377/182 370/370/361 374/374/365
f 374/374/365 375/375/366 377/377/182
f 373/373/364 378/378/183 374/374/365
f 382/382/370 375/375/366 379/379/367
f 382/382/370 380/380/368 375/375/366
f 384/384/372 381/381/369 382/382/370
f 379/379/367 383/383/371 382/382/370
f 388/388/373 384/384/372 385/385/190
f 388/388/373 386/386/191 384/384/372
f 390/390/375 387/387/192 388/388/373
f 385/385/190 389/389/374 388/388/373
f 358/358/348 362/362/351 392/392/197
f 393/393/376 359/359/349 392/392/197
f 392/392/197 353/353/345 393/393/376
f 392/392/197 391/391/196 353/353/345
f 395/395/378 354/354/346 394/394/377
f 396/396/379 355/355/157 395/395/378
f 395/395/378 364/364/355 396/396/379
f 394/394/377 365/365/356 395/395/378
f 344/344/338 300/300/305 391/391/196
f 310/310/314 344/344/338 362/362/351
f 303/303/307 302/302/306 356/356/347
f 304/304/308 303/303/307 355/355/157
f 360/360/162 307/307/311 315/315/167
f 308/308/312 307/307/311 359/359/349
f 311/311/315 310/310/314 361/361/350
f 346/346/148 317/317/320 394/394/377
f 306/306/310 346/346/148 357/357/159
f 321/321/324 320/320/323 371/371/362
f 322/322/124 321/321/324 370/370/361
f 325/325/326 330/330/132 373/373/364
f 324/324/325 325/325/326 372/372/363
f 327/327/129 322/322/124 377/377/182
f 328/328/130 327/327/129 376/376/181
f 379/379/367 331/331/133 383/383/371
f 378/378/183 330/330/132 379/379/367
f 380/380/368 332/332/328 376/376/181
f 381/381/369 334/334/330 380/380/368
f 341/341/143 340/340/335 390/390/375
f 342/342/336 341/341/143 389/389/374
f 385/385/190 337/337/333 389/389/374
f 383/383/371 336/336/332 385/385/190
f 386/386/191 338/338/140 381/381/369
f 340/340/335 338/338/140 387/387/192
f 300/300/305 299/299/304 349/349/342
f 299/299/304 306/306/310 350/350/343
f 302/302/306 345/345/339 352/352/154
f 345/345/339 308/308/312 393/393/376
f 317/317/320 316/316/319 365/365/356
f 316/316/319 324/324/325 366/366/357
f 320/320/323 348/348/341 367/367/358
f 348/348/341 304/304/308 396/396/379
usemtl mat3.001
f 397/397/380 398/398/381 399/399/382
f 397/397/380 400/400/383 401/401/384
f 402/402/385 403/403/386 404/404/387
f 404/404/387 405/405/388 398/398/381
f 406/406/389 407/407/390 408/408/391
f 408/408/391 409/409/392 410/410/393
f 411/411/394 410/410/393 412/412/395
f 411/411/394 413/413/17 414/414/396
f 415/415/397 416/416/398 417/417/399
f 415/415/397 418/418/400 419/419/401
f 420/420/402 421/421/403 422/422/404
f 422/422/404 423/423/405 416/416/398
f 424/424/406 425/425/407 423/423/405
f 424/424/406 422/422/404 421/421/403
f 424/424/406 426/426/408 427/427/409
f 424/424/406 428/428/410 429/429/411
f 430/430/412 429/429/411 428/428/410
f 428/428/410 427/427/409 431/431/413
f 432/432/414 431/431/413 433/433/415
f 432/432/414 434/434/416 435/435/417
f 436/436/418 435/435/417 434/434/416
f 434/434/416 433/433/415 437/437/419
f 438/438/420 437/437/419 439/439/421
f 438/438/420 440/440/422 441/441/423
f 442/442/424 443/443/425 409/409/392
f 442/442/424 408/408/391 407/407/390
f 444/444/426 401/401/384 400/400/383
f 400/400/383 399/399/382 443/443/425
f 445/445/427 446/446/428 405/405/388
f 445/445/427 404/404/387 403/403/386
f 447/447/429 419/419/401 418/418/400
f 418/418/400 417/417/399 446/446/428
f 448/448/430 449/449/431 450/450/432
f 451/451/433 452/452/434 450/450/432
f 453/453/435 454/454/436 455/455/437
f 449/449/431 456/456/438 453/453/435
f 457/457/439 458/458/440 459/459/441
f 460/460/442 461/461/443 457/457/439
f 412/412/444 460/460/442 462/462/445
f 414/414/444 413/413/446 462/462/445
f 463/463/447 464/464/448 465/465/449
f 466/466/450 467/467/451 465/465/449
f 468/468/452 469/469/453 470/470/454
f 464/464/448 471/471/455 468/468/452
f 471/471/455 472/472/456 473/473/457
f 469/469/453 468/468/452 473/473/457
f 474/474/458 475/475/459 473/473/457
f 476/476/460 477/477/461 473/473/457
f 477/477/461 476/476/460 478/478/462
f 479/479/463 474/474/458 477/477/461
f 480/480/464 479/479/463 481/481/465
f 482/482/466 483/483/467 481/481/465
f 483/483/467 482/482/466 484/484/468
f 485/485/469 480/480/464 483/483/467
f 486/486/470 485/485/469 487/487/471
f 488/488/472 489/489/473 487/487/471
f 461/461/443 490/490/474 491/491/475
f 458/458/440 457/457/439 491/491/475
f 452/452/434 451/451/433 492/492/476
f 490/490/474 448/448/430 452/452/434
f 456/456/438 493/493/477 494/494/478
f 454/454/436 453/453/435 494/494/478
f 467/467/451 466/466/450 495/495/479
f 493/493/477 463/463/447 467/467/451
f 443/443/425 399/399/382 448/448/430
f 409/409/392 443/443/425 490/490/474
f 401/401/384 451/451/433 455/455/437
f 402/402/385 455/455/437 454/454/436
f 406/406/389 459/459/441 458/458/440
f 410/410/393 409/409/392 461/461/443
f 410/410/393 460/460/442 412/412/444
f 446/446/428 417/417/399 463/463/447
f 405/405/388 446/446/428 493/493/477
f 419/419/401 466/466/450 470/470/454
f 421/421/403 420/420/402 470/470/454
f 425/425/407 429/429/411 476/476/460
f 425/425/407 472/472/456 471/471/455
f 426/426/408 421/421/403 469/469/453
f 426/426/408 475/475/459 474/474/458
f 435/435/417 482/482/466 478/478/462
f 430/430/412 478/478/462 476/476/460
f 431/431/413 427/427/409 474/474/458
f 433/433/415 431/431/413 479/479/463
f 440/440/422 439/439/421 486/486/470
f 440/440/422 489/489/473 488/488/472
f 441/441/423 488/488/472 484/484/468
f 436/436/418 484/484/468 482/482/466
f 437/437/419 433/433/415 480/480/464
f 439/439/421 437/437/419 485/485/469
f 399/399/382 398/398/381 449/449/431
f 398/398/381 405/405/388 456/456/438
f 444/444/426 492/492/476 451/451/433
f 407/407/390 458/458/440 492/492/476
f 417/417/399 416/416/398 464/464/448
f 423/423/405 471/471/455 464/464/448
f 447/447/429 495/495/479 466/466/450
f 403/403/386 454/454/436 495/495/479
f 400/400/383 397/397/380 399/399/382
f 402/402/385 397/397/380 401/401/384
f 397/397/380 402/402/385 404/404/387
f 397/397/380 404/404/387 398/398/381
f 411/411/394 406/406/389 408/408/391
f 411/411/394 408/408/391 410/410/393
f 413/413/17 411/411/394 412/412/395
f 406/406/389 411/411/394 414/414/396
f 418/418/400 415/415/397 417/417/399
f 420/420/402 415/415/397 419/419/401
f 415/415/397 420/420/402 422/422/404
f 415/415/397 422/422/404 416/416/398
f 422/422/404 424/424/406 423/423/405
f 426/426/408 424/424/406 421/421/403
f 428/428/410 424/424/406 427/427/409
f 425/425/407 424/424/406 429/429/411
f 432/432/414 430/430/412 428/428/410
f 432/432/414 428/428/410 431/431/413
f 434/434/416 432/432/414 433/433/415
f 430/430/412 432/432/414 435/435/417
f 438/438/420 436/436/418 434/434/416
f 438/438/420 434/434/416 437/437/419
f 440/440/422 438/438/420 439/439/421
f 436/436/418 438/438/420 441/441/423
f 408/408/391 442/442/424 409/409/392
f 444/444/426 442/442/424 407/407/390
f 442/442/424 444/444/426 400/400/383
f 442/442/424 400/400/383 443/443/425
f 404/404/387 445/445/427 405/405/388
f 447/447/429 445/445/427 403/403/386
f 445/445/427 447/447/429 418/418/400
f 445/445/427 418/418/400 446/446/428
f 452/452/434 448/448/430 450/450/432
f 455/455/437 451/451/433 450/450/432
f 450/450/432 453/453/435 455/455/437
f 450/450/432 449/449/431 453/453/435
f 462/462/445 457/457/439 459/459/441
f 462/462/445 460/460/442 457/457/439
f 413/413/446 412/412/444 462/462/445
f 459/459/441 414/414/444 462/462/445
f 467/467/451 463/463/447 465/465/449
f 470/470/454 466/466/450 465/465/449
f 465/465/449 468/468/452 470/470/454
f 465/465/449 464/464/448 468/468/452
f 468/468/452 471/471/455 473/473/457
f 475/475/459 469/469/453 473/473/457
f 477/477/461 474/474/458 473/473/457
f 472/472/456 476/476/460 473/473/457
f 481/481/465 477/477/461 478/478/462
f 481/481/465 479/479/463 477/477/461
f 483/483/467 480/480/464 481/481/465
f 478/478/462 482/482/466 481/481/465
f 487/487/471 483/483/467 484/484/468
f 487/487/471 485/485/469 483/483/467
f 489/489/473 486/486/470 487/487/471
f 484/484/468 488/488/472 487/487/471
f 457/457/439 461/461/443 491/491/475
f 492/492/476 458/458/440 491/491/475
f 491/491/475 452/452/434 492/492/476
f 491/491/475 490/490/474 452/452/434
f 453/453/435 456/456/438 494/494/478
f 495/495/479 454/454/436 494/494/478
f 494/494/478 467/467/451 495/495/479
f 494/494/478 493/493/477 467/467/451
f 490/490/474 443/443/425 448/448/430
f 461/461/443 409/409/392 490/490/474
f 402/402/385 401/401/384 455/455/437
f 403/403/386 402/402/385 454/454/436
f 459/459/441 406/406/389 414/414/444
f 407/407/390 406/406/389 458/458/440
f 460/460/442 410/410/393 461/461/443
f 493/493/477 446/446/428 463/463/447
f 456/456/438 405/405/388 493/493/477
f 420/420/402 419/419/401 470/470/454
f 469/469/453 421/421/403 470/470/454
f 472/472/456 425/425/407 476/476/460
f 423/423/405 425/425/407 471/471/455
f 475/475/459 426/426/408 469/469/453
f 427/427/409 426/426/408 474/474/458
f 430/430/412 435/435/417 478/478/462
f 429/429/411 430/430/412 476/476/460
f 479/479/463 431/431/413 474/474/458
f 480/480/464 433/433/415 479/479/463
f 489/489/473 440/440/422 486/486/470
f 441/441/423 440/440/422 488/488/472
f 436/436/418 441/441/423 484/484/468
f 435/435/417 436/436/418 482/482/466
f 485/485/469 437/437/419 480/480/464
f 486/486/470 439/439/421 485/485/469
f 448/448/430 399/399/382 449/449/431
f 449/449/431 398/398/381 456/456/438
f 401/401/384 444/444/426 451/451/433
f 444/444/426 407/407/390 492/492/476
f 463/463/447 417/417/399 464/464/448
f 416/416/398 423/423/405 464/464/448
f 419/419/401 447/447/429 466/466/450
f 447/447/429 403/403/386 495/495/479
usemtl mat4.001
f 496/496/1 497/497/2 498/498/3
f 496/496/1 499/499/4 500/500/5
f 501/501/480 502/502/481 503/503/8
f 503/503/8 504/504/482 497/497/2
f 505/505/483 506/506/484 507/507/485
f 507/507/485 508/508/13 509/509/486
f 510/510/487 509/509/486 511/511/488
f 510/510/487 512/512/17 513/513/489
f 514/514/490 515/515/491 516/516/492
f 514/514/490 517/517/493 518/518/494
f 519/519/495 520/520/496 521/521/497
f 521/521/497 522/522/498 515/515/491
f 523/523/499 524/524/500 522/522/498
f 523/523/499 521/521/497 520/520/496
f 523/523/499 525/525/501 526/526/502
f 523/523/499 527/527/503 528/528/504
f 529/529/505 528/528/504 527/527/503
f 527/527/503 526/526/502 530/530/506
f 531/531/507 530/530/506 532/532/508
f 531/531/507 533/533/509 534/534/510
f 535/535/511 534/534/510 533/533/509
f 533/533/509 532/532/508 536/536/512
f 537/537/513 536/536/512 538/538/514
f 537/537/513 539/539/515 540/540/516
f 541/541/45 542/542/517 508/508/13
f 541/541/45 507/507/485 506/506/484
f 543/543/518 500/500/5 499/499/4
f 499/499/4 498/498/3 542/542/517
f 544/544/519 545/545/520 504/504/482
f 544/544/519 503/503/8 502/502/481
f 546/546/521 518/518/494 517/517/493
f 517/517/493 516/516/492 545/545/520
f 547/547/522 548/548/523 549/549/53
f 550/550/524 551/551/525 549/549/53
f 552/552/56 553/553/526 554/554/527
f 548/548/523 555/555/528 552/552/56
f 556/556/529 557/557/530 558/558/62
f 559/559/531 560/560/532 556/556/529
f 511/511/65 559/559/531 561/561/66
f 513/513/65 512/512/533 561/561/66
f 562/562/534 563/563/535 564/564/536
f 565/565/537 566/566/538 564/564/536
f 567/567/539 568/568/540 569/569/541
f 563/563/535 570/570/542 567/567/539
f 570/570/542 571/571/543 572/572/544
f 568/568/540 567/567/539 572/572/544
f 573/573/545 574/574/546 572/572/544
f 575/575/547 576/576/548 572/572/544
f 576/576/548 575/575/547 577/577/549
f 578/578/550 573/573/545 576/576/548
f 579/579/551 578/578/550 580/580/552
f 581/581/553 582/582/554 580/580/552
f 582/582/554 581/581/553 583/583/555
f 584/584/556 579/579/551 582/582/554
f 585/585/557 584/584/556 586/586/558
f 587/587/559 588/588/560 586/586/558
f 560/560/532 589/589/561 590/590/562
f 557/557/530 556/556/529 590/590/562
f 551/551/525 550/550/524 591/591/563
f 589/589/561 547/547/522 551/551/525
f 555/555/528 592/592/564 593/593/99
f 553/553/526 552/552/56 593/593/99
f 566/566/538 565/565/537 594/594/565
f 592/592/564 562/562/534 566/566/538
f 542/542/517 498/498/3 547/547/522
f 508/508/13 542/542/517 589/589/561
f 500/500/5 550/550/524 554/554/527
f 501/501/480 554/554/527 553/553/526
f 506/506/484 505/505/483 558/558/62
f 508/508/13 560/560/532 559/559/531
f 509/509/486 559/559/531 511/511/65
f 545/545/520 516/516/492 562/562/534
f 504/504/482 545/545/520 592/592/564
f 518/518/494 565/565/537 569/569/541
f 520/520/496 519/519/495 569/569/541
f 528/528/504 575/575/547 571/571/543
f 524/524/500 571/571/543 570/570/542
f 525/525/501 520/520/496 568/568/540
f 526/526/502 525/525/501 574/574/546
f 529/529/505 534/534/510 581/581/553
f 528/528/504 529/529/505 577/577/549
f 526/526/502 573/573/545 578/578/550
f 530/530/506 578/578/550 579/579/551
f 538/538/514 585/585/557 588/588/560
f 540/540/516 539/539/515 588/588/560
f 535/535/511 540/540/516 587/587/559
f 534/534/510 535/535/511 583/583/555
f 532/532/508 579/579/551 584/584/556
f 536/536/512 584/584/556 585/585/557
f 498/498/3 497/497/2 548/548/523
f 497/497/2 504/504/482 555/555/528
f 543/543/518 591/591/563 550/550/524
f 506/506/484 557/557/530 591/591/563
f 516/516/492 515/515/491 563/563/535
f 522/522/498 570/570/542 563/563/535
f 546/546/521 594/594/565 565/565/537
f 502/502/481 553/553/526 594/594/565
f 499/499/4 496/496/1 498/498/3
f 501/501/480 496/496/1 500/500/5
f 496/496/1 501/501/480 503/503/8
f 496/496/1 503/503/8 497/497/2
f 510/510/487 505/505/483 507/507/485
f 510/510/487 507/507/485 509/509/486
f 512/512/17 510/510/487 511/511/488
f 505/505/483 510/510/487 513/513/489
f 517/517/493 514/514/490 516/516/492
f 519/519/495 514/514/490 518/518/494
f 514/514/490 519/519/495 521/521/497
f 514/514/490 521/521/497 515/515/491
f 521/521/497 523/523/499 522/522/498
f 525/525/501 523/523/499 520/520/496
f 527/527/503 523/523/499 526/526/502
f 524/524/500 523/523/499 528/528/504
f 531/531/507 529/529/505 527/527/503
f 531/531/507 527/527/503 530/530/506
f 533/533/509 531/531/507 532/532/508
f 529/529/505 531/531/507 534/534/510
f 537/537/513 535/535/511 533/533/509
f 537/537/513 533/533/509 536/536/512
f 539/539/515 537/537/513 538/538/514
f 535/535/511 537/537/513 540/540/516
f 507/507/485 541/541/45 508/508/13
f 543/543/518 541/541/45 506/506/484
f 541/541/45 543/543/518 499/499/4
f 541/541/45 499/499/4 542/542/517
f 503/503/8 544/544/519 504/504/482
f 546/546/521 544/544/519 502/502/481
f 544/544/519 546/546/521 517/517/493
f 544/544/519 517/517/493 545/545/520
f 551/551/525 547/547/522 549/549/53
f 554/554/527 550/550/524 549/549/53
f 549/549/53 552/552/56 554/554/527
f 549/549/53 548/548/523 552/552/56
f 561/561/66 556/556/529 558/558/62
f 561/561/66 559/559/531 556/556/529
f 512/512/533 511/511/65 561/561/66
f 558/558/62 513/513/65 561/561/66
f 566/566/538 562/562/534 564/564/536
f 569/569/541 565/565/537 564/564/536
f 564/564/536 567/567/539 569/569/541
f 564/564/536 563/563/535 567/567/539
f 567/567/539 570/570/542 572/572/544
f 574/574/546 568/568/540 572/572/544
f 576/576/548 573/573/545 572/572/544
f 571/571/543 575/575/547 572/572/544
f 580/580/552 576/576/548 577/577/549
f 580/580/552 578/578/550 576/576/548
f 582/582/554 579/579/551 580/580/552
f 577/577/549 581/581/553 580/580/552
f 586/586/558 582/582/554 583/583/555
f 586/586/558 584/584/556 582/582/554
f 588/588/560 585/585/557 586/586/558
f 583/583/555 587/587/559 586/586/558
f 556/556/529 560/560/532 590/590/562
f 591/591/563 557/557/530 590/590/562
f 590/590/562 551/551/525 591/591/563
f 590/590/562 589/589/561 551/551/525
f 552/552/56 555/555/528 593/593/99
f 594/594/565 553/553/526 593/593/99
f 593/593/99 566/566/538 594/594/565
f 593/593/99 592/592/564 566/566/538
f 589/589/561 542/542/517 547/547/522
f 560/560/532 508/508/13 589/589/561
f 501/501/480 500/500/5 554/554/527
f 502/502/481 501/501/480 553/553/526
f 558/558/62 505/505/483 513/513/65
f 557/557/530 506/506/484 558/558/62
f 509/509/486 508/508/13 559/559/531
f 592/592/564 545/545/520 562/562/534
f 555/555/528 504/504/482 592/592/564
f 519/519/495 518/518/494 569/569/541
f 568/568/540 520/520/496 569/569/541
f 524/524/500 528/528/504 571/571/543
f 522/522/498 524/524/500 570/570/542
f 574/574/546 525/525/501 568/568/540
f 573/573/545 526/526/502 574/574/546
f 577/577/549 529/529/505 581/581/553
f 575/575/547 528/528/504 577/577/549
f 530/530/506 526/526/502 578/578/550
f 532/532/508 530/530/506 579/579/551
f 539/539/515 538/538/514 588/588/560
f 587/587/559 540/540/516 588/588/560
f 583/583/555 535/535/511 587/587/559
f 581/581/553 534/534/510 583/583/555
f 536/536/512 532/532/508 584/584/556
f 538/538/514 536/536/512 585/585/557
f 547/547/522 498/498/3 548/548/523
f 548/548/523 497/497/2 555/555/528
f 500/500/5 543/543/518 550/550/524
f 543/543/518 506/506/484 591/591/563
f 562/562/534 516/516/492 563/563/535
f 515/515/491 522/522/498 563/563/535
f 518/518/494 546/546/521 565/565/537
f 546/546/521 502/502/481 594/594/565
