# File generated by ImageToStl.com - Free Image and 3D model conversion tools

mtllib leaf3_d1.mtl

o obj1
v 0.00272829 0.00038961 0.0003905
v 2.475E-05 0.00034117 0.00023664
v 1.223E-05 1.262E-05 0.0001699
v 0.01688285 -1.149E-05 0.00018747
v 0.00869825 -0.01304366 -0.00231713
v 0.01970879 -0.02357703 -0.00512064
v 0.04634402 0.0444351 0.02121963
v 0.0392822 0.03755393 0.01614378
v 0.05375465 0.04233421 0.02230693
v 0.0627364 -0.03902146 -0.02057654
v 0.05062407 1.36E-05 3.369E-05
v 0.04693442 -0.03611592 -0.01730942
v 0.09297607 -0.03190304 -0.01992763
v 0.07905622 -0.03736837 -0.01943077
v 0.08625615 -0.03836997 -0.02084264
v 0.11791948 -0.01428811 -0.0142469
v 0.10766389 -0.02184607 -0.01777525
v 0.11667674 -0.02176738 -0.01915028
v 0.11810655 -5.854E-05 1.378E-05
v 0.13497715 -7.024E-05 0
v 0.13107925 0.00162039 0.00248204
v 0.12408201 0.01592012 0.01631022
v 0.12787944 0.02091429 0.01989573
v 0.11606524 0.02187919 0.01921246
v 0.10123593 -4.324E-05 2.404E-05
v 0.10530158 0.02761689 0.02049796
v 0.1045421 0.03723324 0.02426868
v 0.10049163 0.03697876 0.0238526
v 0.01685515 0.00037766 -0.00100008
v 0.00871422 0.01020992 0.00242912
v 0.02679998 0.03480957 0.01158157
v 0.0036179 -0.00750252 -0.00244163
v 0.00282577 -0.00195436 -0.00139882
v 0.0539066 0.04286313 0.02118461
v 0.0506412 0.00057419 -0.0010834
v 0.03941608 0.0380235 0.01499312
v 0.0626831 -0.03850951 -0.02171561
v 0.04688112 -0.03560397 -0.01844852
v 0.08433712 0.00064725 -0.0010225
v 0.0928387 -0.03133047 -0.02103022
v 0.07891885 -0.03679582 -0.02053336
v 0.10756299 -0.02105118 -0.01873464
v 0.10123725 0.00073506 -0.00095408
v 0.11781858 -0.01349321 -0.01520629
v 0.13468539 0.00960276 0.01000776
v 0.1323647 0.00711599 0.00740043
v 0.13126049 0.01589982 0.01527064
v 0.11811595 0.00078144 -0.00091185
v 0.12418071 0.01673188 0.01536483
v 0.11616884 0.02263536 0.01822259
v 0.10537818 0.02832729 0.01947235
v 0.11342178 0.02989422 0.02155378
v 0.0937111 0.03472786 0.02097117
v 0.08131935 0.03949575 0.02608435
v 9.954E-05 -0.00180101 -0.0001814
v -0.00014205 -0.00156861 -0.00138559
v 0.00306736 -0.00218676 -0.00019463
v 0.00385949 -0.00773492 -0.00123745
v 0.00845665 -0.01281126 -0.00352131
v 0.0194672 -0.02334464 -0.00632482
v 0.0447927 -0.0406065 -0.01700718
v 0.04469328 -0.04015892 -0.01817001
v 0.05550178 -0.04328364 -0.02039703
v 0.06312293 -0.04561766 -0.02095232
v 0.05555508 -0.04379559 -0.01925796
v 0.06306963 -0.04510571 -0.02209139
v 0.06757905 -0.04197873 -0.02297565
v 0.06763235 -0.04249068 -0.02183658
v 0.08013168 -0.04236532 -0.02228111
v 0.0802082 -0.04289437 -0.0211512
v 0.08611877 -0.03779742 -0.02194523
v 0.09547205 -0.03779421 -0.02262346
v 0.09533467 -0.03722166 -0.02372606
v 0.10171197 -0.03037418 -0.02102582
v 0.10631992 -0.03000338 -0.02171434
v 0.10157459 -0.02980161 -0.02212842
v 0.11131187 -0.02774638 -0.0215226
v 0.10618254 -0.02943081 -0.02281694
v 0.11117887 -0.0271435 -0.02260948
v 0.12329399 -0.0186677 -0.0180266
v 0.11657584 -0.02097248 -0.02010967
v 0.12319309 -0.01787281 -0.01898598
v 0.12568268 -0.0129959 -0.01410584
v 0.12558178 -0.01220101 -0.01506522
v 0.13035913 -0.01062111 -0.01407346
v 0.13046001 -0.011416 -0.01311408
v 0.12472853 -0.00593138 -0.00912566
v 0.13046003 -0.00639425 -0.0082234
v 0.12480205 -0.00680638 -0.00823608
v 0.13501005 -0.00458073 -0.00627218
v 0.1304268 -0.00541598 -0.00900078
v -5.186E-05 0.00033456 -0.00103619
v 0.13497683 -0.00360246 -0.00704956
v 0.13090538 -0.0005664 -0.0029465
v 0.13117054 0.01500304 0.01613672
v 0.13739432 0.01146159 0.01335466
v 0.13748427 0.01235837 0.01248859
v 0.1311692 0.00251717 0.00161596
v 0.13665445 0.00489251 0.0048462
v 0.1365645 0.00399573 0.00571228
v 0.13459544 0.00870598 0.01087384
v 0.13227475 0.0062192 0.0082665
v 0.1309386 -0.00154467 -0.00216911
v 0.13500952 0.00086691 -0.00082652
v 0.12798304 0.02167047 0.01890586
v 0.11969388 0.02686528 0.02233778
v 0.11331818 0.02913805 0.02254364
v 0.11979748 0.02762145 0.02134791
v 0.1096896 0.03502322 0.02435886
v 0.10974428 0.03569542 0.02330644
v 0.10459678 0.03790542 0.02321625
v 0.1005463 0.03765091 0.02280016
v 0.09458467 0.04284699 0.02759505
v 0.09365643 0.03405568 0.0220236
v 0.09463932 0.04351916 0.0265426
v 0.08865485 0.04286688 0.02988765
v 0.0812647 0.03882358 0.0271368
v 0.08860017 0.04219471 0.03094008
v 0.08318875 0.04519993 0.03122775
v 0.07729632 0.04599272 0.03014558
v 0.08324342 0.0458721 0.03017532
v 0.06927942 0.04142917 0.02564508
v 0.077351 0.0466649 0.02909315
v 0.0693847 0.04202897 0.02455348
v 0.06939527 0.04898657 0.02817535
v 0.06217239 0.04788881 0.02720852
v 0.06924332 0.04845764 0.02929768
v 0.06232434 0.04841774 0.0260862
v 0.05414709 0.04873143 0.0241646
v 0.05399514 0.04820251 0.0252869
v 0.04649597 0.04496403 0.02009732
v 0.03919847 0.04469413 0.01760475
v 0.02668645 0.03440687 0.01275943
v 0.03908495 0.04429143 0.01878261
v 0.00860069 0.00980723 0.00360698
v 0.00360515 0.00347466 -6.493E-05
v 0.00349163 0.00307197 0.00111293
v 0.00284182 0.0007923 -0.00078736
v 0.00013827 0.00074386 -0.00094122
v 0.03375345 3.361E-05 3.116E-05
v 0.08436533 -2.549E-05 3.062E-05
v 0.0674947 -6.29E-06 3.37E-05
v 0.03380292 0.00055582 -0.00110344
v 0.06745322 0.00061858 -0.0010481
vn -0.1969 0.05219 0.97903
vn -0.21461 -0.04313 0.97575
vn -0.40152 0.24337 0.88292
vn -0.43901 -0.1038 0.89247
vn -0.2857 -0.14598 0.94713
vn -0.55863 -0.12986 0.81919
vn -0.82657 0.00011 0.56284
vn -0.53351 0.0922 0.84076
vn -0.56281 0.20436 0.80093
vn -0.36903 0.072 0.92662
vn 0.33961 -0.01401 -0.94046
vn 0.18435 0.00271 -0.98286
vn 0.44043 -0.22434 -0.86931
vn 0.43913 0.10376 -0.89241
vn 0.47561 0.21716 -0.85243
vn 0.59388 0.16689 -0.78705
vn 0.67091 -0.1057 -0.73397
vn 0.6886 -0.11184 -0.71647
vn 0.45593 -0.13868 -0.87914
vn 0.56161 0.12162 -0.81842
vn -0.97828 0.12788 -0.16314
vn -0.1693 0.9721 0.16236
vn -0.67548 0.73717 0.01754
vn -0.7225 0.69137 -0.00073
vn -0.81716 0.57485 -0.04237
vn -0.431 -0.86978 -0.24026
vn -0.68564 0.67333 -0.27664
vn -0.87632 0.29607 -0.38001
vn 0.05962 -0.99802 -0.0199
vn -0.73871 0.60165 -0.30386
vn -0.91219 0.00542 -0.40973
vn 0.19638 -0.98019 0.02556
vn -0.87861 0.20665 -0.43051
vn -0.88866 0.03286 -0.45738
vn 0.36112 -0.92976 0.07169
vn -0.87858 -0.09492 -0.46806
vn -0.88734 -0.00251 -0.4611
vn -0.80076 -0.37984 -0.46315
vn 0.45288 -0.87994 0.14353
vn -0.77155 0.08936 -0.62986
vn -0.67675 -0.41972 -0.60486
vn 0.56149 -0.73068 0.38837
vn -0.75558 -0.13741 -0.64048
vn -0.69961 -0.35955 -0.61747
vn 0.53438 -0.76359 0.36245
vn -0.70971 -0.05327 -0.70248
vn -0.52693 -0.50361 -0.68463
vn 0.03578 0.9974 0.06255
vn 0.40454 -0.78106 0.4757
vn 0.68714 -0.09035 0.72089
vn 0.5354 -0.57936 0.61456
vn -0.59371 -0.58345 -0.55416
vn 0.51222 -0.61961 0.59474
vn -0.41921 -0.83899 -0.34693
vn -0.45813 -0.79804 -0.39148
vn -0.51712 -0.5284 -0.67333
vn 0.51397 -0.60661 0.60651
vn -0.43955 -0.85059 -0.28862
vn 0.79282 -0.02955 0.60874
vn -0.45653 -0.85097 -0.25968
vn 0.7469 -0.28564 0.60046
vn 0.77485 0.29032 0.56153
vn -0.41067 -0.88526 -0.21833
vn 0.78794 -0.32918 0.52037
vn 0.84042 0.10737 0.53119
vn 0.76289 0.45037 0.46385
vn -0.09811 -0.99511 -0.01098
vn 0.81916 -0.20922 0.53405
vn 0.71588 0.55121 0.42859
vn -0.23015 -0.96834 -0.0967
vn 0.84235 -0.01439 0.53874
vn 0.67994 0.61297 0.40243
vn -0.04008 -0.99645 0.07409
vn 0.89781 0.18965 0.39744
vn 0.73023 0.63239 0.25853
vn -0.08782 -0.9918 0.09289
vn 0.785 0.54404 0.2963
vn 0.62897 0.7527 0.19452
vn -0.01108 -0.99375 0.11109
vn 0.7234 0.6657 0.18315
vn 0.561 0.8201 0.11275
vn 0.57222 0.81166 0.1174
vn 0.27351 0.96187 0.0008
vn 0.94668 0.03519 0.32026
vn 0.41063 0.91028 0.05265
vn -0.49637 0.00161 0.86811
vn -0.36419 0.15572 0.91821
vn -0.3395 0.01417 0.9405
vn -0.26176 -0.00643 0.96511
vn -0.19108 0.02046 0.98136
vn -0.29203 0.17945 0.93942
vn -0.33858 0.01294 0.94085
vn -0.19304 -0.00713 0.98116
vn -0.17055 -0.32501 0.9302
vn -0.16522 0.00126 0.98626
vn -0.18447 -0.00186 0.98284
vn -0.44079 0.22451 0.86908
vn -0.39452 0.00061 0.91889
vn -0.02672 -0.19769 0.9799
vn -0.44487 0.21298 0.8699
vn -0.43034 0.24929 0.86756
vn -0.39576 -0.00957 0.9183
vn -0.45079 0.21938 0.86525
vn -0.44265 0.21309 0.87101
vn -0.12232 -0.38552 0.91455
vn -0.04346 -0.2083 0.9771
vn -0.41783 0.06281 0.90635
vn -0.21225 -0.34648 0.91373
vn -0.42966 -0.00951 0.90294
vn -0.4327 0.00065 0.90154
vn -0.48445 0.07873 0.87127
vn -0.33688 -0.19888 0.92031
vn -0.4447 -0.16726 0.87992
vn -0.33733 -0.35149 0.87331
vn -0.46212 0.00036 0.88682
vn -0.48303 -0.19193 0.85431
vn -0.49008 -0.17831 0.85325
vn -0.47523 -0.21702 0.85268
vn -0.46216 0.00055 0.8868
vn -0.55828 -0.12216 0.82061
vn -0.68069 -0.0738 0.72884
vn -0.70788 0.00021 0.70634
vn -0.63246 0.00036 0.77459
vn -0.67721 -0.09948 0.72903
vn -0.70057 -0.15281 0.69703
vn -0.59362 -0.16661 0.78731
vn -0.78141 -0.05552 0.62154
vn -0.78142 -0.04454 0.62241
vn -0.82693 0.00011 0.56231
vn -0.76558 -0.02072 0.64301
vn -0.77923 0.03118 0.62596
vn -0.65096 0.03137 0.75846
vn -0.68867 0.11212 0.71635
vn -0.78085 0.01776 0.62447
vn -0.67091 0.1057 0.73397
vn -0.67051 0.06867 0.73871
vn -0.45468 0.13365 0.88057
vn -0.59492 0.00031 0.80379
vn -0.65354 0.22407 0.72296
vn -0.65857 0.00014 0.75252
vn -0.5022 0.1665 0.84857
vn -0.45574 0.13792 0.87936
vn -0.37137 0.17542 0.91176
vn -0.37516 0.08652 0.92291
vn -0.50913 -0.46155 0.72647
vn -0.47871 0.22049 0.84984
vn -0.52575 0.00062 0.85064
vn 0.20273 -0.05202 -0.97785
vn -0.57224 0.0005 0.82009
vn -0.74076 0.00785 0.67172
vn -0.50689 0.21412 0.83499
vn -0.5614 -0.12175 0.81854
vn -0.47477 0.2096 0.85479
vn 0.3387 -0.01277 -0.94081
vn 0.26188 0.0069 -0.96508
vn 0.29138 -0.17984 -0.93955
vn 0.47432 -0.00067 -0.88035
vn 0.36453 -0.15541 -0.91813
vn 0.15857 -0.0017 -0.98735
vn 0.17356 0.32143 -0.93089
vn 0.19251 0.00774 -0.98126
vn 0.43034 -0.24929 -0.86756
vn 0.17967 -0.01897 -0.98354
vn 0.21424 0.0435 -0.97581
vn 0.45022 -0.2195 -0.86552
vn 0.44223 -0.21344 -0.87113
vn 0.39594 0.00976 -0.91822
vn 0.44447 -0.21332 -0.87002
vn 0.40123 -0.24331 -0.88307
vn 0.39464 -0.00066 -0.91883
vn 0.41808 -0.06302 -0.90622
vn 0.04346 0.2083 -0.9771
vn 0.12674 0.38047 -0.91607
vn 0.43267 -0.0006 -0.90155
vn 0.70077 0.15389 -0.6966
vn 0.02672 0.19768 -0.9799
vn 0.48426 -0.07877 -0.87137
vn 0.42952 0.01002 -0.903
vn 0.44516 0.16727 -0.87969
vn 0.33688 0.19888 -0.92031
vn 0.21023 0.35005 -0.91284
vn 0.48336 0.19196 -0.85411
vn 0.2857 0.14598 -0.94713
vn 0.46204 -0.00056 -0.88686
vn 0.46206 -0.00064 -0.88685
vn 0.49031 0.17843 -0.85309
vn 0.68056 0.07373 -0.72897
vn 0.55828 0.12216 -0.82061
vn 0.35935 0.32997 -0.87292
vn 0.7076 0.00018 -0.70662
vn 0.67716 0.09947 -0.72908
vn 0.55863 0.12986 -0.81919
vn 0.63226 0.00015 -0.77475
vn 0.82966 0.00138 -0.55826
vn 0.78142 0.04454 -0.62241
vn 0.76553 0.02162 -0.64304
vn 0.78141 0.05706 -0.62141
vn 0.65096 -0.03137 -0.75846
vn 0.77923 -0.03118 -0.62596
vn 0.82761 0.00135 -0.5613
vn 0.65875 -7E-05 -0.75236
vn 0.78093 -0.01707 -0.62439
vn 0.67052 -0.06898 -0.73868
vn 0.59498 -0.00016 -0.80374
vn 0.45468 -0.13365 -0.88057
vn 0.53239 -0.09215 -0.84147
vn 0.56254 -0.20394 -0.80122
vn 0.65329 -0.22334 -0.72342
vn 0.52584 -0.0004 -0.85058
vn 0.47871 -0.22049 -0.84984
vn 0.50913 0.46155 -0.72647
vn 0.36821 -0.07209 -0.92695
vn 0.37079 -0.17517 -0.91205
vn -0.97828 0.12788 -0.16314
vn 0.37451 -0.08686 -0.92315
vn 0.57224 -0.00027 -0.82008
vn 0.74076 -0.00785 -0.67172
vn 0.50197 -0.16635 -0.84874
vn 0.47507 -0.21043 -0.85442
vn 0.50634 -0.21461 -0.8352
vn -0.1693 0.9721 0.16236
vn -0.67548 0.73717 0.01754
vn -0.7225 0.69137 -0.00073
vn -0.75315 0.6135 -0.23745
vn -0.43248 -0.87046 -0.23509
vn -0.68563 0.67333 -0.27665
vn -0.90578 0.00599 -0.4237
vn 0.21566 -0.97642 -0.00966
vn -0.87858 -0.09492 -0.46806
vn -0.78803 -0.38084 -0.4837
vn 0.38666 -0.89402 0.22634
vn -0.75558 -0.13741 -0.64048
vn -0.69961 -0.35955 -0.61747
vn 0.49143 -0.76277 0.42034
vn -0.61895 -0.07312 -0.78202
vn -0.0822 0.98008 0.18077
vn 0.40454 -0.78106 0.4757
vn 0.748 -0.11278 0.65404
vn 0.5354 -0.57936 0.61456
vn -0.59371 -0.58345 -0.55416
vn 0.51222 -0.61961 0.59474
vn -0.45813 -0.79804 -0.39148
vn -0.56682 -0.54076 -0.62152
vn 0.51926 -0.60779 0.6008
vn -0.46212 -0.84648 -0.26443
vn 0.79282 -0.02955 0.60874
vn -0.45653 -0.85097 -0.25968
vn 0.7469 -0.28564 0.60046
vn 0.79626 0.29219 0.52971
vn -0.41163 -0.88516 -0.21693
vn 0.78796 -0.32918 0.52035
vn 0.76289 0.45037 0.46386
vn -0.23015 -0.96834 -0.0967
vn 0.71823 0.60937 0.33587
vn -0.052 -0.99258 0.10987
vn 0.89781 0.18965 0.39744
vn 0.73023 0.63239 0.25853
vn 0.63805 0.75028 0.17309
vn -0.00744 -0.9956 0.09342
vn 0.561 0.8201 0.11275
vn 0.57222 0.81166 0.1174
vn 0.27351 0.96187 0.0008
vn 0.02584 0.99787 0.05992
vt 0.50127 0.68894
vt 0.50087 0.70196
vt 0.49954 0.70202
vt 0.49946 0.6208
vt 0.44727 0.6602
vt 0.40458 0.6072
vt 0.67738 0.47898
vt 0.64404 0.51298
vt 0.67279 0.44331
vt 0.33468 0.40007
vt 0.49932 0.45838
vt 0.34792 0.47614
vt 0.35163 0.2545
vt 0.33506 0.32151
vt 0.3279 0.28685
vt 0.42 0.13443
vt 0.38869 0.18379
vt 0.38543 0.14041
vt 0.49904 0.13352
vt 0.49897 0.05231
vt 0.51075 0.07108
vt 0.58858 0.10476
vt 0.61241 0.08648
vt 0.61341 0.14335
vt 0.49911 0.21474
vt 0.63412 0.19517
vt 0.67351 0.19882
vt 0.67086 0.21832
vt 0.54153 0.66067
vt 0.62722 0.57361
vt 0.46851 0.6835
vt 0.49077 0.68731
vt 0.49918 0.29595
vt 0.55379 0.05415
vt 0.53972 0.06532
vt 0.5856 0.07064
vt 0.64372 0.15658
vt 0.65597 0.25122
vt 0.67356 0.31088
vt 0.49221 0.7016
vt 0.33054 0.48645
vt 0.31705 0.43464
vt 0.30896 0.39821
vt 0.32037 0.3765
vt 0.31246 0.31596
vt 0.3264 0.24248
vt 0.35427 0.21245
vt 0.35389 0.19026
vt 0.36142 0.16623
vt 0.39736 0.10855
vt 0.42391 0.09705
vt 0.43094 0.07406
vt 0.45723 0.10129
vt 0.45827 0.07406
vt 0.46866 0.05215
vt 0.48868 0.07175
vt 0.56819 0.04068
vt 0.52648 0.04467
vt 0.63625 0.12588
vt 0.66656 0.17404
vt 0.69305 0.24676
vt 0.69337 0.27556
vt 0.70296 0.30161
vt 0.70265 0.32998
vt 0.67765 0.36857
vt 0.70826 0.36875
vt 0.70166 0.40279
vt 0.69845 0.44215
vt 0.67233 0.51393
vt 0.51241 0.68527
vt 0.49939 0.53959
vt 0.49925 0.37716
usemtl mat0
f 1/1/1 2/2/1 3/3/1
f 4/4/2 5/5/2 6/6/2
f 7/7/3 8/8/3 9/9/3
f 10/10/4 11/11/4 12/12/4
f 13/13/5 14/14/5 15/15/5
f 16/16/6 17/17/6 18/18/6
f 19/19/7 20/20/7 21/21/7
f 22/22/8 23/23/8 24/24/8
f 25/25/9 24/24/9 26/26/9
f 26/26/10 27/27/10 28/28/10
f 29/4/11 30/29/11 31/30/11
f 29/4/12 32/31/12 33/32/12
f 34/9/13 35/11/13 36/8/13
f 37/10/14 38/12/14 35/11/14
f 39/33/15 40/13/15 41/14/15
f 42/17/16 43/25/16 44/16/16
f 45/34/17 46/35/17 47/36/17
f 48/19/18 49/22/18 46/35/18
f 50/24/19 51/26/19 52/37/19
f 53/38/20 39/33/20 54/39/20
f 55/40/21 56/40/21 33/32/21
f 57/32/22 33/32/22 32/31/22
f 58/31/23 32/31/23 59/5/23
f 5/5/24 59/5/24 60/6/24
f 61/41/25 6/6/25 60/6/25
f 12/12/26 61/41/26 62/41/26
f 12/12/27 38/12/27 63/42/27
f 64/43/28 65/42/28 63/42/28
f 10/10/29 64/43/29 66/43/29
f 10/10/30 37/10/30 67/44/30
f 68/44/31 67/44/31 69/45/31
f 14/14/32 70/45/32 69/45/32
f 14/14/33 41/14/33 71/15/33
f 72/46/34 15/15/34 71/15/34
f 13/13/35 72/46/35 73/46/35
f 74/47/36 13/13/36 40/13/36
f 75/48/37 74/47/37 76/47/37
f 77/49/38 75/48/38 78/48/38
f 17/17/39 77/49/39 79/49/39
f 18/18/40 17/17/40 42/17/40
f 80/50/41 18/18/41 81/18/41
f 16/16/42 80/50/42 82/50/42
f 83/51/43 16/16/43 44/16/43
f 83/51/44 84/51/44 85/52/44
f 86/52/45 85/52/45 87/53/45
f 88/54/46 89/53/46 87/53/46
f 90/55/47 88/54/47 91/54/47
f 3/3/48 92/3/48 56/40/48
f 90/55/49 93/55/49 94/56/49
f 95/36/50 47/36/50 49/22/50
f 95/36/51 96/57/51 97/57/51
f 21/21/52 98/21/52 99/58/52
f 100/58/53 99/58/53 46/35/53
f 101/34/54 102/35/54 46/35/54
f 96/57/55 101/34/55 45/34/55
f 103/56/56 94/56/56 104/20/56
f 20/20/57 104/20/57 98/21/57
f 23/23/58 22/22/58 49/22/58
f 24/24/59 23/23/59 105/23/59
f 106/59/60 24/24/60 50/24/60
f 107/37/61 106/59/61 108/59/61
f 26/26/62 107/37/62 52/37/62
f 109/60/63 26/26/63 51/26/63
f 27/27/64 109/60/64 110/60/64
f 28/28/65 27/27/65 111/27/65
f 28/28/66 112/28/66 53/38/66
f 113/61/67 114/38/67 53/38/67
f 113/61/68 115/61/68 116/62/68
f 117/39/69 118/62/69 116/62/69
f 119/63/70 117/39/70 54/39/70
f 120/64/71 119/63/71 121/63/71
f 122/65/72 120/64/72 123/64/72
f 122/65/73 124/65/73 125/66/73
f 126/67/74 127/66/74 125/66/74
f 9/9/75 126/67/75 128/67/75
f 9/9/76 34/9/76 129/68/76
f 7/7/77 130/68/77 129/68/77
f 8/8/78 7/7/78 131/7/78
f 8/8/79 36/8/79 132/69/79
f 133/30/80 134/69/80 132/69/80
f 133/30/81 31/30/81 30/29/81
f 135/29/82 30/29/82 136/70/82
f 137/70/83 136/70/83 138/1/83
f 1/1/84 138/1/84 139/2/84
f 2/2/85 139/2/85 92/3/85
f 4/4/86 1/1/86 3/3/86
f 134/69/87 133/30/87 8/8/87
f 135/29/88 4/4/88 133/30/88
f 1/1/89 4/4/89 137/70/89
f 3/3/90 55/40/90 57/32/90
f 133/30/91 4/4/91 8/8/91
f 4/4/92 135/29/92 137/70/92
f 5/5/93 4/4/93 58/31/93
f 61/41/94 4/4/94 6/6/94
f 4/4/95 3/3/95 57/32/95
f 4/4/96 57/32/96 58/31/96
f 8/8/97 11/11/97 9/9/97
f 11/11/98 8/8/98 140/71/98
f 10/10/99 12/12/99 65/42/99
f 9/9/100 122/65/100 126/67/100
f 9/9/101 130/68/101 7/7/101
f 8/8/102 4/4/102 140/71/102
f 122/65/103 127/66/103 126/67/103
f 9/9/104 11/11/104 122/65/104
f 61/41/105 12/12/105 4/4/105
f 64/43/106 10/10/106 65/42/106
f 10/10/107 68/44/107 70/45/107
f 70/45/108 14/14/108 11/11/108
f 12/12/109 140/71/109 4/4/109
f 11/11/110 140/71/110 12/12/110
f 10/10/111 70/45/111 11/11/111
f 72/46/112 13/13/112 15/15/112
f 74/47/113 75/48/113 77/49/113
f 141/33/114 77/49/114 17/17/114
f 141/33/115 142/72/115 14/14/115
f 141/33/116 13/13/116 74/47/116
f 77/49/117 141/33/117 74/47/117
f 13/13/118 141/33/118 14/14/118
f 14/14/119 142/72/119 11/11/119
f 80/50/120 16/16/120 18/18/120
f 86/52/121 89/53/121 83/51/121
f 25/25/122 16/16/122 19/19/122
f 25/25/123 141/33/123 17/17/123
f 89/53/124 16/16/124 83/51/124
f 16/16/125 89/53/125 19/19/125
f 17/17/126 16/16/126 25/25/126
f 88/54/127 103/56/127 89/53/127
f 88/54/128 90/55/128 103/56/128
f 103/56/129 20/20/129 19/19/129
f 103/56/130 19/19/130 89/53/130
f 21/21/131 100/58/131 102/35/131
f 101/34/132 96/57/132 95/36/132
f 19/19/133 102/35/133 22/22/133
f 19/19/134 21/21/134 102/35/134
f 102/35/135 101/34/135 95/36/135
f 102/35/136 95/36/136 22/22/136
f 24/24/137 106/59/137 107/37/137
f 141/33/138 25/25/138 26/26/138
f 22/22/139 24/24/139 19/19/139
f 24/24/140 25/25/140 19/19/140
f 26/26/141 114/38/141 141/33/141
f 24/24/142 107/37/142 26/26/142
f 26/26/143 109/60/143 27/27/143
f 114/38/144 26/26/144 28/28/144
f 114/38/145 113/61/145 118/62/145
f 117/39/146 119/63/146 120/64/146
f 11/11/147 142/72/147 122/65/147
f 92/3/148 139/2/148 138/1/148
f 117/39/149 142/72/149 141/33/149
f 114/38/150 118/62/150 117/39/150
f 142/72/151 117/39/151 122/65/151
f 114/38/152 117/39/152 141/33/152
f 117/39/153 120/64/153 122/65/153
f 30/29/154 29/4/154 136/70/154
f 29/4/155 138/1/155 136/70/155
f 29/4/156 31/30/156 36/8/156
f 29/4/157 92/3/157 138/1/157
f 31/30/158 132/69/158 36/8/158
f 29/4/159 33/32/159 92/3/159
f 29/4/160 62/41/160 60/6/160
f 32/31/161 29/4/161 59/5/161
f 129/68/162 34/9/162 131/7/162
f 33/32/163 56/40/163 92/3/163
f 29/4/164 60/6/164 59/5/164
f 125/66/165 124/65/165 128/67/165
f 35/11/166 34/9/166 124/65/166
f 143/71/167 29/4/167 36/8/167
f 124/65/168 34/9/168 128/67/168
f 34/9/169 36/8/169 131/7/169
f 35/11/170 143/71/170 36/8/170
f 67/44/171 37/10/171 69/45/171
f 37/10/172 66/43/172 63/42/172
f 38/12/173 62/41/173 29/4/173
f 35/11/174 38/12/174 143/71/174
f 87/53/175 44/16/175 48/19/175
f 37/10/176 63/42/176 38/12/176
f 37/10/177 35/11/177 69/45/177
f 38/12/178 29/4/178 143/71/178
f 78/48/179 76/47/179 79/49/179
f 40/13/180 73/46/180 71/15/180
f 41/14/181 69/45/181 35/11/181
f 39/33/182 76/47/182 40/13/182
f 40/13/183 71/15/183 41/14/183
f 144/72/184 39/33/184 41/14/184
f 35/11/185 144/72/185 41/14/185
f 76/47/186 39/33/186 79/49/186
f 87/53/187 85/52/187 84/51/187
f 44/16/188 82/50/188 81/18/188
f 42/17/189 79/49/189 39/33/189
f 44/16/190 43/25/190 48/19/190
f 87/53/191 84/51/191 44/16/191
f 44/16/192 81/18/192 42/17/192
f 39/33/193 43/25/193 42/17/193
f 48/19/194 104/20/194 94/56/194
f 94/56/195 93/55/195 91/54/195
f 48/19/196 94/56/196 87/53/196
f 94/56/197 91/54/197 87/53/197
f 47/36/198 97/57/198 45/34/198
f 46/35/199 99/58/199 98/21/199
f 98/21/200 104/20/200 48/19/200
f 43/25/201 50/24/201 48/19/201
f 46/35/202 98/21/202 48/19/202
f 46/35/203 49/22/203 47/36/203
f 43/25/204 39/33/204 51/26/204
f 108/59/205 50/24/205 52/37/205
f 50/24/206 105/23/206 49/22/206
f 51/26/207 50/24/207 43/25/207
f 50/24/208 49/22/208 48/19/208
f 144/72/209 35/11/209 124/65/209
f 121/63/210 54/39/210 123/64/210
f 115/61/211 53/38/211 116/62/211
f 111/27/212 51/26/212 112/28/212
f 111/27/213 110/60/213 51/26/213
f 57/32/214 55/40/214 33/32/214
f 51/26/215 53/38/215 112/28/215
f 39/33/216 144/72/216 54/39/216
f 53/38/217 54/39/217 116/62/217
f 53/38/218 51/26/218 39/33/218
f 54/39/219 124/65/219 123/64/219
f 54/39/220 144/72/220 124/65/220
f 58/31/221 57/32/221 32/31/221
f 5/5/222 58/31/222 59/5/222
f 6/6/223 5/5/223 60/6/223
f 62/41/224 61/41/224 60/6/224
f 38/12/225 12/12/225 62/41/225
f 65/42/226 12/12/226 63/42/226
f 66/43/28 64/43/28 63/42/28
f 37/10/29 10/10/29 66/43/29
f 68/44/30 10/10/30 67/44/30
f 70/45/227 68/44/227 69/45/227
f 41/14/228 14/14/228 69/45/228
f 15/15/33 14/14/33 71/15/33
f 73/46/34 72/46/34 71/15/34
f 40/13/35 13/13/35 73/46/35
f 76/47/229 74/47/229 40/13/229
f 78/48/37 75/48/37 76/47/37
f 79/49/230 77/49/230 78/48/230
f 42/17/231 17/17/231 79/49/231
f 81/18/40 18/18/40 42/17/40
f 82/50/41 80/50/41 81/18/41
f 44/16/42 16/16/42 82/50/42
f 84/51/232 83/51/232 44/16/232
f 86/52/233 83/51/233 85/52/233
f 89/53/234 86/52/234 87/53/234
f 91/54/235 88/54/235 87/53/235
f 93/55/47 90/55/47 91/54/47
f 55/40/236 3/3/236 56/40/236
f 103/56/237 90/55/237 94/56/237
f 22/22/238 95/36/238 49/22/238
f 47/36/239 95/36/239 97/57/239
f 100/58/240 21/21/240 99/58/240
f 102/35/241 100/58/241 46/35/241
f 45/34/54 101/34/54 46/35/54
f 97/57/242 96/57/242 45/34/242
f 20/20/243 103/56/243 104/20/243
f 21/21/244 20/20/244 98/21/244
f 105/23/245 23/23/245 49/22/245
f 50/24/246 24/24/246 105/23/246
f 108/59/247 106/59/247 50/24/247
f 52/37/248 107/37/248 108/59/248
f 51/26/249 26/26/249 52/37/249
f 110/60/250 109/60/250 51/26/250
f 111/27/251 27/27/251 110/60/251
f 112/28/65 28/28/65 111/27/65
f 114/38/252 28/28/252 53/38/252
f 115/61/67 113/61/67 53/38/67
f 118/62/68 113/61/68 116/62/68
f 54/39/69 117/39/69 116/62/69
f 121/63/253 119/63/253 54/39/253
f 123/64/71 120/64/71 121/63/71
f 124/65/254 122/65/254 123/64/254
f 127/66/255 122/65/255 125/66/255
f 128/67/256 126/67/256 125/66/256
f 34/9/257 9/9/257 128/67/257
f 130/68/76 9/9/76 129/68/76
f 131/7/77 7/7/77 129/68/77
f 36/8/258 8/8/258 131/7/258
f 134/69/259 8/8/259 132/69/259
f 31/30/80 133/30/80 132/69/80
f 135/29/260 133/30/260 30/29/260
f 137/70/261 135/29/261 136/70/261
f 1/1/262 137/70/262 138/1/262
f 2/2/84 1/1/84 139/2/84
f 3/3/263 2/2/263 92/3/263
# Vertices: 144, normals: 263, texture coordinates: 72, faces: 284

