# File generated by ImageToStl.com - Free Image and 3D model conversion tools

mtllib leaf2_d1.mtl

o obj1
v 0.0027283 0.0005178 -0.00079748
v 2.475E-05 0.00041383 -0.0005441
v 1.223E-05 7.433E-05 -0.00055329
v 0.01688284 5.626E-05 -8.055E-05
v 0.00869824 -0.01324896 -0.00240795
v 0.01970879 -0.0241283 -0.00566262
v 0.04634402 0.0454056 -0.00770084
v 0.0392822 0.03690745 -0.00770084
v 0.05375465 0.04423558 -0.00770084
v 0.0627364 -0.04194601 -0.00566262
v 0.05062407 2.012E-05 0
v 0.04693442 -0.03857049 -0.00566262
v 0.09297607 -0.03762604 -0.00532279
v 0.07905623 -0.04185 -0.00566262
v 0.08625615 -0.04367397 -0.00566262
v 0.11791949 -0.02019788 0.00269896
v 0.10766389 -0.02817978 -0.00204825
v 0.11667674 -0.02900983 -0.00050138
v 0.11810655 -5.217E-05 0.01523618
v 0.13497715 -7.024E-05 0.01891345
v 0.13107925 0.00293288 0.01491711
v 0.12408201 0.02277084 0.00374155
v 0.13227474 0.01031688 0.01671789
v 0.13459544 0.01390339 0.01167829
v 0.10123593 -3.409E-05 0.00679696
v 0.11606523 0.02909987 -0.00097689
v 0.10530158 0.03437892 -0.0045845
v 0.1045421 0.04442074 -0.00651739
v 0.10049162 0.04374566 -0.00679926
v 0.01693499 5.271E-05 -0.00132945
v 0.00862907 0.0105229 -0.0033621
v 0.02671483 0.03236649 -0.00892429
v 0.00396138 -0.00756682 -0.00215868
v 0.00316926 -0.00189331 -0.0020737
v 0.05065245 -2.43E-06 -0.00124947
v 0.03931143 0.03667438 -0.00892856
v 0.05378455 0.04402136 -0.00893196
v 0.03377482 1.225E-05 -0.00124954
v 0.04694675 -0.03840757 -0.00690186
v 0.06753663 -1.249E-05 -0.0012492
v 0.07909533 -0.04165465 -0.00689664
v 0.10796852 -0.02769126 -0.00315775
v 0.10158108 -2.38E-05 0.00559563
v 0.11822409 -0.01970936 0.00158945
v 0.13146469 0.02143075 0.00499803
v 0.13488959 0.01332278 0.01061118
v 0.12440144 0.02226084 0.00264598
v 0.13137342 0.00235227 0.01384999
v 0.11841455 -2.333E-05 0.01402509
v 0.11639823 0.0286304 -0.00208642
v 0.10547355 0.03404359 -0.00577633
v 0.11365118 0.0363566 -0.00486546
v 0.08450355 -2.816E-05 0.00039745
v 0.08130825 0.044208 -0.00892978
v 0.0937 0.03972428 -0.00825635
v 0.00306737 -0.00216066 -0.00085693
v 9.955E-05 -0.00179179 -0.00069738
v 0.00020144 -0.00152445 -0.00191415
v 0.00385949 -0.00783417 -0.00094191
v 0.00880013 -0.01298162 -0.00362472
v 0.01981068 -0.02386096 -0.00687939
v 0.04482855 -0.04281035 -0.00689748
v 0.0447927 -0.04300095 -0.00566262
v 0.05556738 -0.04627624 -0.00690186
v 0.05555508 -0.04643916 -0.00566262
v 0.06313526 -0.04834018 -0.00690186
v 0.06312293 -0.04850313 -0.00566262
v 0.06274873 -0.04178308 -0.00690186
v 0.06764465 -0.04543103 -0.00690186
v 0.06763235 -0.04559398 -0.00566262
v 0.08022863 -0.0474372 -0.00690045
v 0.08020821 -0.04760995 -0.00566262
v 0.08629525 -0.04347862 -0.00689664
v 0.09547205 -0.04405796 -0.00555895
v 0.09551115 -0.04386261 -0.00679296
v 0.09301517 -0.03743069 -0.00655681
v 0.10175107 -0.03675868 -0.00576123
v 0.10171197 -0.03695403 -0.00452722
v 0.10635902 -0.03685468 -0.00525229
v 0.10631992 -0.03705003 -0.00401828
v 0.11138197 -0.0348996 -0.00421236
v 0.11131187 -0.03513005 -0.00298582
v 0.12329399 -0.02597052 0.0017985
v 0.11698137 -0.0285213 -0.00161088
v 0.12359862 -0.025482 0.000689
v 0.12568269 -0.01920261 0.00519426
v 0.13046001 -0.0174111 0.00700617
v 0.12598729 -0.01871408 0.00408476
v 0.12480206 -0.0107102 0.00886532
v 0.13076464 -0.01692257 0.00589666
v 0.12504011 -0.01012848 0.00778489
v 0.13058988 -0.00972728 0.00997095
v 0.13501005 -0.00779582 0.0131943
v 0.13046003 -0.01044412 0.01098669
v 7.876E-05 8.005E-05 -0.0018015
v 0.1309386 -0.00269302 0.01305203
v 0.1351399 -0.00707898 0.01217857
v 0.13117054 0.02201136 0.00606515
v 0.13739431 0.01757431 0.00936914
v 0.13768846 0.01699369 0.00830202
v 0.13685867 0.00636073 0.01560152
v 0.1365645 0.00694134 0.01666864
v 0.13256889 0.00973626 0.01565077
v 0.13106845 -0.00197618 0.01203629
v 0.13522142 4.512E-05 0.01769302
v 0.12787943 0.02884671 0.00199635
v 0.12821243 0.02837723 0.00088681
v 0.12002688 0.0344531 -0.0030723
v 0.11969388 0.0349226 -0.00196276
v 0.11331818 0.0368261 -0.00375592
v 0.10973317 0.04242462 -0.00683471
v 0.1096896 0.04264867 -0.00560576
v 0.10458567 0.04419669 -0.00774633
v 0.09365642 0.03994833 -0.00702741
v 0.1005352 0.04352161 -0.00802821
v 0.09462822 0.04917544 -0.00883246
v 0.09458467 0.04939946 -0.00760352
v 0.08864374 0.04925866 -0.00892978
v 0.0812647 0.04443203 -0.00770084
v 0.08860017 0.04948271 -0.00770084
v 0.08323232 0.0517038 -0.00892978
v 0.08318874 0.05192785 -0.00770084
v 0.07733989 0.05162365 -0.00892978
v 0.06927942 0.04547422 -0.00770084
v 0.07729632 0.05184767 -0.00770084
v 0.069316 0.04525517 -0.00893093
v 0.06927324 0.05306444 -0.00893196
v 0.06217239 0.05159511 -0.00770084
v 0.06924332 0.05327867 -0.00770084
v 0.06220232 0.05138089 -0.00893196
v 0.05402507 0.05056316 -0.00893196
v 0.05399514 0.05077738 -0.00770084
v 0.04637395 0.04519135 -0.00893196
v 0.03911332 0.04386458 -0.00892429
v 0.02668645 0.03262107 -0.00770084
v 0.03908495 0.04411915 -0.00770084
v 0.00349163 0.0033564 -0.00100877
v 0.00860069 0.01077746 -0.00213865
v 0.00352001 0.00310183 -0.00223222
v 0.00275668 0.00026324 -0.00202093
v 5.313E-05 0.00015926 -0.00176755
v 0.03375345 3.819E-05 0
v 0.08436533 -1.603E-05 0.00163971
v 0.0674947 2.05E-06 0
vn -0.03042 -0.09443 0.99507
vn -0.21602 -0.07433 0.97356
vn 0 0 1
vn -0.14227 0.03039 0.98936
vn -0.0438 0.0111 0.99898
vn -0.31164 0.18854 0.93131
vn 0.71593 0.14796 0.68231
vn 0.76295 -0.17335 0.62279
vn 0.32652 0.1525 0.9328
vn 0.18093 0.09825 0.97858
vn -0.2182 0.03639 -0.97523
vn 0.02206 -0.05086 -0.99846
vn -0.17741 -0.08983 -0.98003
vn 0.1456 -0.00013 -0.98934
vn 0.13441 -0.0001 -0.99093
vn 0.33277 -0.17034 -0.9275
vn -0.48934 -0.22322 -0.84304
vn -0.29503 -0.04118 -0.9546
vn -0.27456 -0.18281 -0.94403
vn -0.20779 0.02204 -0.97793
vn -0.96578 0.13204 -0.22325
vn -0.13575 0.98436 -0.11226
vn -0.62218 0.75687 -0.20008
vn -0.66489 0.71792 -0.2062
vn -0.77751 0.58907 -0.22016
vn -0.43486 -0.89956 -0.041
vn -0.73464 0.67056 -0.10325
vn -0.95678 0.26094 -0.12839
vn 0.05884 -0.99811 0.01766
vn -0.79696 0.59381 -0.11068
vn -0.97912 0.15608 -0.13028
vn 0.19593 -0.97965 0.04349
vn -0.95702 0.24244 -0.15919
vn -0.98674 0.03934 -0.15746
vn 0.35768 -0.92987 0.08609
vn -0.98416 -0.08963 -0.15296
vn -0.98768 0.0033 -0.15646
vn -0.91409 -0.38323 -0.13257
vn 0.44625 -0.88476 0.13442
vn -0.91365 0.01442 -0.40625
vn -0.84674 -0.47332 -0.24288
vn 0.57339 -0.6899 0.44188
vn -0.91287 -0.22626 -0.33982
vn -0.86571 -0.42496 -0.26451
vn 0.51019 -0.74528 0.42926
vn -0.87719 -0.22953 -0.42172
vn -0.68825 -0.5991 -0.40914
vn -0.0724 0.99594 -0.05342
vn 0.5556 -0.67961 0.479
vn 0.87892 -0.24046 -0.41193
vn 0.7341 -0.64152 -0.22258
vn -0.75993 -0.38906 0.52072
vn 0.76227 -0.59695 -0.2502
vn -0.13736 -0.93323 0.33199
vn -0.36354 -0.82839 0.42615
vn -0.59536 -0.73422 -0.3263
vn 0.8591 -0.48012 0.1773
vn -0.39087 -0.81871 0.42064
vn 0.92678 -0.11023 -0.35907
vn -0.42734 -0.80011 0.42096
vn 0.89699 -0.34539 -0.27589
vn 0.8792 0.20053 -0.43221
vn -0.41489 -0.87676 0.24324
vn 0.92505 -0.34615 -0.15637
vn 0.97182 0.14927 -0.18246
vn 0.86325 0.47377 -0.17417
vn -0.09444 -0.99415 0.05246
vn 0.98375 -0.01659 -0.17876
vn 0.81196 0.55906 -0.16784
vn -0.24784 -0.96554 0.07941
vn 0.98361 0.01338 -0.17979
vn 0.77236 0.61403 -0.16257
vn 0.00548 -0.99957 0.02875
vn 0.95826 0.22816 -0.1723
vn 0.74484 0.6512 -0.14544
vn -0.03672 -0.99886 0.03066
vn 0.8086 0.56771 -0.1545
vn 0.63379 0.7627 -0.12882
vn 0.02752 -0.99945 0.01856
vn 0.72306 0.67055 -0.166
vn 0.60889 0.77993 -0.14478
vn 0.54817 0.82569 -0.13321
vn 0.25373 0.96435 -0.07517
vn 0.97719 0.05676 -0.20464
vn 0.03769 0.99881 -0.03101
vn 0.58284 0.02214 0.81228
vn 0.21677 -0.0382 0.97548
vn 0.08686 0.04757 0.99508
vn -0.07485 -0.04425 0.99621
vn 0.25136 0.08554 0.96411
vn 0.16846 0.02678 0.98534
vn -0.20885 -0.06199 0.97598
vn -0.24125 0.18151 0.95334
vn -0.17176 0.02778 0.98475
vn -0.02229 0.05253 0.99837
vn 0.20443 -0.00022 0.97888
vn 0.17705 0.08965 0.98011
vn 0.20509 0.00445 0.97873
vn 0.17251 0.01376 0.98491
vn -0.05494 -0.11365 0.992
vn 0.05426 -0.27129 0.96097
vn -0.14674 0.00488 0.98916
vn -0.14517 0.00016 0.98941
vn -0.14707 0.04768 0.98798
vn -0.04172 0.01298 0.99905
vn -0.22982 0.11157 0.96682
vn -0.14034 0.01293 0.99002
vn -0.15937 0.09567 0.98257
vn -0.19785 0.0738 0.97745
vn -0.21576 0.1147 0.96969
vn -0.17548 -0.02923 0.98405
vn -0.13412 0.00014 0.99097
vn -0.31323 0.18021 0.93242
vn -0.40606 0.18699 0.89451
vn -0.63217 0.34719 0.6927
vn -0.34482 0.27475 0.89756
vn -0.40613 0.23203 0.88386
vn -0.22354 0.33295 0.91607
vn -0.33087 0.17198 0.92787
vn -0.3904 0.25452 0.88476
vn -0.22608 0.31555 0.92158
vn -0.8799 0.1021 0.46407
vn -0.49051 -0.04716 0.87016
vn -0.21041 0.15448 0.96533
vn 0.55592 0.04431 0.83005
vn 0.49318 0.43945 0.75077
vn -0.2485 -0.08092 0.96525
vn 0.48903 0.22395 0.84303
vn 0.39217 0.21659 0.89403
vn 0.27425 0.18361 0.94397
vn 0.33104 0.27553 0.90249
vn 0.4936 0.38866 0.77801
vn 0.23151 0.09243 0.96843
vn 0.36344 0.24249 0.8995
vn 0.27505 0.18155 0.94414
vn 0.17972 0.11123 0.97741
vn 0.16687 0.12535 0.97798
vn 0.06234 0.01536 0.99794
vn 0.16697 -0.00018 0.98596
vn 0.16641 -0.01447 0.98595
vn 0.20706 -0.02177 0.97809
vn 0.05164 0.03555 0.99803
vn 0.36418 0.10078 -0.92586
vn 0.19841 0.0946 0.97554
vn -0.16917 -0.02785 -0.98519
vn -0.08677 -0.04724 -0.99511
vn -0.25256 -0.08604 -0.96375
vn -0.84336 -0.01367 -0.53717
vn 0.00058 0.00054 -1
vn 0.17924 -0.02783 -0.98341
vn 0.24312 -0.18346 -0.95249
vn 0.20982 0.06086 -0.97584
vn 0 0 -1
vn 0.06652 0.04532 -0.99676
vn 0.2171 0.07322 -0.9734
vn -0.00013 -3E-05 -1
vn -0.17285 -0.0138 -0.98485
vn -0.2056 -0.00415 -0.97863
vn -0.00035 6E-05 -1
vn -8E-05 -7E-05 -1
vn -0.20498 0.00017 -0.97877
vn 0.00019 -0.00014 -1
vn 0.0542 0.11471 -0.99192
vn 0.15976 -0.0955 -0.98253
vn 0.14724 -0.00505 -0.98909
vn 0.14266 -0.03047 -0.9893
vn 0.14749 -0.04779 -0.98791
vn 0.22784 -0.11158 -0.96728
vn 0.04172 -0.01298 -0.99905
vn -0.05163 0.26669 -0.9624
vn 0.64576 -0.34187 -0.68274
vn 0.19849 -0.07374 -0.97732
vn 0.0438 -0.0111 -0.99898
vn 0.17623 0.02946 -0.98391
vn 0.21621 -0.11421 -0.96964
vn 0.40612 -0.18696 -0.89449
vn 0.31323 -0.18021 -0.93242
vn 0.16624 -0.04675 -0.98498
vn 0.91833 -0.08082 -0.38748
vn 0.40645 -0.23195 -0.88374
vn 0.31164 -0.18854 -0.93131
vn 0.39284 -0.25175 -0.88448
vn 0.34691 -0.27303 -0.89728
vn 0.22608 -0.31555 -0.92158
vn 0.49589 0.05963 -0.86634
vn 0.22196 -0.34342 -0.91258
vn -0.55592 -0.04431 -0.83005
vn 0.21041 -0.15448 -0.96533
vn -0.78372 -0.13548 -0.60616
vn -0.4997 -0.38786 -0.77451
vn -0.21873 -0.93611 0.27541
vn -0.49012 -0.22239 -0.84281
vn -0.33255 -0.2747 -0.90219
vn -0.27425 -0.18361 -0.94397
vn -0.39211 -0.2166 -0.89406
vn -0.32854 -0.15206 -0.93217
vn -0.1673 8E-05 -0.98591
vn -0.36554 -0.24074 -0.89912
vn -0.06234 -0.01536 -0.99794
vn -0.18126 -0.09831 -0.97851
vn -0.17992 -0.11116 -0.97738
vn -0.19885 -0.09449 -0.97546
vn -0.05164 -0.03555 -0.99803
vn -0.167 -0.12542 -0.97795
vn -0.96578 0.13204 -0.22325
vn 5E-05 -0.0001 -1
vn -0.23208 -0.09199 -0.96834
vn -0.16673 0.01447 -0.9859
vn -0.62218 0.75687 -0.20008
vn -0.66489 0.71792 -0.2062
vn -0.79128 0.59535 -0.13941
vn -0.43308 -0.90008 -0.04799
vn -0.73464 0.67056 -0.10325
vn -0.79696 0.59381 -0.11068
vn -0.9778 0.15675 -0.13903
vn 0.19192 -0.97949 0.06142
vn -0.98674 0.03934 -0.15746
vn -0.98416 -0.08963 -0.15296
vn -0.91209 -0.38174 -0.14955
vn 0.34763 -0.85382 0.38748
vn -0.84674 -0.47332 -0.24288
vn -0.91287 -0.22626 -0.33982
vn 0.50579 -0.7442 0.43629
vn -0.80732 -0.24008 -0.53907
vn -0.03945 0.99498 -0.09199
vn 0.5556 -0.67961 0.47899
vn 0.90784 -0.21523 -0.35986
vn 0.7341 -0.64152 -0.22258
vn -0.13736 -0.93323 0.33199
vn -0.85364 -0.52034 0.02345
vn 0.72711 -0.65166 -0.21598
vn -0.39313 -0.82155 0.41292
vn 0.92678 -0.11023 -0.35907
vn -0.42734 -0.80011 0.42096
vn 0.92181 0.25085 -0.29555
vn -0.45461 -0.88334 0.1142
vn 0.92505 -0.34615 -0.15637
vn 0.86325 0.47377 -0.17417
vn 0.98375 -0.01659 -0.17876
vn -0.24784 -0.96554 0.07941
vn 0.77369 0.61405 -0.15604
vn 0.00462 -0.99971 0.02348
vn 0.95826 0.22816 -0.1723
vn 0.74484 0.6512 -0.14544
vn -0.03672 -0.99886 0.03066
vn 0.8086 0.56771 -0.15451
vn 0.63216 0.76242 -0.13816
vn 0.02734 -0.99947 0.0175
vn 0.60889 0.77993 -0.14478
vn 0.54817 0.82569 -0.13321
vn 0.97719 0.05676 -0.20464
vn -0.28696 0.95651 -0.0523
vt 0.50127 0.68894
vt 0.50087 0.70196
vt 0.49954 0.70202
vt 0.49946 0.6208
vt 0.44727 0.6602
vt 0.40458 0.6072
vt 0.67738 0.47898
vt 0.64404 0.51298
vt 0.67279 0.44331
vt 0.33468 0.40007
vt 0.49932 0.45838
vt 0.34792 0.47614
vt 0.35163 0.2545
vt 0.33506 0.32151
vt 0.3279 0.28685
vt 0.42 0.13443
vt 0.38869 0.18379
vt 0.38543 0.14041
vt 0.49904 0.13352
vt 0.49897 0.05231
vt 0.51075 0.07108
vt 0.58858 0.10476
vt 0.53972 0.06532
vt 0.55379 0.05415
vt 0.49911 0.21474
vt 0.61341 0.14335
vt 0.63412 0.19517
vt 0.67351 0.19882
vt 0.67086 0.21832
vt 0.54153 0.66067
vt 0.62722 0.57361
vt 0.46851 0.6835
vt 0.49077 0.68731
vt 0.49939 0.53959
vt 0.49925 0.37716
vt 0.5856 0.07064
vt 0.64372 0.15658
vt 0.49918 0.29595
vt 0.67356 0.31088
vt 0.65597 0.25122
vt 0.49221 0.7016
vt 0.33054 0.48645
vt 0.31705 0.43464
vt 0.30896 0.39821
vt 0.32037 0.3765
vt 0.31246 0.31596
vt 0.3264 0.24248
vt 0.35427 0.21245
vt 0.35389 0.19026
vt 0.36142 0.16623
vt 0.39736 0.10855
vt 0.42391 0.09705
vt 0.43094 0.07406
vt 0.45723 0.10129
vt 0.45827 0.07406
vt 0.46866 0.05215
vt 0.48868 0.07175
vt 0.56819 0.04068
vt 0.52648 0.04467
vt 0.61241 0.08648
vt 0.63625 0.12588
vt 0.66656 0.17404
vt 0.69305 0.24676
vt 0.69337 0.27556
vt 0.70296 0.30161
vt 0.70265 0.32998
vt 0.67765 0.36857
vt 0.70826 0.36875
vt 0.70166 0.40279
vt 0.69845 0.44215
vt 0.67233 0.51393
vt 0.51241 0.68527
usemtl mat0
f 1/1/1 2/2/1 3/3/1
f 4/4/2 5/5/2 6/6/2
f 7/7/3 8/8/3 9/9/3
f 10/10/4 11/11/4 12/12/4
f 13/13/5 14/14/5 15/15/5
f 16/16/6 17/17/6 18/18/6
f 19/19/7 20/20/7 21/21/7
f 22/22/8 23/23/8 24/24/8
f 25/25/9 26/26/9 27/27/9
f 27/27/10 28/28/10 29/29/10
f 30/4/11 31/30/11 32/31/11
f 30/4/12 33/32/12 34/33/12
f 35/11/13 36/8/13 37/9/13
f 38/34/14 35/11/14 39/12/14
f 35/11/15 40/35/15 41/14/15
f 42/17/16 43/25/16 44/16/16
f 45/36/17 46/24/17 47/22/17
f 46/24/18 48/21/18 49/19/18
f 50/26/19 51/27/19 52/37/19
f 53/38/20 54/39/20 55/40/20
f 56/33/21 57/41/21 58/41/21
f 56/33/22 34/33/22 33/32/22
f 5/5/23 59/32/23 33/32/23
f 6/6/24 5/5/24 60/5/24
f 6/6/25 61/6/25 62/42/25
f 12/12/26 63/42/26 62/42/26
f 12/12/27 39/12/27 64/43/27
f 65/43/28 64/43/28 66/44/28
f 10/10/29 67/44/29 66/44/29
f 10/10/30 68/10/30 69/45/30
f 70/45/31 69/45/31 71/46/31
f 14/14/32 72/46/32 71/46/32
f 14/14/33 41/14/33 73/15/33
f 74/47/34 15/15/34 73/15/34
f 13/13/35 74/47/35 75/47/35
f 13/13/36 76/13/36 77/48/36
f 78/48/37 77/48/37 79/49/37
f 80/49/38 79/49/38 81/50/38
f 17/17/39 82/50/39 81/50/39
f 18/18/40 17/17/40 42/17/40
f 83/51/41 18/18/41 84/18/41
f 16/16/42 83/51/42 85/51/42
f 86/52/43 16/16/43 44/16/43
f 87/53/44 86/52/44 88/52/44
f 89/54/45 87/53/45 90/53/45
f 89/54/46 91/54/46 92/55/46
f 93/56/47 94/55/47 92/55/47
f 3/3/48 95/3/48 58/41/48
f 96/57/49 93/56/49 97/56/49
f 98/36/50 45/36/50 47/22/50
f 99/58/51 100/58/51 45/36/51
f 21/21/52 48/21/52 101/59/52
f 102/59/53 101/59/53 103/23/53
f 24/24/54 23/23/54 103/23/54
f 99/58/55 24/24/55 46/24/55
f 96/57/56 104/57/56 105/20/56
f 21/21/57 20/20/57 105/20/57
f 106/60/58 22/22/58 47/22/58
f 106/60/59 107/60/59 50/26/59
f 26/26/60 50/26/60 108/61/60
f 109/61/61 108/61/61 52/37/61
f 110/37/62 52/37/62 51/27/62
f 27/27/63 51/27/63 111/62/63
f 28/28/64 112/62/64 111/62/64
f 29/29/65 28/28/65 113/28/65
f 114/40/66 29/29/66 115/29/66
f 114/40/67 55/40/67 116/63/67
f 117/63/68 116/63/68 118/64/68
f 119/39/69 120/64/69 118/64/69
f 119/39/70 54/39/70 121/65/70
f 122/65/71 121/65/71 123/66/71
f 124/67/72 125/66/72 123/66/72
f 124/67/73 126/67/73 127/68/73
f 128/69/74 129/68/74 127/68/74
f 9/9/75 128/69/75 130/69/75
f 9/9/76 37/9/76 131/70/76
f 7/7/77 132/70/77 131/70/77
f 8/8/78 7/7/78 133/7/78
f 8/8/79 36/8/79 134/71/79
f 135/31/80 136/71/80 134/71/80
f 135/31/81 32/31/81 31/30/81
f 137/72/82 138/30/82 31/30/82
f 1/1/83 137/72/83 139/72/83
f 1/1/84 140/1/84 141/2/84
f 3/3/85 2/2/85 141/2/85
f 4/4/86 1/1/86 3/3/86
f 136/71/3 135/31/3 8/8/3
f 138/30/87 4/4/87 135/31/87
f 1/1/88 4/4/88 137/72/88
f 3/3/89 57/41/89 56/33/89
f 135/31/90 4/4/90 8/8/90
f 4/4/91 138/30/91 137/72/91
f 5/5/92 4/4/92 59/32/92
f 63/42/93 4/4/93 6/6/93
f 4/4/94 3/3/94 56/33/94
f 4/4/95 56/33/95 59/32/95
f 124/67/3 129/68/3 128/69/3
f 11/11/96 8/8/96 142/34/96
f 8/8/97 11/11/97 9/9/97
f 9/9/3 124/67/3 128/69/3
f 9/9/3 132/70/3 7/7/3
f 8/8/98 4/4/98 142/34/98
f 10/10/3 12/12/3 65/43/3
f 9/9/99 11/11/99 124/67/99
f 63/42/100 12/12/100 4/4/100
f 67/44/3 10/10/3 65/43/3
f 10/10/3 70/45/3 72/46/3
f 72/46/101 14/14/101 11/11/101
f 12/12/102 142/34/102 4/4/102
f 11/11/103 142/34/103 12/12/103
f 10/10/104 72/46/104 11/11/104
f 74/47/105 13/13/105 15/15/105
f 78/48/106 80/49/106 82/50/106
f 143/38/107 82/50/107 17/17/107
f 143/38/108 144/35/108 14/14/108
f 143/38/109 13/13/109 78/48/109
f 82/50/110 143/38/110 78/48/110
f 13/13/111 143/38/111 14/14/111
f 14/14/112 144/35/112 11/11/112
f 83/51/113 16/16/113 18/18/113
f 87/53/114 89/54/114 86/52/114
f 89/54/115 19/19/115 25/25/115
f 25/25/116 143/38/116 17/17/116
f 89/54/117 16/16/117 86/52/117
f 94/55/118 96/57/118 89/54/118
f 17/17/119 16/16/119 25/25/119
f 16/16/120 89/54/120 25/25/120
f 94/55/121 93/56/121 96/57/121
f 96/57/122 20/20/122 19/19/122
f 96/57/123 19/19/123 89/54/123
f 21/21/124 102/59/124 23/23/124
f 24/24/125 99/58/125 98/36/125
f 19/19/126 23/23/126 22/22/126
f 19/19/127 21/21/127 23/23/127
f 98/36/128 22/22/128 24/24/128
f 22/22/129 106/60/129 26/26/129
f 26/26/130 109/61/130 110/37/130
f 143/38/131 25/25/131 27/27/131
f 25/25/132 19/19/132 22/22/132
f 27/27/133 114/40/133 143/38/133
f 22/22/134 26/26/134 25/25/134
f 26/26/135 110/37/135 27/27/135
f 27/27/136 112/62/136 28/28/136
f 114/40/137 27/27/137 29/29/137
f 114/40/138 117/63/138 120/64/138
f 119/39/3 122/65/3 125/66/3
f 11/11/139 144/35/139 124/67/139
f 144/35/140 119/39/140 124/67/140
f 143/38/141 114/40/141 119/39/141
f 114/40/142 120/64/142 119/39/142
f 95/3/143 141/2/143 140/1/143
f 144/35/144 143/38/144 119/39/144
f 119/39/3 125/66/3 124/67/3
f 31/30/145 30/4/145 139/72/145
f 30/4/146 140/1/146 139/72/146
f 30/4/147 32/31/147 36/8/147
f 30/4/148 95/3/148 140/1/148
f 32/31/149 134/71/149 36/8/149
f 30/4/150 34/33/150 95/3/150
f 30/4/151 62/42/151 61/6/151
f 33/32/152 30/4/152 60/5/152
f 131/70/153 37/9/153 133/7/153
f 34/33/154 58/41/154 95/3/154
f 30/4/155 61/6/155 60/5/155
f 127/68/156 126/67/156 130/69/156
f 35/11/157 37/9/157 126/67/157
f 30/4/158 36/8/158 38/34/158
f 37/9/159 36/8/159 133/7/159
f 126/67/160 37/9/160 130/69/160
f 36/8/161 35/11/161 38/34/161
f 69/45/162 68/10/162 71/46/162
f 68/10/153 66/44/153 64/43/153
f 39/12/163 62/42/163 30/4/163
f 41/14/164 40/35/164 53/38/164
f 68/10/153 64/43/153 39/12/153
f 39/12/165 30/4/165 38/34/165
f 35/11/166 68/10/166 39/12/166
f 68/10/167 35/11/167 71/46/167
f 81/50/168 79/49/168 77/48/168
f 76/13/169 75/47/169 73/15/169
f 41/14/170 71/46/170 35/11/170
f 43/25/171 49/19/171 91/54/171
f 76/13/172 53/38/172 77/48/172
f 76/13/173 73/15/173 41/14/173
f 76/13/174 41/14/174 53/38/174
f 53/38/175 81/50/175 77/48/175
f 91/54/176 90/53/176 88/52/176
f 44/16/177 85/51/177 84/18/177
f 42/17/178 81/50/178 53/38/178
f 49/19/179 105/20/179 104/57/179
f 91/54/180 88/52/180 44/16/180
f 44/16/181 84/18/181 42/17/181
f 43/25/182 91/54/182 44/16/182
f 42/17/183 53/38/183 43/25/183
f 104/57/184 97/56/184 92/55/184
f 49/19/185 104/57/185 91/54/185
f 104/57/186 92/55/186 91/54/186
f 45/36/187 100/58/187 46/24/187
f 103/23/188 101/59/188 48/21/188
f 48/21/189 105/20/189 49/19/189
f 47/22/190 49/19/190 43/25/190
f 46/24/191 103/23/191 48/21/191
f 46/24/192 49/19/192 47/22/192
f 43/25/193 53/38/193 51/27/193
f 108/61/194 50/26/194 52/37/194
f 50/26/195 107/60/195 47/22/195
f 51/27/196 50/26/196 43/25/196
f 40/35/197 35/11/197 126/67/197
f 50/26/198 47/22/198 43/25/198
f 121/65/153 54/39/153 123/66/153
f 116/63/199 55/40/199 118/64/199
f 113/28/200 51/27/200 115/29/200
f 113/28/201 111/62/201 51/27/201
f 40/35/202 54/39/202 53/38/202
f 55/40/203 54/39/203 118/64/203
f 51/27/204 55/40/204 115/29/204
f 34/33/205 56/33/205 58/41/205
f 54/39/206 126/67/206 123/66/206
f 51/27/207 53/38/207 55/40/207
f 54/39/208 40/35/208 126/67/208
f 59/32/22 56/33/22 33/32/22
f 60/5/209 5/5/209 33/32/209
f 61/6/210 6/6/210 60/5/210
f 63/42/211 6/6/211 62/42/211
f 39/12/212 12/12/212 62/42/212
f 65/43/213 12/12/213 64/43/213
f 67/44/28 65/43/28 66/44/28
f 68/10/29 10/10/29 66/44/29
f 70/45/214 10/10/214 69/45/214
f 72/46/215 70/45/215 71/46/215
f 41/14/216 14/14/216 71/46/216
f 15/15/33 14/14/33 73/15/33
f 75/47/217 74/47/217 73/15/217
f 76/13/35 13/13/35 75/47/35
f 78/48/218 13/13/218 77/48/218
f 80/49/37 78/48/37 79/49/37
f 82/50/219 80/49/219 81/50/219
f 42/17/220 17/17/220 81/50/220
f 84/18/40 18/18/40 42/17/40
f 85/51/221 83/51/221 84/18/221
f 44/16/42 16/16/42 85/51/42
f 88/52/222 86/52/222 44/16/222
f 90/53/44 87/53/44 88/52/44
f 91/54/223 89/54/223 90/53/223
f 94/55/224 89/54/224 92/55/224
f 97/56/47 93/56/47 92/55/47
f 57/41/225 3/3/225 58/41/225
f 104/57/226 96/57/226 97/56/226
f 22/22/227 98/36/227 47/22/227
f 98/36/228 99/58/228 45/36/228
f 102/59/52 21/21/52 101/59/52
f 23/23/53 102/59/53 103/23/53
f 46/24/229 24/24/229 103/23/229
f 100/58/55 99/58/55 46/24/55
f 20/20/230 96/57/230 105/20/230
f 48/21/231 21/21/231 105/20/231
f 107/60/232 106/60/232 47/22/232
f 26/26/233 106/60/233 50/26/233
f 109/61/234 26/26/234 108/61/234
f 110/37/61 109/61/61 52/37/61
f 27/27/235 110/37/235 51/27/235
f 112/62/236 27/27/236 111/62/236
f 113/28/237 28/28/237 111/62/237
f 115/29/65 29/29/65 113/28/65
f 55/40/238 114/40/238 115/29/238
f 117/63/67 114/40/67 116/63/67
f 120/64/239 117/63/239 118/64/239
f 54/39/69 119/39/69 118/64/69
f 122/65/240 119/39/240 121/65/240
f 125/66/71 122/65/71 123/66/71
f 126/67/241 124/67/241 123/66/241
f 129/68/242 124/67/242 127/68/242
f 130/69/243 128/69/243 127/68/243
f 37/9/244 9/9/244 130/69/244
f 132/70/245 9/9/245 131/70/245
f 133/7/246 7/7/246 131/70/246
f 36/8/247 8/8/247 133/7/247
f 136/71/248 8/8/248 134/71/248
f 32/31/80 135/31/80 134/71/80
f 138/30/249 135/31/249 31/30/249
f 139/72/250 137/72/250 31/30/250
f 140/1/83 1/1/83 139/72/83
f 2/2/251 1/1/251 141/2/251
f 95/3/252 3/3/252 141/2/252
# Vertices: 144, normals: 252, texture coordinates: 72, faces: 284

