# File generated by ImageToStl.com - Free Image and 3D model conversion tools

mtllib leaf4_d1.mtl

o obj1
v 0.0027283 0.0005178 0.00010309
v 2.475E-05 0.00041383 0.00092682
v 1.223E-05 7.433E-05 0.00092682
v 0.01688284 5.626E-05 0.00092682
v 0.00869824 -0.01324896 -0.00283833
v 0.01970879 -0.0241283 -0.00389832
v 0.04634402 0.0454056 -0.00421265
v 0.0392822 0.03690745 -0.00421265
v 0.05375465 0.04423558 -0.00421265
v 0.0627364 -0.04194601 -0.00421265
v 0.05062407 2.012E-05 0.00092682
v 0.04693442 -0.03857049 -0.00421265
v 0.09297607 -0.03762604 -0.0049442
v 0.07905623 -0.04185 -0.00421265
v 0.08625615 -0.04367397 -0.00427604
v 0.11791949 -0.02019788 -0.01162484
v 0.10766389 -0.02817978 -0.00814504
v 0.11667674 -0.02900983 -0.00957058
v 0.11810655 -5.217E-05 -0.01143202
v 0.13497715 -7.024E-05 -0.02065662
v 0.13107925 0.00293288 -0.01902687
v 0.12408201 0.02277084 -0.01236576
v 0.12787943 0.02884671 -0.011054
v 0.11606523 0.02909987 -0.00941721
v 0.10123593 -3.409E-05 -0.00476251
v 0.10530158 0.03437892 -0.0067095
v 0.1045421 0.04442074 -0.00524886
v 0.10049162 0.04374566 -0.00501235
v 0.01696963 7.22E-05 -0.00032005
v 0.00870121 0.01053713 -0.00368132
v 0.02678698 0.03238072 -0.00543518
v 0.00399636 -0.00755103 -0.00269756
v 0.00320424 -0.00187752 -0.00141536
v 0.05060057 2.507E-05 -0.00032291
v 0.03933923 0.03671848 -0.00544693
v 0.05377392 0.04409153 -0.00545414
v 0.03376815 4.002E-05 -0.00032306
v 0.04694435 -0.03842272 -0.00545384
v 0.08418163 -9.24E-06 -0.00188446
v 0.09286987 -0.03752194 -0.00618532
v 0.07895003 -0.0417459 -0.00545376
v 0.10724057 -0.02821538 -0.00932062
v 0.10085148 -3.528E-05 -0.00595189
v 0.11749616 -0.02023347 -0.01280042
v 0.13415864 0.01410378 -0.01725626
v 0.13183794 0.01051727 -0.01829651
v 0.13073374 0.02221175 -0.01456899
v 0.1176881 -1.856E-05 -0.01260939
v 0.12370076 0.02286846 -0.01355217
v 0.11572041 0.02913307 -0.01061823
v 0.10509848 0.03434454 -0.00794237
v 0.11297335 0.03685927 -0.00850705
v 0.0935739 0.03985813 -0.00605969
v 0.00306737 -0.00216066 -0.0002056
v 9.955E-05 -0.00179179 0.00035035
v 0.00023642 -0.00150866 -0.0008594
v 0.00385949 -0.00783417 -0.00148781
v 0.00883512 -0.01296582 -0.00404808
v 0.01984566 -0.02384517 -0.00510808
v 0.04483573 -0.04281755 -0.00544834
v 0.0447927 -0.04300095 -0.00421265
v 0.05556498 -0.04629136 -0.00545384
v 0.05555508 -0.04643916 -0.00421265
v 0.06313286 -0.04835533 -0.00545384
v 0.06312293 -0.04850313 -0.00421265
v 0.06274633 -0.04179823 -0.00545384
v 0.06764225 -0.04544618 -0.00545384
v 0.06763235 -0.04559398 -0.00421265
v 0.08018323 -0.04747517 -0.00545509
v 0.08020821 -0.04760995 -0.00421265
v 0.08614993 -0.04356987 -0.00551714
v 0.09536583 -0.04395386 -0.00590234
v 0.09547205 -0.04405796 -0.00466123
v 0.10171197 -0.03695403 -0.0059036
v 0.10631992 -0.03705003 -0.00644035
v 0.10160577 -0.03684993 -0.00714471
v 0.11131187 -0.03513005 -0.0074204
v 0.10621372 -0.03694593 -0.00768146
v 0.11114412 -0.03505213 -0.00865663
v 0.11625342 -0.0290454 -0.01074616
v 0.12287067 -0.0260061 -0.01257834
v 0.12329399 -0.02597052 -0.01140277
v 0.12525936 -0.0192382 -0.01488403
v 0.12568269 -0.01920261 -0.01370846
v 0.13003669 -0.01744669 -0.01602079
v 0.12480206 -0.0107102 -0.0155159
v 0.13046001 -0.0174111 -0.01484521
v 0.12433883 -0.010748 -0.01667626
v 0.12994643 -0.01048467 -0.01809457
v 0.13046003 -0.01044412 -0.01695569
v 0.13449646 -0.00783638 -0.01925205
v 0.00013358 9.535E-05 -0.00031707
v 0.1309386 -0.00269302 -0.0190613
v 0.13501005 -0.00779582 -0.01811318
v 0.13117054 0.02201136 -0.01341509
v 0.13739431 0.01757431 -0.01488033
v 0.13695751 0.0177747 -0.01603423
v 0.13064245 0.00313327 -0.02018077
v 0.1361277 0.00714173 -0.01944118
v 0.13227474 0.01031688 -0.01714261
v 0.1365645 0.00694134 -0.01828728
v 0.13459544 0.01390339 -0.01610235
v 0.130425 -0.00273357 -0.02020017
v 0.13450172 1.701E-05 -0.02180934
v 0.12753461 0.02887991 -0.01225502
v 0.11934905 0.03495578 -0.00967566
v 0.11331818 0.0368261 -0.00730603
v 0.11969388 0.0349226 -0.00847465
v 0.10960707 0.0425585 -0.00715216
v 0.1096896 0.04264867 -0.00590818
v 0.1044596 0.04433057 -0.00649284
v 0.09365642 0.03994833 -0.00481572
v 0.10040912 0.04365549 -0.00625632
v 0.09450214 0.04930929 -0.00558134
v 0.08860017 0.04948271 -0.00421999
v 0.09458467 0.04939946 -0.00433737
v 0.0812647 0.04443203 -0.00421265
v 0.08851764 0.04939251 -0.00546396
v 0.08118217 0.04434185 -0.00545662
v 0.08310622 0.05183768 -0.00545662
v 0.07729632 0.05184767 -0.00421265
v 0.08318874 0.05192785 -0.00421265
v 0.06927942 0.04547422 -0.00421265
v 0.07721379 0.0517575 -0.00545662
v 0.06924885 0.04535642 -0.0054567
v 0.06926259 0.05313464 -0.00545414
v 0.06217239 0.05159511 -0.00421265
v 0.06924332 0.05327867 -0.00421265
v 0.06219167 0.05145109 -0.00545414
v 0.05401442 0.05063333 -0.00545414
v 0.05399514 0.05077738 -0.00421265
v 0.0463633 0.04526155 -0.00545414
v 0.03918547 0.0438788 -0.00543518
v 0.02668645 0.03262107 -0.00421265
v 0.03908495 0.04411915 -0.00421265
v 0.00860069 0.01077746 -0.00245879
v 0.00359215 0.00311607 -0.00163906
v 0.00349163 0.0033564 -0.00041653
v 0.00282882 0.00027747 -0.00111945
v 0.00012527 0.00017349 -0.00029571
v 0.03375345 3.819E-05 0.00092682
v 0.08436533 -1.603E-05 -0.00064808
v 0.0674947 2.05E-06 0.00091128
v 0.06740005 8.99E-06 -0.00033509
vn -0.01077 -0.29182 0.95641
vn -0.20689 0.11085 0.97206
vn 0 0 1
vn -0.12937 0.02763 0.99121
vn 0.0783 -0.02861 0.99652
vn 0.20074 -0.17106 0.96459
vn 0.14518 -0.47479 0.86804
vn -0.28375 -0.12562 0.95063
vn 0.02454 -0.25519 0.96658
vn -0.1375 -0.08056 0.98722
vn -0.19738 -0.14436 -0.96964
vn 0.22624 -0.04538 -0.97302
vn -0.11976 -0.06068 -0.99095
vn 0.13227 -0.00013 -0.99121
vn 0.095 0.08097 -0.99218
vn 0.03398 0.34474 -0.93808
vn 0.30032 0.03689 -0.95313
vn 0.0725 0.41795 -0.90557
vn 0.2151 0.13802 -0.96679
vn -0.05837 0.18809 -0.98042
vn -0.95618 0.16425 -0.24237
vn -0.10668 0.98489 -0.1364
vn -0.61611 0.7535 -0.22945
vn -0.67944 0.69421 -0.23756
vn -0.77021 0.5881 -0.2468
vn -0.43499 -0.89982 -0.03322
vn -0.73539 0.67124 -0.09293
vn -0.95823 0.26134 -0.11618
vn 0.05884 -0.99816 0.01498
vn -0.79788 0.5945 -0.09975
vn -0.98027 0.15861 -0.11799
vn 0.19612 -0.98058 0.00155
vn -0.9675 0.24563 -0.06014
vn -0.99581 0.04482 -0.07969
vn 0.35943 -0.93185 -0.04959
vn -0.99379 -0.06666 -0.08906
vn -0.99626 0.03019 -0.08098
vn -0.93483 -0.33847 -0.10738
vn 0.4553 -0.88563 -0.09146
vn -0.99483 0.08217 0.05971
vn -0.91441 -0.38888 -0.11235
vn 0.64947 -0.70894 -0.27495
vn -0.99226 -0.12335 -0.01438
vn -0.93937 -0.3307 -0.09064
vn 0.60112 -0.74592 -0.28681
vn -0.99867 -0.05007 0.01255
vn -0.86953 -0.46108 -0.17697
vn -0.01649 0.99511 -0.09736
vn 0.53934 -0.76028 -0.36206
vn 0.98451 -0.12385 0.12409
vn 0.8201 -0.56761 -0.07244
vn -0.73387 -0.58324 -0.34823
vn 0.79419 -0.60103 -0.08959
vn -0.42044 -0.82198 -0.38416
vn -0.47635 -0.79173 -0.38243
vn -0.84701 -0.49523 -0.19317
vn 0.81361 -0.55661 -0.16799
vn -0.46432 -0.83136 -0.30537
vn 0.99949 -0.02428 0.02065
vn -0.48157 -0.83876 -0.25412
vn 0.95948 -0.27675 -0.05295
vn 0.95309 0.28294 0.10757
vn -0.46731 -0.87433 -0.131
vn 0.94522 -0.31396 -0.08935
vn 0.98403 0.16752 -0.06022
vn 0.87336 0.48609 -0.03107
vn -0.09461 -0.99376 -0.05906
vn 0.99725 -0.01244 -0.07312
vn 0.82344 0.56698 -0.02209
vn -0.24836 -0.96757 -0.04618
vn 0.99736 0.01357 -0.0714
vn 0.78268 0.62223 -0.01547
vn -0.00176 -0.9997 -0.02439
vn 0.96627 0.23007 -0.11568
vn 0.74929 0.65509 -0.0971
vn -0.03673 -0.99913 0.01977
vn 0.81405 0.57154 -0.10332
vn 0.63676 0.76627 -0.08577
vn 0.02138 -0.99885 0.04288
vn 0.71898 0.66677 -0.19617
vn 0.61799 0.76427 -0.18433
vn 0.52609 0.83287 -0.1719
vn 0.23612 0.96357 -0.12564
vn 0.9749 0.09835 -0.19974
vn 0.03673 0.99535 -0.08906
vn 0.87921 -0.00094 0.47644
vn 0.19608 0.14275 0.97014
vn 0.19301 0.05073 0.97988
vn -0.28609 -0.14196 0.94763
vn 0.17288 0.05883 0.98318
vn 0.28225 0.02664 0.95897
vn -0.25997 0.02148 0.96538
vn -0.20993 0.14583 0.96678
vn -0.4525 0.00048 0.89176
vn -0.226 0.0435 0.97315
vn 0.13804 -0.00015 0.99043
vn 0.11947 0.0605 0.99099
vn 0.13804 -0.00015 0.99043
vn 0.1161 0.00926 0.99319
vn -0.05064 -0.10476 0.99321
vn 0.04958 -0.24791 0.96751
vn -0.132 0.00014 0.99125
vn -0.132 0.00014 0.99125
vn -0.13377 0.04336 0.99006
vn 0.06103 -0.04422 0.99716
vn 0.19188 -0.11749 0.97436
vn 0.42724 -0.70042 0.57173
vn -0.09607 -0.09151 0.99116
vn -0.08663 -0.11534 0.98954
vn -0.0615 -0.16716 0.98401
vn -0.09481 -0.08092 0.9922
vn -0.12131 -0.00078 0.99261
vn 0.20005 -0.17504 0.96402
vn 0.22045 -0.14678 0.96429
vn -0.01231 -0.36761 0.9299
vn -0.06254 -0.23641 0.96964
vn 0.22512 -0.22554 0.94787
vn -0.01295 -0.50557 0.86269
vn -0.034 -0.34476 0.93808
vn 0.24204 -0.22857 0.94296
vn 0.25541 -0.09608 0.96205
vn -0.20056 -0.46984 0.85967
vn -0.00956 -0.50957 0.86038
vn -0.25545 -0.05654 0.96517
vn -0.31505 0.00117 0.94907
vn -0.07238 -0.41797 0.90557
vn -0.28921 -0.53233 0.7956
vn -0.30032 -0.03689 0.95313
vn -0.29249 -0.10929 0.95
vn -0.22535 -0.11015 0.96803
vn 0.02696 -0.23688 0.97117
vn -0.04352 -0.31442 0.94829
vn -0.0385 -0.36734 0.92929
vn 0.05866 -0.18751 0.98051
vn -0.21524 -0.13765 0.96681
vn -0.13763 -0.07908 0.98732
vn -0.12777 -0.09937 0.98681
vn -0.05239 -0.01885 0.99845
vn 0.11193 -0.00104 0.99372
vn 0.11159 -0.0097 0.99371
vn 0.08517 -0.07916 0.99322
vn -0.04531 -0.0322 0.99845
vn 0.22322 0.29195 -0.93002
vn 0.08596 -0.09179 0.99206
vn -0.28424 -0.02981 -0.95829
vn -0.19347 -0.05257 -0.9797
vn -0.17359 -0.05907 -0.98305
vn -0.97418 0.00138 -0.22575
vn 0.00161 0.00149 -1
vn 0.48702 -0.00052 -0.87339
vn 0.21114 -0.14714 -0.96632
vn 0.26142 -0.02322 -0.96494
vn 0 0 -1
vn 0.3093 0.13782 -0.94093
vn 0.20799 -0.11196 -0.9717
vn 0.00033 8E-05 -1
vn -0.11632 -0.00934 -0.99317
vn -0.13829 0.00044 -0.99039
vn -0.00075 0.00012 -1
vn -0.13834 0.00011 -0.99039
vn -0.00017 0.00013 -1
vn 0.00021 0.00018 -1
vn 0.04973 0.10623 -0.9931
vn 0.01296 0.50635 -0.86223
vn 0.13225 -8E-05 -0.99122
vn 0.12964 -0.02769 -0.99117
vn 0.13411 -0.04359 -0.99001
vn -0.19549 0.11749 -0.97364
vn -0.06103 0.04422 -0.99716
vn -0.05474 0.25536 -0.96529
vn 0.08674 0.11534 -0.98953
vn -0.0783 0.02861 -0.99652
vn 0.09622 0.0914 -0.99115
vn 0.12151 0.0006 -0.99259
vn 0.06127 0.16752 -0.98396
vn -0.21954 0.14716 -0.96444
vn -0.20005 0.17504 -0.96402
vn -0.46566 0.73063 -0.49933
vn 0.01228 0.3677 -0.92986
vn -0.22458 0.22564 -0.94797
vn -0.20074 0.17105 -0.96459
vn 0.19498 0.47112 -0.86025
vn 0.06229 0.23649 -0.96963
vn -0.25541 0.09608 -0.96205
vn 0.00953 0.51042 -0.85987
vn -0.24221 0.2272 -0.94325
vn 0.31505 -0.00117 -0.94907
vn 0.25545 0.05654 -0.96517
vn -0.13443 0.47544 -0.86942
vn 0.03867 0.36747 -0.92923
vn 0.28919 0.53451 -0.79415
vn 0.2924 0.11004 -0.94994
vn -0.02695 0.237 -0.97114
vn 0.22535 0.11015 -0.96803
vn 0.28511 0.12554 -0.95024
vn -0.0244 0.25545 -0.96651
vn 0.04355 0.31445 -0.94828
vn 0.04531 0.0322 -0.99845
vn 0 -1E-05 -1
vn 0.05239 0.01885 -0.99845
vn 0.13813 0.08066 -0.98712
vn 0.13826 0.07885 -0.98725
vn -0.08535 0.07922 -0.9932
vn -0.0861 0.09169 -0.99206
vn 0.12844 0.09974 -0.98669
vn -0.95618 0.16425 -0.24237
vn -0.11184 0.0095 -0.99368
vn -0.11219 0.00083 -0.99369
vn -0.10668 0.98489 -0.1364
vn -0.61611 0.7535 -0.22945
vn -0.67944 0.69421 -0.23756
vn -0.7906 0.59656 -0.1381
vn -0.4322 -0.90069 -0.04426
vn -0.73539 0.67124 -0.09293
vn -0.9821 0.15744 -0.10337
vn 0.20998 -0.97548 -0.06586
vn -0.9675 0.24563 -0.06014
vn -0.99581 0.04482 -0.07969
vn -0.99379 -0.06666 -0.08906
vn -0.99626 0.03019 -0.08098
vn -0.93512 -0.33845 -0.10488
vn 0.44734 -0.83706 -0.31497
vn -0.91441 -0.38888 -0.11235
vn -0.99226 -0.12335 -0.01438
vn 0.59709 -0.73811 -0.31412
vn -0.99865 -0.05025 0.0129
vn -0.86953 -0.46108 -0.17697
vn -0.02379 0.99274 -0.11789
vn 0.53934 -0.76028 -0.36206
vn 0.99375 -0.09997 0.04964
vn 0.8201 -0.56761 -0.07244
vn -0.73387 -0.58324 -0.34823
vn 0.79419 -0.60103 -0.08959
vn -0.42044 -0.82198 -0.38416
vn -0.47635 -0.79173 -0.38243
vn -0.85402 -0.45497 -0.25229
vn 0.79312 -0.60234 -0.09027
vn -0.47221 -0.84371 -0.25529
vn -0.48157 -0.83876 -0.25412
vn 0.95283 0.3026 0.02329
vn -0.46669 -0.88407 -0.02481
vn 0.98403 0.16752 -0.06022
vn 0.77815 0.62536 -0.05832
vn 0.00462 -0.99988 0.01498
vn 0.62949 0.76576 -0.13177
vn 0.02726 -0.99669 0.07659
vn 0.61799 0.76427 -0.18433
vn 0.52609 0.83287 -0.1719
vn 0.23612 0.96357 -0.12564
vn 0.9749 0.09835 -0.19974
vn -0.07858 0.99207 -0.09811
vt 0.50127 0.68894
vt 0.50087 0.70196
vt 0.49954 0.70202
vt 0.49946 0.6208
vt 0.44727 0.6602
vt 0.40458 0.6072
vt 0.67738 0.47898
vt 0.64404 0.51298
vt 0.67279 0.44331
vt 0.33468 0.40007
vt 0.49932 0.45838
vt 0.34792 0.47614
vt 0.35163 0.2545
vt 0.33506 0.32151
vt 0.3279 0.28685
vt 0.42 0.13443
vt 0.38869 0.18379
vt 0.38543 0.14041
vt 0.49904 0.13352
vt 0.49897 0.05231
vt 0.51075 0.07108
vt 0.58858 0.10476
vt 0.61241 0.08648
vt 0.61341 0.14335
vt 0.49911 0.21474
vt 0.63412 0.19517
vt 0.67351 0.19882
vt 0.67086 0.21832
vt 0.54153 0.66067
vt 0.62722 0.57361
vt 0.46851 0.6835
vt 0.49077 0.68731
vt 0.49939 0.53959
vt 0.49918 0.29595
vt 0.55379 0.05415
vt 0.53972 0.06532
vt 0.5856 0.07064
vt 0.64372 0.15658
vt 0.65597 0.25122
vt 0.49221 0.7016
vt 0.33054 0.48645
vt 0.31705 0.43464
vt 0.30896 0.39821
vt 0.32037 0.3765
vt 0.31246 0.31596
vt 0.3264 0.24248
vt 0.35427 0.21245
vt 0.35389 0.19026
vt 0.36142 0.16623
vt 0.39736 0.10855
vt 0.42391 0.09705
vt 0.43094 0.07406
vt 0.45723 0.10129
vt 0.45827 0.07406
vt 0.46866 0.05215
vt 0.48868 0.07175
vt 0.56819 0.04068
vt 0.52648 0.04467
vt 0.63625 0.12588
vt 0.66656 0.17404
vt 0.69305 0.24676
vt 0.69337 0.27556
vt 0.67356 0.31088
vt 0.70296 0.30161
vt 0.70265 0.32998
vt 0.67765 0.36857
vt 0.70826 0.36875
vt 0.70166 0.40279
vt 0.69845 0.44215
vt 0.67233 0.51393
vt 0.51241 0.68527
vt 0.49925 0.37716
usemtl mat0
f 1/1/1 2/2/1 3/3/1
f 4/4/2 5/5/2 6/6/2
f 7/7/3 8/8/3 9/9/3
f 10/10/4 11/11/4 12/12/4
f 13/13/5 14/14/5 15/15/5
f 16/16/6 17/17/6 18/18/6
f 19/19/7 20/20/7 21/21/7
f 22/22/8 23/23/8 24/24/8
f 25/25/9 24/24/9 26/26/9
f 26/26/10 27/27/10 28/28/10
f 29/4/11 30/29/11 31/30/11
f 29/4/12 32/31/12 33/32/12
f 34/11/13 35/8/13 36/9/13
f 37/33/14 34/11/14 38/12/14
f 39/34/15 40/13/15 41/14/15
f 42/17/16 43/25/16 44/16/16
f 45/35/17 46/36/17 47/37/17
f 48/19/18 49/22/18 46/36/18
f 50/24/19 51/26/19 52/38/19
f 51/26/20 39/34/20 53/39/20
f 54/32/21 55/40/21 56/40/21
f 57/31/22 54/32/22 33/32/22
f 5/5/23 57/31/23 32/31/23
f 5/5/24 58/5/24 59/6/24
f 6/6/25 59/6/25 60/41/25
f 12/12/26 61/41/26 60/41/26
f 12/12/27 38/12/27 62/42/27
f 63/42/28 62/42/28 64/43/28
f 10/10/29 65/43/29 64/43/29
f 10/10/30 66/10/30 67/44/30
f 68/44/31 67/44/31 69/45/31
f 14/14/32 70/45/32 69/45/32
f 14/14/33 41/14/33 71/15/33
f 15/15/34 71/15/34 72/46/34
f 13/13/35 73/46/35 72/46/35
f 74/47/36 13/13/36 40/13/36
f 75/48/37 74/47/37 76/47/37
f 77/49/38 75/48/38 78/48/38
f 17/17/39 77/49/39 79/49/39
f 17/17/40 42/17/40 80/18/40
f 18/18/41 80/18/41 81/50/41
f 16/16/42 82/50/42 81/50/42
f 16/16/43 44/16/43 83/51/43
f 84/51/44 83/51/44 85/52/44
f 86/53/45 87/52/45 85/52/45
f 86/53/46 88/53/46 89/54/46
f 90/54/47 89/54/47 91/55/47
f 55/40/48 3/3/48 92/3/48
f 93/56/49 94/55/49 91/55/49
f 22/22/50 95/37/50 47/37/50
f 95/37/51 96/57/51 97/57/51
f 21/21/52 98/21/52 99/58/52
f 100/36/53 101/58/53 99/58/53
f 100/36/54 46/36/54 45/35/54
f 102/35/55 45/35/55 97/57/55
f 93/56/56 103/56/56 104/20/56
f 21/21/57 20/20/57 104/20/57
f 22/22/58 49/22/58 105/23/58
f 24/24/59 23/23/59 105/23/59
f 24/24/60 50/24/60 106/59/60
f 107/38/61 108/59/61 106/59/61
f 26/26/62 107/38/62 52/38/62
f 26/26/63 51/26/63 109/60/63
f 110/60/64 109/60/64 111/27/64
f 28/28/65 27/27/65 111/27/65
f 112/39/66 28/28/66 113/28/66
f 112/39/67 53/39/67 114/61/67
f 115/62/68 116/61/68 114/61/68
f 117/63/69 115/62/69 118/62/69
f 117/63/70 119/63/70 120/64/70
f 121/65/71 122/64/71 120/64/71
f 123/66/72 121/65/72 124/65/72
f 123/66/73 125/66/73 126/67/73
f 127/68/74 128/67/74 126/67/74
f 9/9/75 127/68/75 129/68/75
f 9/9/76 36/9/76 130/69/76
f 7/7/77 131/69/77 130/69/77
f 8/8/78 7/7/78 132/7/78
f 8/8/79 35/8/79 133/70/79
f 134/30/80 135/70/80 133/70/80
f 136/29/81 134/30/81 31/30/81
f 136/29/82 30/29/82 137/71/82
f 138/71/83 137/71/83 139/1/83
f 1/1/84 139/1/84 140/2/84
f 3/3/85 2/2/85 140/2/85
f 4/4/86 1/1/86 3/3/86
f 135/70/3 134/30/3 8/8/3
f 136/29/87 4/4/87 134/30/87
f 1/1/88 4/4/88 138/71/88
f 3/3/89 55/40/89 54/32/89
f 134/30/90 4/4/90 8/8/90
f 4/4/91 136/29/91 138/71/91
f 5/5/92 4/4/92 57/31/92
f 61/41/93 4/4/93 6/6/93
f 4/4/94 3/3/94 54/32/94
f 4/4/95 54/32/95 57/31/95
f 123/66/3 128/67/3 127/68/3
f 11/11/96 8/8/96 141/33/96
f 8/8/97 11/11/97 9/9/97
f 9/9/3 123/66/3 127/68/3
f 9/9/3 131/69/3 7/7/3
f 8/8/98 4/4/98 141/33/98
f 10/10/3 12/12/3 63/42/3
f 9/9/99 11/11/99 123/66/99
f 61/41/100 12/12/100 4/4/100
f 65/43/3 10/10/3 63/42/3
f 10/10/3 68/44/3 70/45/3
f 70/45/101 14/14/101 11/11/101
f 12/12/102 141/33/102 4/4/102
f 11/11/103 141/33/103 12/12/103
f 10/10/104 70/45/104 11/11/104
f 73/46/105 13/13/105 15/15/105
f 74/47/106 75/48/106 77/49/106
f 142/34/107 77/49/107 17/17/107
f 142/34/108 143/72/108 14/14/108
f 142/34/109 13/13/109 74/47/109
f 77/49/110 142/34/110 74/47/110
f 13/13/111 142/34/111 14/14/111
f 14/14/112 143/72/112 11/11/112
f 82/50/113 16/16/113 18/18/113
f 87/52/114 86/53/114 84/51/114
f 25/25/115 16/16/115 19/19/115
f 25/25/116 142/34/116 17/17/116
f 86/53/117 16/16/117 84/51/117
f 16/16/118 86/53/118 19/19/118
f 17/17/119 16/16/119 25/25/119
f 90/54/120 93/56/120 86/53/120
f 90/54/121 94/55/121 93/56/121
f 93/56/122 20/20/122 19/19/122
f 93/56/123 19/19/123 86/53/123
f 21/21/124 101/58/124 100/36/124
f 102/35/125 96/57/125 95/37/125
f 19/19/126 100/36/126 22/22/126
f 19/19/127 21/21/127 100/36/127
f 100/36/128 102/35/128 95/37/128
f 100/36/129 95/37/129 22/22/129
f 24/24/130 108/59/130 107/38/130
f 142/34/131 25/25/131 26/26/131
f 22/22/132 24/24/132 19/19/132
f 24/24/133 25/25/133 19/19/133
f 26/26/134 112/39/134 142/34/134
f 24/24/135 107/38/135 26/26/135
f 26/26/136 110/60/136 27/27/136
f 112/39/137 26/26/137 28/28/137
f 112/39/138 116/61/138 115/62/138
f 117/63/3 122/64/3 121/65/3
f 11/11/139 143/72/139 123/66/139
f 143/72/140 117/63/140 123/66/140
f 142/34/141 112/39/141 117/63/141
f 112/39/142 115/62/142 117/63/142
f 92/3/143 140/2/143 139/1/143
f 143/72/144 142/34/144 117/63/144
f 117/63/3 121/65/3 123/66/3
f 30/29/145 29/4/145 137/71/145
f 29/4/146 139/1/146 137/71/146
f 29/4/147 31/30/147 35/8/147
f 29/4/148 92/3/148 139/1/148
f 31/30/149 133/70/149 35/8/149
f 29/4/150 33/32/150 92/3/150
f 29/4/151 60/41/151 59/6/151
f 32/31/152 29/4/152 58/5/152
f 130/69/153 36/9/153 132/7/153
f 33/32/154 56/40/154 92/3/154
f 29/4/155 59/6/155 58/5/155
f 126/67/156 125/66/156 129/68/156
f 34/11/157 36/9/157 125/66/157
f 29/4/158 35/8/158 37/33/158
f 36/9/159 35/8/159 132/7/159
f 35/8/160 34/11/160 37/33/160
f 67/44/161 66/10/161 69/45/161
f 125/66/162 36/9/162 129/68/162
f 66/10/153 64/43/153 62/42/153
f 38/12/163 60/41/163 29/4/163
f 88/53/164 44/16/164 48/19/164
f 66/10/153 62/42/153 38/12/153
f 38/12/165 29/4/165 37/33/165
f 34/11/166 66/10/166 38/12/166
f 66/10/167 34/11/167 69/45/167
f 78/48/168 76/47/168 79/49/168
f 40/13/169 72/46/169 71/15/169
f 41/14/170 69/45/170 34/11/170
f 39/34/171 76/47/171 40/13/171
f 40/13/172 71/15/172 41/14/172
f 144/72/173 39/34/173 41/14/173
f 34/11/174 144/72/174 41/14/174
f 76/47/175 39/34/175 79/49/175
f 88/53/176 85/52/176 83/51/176
f 44/16/177 81/50/177 80/18/177
f 42/17/178 79/49/178 39/34/178
f 44/16/179 43/25/179 48/19/179
f 88/53/180 83/51/180 44/16/180
f 44/16/181 80/18/181 42/17/181
f 48/19/182 104/20/182 103/56/182
f 42/17/183 39/34/183 43/25/183
f 103/56/184 91/55/184 89/54/184
f 48/19/185 103/56/185 88/53/185
f 103/56/186 89/54/186 88/53/186
f 47/37/187 97/57/187 45/35/187
f 46/36/188 99/58/188 98/21/188
f 98/21/189 104/20/189 48/19/189
f 43/25/190 50/24/190 48/19/190
f 46/36/191 98/21/191 48/19/191
f 46/36/192 49/22/192 47/37/192
f 43/25/193 39/34/193 51/26/193
f 106/59/194 50/24/194 52/38/194
f 50/24/195 105/23/195 49/22/195
f 51/26/196 50/24/196 43/25/196
f 50/24/197 49/22/197 48/19/197
f 53/39/198 119/63/198 118/62/198
f 124/65/199 119/63/199 125/66/199
f 124/65/153 120/64/153 119/63/153
f 114/61/200 53/39/200 118/62/200
f 111/27/201 51/26/201 113/28/201
f 111/27/202 109/60/202 51/26/202
f 39/34/203 119/63/203 53/39/203
f 119/63/204 39/34/204 144/72/204
f 51/26/205 53/39/205 113/28/205
f 33/32/206 54/32/206 56/40/206
f 119/63/207 144/72/207 125/66/207
f 144/72/208 34/11/208 125/66/208
f 32/31/209 57/31/209 33/32/209
f 58/5/210 5/5/210 32/31/210
f 6/6/211 5/5/211 59/6/211
f 61/41/212 6/6/212 60/41/212
f 38/12/213 12/12/213 60/41/213
f 63/42/214 12/12/214 62/42/214
f 65/43/28 63/42/28 64/43/28
f 66/10/29 10/10/29 64/43/29
f 68/44/30 10/10/30 67/44/30
f 70/45/215 68/44/215 69/45/215
f 41/14/216 14/14/216 69/45/216
f 15/15/217 14/14/217 71/15/217
f 73/46/218 15/15/218 72/46/218
f 40/13/35 13/13/35 72/46/35
f 76/47/219 74/47/219 40/13/219
f 78/48/220 75/48/220 76/47/220
f 79/49/221 77/49/221 78/48/221
f 42/17/222 17/17/222 79/49/222
f 18/18/40 17/17/40 80/18/40
f 82/50/223 18/18/223 81/50/223
f 44/16/42 16/16/42 81/50/42
f 84/51/224 16/16/224 83/51/224
f 87/52/44 84/51/44 85/52/44
f 88/53/225 86/53/225 85/52/225
f 90/54/226 86/53/226 89/54/226
f 94/55/227 90/54/227 91/55/227
f 56/40/228 55/40/228 92/3/228
f 103/56/229 93/56/229 91/55/229
f 49/22/230 22/22/230 47/37/230
f 47/37/231 95/37/231 97/57/231
f 101/58/232 21/21/232 99/58/232
f 46/36/233 100/36/233 99/58/233
f 102/35/234 100/36/234 45/35/234
f 96/57/235 102/35/235 97/57/235
f 20/20/236 93/56/236 104/20/236
f 98/21/237 21/21/237 104/20/237
f 23/23/238 22/22/238 105/23/238
f 50/24/59 24/24/59 105/23/59
f 108/59/239 24/24/239 106/59/239
f 52/38/61 107/38/61 106/59/61
f 51/26/240 26/26/240 52/38/240
f 110/60/241 26/26/241 109/60/241
f 27/27/64 110/60/64 111/27/64
f 113/28/242 28/28/242 111/27/242
f 53/39/66 112/39/66 113/28/66
f 116/61/67 112/39/67 114/61/67
f 118/62/68 115/62/68 114/61/68
f 119/63/69 117/63/69 118/62/69
f 122/64/70 117/63/70 120/64/70
f 124/65/71 121/65/71 120/64/71
f 125/66/243 123/66/243 124/65/243
f 128/67/244 123/66/244 126/67/244
f 129/68/74 127/68/74 126/67/74
f 36/9/75 9/9/75 129/68/75
f 131/69/76 9/9/76 130/69/76
f 132/7/77 7/7/77 130/69/77
f 35/8/245 8/8/245 132/7/245
f 135/70/246 8/8/246 133/70/246
f 31/30/80 134/30/80 133/70/80
f 30/29/247 136/29/247 31/30/247
f 138/71/248 136/29/248 137/71/248
f 1/1/249 138/71/249 139/1/249
f 2/2/250 1/1/250 140/2/250
f 92/3/251 3/3/251 140/2/251
# Vertices: 144, normals: 251, texture coordinates: 72, faces: 284

