# File generated by ImageToStl.com - Free Image and 3D model conversion tools

mtllib leaf5_g1.mtl

o obj1
v 0.00272829 0.00050893 -0.00014747
v 2.475E-05 0.00040732 -0.0001209
v 1.223E-05 6.979E-05 -8.441E-05
v 0.01688285 4.13E-05 -0.0001509
v 0.00869825 -0.01311651 0.00181751
v 0.01970879 -0.02369105 0.00450403
v 0.04634402 0.04352873 -0.01302274
v 0.0392822 0.03544388 -0.01039128
v 0.05375465 0.04173521 -0.0147846
v 0.0627364 -0.03865441 0.01607796
v 0.05062408 -5.584E-05 -0.00045647
v 0.04693442 -0.03662604 0.01197687
v 0.09297607 -0.03158782 0.0169562
v 0.07905622 -0.0369968 0.01831151
v 0.08625615 -0.03836737 0.01904661
v 0.11791948 -0.01443637 0.00120906
v 0.10766389 -0.02196985 0.00950657
v 0.11667674 -0.02263734 0.00844602
v 0.11810655 -0.00038746 -0.01938867
v 0.13497715 -0.00039635 -0.02644265
v 0.13107925 0.00129542 -0.02916798
v 0.12408201 0.0165089 -0.03446295
v 0.11606524 0.02243583 -0.03244768
v 0.11331818 0.03039915 -0.03140458
v 0.10530158 0.02782359 -0.02948017
v 2.35E-06 -0.00013663 -0.00131717
v -0.0001312 0.0002059 -0.00134465
v 0.00257234 0.00030751 -0.00137122
v 0.01686793 -0.00021525 -0.00137416
v 0.00844474 0.01045277 -0.0029023
v 0.0265305 0.03164334 -0.00837569
v 0.00399694 -0.00798801 -0.00034305
v 0.00320481 -0.00235858 -0.00104896
v 0.05053788 -0.00048104 -0.00162873
v 0.03912155 0.03517195 -0.01160069
v 0.05359042 0.04140408 -0.01597868
v 0.03372673 -0.00035991 -0.00142885
v 0.04704542 -0.03701272 0.0107934
v 0.06729415 -0.00067703 -0.00340012
v 0.07900405 -0.03765847 0.01725229
v 0.10750704 -0.02289411 0.00867978
v 0.10092063 -0.0011225 -0.01286584
v 0.11776261 -0.01536063 0.00038227
v 0.13058802 0.01510582 -0.03728608
v 0.13169222 0.00543902 -0.03655342
v 0.12356809 0.0159371 -0.0354485
v 0.11560639 0.02190736 -0.03348335
v 0.1177628 -0.00120101 -0.02027321
v 0.10489996 0.02735509 -0.0305672
v 0.08413075 -0.00085594 -0.00719145
v 0.09331255 0.03339298 -0.0277102
v 0.00306736 -0.00214995 0.00017579
v 9.954E-05 -0.00178552 0.00011615
v 0.00023699 -0.00199416 -0.00110859
v 0.00385949 -0.00777938 0.0008817
v 0.00883569 -0.01332514 0.00059276
v 0.01984624 -0.02389968 0.00327928
v 0.04491065 -0.04159335 0.01084198
v 0.0447927 -0.04125122 0.01203842
v 0.05555508 -0.04391936 0.01496982
v 0.05566608 -0.04430604 0.01378634
v 0.06323395 -0.04579746 0.01572502
v 0.06312293 -0.04541078 0.0169085
v 0.06284742 -0.03904108 0.01489449
v 0.06763235 -0.04196491 0.01754202
v 0.06774335 -0.04235156 0.01635855
v 0.0802657 -0.04349695 0.01834684
v 0.0802082 -0.04301525 0.01949884
v 0.08620395 -0.03902904 0.01798739
v 0.09541985 -0.03900119 0.01779964
v 0.09547205 -0.03833951 0.01885886
v 0.09292387 -0.03224949 0.01589698
v 0.10171197 -0.03069171 0.01558605
v 0.10631992 -0.03086666 0.01476987
v 0.10165977 -0.03135338 0.01452683
v 0.11131187 -0.02893278 0.01292474
v 0.10626775 -0.03152833 0.01371065
v 0.11124339 -0.0296383 0.0118952
v 0.11651989 -0.02356159 0.00761924
v 0.12313714 -0.02034426 0.0045566
v 0.12329399 -0.01942001 0.00538339
v 0.12552581 -0.0141919 -0.00190083
v 0.12568268 -0.01326765 -0.00107405
v 0.13030316 -0.01256517 -0.00434681
v 0.12480205 -0.00678802 -0.01011978
v 0.13046001 -0.01164092 -0.00352002
v 0.12464213 -0.00779078 -0.01084871
v 0.13029863 -0.00749318 -0.01214357
v 0.13046003 -0.00638292 -0.01159248
v 0.13484865 -0.00585309 -0.01617857
v 0.1309386 -0.00168713 -0.02180813
v 0.13501005 -0.00474282 -0.01562748
v 0.13117054 0.01573034 -0.03637335
v 0.13739432 0.01178577 -0.0370908
v 0.13681179 0.01116125 -0.03800353
v 0.1365645 0.00369877 -0.03669828
v 0.13049675 0.0006709 -0.0300807
v 0.13227475 0.00606354 -0.0356407
v 0.135982 0.00307425 -0.037611
v 0.13401292 0.00812202 -0.03787508
v 0.13459544 0.00874654 -0.03696235
v 0.1307772 -0.00279739 -0.02235922
v 0.1345131 -0.00120994 -0.02727038
v 0.12742059 0.02182744 -0.03621758
v 0.12787944 0.02235591 -0.0351819
v 0.11923503 0.0278179 -0.03416555
v 0.11969388 0.02834638 -0.03312987
v 0.11285933 0.02987067 -0.03244028
v 0.10934573 0.03632772 -0.03086435
v 0.1096896 0.03673542 -0.02973388
v 0.10419825 0.03809842 -0.02987338
v 0.10049163 0.03774436 -0.02807115
v 0.1045421 0.03850612 -0.0287429
v 0.09365643 0.03380066 -0.02657972
v 0.10014775 0.03733666 -0.02920162
v 0.0942408 0.04364146 -0.0272828
v 0.08860017 0.04437986 -0.02474355
v 0.09458467 0.04404914 -0.02615232
v 0.0812647 0.03939115 -0.02294646
v 0.0882563 0.04397216 -0.02587402
v 0.08092083 0.03898348 -0.02407694
v 0.08284487 0.0469634 -0.02423421
v 0.07729632 0.0476929 -0.02152953
v 0.08318874 0.0473711 -0.02310372
v 0.06927942 0.04157632 -0.01928172
v 0.07695244 0.04728522 -0.02266001
v 0.06902327 0.04120514 -0.02044749
v 0.06907909 0.04953532 -0.02041944
v 0.06924332 0.04986644 -0.01922537
v 0.06200817 0.04832999 -0.01854453
v 0.06217239 0.04866111 -0.01735045
v 0.05383092 0.04814121 -0.01642761
v 0.05399514 0.04847233 -0.01523353
v 0.0461798 0.0431976 -0.01421682
v 0.038929 0.04251712 -0.01234222
v 0.03908495 0.04271855 -0.01111846
v 0.00860069 0.01065419 -0.00167854
v 0.02668645 0.03184477 -0.00715194
v 0.00349163 0.00332538 -0.00050149
v 0.00333568 0.00312395 -0.00172524
v 0.03375345 1.28E-06 -0.00023248
v 0.08436533 -0.00024248 -0.00612792
v 0.0674947 -0.00013559 -0.0022915
v 0.10123593 -0.00037858 -0.0119121
vn 0.10725 -0.00574 0.99422
vn 0.18504 0.0616 0.9808
vn 0.09368 -0.25169 0.96326
vn 0.33333 0.19653 0.9221
vn 0.32555 0.0345 0.9449
vn 0.6438 -0.13628 0.75296
vn 0.92174 -0.15002 0.35762
vn 0.47854 -0.48813 0.72988
vn -0.042 -0.24595 0.96837
vn -0.08256 0.00669 -0.99656
vn -0.19427 0.06852 -0.97855
vn -0.12498 0.00401 -0.99215
vn -0.31062 0.15021 -0.93859
vn -0.32074 0.01357 -0.94707
vn -0.5084 0.09641 -0.85571
vn -0.7098 0.04722 -0.70281
vn -0.10277 0.26326 -0.95923
vn -0.48894 0.3531 -0.79766
vn -0.45951 0.52195 -0.71862
vn -0.38717 0.40587 -0.82787
vn -0.98046 0.12347 0.15316
vn -0.14929 0.98512 -0.08512
vn -0.66842 0.74316 0.03046
vn -0.71523 0.69753 0.04356
vn -0.80468 0.58945 0.07092
vn -0.41164 -0.88793 0.20525
vn -0.72154 0.67045 0.17286
vn -0.92617 0.25394 0.27878
vn 0.06577 -0.99524 0.07187
vn -0.78272 0.5892 0.20047
vn -0.94566 0.13357 0.29644
vn 0.2045 -0.97818 -0.0367
vn -0.82441 0.21057 0.52537
vn -0.84834 -0.01335 0.52929
vn 0.28233 -0.9332 -0.22234
vn -0.83987 -0.16715 0.51642
vn -0.84788 -0.06109 0.52665
vn -0.76194 -0.46268 0.45318
vn 0.3496 -0.88803 -0.29863
vn -0.66978 -0.03766 0.7416
vn -0.60411 -0.55734 0.56958
vn 0.35951 -0.75707 -0.54553
vn -0.66363 -0.30128 0.68471
vn -0.61852 -0.51463 0.59379
vn 0.29603 -0.82179 -0.48685
vn -0.5966 -0.20878 0.77491
vn -0.40156 -0.68441 0.60855
vn -0.04532 0.99885 0.01559
vn 0.12478 -0.85579 -0.50205
vn 0.83968 0.05343 -0.54044
vn 0.66001 -0.34115 -0.66933
vn -0.79416 -0.58308 0.17127
vn 0.72345 -0.23915 -0.64763
vn -0.66127 -0.7497 -0.026
vn -0.67754 -0.73546 -0.00578
vn -0.37942 -0.74729 0.54552
vn 0.34364 -0.63371 -0.69305
vn -0.55403 -0.82534 -0.10895
vn 0.90281 0.09116 -0.42028
vn -0.52903 -0.8423 -0.10323
vn 0.85534 -0.14045 -0.49867
vn 0.88684 0.35572 -0.29492
vn -0.44345 -0.88589 -0.13619
vn 0.89071 -0.23103 -0.39149
vn 0.93695 0.22109 -0.27064
vn 0.8427 0.51813 -0.1463
vn -0.07601 -0.96125 -0.26498
vn 0.94288 0.02607 -0.3321
vn 0.80795 0.57779 -0.11562
vn -0.23323 -0.95056 -0.20503
vn 0.94356 0.03642 -0.3292
vn 0.77899 0.62021 -0.09228
vn -0.00583 -0.97708 -0.21281
vn 0.94685 0.2229 -0.23191
vn 0.74888 0.65212 -0.11798
vn -0.04367 -0.99129 -0.12423
vn 0.81091 0.56642 -0.14697
vn 0.64245 0.76282 -0.07324
vn 0.01241 -0.99085 -0.1344
vn 0.74525 0.66571 -0.03783
vn 0.64773 0.76181 -0.00953
vn 0.57294 0.81953 0.01013
vn 0.2699 0.95973 0.07788
vn 0.98676 0.03863 -0.15749
vn 0.04956 0.99175 0.11823
vn 0.11716 -0.00411 0.9931
vn 0.10293 -0.22006 0.97004
vn 0.1943 -0.06849 0.97855
vn 0.12356 -0.00432 0.99233
vn 0.10716 0.00682 0.99422
vn 0.14938 -0.20603 0.96708
vn 0.15098 -0.01115 0.98847
vn 0.15804 0.01662 0.98729
vn 0.16976 0.17259 0.97025
vn 0.12201 -0.00412 0.99252
vn 0.12493 -0.00365 0.99216
vn 0.31059 -0.14992 0.93865
vn 0.27353 -0.0137 0.96177
vn 0.11783 0.23526 0.96476
vn 0.01745 -0.27836 0.96032
vn 0.05582 -0.24371 0.96824
vn 0.27476 -0.0053 0.9615
vn -0.00545 -0.25716 0.96635
vn 0.29432 -0.26869 0.91716
vn 0.12322 0.23841 0.96331
vn 0.10601 0.2271 0.96808
vn 0.23322 0.13046 0.96363
vn 0.08288 0.47177 0.87782
vn 0.31796 -0.00534 0.94809
vn 0.32062 -0.01366 0.94711
vn 0.3684 0.08923 0.92537
vn 0.2776 -0.01873 0.96051
vn 0.40598 -0.17431 0.8971
vn 0.24388 0.37323 0.89511
vn 0.52402 -0.19201 0.82978
vn 0.60296 -0.06288 0.79529
vn 0.61595 -0.10364 0.78094
vn 0.56218 0.13907 0.81524
vn 0.50832 -0.0955 0.85586
vn 0.65908 -0.0274 0.75158
vn 0.81372 -0.02034 0.5809
vn 0.86801 -0.20157 0.45379
vn 0.71902 -0.23058 0.65562
vn 0.81422 -0.04759 0.57861
vn 0.90693 -0.04411 0.41895
vn 0.71042 -0.04631 0.70225
vn 0.76931 -0.16224 0.61794
vn 0.9069 -0.04464 0.41897
vn 0.90296 -0.16617 0.39629
vn 0.86491 -0.17621 0.46997
vn 0.65077 -0.49968 0.57168
vn -0.04015 -0.08927 0.9952
vn -0.02652 -0.22523 0.97395
vn 0.49941 -0.70842 0.49873
vn 0.11373 -0.38912 0.91414
vn 0.10334 -0.26939 0.95747
vn -0.04097 -0.24868 0.96772
vn 0.3871 -0.405 0.82833
vn 0.48814 -0.35383 0.79782
vn 0.45871 -0.52023 0.72038
vn 0.4759 -0.28867 0.83077
vn 0.43054 -0.43373 0.79153
vn -0.0558 -0.17021 0.98383
vn -0.02756 -0.22825 0.97321
vn -0.06098 -0.22552 0.97233
vn -0.04262 -0.2557 0.96582
vn 0.37151 -0.10213 0.9228
vn -0.05553 -0.17351 0.98326
vn 0.39026 -0.33355 0.85816
vn -0.04107 -0.26401 0.96364
vn 0.36122 -0.20894 0.90877
vn 0.38276 -0.41473 0.82553
vn -0.02571 -0.28802 0.95728
vn -0.15071 0.01154 -0.98851
vn -0.12346 0.00472 -0.99234
vn -0.15017 0.20561 -0.96704
vn -0.09897 0.00382 -0.99508
vn -0.10369 0.21942 -0.97011
vn -0.12543 0.00394 -0.99209
vn -0.1688 -0.17359 -0.97024
vn -0.1582 -0.01644 -0.98727
vn -0.05582 0.24371 -0.96824
vn -0.11079 -0.00637 -0.99382
vn -0.18495 -0.06169 -0.98081
vn 0.00498 0.25709 -0.96637
vn -0.29451 0.2693 -0.91692
vn -0.27445 0.00547 -0.96159
vn -0.09284 0.25151 -0.96339
vn -0.01752 0.2783 -0.96033
vn -0.27331 0.01341 -0.96183
vn -0.23122 -0.1319 -0.96392
vn -0.10601 -0.2271 -0.96808
vn -0.12192 -0.23968 -0.96317
vn -0.5242 0.19238 -0.82958
vn -0.11783 -0.23526 -0.96476
vn -0.31823 0.00581 -0.948
vn -0.33245 -0.19671 -0.92238
vn -0.36808 -0.08928 -0.9255
vn -0.40358 0.17441 -0.89817
vn -0.2776 0.01873 -0.96051
vn -0.05306 -0.50292 -0.8627
vn -0.86604 0.20466 -0.45616
vn -0.60268 0.06295 -0.7955
vn -0.32555 -0.0345 -0.9449
vn -0.56125 -0.13865 -0.81595
vn -0.61596 0.10419 -0.78086
vn -0.81408 0.01996 -0.58041
vn -0.65908 0.0274 -0.75158
vn -0.18654 -0.42539 -0.88557
vn -0.88928 0.1767 -0.42186
vn -0.81461 0.04737 -0.57807
vn -0.6438 0.13628 -0.75296
vn -0.76874 0.16352 -0.61831
vn -0.71876 0.23282 -0.65512
vn -0.9069 0.04464 -0.41896
vn -0.8632 0.1814 -0.47115
vn -0.90669 0.04822 -0.41903
vn 0.04015 0.08927 -0.9952
vn -0.65077 0.49968 -0.57168
vn -0.9106 0.15972 -0.38118
vn -0.11373 0.38912 -0.91414
vn -0.47866 0.49049 -0.72821
vn -0.49747 0.71052 -0.49769
vn -0.47611 0.28833 -0.83077
vn 0.04097 0.24868 -0.96772
vn 0.02017 0.2253 -0.97408
vn -0.43085 0.43464 -0.79086
vn 0.04107 0.26401 -0.96364
vn 0.04353 0.24187 -0.96933
vn 0.02613 0.28722 -0.95751
vn 0.04262 0.2557 -0.96582
vn 0.06098 0.22552 -0.97233
vn 0.05222 0.17294 -0.98355
vn 0.05234 0.17139 -0.98381
vn -0.3832 0.41485 -0.82526
vn -0.39589 0.20574 -0.89495
vn 0.02515 0.22694 -0.97358
vn -0.3438 0.33214 -0.87834
vn -0.37142 0.1019 -0.92285
vn -0.66842 0.74316 0.03046
vn -0.71523 0.69753 0.04356
vn -0.78396 0.59843 0.16517
vn -0.40786 -0.88701 0.21646
vn -0.72154 0.67045 0.17285
vn -0.92617 0.25394 0.27878
vn 0.06577 -0.99524 0.07187
vn -0.91651 0.13513 0.37649
vn 0.15795 -0.97648 -0.14678
vn -0.84834 -0.01335 0.52929
vn 0.28233 -0.9332 -0.22234
vn -0.83987 -0.16715 0.51642
vn -0.74673 -0.45921 0.48117
vn 0.24135 -0.86776 -0.43445
vn -0.66978 -0.03766 0.7416
vn -0.60411 -0.55734 0.56958
vn 0.35951 -0.75707 -0.54553
vn -0.66363 -0.30128 0.68471
vn -0.61852 -0.51463 0.59379
vn 0.25119 -0.81378 -0.52408
vn -0.4594 -0.2544 0.85102
vn -0.40156 -0.68441 0.60855
vn -0.13454 0.98701 -0.08785
vn 0.12478 -0.85579 -0.50205
vn 0.87042 0.02562 -0.49164
vn 0.66001 -0.34115 -0.66933
vn -0.79416 -0.58308 0.17127
vn 0.72345 -0.23915 -0.64763
vn -0.66127 -0.7497 -0.026
vn -0.68027 -0.67244 0.29164
vn 0.37572 -0.64295 -0.66742
vn -0.55012 -0.83052 -0.08725
vn -0.52903 -0.8423 -0.10323
vn 0.85534 -0.14045 -0.49867
vn 0.90127 0.34616 -0.26054
vn -0.44153 -0.89028 -0.11157
vn 0.93695 0.22109 -0.27064
vn 0.8427 0.51813 -0.1463
vn -0.23323 -0.95056 -0.20503
vn 0.77384 0.62388 -0.10932
vn 0.00525 -0.99046 -0.13768
vn 0.94685 0.2229 -0.23191
vn 0.74888 0.65212 -0.11798
vn 0.81091 0.56642 -0.14697
vn 0.65124 0.75748 -0.04581
vn 0.01402 -0.99159 -0.12867
vn 0.57294 0.81953 0.01013
vn -0.35774 0.93139 0.06737
vt 0.50127 0.68894
vt 0.50087 0.70196
vt 0.49954 0.70202
vt 0.49946 0.6208
vt 0.44727 0.6602
vt 0.40458 0.6072
vt 0.67738 0.47898
vt 0.64404 0.51298
vt 0.67279 0.44331
vt 0.33468 0.40007
vt 0.49932 0.45838
vt 0.34792 0.47614
vt 0.35163 0.2545
vt 0.33506 0.32151
vt 0.3279 0.28685
vt 0.42 0.13443
vt 0.38869 0.18379
vt 0.38543 0.14041
vt 0.49904 0.13352
vt 0.49897 0.05231
vt 0.51075 0.07108
vt 0.58858 0.10476
vt 0.61341 0.14335
vt 0.64372 0.15658
vt 0.63412 0.19517
vt 0.54153 0.66067
vt 0.62722 0.57361
vt 0.46851 0.6835
vt 0.49077 0.68731
vt 0.49939 0.53959
vt 0.49925 0.37716
vt 0.49911 0.21474
vt 0.5856 0.07064
vt 0.53972 0.06532
vt 0.49918 0.29595
vt 0.65597 0.25122
vt 0.49221 0.7016
vt 0.33054 0.48645
vt 0.31705 0.43464
vt 0.30896 0.39821
vt 0.32037 0.3765
vt 0.31246 0.31596
vt 0.3264 0.24248
vt 0.35427 0.21245
vt 0.35389 0.19026
vt 0.36142 0.16623
vt 0.39736 0.10855
vt 0.42391 0.09705
vt 0.43094 0.07406
vt 0.45723 0.10129
vt 0.45827 0.07406
vt 0.46866 0.05215
vt 0.48868 0.07175
vt 0.56819 0.04068
vt 0.52648 0.04467
vt 0.55379 0.05415
vt 0.61241 0.08648
vt 0.63625 0.12588
vt 0.66656 0.17404
vt 0.67351 0.19882
vt 0.67086 0.21832
vt 0.69305 0.24676
vt 0.69337 0.27556
vt 0.67356 0.31088
vt 0.70296 0.30161
vt 0.70265 0.32998
vt 0.67765 0.36857
vt 0.70826 0.36875
vt 0.70166 0.40279
vt 0.69845 0.44215
vt 0.67233 0.51393
vt 0.51241 0.68527
usemtl mat0
f 1/1/1 2/2/1 3/3/1
f 4/4/2 5/5/2 6/6/2
f 7/7/3 8/8/3 9/9/3
f 10/10/4 11/11/4 12/12/4
f 13/13/5 14/14/5 15/15/5
f 16/16/6 17/17/6 18/18/6
f 19/19/7 20/20/7 21/21/7
f 22/22/8 19/19/8 21/21/8
f 23/23/9 24/24/9 25/25/9
f 26/3/10 27/2/10 28/1/10
f 29/4/11 30/26/11 31/27/11
f 29/4/12 32/28/12 33/29/12
f 34/11/13 35/8/13 36/9/13
f 37/30/14 34/11/14 38/12/14
f 34/11/15 39/31/15 40/14/15
f 41/17/16 42/32/16 43/16/16
f 44/33/17 45/34/17 46/22/17
f 42/32/18 47/23/18 48/19/18
f 47/23/19 46/22/19 48/19/19
f 49/25/20 50/35/20 51/36/20
f 52/29/21 53/37/21 54/37/21
f 55/28/22 52/29/22 33/29/22
f 5/5/23 55/28/23 32/28/23
f 6/6/24 5/5/24 56/5/24
f 6/6/25 57/6/25 58/38/25
f 59/38/26 58/38/26 38/12/26
f 60/39/27 12/12/27 38/12/27
f 60/39/28 61/39/28 62/40/28
f 63/40/29 62/40/29 64/10/29
f 65/41/30 10/10/30 64/10/30
f 65/41/31 66/41/31 67/42/31
f 68/42/32 67/42/32 40/14/32
f 14/14/33 40/14/33 69/15/33
f 15/15/34 69/15/34 70/43/34
f 71/43/35 70/43/35 72/13/35
f 73/44/36 13/13/36 72/13/36
f 74/45/37 73/44/37 75/44/37
f 76/46/38 74/45/38 77/45/38
f 76/46/39 78/46/39 41/17/39
f 18/18/40 17/17/40 41/17/40
f 18/18/41 79/18/41 80/47/41
f 81/47/42 80/47/42 43/16/42
f 16/16/43 43/16/43 82/48/43
f 83/48/44 82/48/44 84/49/44
f 85/50/45 86/49/45 84/49/45
f 85/50/46 87/50/46 88/51/46
f 89/51/47 88/51/47 90/52/47
f 53/37/48 3/3/48 26/3/48
f 91/53/49 92/52/49 90/52/49
f 22/22/50 93/33/50 44/33/50
f 93/33/51 94/54/51 95/54/51
f 96/55/52 21/21/52 97/21/52
f 98/34/53 96/55/53 99/55/53
f 98/34/54 45/34/54 100/56/54
f 101/56/55 100/56/55 95/54/55
f 20/20/56 91/53/56 102/53/56
f 21/21/57 20/20/57 103/20/57
f 22/22/58 46/22/58 104/57/58
f 23/23/59 105/57/59 104/57/59
f 23/23/60 47/23/60 106/58/60
f 24/24/61 107/58/61 106/58/61
f 25/25/62 24/24/62 108/24/62
f 25/25/63 49/25/63 109/59/63
f 110/59/64 109/59/64 111/60/64
f 112/61/65 113/60/65 111/60/65
f 114/36/66 112/61/66 115/61/66
f 114/36/67 51/36/67 116/62/67
f 117/63/68 118/62/68 116/62/68
f 119/64/69 117/63/69 120/63/69
f 119/64/70 121/64/70 122/65/70
f 123/66/71 124/65/71 122/65/71
f 125/67/72 123/66/72 126/66/72
f 125/67/73 127/67/73 128/68/73
f 129/68/74 128/68/74 130/69/74
f 9/9/75 131/69/75 130/69/75
f 9/9/76 36/9/76 132/70/76
f 7/7/77 133/70/77 132/70/77
f 8/8/78 7/7/78 134/7/78
f 8/8/79 35/8/79 135/71/79
f 136/71/80 135/71/80 31/27/80
f 137/26/81 138/27/81 31/27/81
f 139/72/82 137/26/82 30/26/82
f 1/1/83 139/72/83 140/72/83
f 2/2/84 1/1/84 28/1/84
f 3/3/85 2/2/85 27/2/85
f 4/4/86 1/1/86 3/3/86
f 136/71/87 138/27/87 8/8/87
f 137/26/88 4/4/88 138/27/88
f 1/1/89 4/4/89 139/72/89
f 3/3/90 53/37/90 52/29/90
f 138/27/91 4/4/91 8/8/91
f 4/4/92 137/26/92 139/72/92
f 5/5/93 4/4/93 55/28/93
f 59/38/94 4/4/94 6/6/94
f 4/4/95 3/3/95 52/29/95
f 4/4/96 52/29/96 55/28/96
f 8/8/97 11/11/97 9/9/97
f 11/11/98 8/8/98 141/30/98
f 10/10/99 12/12/99 60/39/99
f 9/9/100 125/67/100 131/69/100
f 9/9/101 133/70/101 7/7/101
f 8/8/102 4/4/102 141/30/102
f 125/67/103 129/68/103 131/69/103
f 9/9/104 11/11/104 125/67/104
f 59/38/105 12/12/105 4/4/105
f 63/40/106 10/10/106 60/39/106
f 10/10/107 65/41/107 68/42/107
f 68/42/108 14/14/108 11/11/108
f 12/12/109 141/30/109 4/4/109
f 11/11/110 141/30/110 12/12/110
f 10/10/111 68/42/111 11/11/111
f 71/43/112 13/13/112 15/15/112
f 73/44/113 74/45/113 76/46/113
f 142/35/114 76/46/114 17/17/114
f 142/35/115 143/31/115 14/14/115
f 142/35/116 13/13/116 73/44/116
f 76/46/117 142/35/117 73/44/117
f 13/13/118 142/35/118 14/14/118
f 14/14/119 143/31/119 11/11/119
f 81/47/120 16/16/120 18/18/120
f 86/49/121 85/50/121 83/48/121
f 85/50/122 19/19/122 144/32/122
f 144/32/123 142/35/123 17/17/123
f 85/50/124 16/16/124 83/48/124
f 89/51/125 91/53/125 85/50/125
f 17/17/126 16/16/126 144/32/126
f 16/16/127 85/50/127 144/32/127
f 89/51/128 92/52/128 91/53/128
f 91/53/129 20/20/129 19/19/129
f 91/53/130 19/19/130 85/50/130
f 21/21/131 96/55/131 98/34/131
f 101/56/132 94/54/132 93/33/132
f 22/22/133 105/57/133 23/23/133
f 98/34/134 22/22/134 21/21/134
f 98/34/135 101/56/135 93/33/135
f 98/34/136 93/33/136 22/22/136
f 23/23/137 107/58/137 24/24/137
f 25/25/138 114/36/138 142/35/138
f 19/19/139 23/23/139 144/32/139
f 19/19/140 22/22/140 23/23/140
f 25/25/141 142/35/141 144/32/141
f 23/23/142 25/25/142 144/32/142
f 25/25/143 110/59/143 113/60/143
f 114/36/144 25/25/144 112/61/144
f 114/36/145 118/62/145 117/63/145
f 119/64/146 124/65/146 123/66/146
f 11/11/147 143/31/147 125/67/147
f 25/25/148 113/60/148 112/61/148
f 142/35/149 119/64/149 125/67/149
f 114/36/150 117/63/150 119/64/150
f 143/31/151 142/35/151 125/67/151
f 114/36/152 119/64/152 142/35/152
f 119/64/153 123/66/153 125/67/153
f 30/26/154 29/4/154 140/72/154
f 29/4/155 28/1/155 140/72/155
f 29/4/156 31/27/156 35/8/156
f 29/4/157 26/3/157 28/1/157
f 31/27/158 135/71/158 35/8/158
f 29/4/159 33/29/159 26/3/159
f 29/4/160 58/38/160 57/6/160
f 32/28/161 29/4/161 56/5/161
f 132/70/162 36/9/162 134/7/162
f 33/29/163 54/37/163 26/3/163
f 29/4/164 57/6/164 56/5/164
f 128/68/165 127/67/165 130/69/165
f 34/11/166 36/9/166 127/67/166
f 29/4/167 35/8/167 37/30/167
f 36/9/168 35/8/168 134/7/168
f 127/67/169 36/9/169 130/69/169
f 35/8/170 34/11/170 37/30/170
f 66/41/171 64/10/171 67/42/171
f 64/10/172 62/40/172 61/39/172
f 38/12/173 58/38/173 29/4/173
f 40/14/174 39/31/174 50/35/174
f 64/10/175 61/39/175 38/12/175
f 38/12/176 29/4/176 37/30/176
f 34/11/177 64/10/177 38/12/177
f 64/10/178 34/11/178 67/42/178
f 78/46/179 77/45/179 75/44/179
f 72/13/180 70/43/180 69/15/180
f 40/14/181 67/42/181 34/11/181
f 42/32/182 48/19/182 87/50/182
f 72/13/183 50/35/183 75/44/183
f 72/13/184 69/15/184 40/14/184
f 72/13/185 40/14/185 50/35/185
f 50/35/186 78/46/186 75/44/186
f 87/50/187 84/49/187 82/48/187
f 43/16/188 80/47/188 79/18/188
f 41/17/189 78/46/189 50/35/189
f 48/19/190 103/20/190 102/53/190
f 87/50/191 82/48/191 43/16/191
f 43/16/192 79/18/192 41/17/192
f 42/32/193 87/50/193 43/16/193
f 41/17/194 50/35/194 42/32/194
f 102/53/195 90/52/195 88/51/195
f 48/19/196 102/53/196 87/50/196
f 102/53/197 88/51/197 87/50/197
f 44/33/198 95/54/198 100/56/198
f 45/34/199 99/55/199 97/21/199
f 97/21/200 103/20/200 48/19/200
f 100/56/201 45/34/201 44/33/201
f 48/19/202 46/22/202 97/21/202
f 46/22/203 45/34/203 97/21/203
f 42/32/204 50/35/204 49/25/204
f 106/58/205 47/23/205 108/24/205
f 47/23/206 104/57/206 46/22/206
f 49/25/207 47/23/207 42/32/207
f 51/36/208 121/64/208 120/63/208
f 47/23/209 49/25/209 108/24/209
f 126/66/210 121/64/210 127/67/210
f 126/66/211 122/65/211 121/64/211
f 116/62/212 51/36/212 120/63/212
f 111/60/213 49/25/213 115/61/213
f 111/60/214 109/59/214 49/25/214
f 50/35/215 121/64/215 51/36/215
f 121/64/216 50/35/216 39/31/216
f 49/25/217 51/36/217 115/61/217
f 33/29/21 52/29/21 54/37/21
f 121/64/218 39/31/218 127/67/218
f 39/31/219 34/11/219 127/67/219
f 32/28/22 55/28/22 33/29/22
f 56/5/220 5/5/220 32/28/220
f 57/6/221 6/6/221 56/5/221
f 59/38/222 6/6/222 58/38/222
f 12/12/223 59/38/223 38/12/223
f 61/39/224 60/39/224 38/12/224
f 63/40/225 60/39/225 62/40/225
f 10/10/226 63/40/226 64/10/226
f 66/41/30 65/41/30 64/10/30
f 68/42/227 65/41/227 67/42/227
f 14/14/228 68/42/228 40/14/228
f 15/15/33 14/14/33 69/15/33
f 71/43/229 15/15/229 70/43/229
f 13/13/230 71/43/230 72/13/230
f 75/44/231 73/44/231 72/13/231
f 77/45/37 74/45/37 75/44/37
f 78/46/232 76/46/232 77/45/232
f 17/17/233 76/46/233 41/17/233
f 79/18/234 18/18/234 41/17/234
f 81/47/235 18/18/235 80/47/235
f 16/16/236 81/47/236 43/16/236
f 83/48/237 16/16/237 82/48/237
f 86/49/238 83/48/238 84/49/238
f 87/50/239 85/50/239 84/49/239
f 89/51/240 85/50/240 88/51/240
f 92/52/241 89/51/241 90/52/241
f 54/37/242 53/37/242 26/3/242
f 102/53/243 91/53/243 90/52/243
f 46/22/244 22/22/244 44/33/244
f 44/33/245 93/33/245 95/54/245
f 99/55/246 96/55/246 97/21/246
f 45/34/247 98/34/247 99/55/247
f 101/56/248 98/34/248 100/56/248
f 94/54/55 101/56/55 95/54/55
f 103/20/249 20/20/249 102/53/249
f 97/21/250 21/21/250 103/20/250
f 105/57/251 22/22/251 104/57/251
f 47/23/59 23/23/59 104/57/59
f 107/58/252 23/23/252 106/58/252
f 108/24/253 24/24/253 106/58/253
f 49/25/254 25/25/254 108/24/254
f 110/59/255 25/25/255 109/59/255
f 113/60/64 110/59/64 111/60/64
f 115/61/256 112/61/256 111/60/256
f 51/36/257 114/36/257 115/61/257
f 118/62/67 114/36/67 116/62/67
f 120/63/68 117/63/68 116/62/68
f 121/64/69 119/64/69 120/63/69
f 124/65/258 119/64/258 122/65/258
f 126/66/71 123/66/71 122/65/71
f 127/67/259 125/67/259 126/66/259
f 129/68/260 125/67/260 128/68/260
f 131/69/261 129/68/261 130/69/261
f 36/9/262 9/9/262 130/69/262
f 133/70/76 9/9/76 132/70/76
f 134/7/263 7/7/263 132/70/263
f 35/8/264 8/8/264 134/7/264
f 136/71/265 8/8/265 135/71/265
f 138/27/80 136/71/80 31/27/80
f 30/26/81 137/26/81 31/27/81
f 140/72/266 139/72/266 30/26/266
f 28/1/83 1/1/83 140/72/83
f 27/2/84 2/2/84 28/1/84
f 26/3/267 3/3/267 27/2/267
# Vertices: 144, normals: 267, texture coordinates: 72, faces: 284

