# File generated by ImageToStl.com - Free Image and 3D model conversion tools

mtllib leaf1_d1.mtl

o obj1
v 0.00335368 0.00033824 0.00275512
v 0.00074456 0.00037306 0.00169986
v 0.00073248 6.86E-06 0.00185409
v 0.01701389 5.626E-05 0.0049858
v 0.03329532 3.819E-05 0.01002641
v 0.03863098 0.0390328 0.0297905
v 0.04957675 2.012E-05 0.01417881
v 0.06126605 -0.04140511 0.03573987
v 0.04601595 -0.039374 0.02964
v 0.09044962 -0.03611719 0.03934735
v 0.07701593 -0.04023428 0.04029193
v 0.08396438 -0.04175227 0.04180282
v 0.11452191 -0.02010444 0.0313134
v 0.10462449 -0.02739146 0.03519088
v 0.11332259 -0.0280997 0.0358044
v 0.11470245 -5.217E-05 0.01730941
v 0.13098385 -0.00071303 0.0227205
v 0.12722207 0.00244201 0.02238077
v 0.12046921 0.02327432 0.03188528
v 0.12837582 0.01254996 0.02488427
v 0.13061547 0.01555898 0.02712283
v 0.09842103 -3.41E-05 0.01838144
v 0.11273241 0.02888775 0.0349856
v 0.10234468 0.03374677 0.03707615
v 0.10161172 0.04273932 0.04175395
v 0.0977027 0.04227514 0.0410463
v 0.01739728 3.47E-05 0.00379627
v 0.00951416 0.01114597 0.00119839
v 0.0269683 0.03643424 0.0242651
v 0.00471363 -0.01338803 0.00670614
v 0.00394916 -0.00359096 0.0030914
v 0.0528608 0.04539186 0.03407903
v 0.04985237 3.278E-05 0.01295967
v 0.03900515 0.03947627 0.02868338
v 0.0336324 7.107E-05 0.00882318
v 0.04637603 -0.03981932 0.02852895
v 0.06600163 -3.309E-05 0.01584148
v 0.0771249 -0.04083243 0.03919978
v 0.10464964 -0.02805586 0.03413242
v 0.09843883 -5.599E-05 0.01713178
v 0.11454704 -0.02076883 0.0302549
v 0.12741271 0.02302985 0.03078458
v 0.13071801 0.0161243 0.0260127
v 0.12051088 0.02387885 0.030792
v 0.11477873 -6.392E-05 0.01606181
v 0.12847834 0.01311528 0.02377416
v 0.06778742 0.04564604 0.0370875
v 0.09125292 0.03959298 0.03764533
v 0.1024304 0.03432319 0.03597035
v 0.08224275 -4.578E-05 0.01725259
v 0.00081675 -0.00215071 0.00278943
v 0.001085 -0.00260704 0.00165708
v 0.00444538 -0.0129317 0.0078385
v 0.0036809 -0.00313464 0.00422375
v 0.00911513 -0.01784163 0.010611
v 0.01974114 -0.02756619 0.01677762
v 0.00938339 -0.01829796 0.00947865
v 0.0200094 -0.02802251 0.01564527
v 0.04428373 -0.04426512 0.02898602
v 0.043949 -0.04381645 0.03010365
v 0.05433553 -0.04627019 0.03468282
v 0.0546956 -0.04671554 0.03357175
v 0.06199916 -0.04810254 0.03668558
v 0.06163908 -0.04765719 0.03779665
v 0.06162613 -0.04185044 0.03462882
v 0.065991 -0.04451043 0.03846748
v 0.06635108 -0.04495578 0.0373564
v 0.07842248 -0.0459449 0.04213302
v 0.07812768 -0.04545623 0.0432451
v 0.09285843 -0.04207979 0.0420872
v 0.08407338 -0.04235045 0.04071068
v 0.0929674 -0.04267797 0.04099505
v 0.0905586 -0.03671537 0.0382552
v 0.09888042 -0.03546329 0.03919255
v 0.10332745 -0.03553166 0.0393209
v 0.09898942 -0.03606144 0.0381004
v 0.10814505 -0.03373443 0.03857673
v 0.10343645 -0.03612983 0.03822875
v 0.1082465 -0.03433878 0.03748728
v 0.11334772 -0.0287641 0.03474595
v 0.11973387 -0.0259279 0.03353045
v 0.11970872 -0.02526352 0.0345889
v 0.12203911 -0.0198003 0.03002575
v 0.12201396 -0.01913592 0.03108422
v 0.12664961 -0.01809928 0.02943345
v 0.12116411 -0.01153726 0.02630305
v 0.12662449 -0.01743489 0.0304919
v 0.12662448 -0.01123796 0.0264132
v 0.12126593 -0.01217499 0.02523285
v 0.13101561 -0.00876497 0.02536128
v 0.12683941 -0.01183097 0.02533408
v 0.00114341 -1.866E-05 0.00067386
v 0.13123053 -0.00935799 0.02428213
v 0.12730128 -0.004713 0.02174559
v 0.12731016 0.02246453 0.0318947
v 0.13331659 0.01839557 0.03009535
v 0.13341914 0.01896089 0.02898522
v 0.13251577 0.00974281 0.02272898
v 0.12732462 0.00300732 0.02127066
v 0.13261829 0.01030813 0.02161887
v 0.12708635 -0.00411999 0.02282472
v 0.13116853 -0.00078497 0.02148633
v 0.12413936 0.02900195 0.03458725
v 0.12413401 0.02837505 0.03566865
v 0.11273776 0.02951462 0.0339042
v 0.11623968 0.03451372 0.03721935
v 0.1100813 0.03573952 0.03877273
v 0.11623433 0.03388685 0.03830073
v 0.11008663 0.0363664 0.03769132
v 0.10672617 0.04152142 0.04027498
v 0.10657945 0.04098589 0.04139485
v 0.10175845 0.04327484 0.04063408
v 0.09784942 0.04281066 0.03992642
v 0.0911062 0.03905746 0.0387652
v 0.09214874 0.04812141 0.04186635
v 0.08622654 0.04791368 0.04231558
v 0.09200202 0.04758588 0.04298622
v 0.08637324 0.04844921 0.0411957
v 0.07929397 0.04413613 0.03825525
v 0.08100412 0.05039 0.04265175
v 0.07914725 0.0436006 0.03937513
v 0.07531747 0.05060797 0.04180275
v 0.08115082 0.05092553 0.04153188
v 0.07546419 0.0511435 0.04068288
v 0.06754572 0.05236707 0.04113163
v 0.06758055 0.04512509 0.03820472
v 0.06780852 0.05287317 0.04001932
v 0.06098454 0.05173426 0.03820225
v 0.06072174 0.05122816 0.03931455
v 0.05283007 0.05100261 0.03751428
v 0.05259797 0.04488573 0.0351913
v 0.05309289 0.05150873 0.036402
v 0.04570897 0.04701555 0.0330109
v 0.04544617 0.04650943 0.03412318
v 0.03844062 0.04586482 0.03210263
v 0.0389338 0.04623335 0.0310148
v 0.00902098 0.01077746 0.00228622
v 0.02647513 0.03606572 0.02535292
v 0.00458354 0.00372491 0.00060653
v 0.00409036 0.0033564 0.00169436
v 0.00384686 0.00070675 0.00166729
v 0.00123774 0.00074157 0.00061202
v 0.08213958 -1.603E-05 0.01849794
v 0.06585815 2.04E-06 0.0170827
vn 0.37416 0.34342 0.86143
vn -0.40547 0.27075 0.87309
vn -0.41579 0.22519 0.88114
vn 0.37183 0.30164 0.87793
vn 0.47894 0.08535 0.87369
vn 0.49205 0.02132 0.8703
vn -0.2756 0.31323 0.90881
vn -0.57172 0.05037 0.8189
vn -0.47939 0.04789 0.87629
vn -0.46563 0.10381 0.87887
vn 0.25935 -0.61182 -0.74728
vn -0.33326 -0.13873 -0.93257
vn 0.40589 -0.17595 -0.89682
vn -0.37149 -0.22861 -0.89985
vn -0.45889 -0.15427 -0.875
vn -0.51194 -0.04076 -0.85805
vn 0.59004 -0.07172 -0.80419
vn 0.52925 0.03183 -0.84787
vn 0.41097 -0.16178 -0.89718
vn 0.44269 -0.07482 -0.89355
vn -0.87028 0.42427 0.25021
vn -0.14037 0.97463 -0.17433
vn -0.65958 0.74634 0.089
vn -0.69891 0.70601 0.1144
vn -0.77435 0.61019 0.1675
vn -0.35719 -0.84563 0.39665
vn -0.74231 0.66502 0.08201
vn -0.91695 0.29067 0.27333
vn 0.14059 -0.95699 0.25379
vn -0.79421 0.59451 0.12567
vn -0.93028 0.19834 0.3086
vn 0.27666 -0.95202 0.13081
vn -0.85308 0.28185 0.4391
vn -0.87807 0.04756 0.47617
vn 0.33681 -0.93717 -0.09095
vn -0.87126 -0.07648 0.48482
vn -0.87789 0.0273 0.47809
vn -0.79834 -0.37109 0.47428
vn 0.42756 -0.89073 -0.15425
vn -0.84334 0.10583 0.52685
vn -0.75994 -0.43024 0.48723
vn 0.5562 -0.76227 -0.33102
vn -0.83904 -0.12466 0.5296
vn -0.78788 -0.35531 0.50299
vn 0.51975 -0.79713 -0.30731
vn -0.85694 -0.0366 0.51412
vn -0.70444 -0.51398 0.48947
vn -0.10229 0.94012 -0.32512
vn 0.58401 -0.79531 -0.16253
vn 0.8817 -0.10895 0.45906
vn 0.69429 -0.59266 0.40831
vn -0.56654 -0.79549 -0.21502
vn 0.65335 -0.64736 0.39251
vn -0.49997 -0.84791 -0.17628
vn -0.55238 -0.80756 -0.2067
vn -0.60649 -0.647 0.46214
vn 0.76746 -0.63908 0.05089
vn -0.45204 -0.8652 -0.21698
vn 0.86509 -0.00885 0.50154
vn -0.43876 -0.8631 -0.25009
vn 0.8283 -0.28634 0.48159
vn 0.82157 0.31571 0.47471
vn -0.43471 -0.88662 -0.15787
vn 0.83525 -0.32678 0.44223
vn 0.89642 0.17978 0.40511
vn 0.80387 0.50229 0.3186
vn -0.13581 -0.98863 0.06458
vn 0.9021 -0.00109 0.43153
vn 0.76033 0.58256 0.28727
vn -0.26389 -0.96455 0.00018
vn 0.90326 0.02929 0.4281
vn 0.7225 0.63994 0.26166
vn -0.05811 -0.98613 0.1555
vn 0.90302 0.24472 0.35307
vn 0.73042 0.65981 0.17646
vn -0.1064 -0.97743 0.18252
vn 0.78503 0.57892 0.22042
vn 0.62727 0.77195 0.10303
vn -0.07263 -0.95332 0.29311
vn 0.77906 0.62663 -0.02017
vn 0.63939 0.75829 -0.12718
vn 0.55425 0.81252 -0.18061
vn 0.08832 0.91813 -0.38632
vn 0.95528 0.09983 0.27835
vn 0.08232 0.91787 -0.38824
vn -0.76972 0.11833 0.62732
vn -0.31626 0.25625 0.91341
vn -0.26417 0.60738 0.7492
vn 0.35909 0.14319 0.92226
vn 0.36754 0.31241 0.87597
vn -0.43837 0.21186 0.87347
vn 0.07425 0.22828 0.97076
vn 0.36127 0.16503 0.91774
vn 0.35843 0.25392 0.89836
vn 0.48971 0.16612 0.85591
vn 0.3339 0.13324 0.93314
vn 0.36959 0.18965 0.90963
vn -0.40806 0.17375 0.89627
vn -0.36926 0.18109 0.91151
vn -0.3397 0.21391 0.91588
vn -0.40782 0.17558 0.89602
vn -0.36601 0.17788 0.91345
vn -0.33686 0.21344 0.91704
vn 0.26851 0.3267 0.90618
vn 0.27044 0.38313 0.88322
vn 0.27686 0.33189 0.90178
vn 0.28504 0.33178 0.89926
vn 0.4611 0.15503 0.8737
vn 0.35532 0.27609 0.89304
vn 0.3735 0.22885 0.89896
vn 0.37191 0.30143 0.87797
vn 0.41285 0.01391 0.91069
vn 0.42675 0.01953 0.90416
vn 0.33958 0.25806 0.90448
vn 0.49609 0.02254 0.86798
vn 0.46092 0.15533 0.87374
vn 0.49188 0.03396 0.87
vn 0.48317 0.08682 0.87121
vn 0.48248 0.07532 0.87266
vn 0.49525 0.05492 0.86701
vn 0.52388 0.08439 0.8476
vn 0.63353 -0.05154 0.772
vn 0.5246 -0.00667 0.85132
vn 0.52868 0.04241 0.84776
vn 0.45197 0.04275 0.89101
vn 0.51566 0.04445 0.85564
vn 0.52302 0.03212 0.85172
vn 0.45191 0.04103 0.89112
vn 0.35053 0.28253 0.89292
vn 0.53695 0.18971 0.822
vn -0.26147 -0.30027 0.91732
vn -0.61811 0.19024 0.76272
vn -0.53402 -0.02399 0.84513
vn -0.19016 0.33581 0.92254
vn -0.58982 0.07093 0.80442
vn -0.55894 0.07461 0.82584
vn -0.5075 0.08705 0.85724
vn -0.48471 -0.00572 0.87466
vn -0.53882 -0.05475 0.84064
vn -0.44524 0.07632 0.89215
vn -0.49409 0.01012 0.86935
vn -0.50066 0.06041 0.86353
vn -0.46558 0.10078 0.87925
vn -0.45738 0.08307 0.88538
vn -0.42907 0.12818 0.89413
vn -0.39603 0.15042 0.90584
vn -0.41344 0.16032 0.89631
vn -0.41487 0.14556 0.89816
vn -0.43531 0.11987 0.89227
vn -0.42362 0.11511 0.8985
vn -0.12092 -0.37081 -0.9208
vn -0.43479 0.07846 0.89711
vn -0.39317 0.14371 0.90817
vn -0.06991 -0.22196 -0.97255
vn -0.35647 -0.12774 -0.92554
vn 0.43645 -0.21076 -0.87469
vn 0.545 -0.15645 -0.82371
vn 0.3178 -0.2549 -0.91325
vn -0.4578 -0.16917 -0.87281
vn -0.35577 -0.25594 -0.89885
vn -0.35828 -0.16849 -0.91828
vn 0.3397 -0.21391 -0.91588
vn -0.34232 -0.32406 -0.88193
vn -0.36645 -0.19288 -0.91023
vn 0.36925 -0.18109 -0.91152
vn 0.40616 -0.17389 -0.8971
vn 0.4038 -0.26977 -0.87417
vn 0.36601 -0.17787 -0.91345
vn 0.33667 -0.21341 -0.91712
vn 0.4137 -0.22589 -0.88194
vn -0.28385 -0.33261 -0.89933
vn -0.27686 -0.33189 -0.90178
vn -0.27063 -0.38199 -0.88365
vn -0.47983 -0.07557 -0.8741
vn -0.26851 -0.3267 -0.90618
vn -0.3528 -0.27748 -0.89361
vn -0.36963 -0.30222 -0.87865
vn -0.36954 -0.30246 -0.87861
vn -0.42677 -0.01953 -0.90415
vn -0.41285 -0.01391 -0.91069
vn -0.4646 -0.14443 -0.87366
vn -0.62029 0.05155 -0.78268
vn -0.49307 -0.02227 -0.8697
vn -0.47894 -0.08535 -0.87369
vn -0.48044 -0.08587 -0.87282
vn -0.48906 -0.03328 -0.87161
vn -0.5241 -0.08449 -0.84745
vn -0.49525 -0.05493 -0.86701
vn -0.32676 -0.27313 -0.90478
vn -0.33729 -0.28239 -0.89805
vn -0.5286 -0.0424 -0.84781
vn -0.49206 -0.02132 -0.8703
vn -0.51997 -0.02693 -0.85376
vn -0.52007 0.0067 -0.8541
vn -0.45191 -0.04103 -0.89112
vn -0.53141 -0.17856 -0.82808
vn -0.45201 -0.04408 -0.89092
vn 0.61811 -0.19024 -0.76272
vn 0.26147 0.30027 -0.91732
vn 0.26584 -0.31342 -0.91164
vn 0.57154 -0.05073 -0.81901
vn 0.19004 -0.33642 -0.92234
vn 0.53273 0.05504 -0.84449
vn 0.4811 0.00624 -0.87665
vn 0.5075 -0.08705 -0.85724
vn 0.55895 -0.07461 -0.82584
vn 0.47593 -0.04597 -0.87828
vn 0.49079 -0.007 -0.87125
vn 0.50068 -0.06048 -0.86351
vn 0.39603 -0.15042 -0.90584
vn 0.42907 -0.12818 -0.89413
vn 0.46566 -0.1038 -0.87885
vn 0.46563 -0.1008 -0.87922
vn 0.43274 -0.11882 -0.89365
vn 0.45747 -0.08301 -0.88534
vn 0.43227 -0.07839 -0.89833
vn 0.39319 -0.14376 -0.90815
vn 0.42362 -0.11511 -0.8985
vn 0.41257 -0.1454 -0.89925
vn -0.14037 0.97463 -0.17433
vn -0.65958 0.74634 0.089
vn -0.69891 0.706 0.1144
vn -0.78657 0.6025 0.13532
vn -0.34855 -0.84165 0.41247
vn -0.74231 0.66502 0.08201
vn -0.91695 0.29067 0.27333
vn 0.14059 -0.95699 0.25379
vn -0.91462 0.20781 0.34683
vn 0.23023 -0.9727 -0.02903
vn 0.33681 -0.93717 -0.09095
vn -0.87789 0.0273 0.47809
vn -0.79723 -0.37034 0.47673
vn 0.38188 -0.89804 -0.21837
vn -0.84334 0.10583 0.52685
vn -0.75994 -0.43024 0.48723
vn 0.55621 -0.76227 -0.33101
vn -0.83903 -0.12466 0.52961
vn 0.54779 -0.79824 -0.25048
vn -0.8717 -0.04494 0.48797
vn -0.70444 -0.51398 0.48947
vn -0.11777 0.9759 -0.18373
vn 0.58401 -0.79531 -0.16253
vn 0.86889 -0.10219 0.48435
vn 0.69429 -0.59266 0.40831
vn 0.65335 -0.64736 0.39251
vn -0.49997 -0.84791 -0.17628
vn -0.55238 -0.80756 -0.2067
vn -0.74349 -0.65368 0.14116
vn 0.66444 -0.63326 0.39686
vn -0.4366 -0.86456 -0.24883
vn 0.86509 -0.00885 0.50154
vn -0.43876 -0.8631 -0.25009
vn 0.84986 0.32079 0.41814
vn -0.45611 -0.88402 -0.10229
vn 0.83525 -0.32678 0.44223
vn 0.89642 0.17978 0.40511
vn 0.80387 0.50229 0.3186
vn -0.13581 -0.98863 0.06458
vn 0.76033 0.58256 0.28727
vn 0.74099 0.63142 0.22859
vn -0.08151 -0.97763 0.1939
vn 0.73042 0.65981 0.17646
vn -0.1064 -0.97743 0.18252
vn 0.78502 0.57892 0.22042
vn 0.66837 0.74365 0.01638
vn -0.12 -0.91885 0.37592
vn 0.77906 0.62663 -0.02017
vn 0.63939 0.75829 -0.12718
vn -0.10583 0.9398 -0.32493
vt 0.50127 0.68894
vt 0.50087 0.70196
vt 0.49954 0.70202
vt 0.49946 0.6208
vt 0.49939 0.53959
vt 0.64404 0.51298
vt 0.49932 0.45838
vt 0.33468 0.40007
vt 0.34792 0.47614
vt 0.35163 0.2545
vt 0.33506 0.32151
vt 0.3279 0.28685
vt 0.42 0.13443
vt 0.38869 0.18379
vt 0.38543 0.14041
vt 0.49904 0.13352
vt 0.49897 0.05231
vt 0.51075 0.07108
vt 0.58858 0.10476
vt 0.53972 0.06532
vt 0.55379 0.05415
vt 0.49911 0.21474
vt 0.61341 0.14335
vt 0.63412 0.19517
vt 0.67351 0.19882
vt 0.67086 0.21832
vt 0.54153 0.66067
vt 0.62722 0.57361
vt 0.46851 0.6835
vt 0.49077 0.68731
vt 0.67279 0.44331
vt 0.49925 0.37716
vt 0.5856 0.07064
vt 0.67765 0.36857
vt 0.65597 0.25122
vt 0.49918 0.29595
vt 0.49221 0.7016
vt 0.44727 0.6602
vt 0.40458 0.6072
vt 0.33054 0.48645
vt 0.31705 0.43464
vt 0.30896 0.39821
vt 0.32037 0.3765
vt 0.31246 0.31596
vt 0.3264 0.24248
vt 0.35427 0.21245
vt 0.35389 0.19026
vt 0.36142 0.16623
vt 0.39736 0.10855
vt 0.42391 0.09705
vt 0.43094 0.07406
vt 0.45723 0.10129
vt 0.45827 0.07406
vt 0.46866 0.05215
vt 0.48868 0.07175
vt 0.56819 0.04068
vt 0.52648 0.04467
vt 0.61241 0.08648
vt 0.63625 0.12588
vt 0.64372 0.15658
vt 0.66656 0.17404
vt 0.69305 0.24676
vt 0.69337 0.27556
vt 0.67356 0.31088
vt 0.70296 0.30161
vt 0.70265 0.32998
vt 0.70826 0.36875
vt 0.70166 0.40279
vt 0.69845 0.44215
vt 0.67738 0.47898
vt 0.67233 0.51393
vt 0.51241 0.68527
usemtl mat0
f 1/1/1 2/2/1 3/3/1
f 4/4/2 5/5/2 6/6/2
f 6/6/3 5/5/3 7/7/3
f 8/8/4 7/7/4 9/9/4
f 10/10/5 11/11/5 12/12/5
f 13/13/6 14/14/6 15/15/6
f 16/16/7 17/17/7 18/18/7
f 19/19/8 20/20/8 21/21/8
f 22/22/9 23/23/9 24/24/9
f 24/24/10 25/25/10 26/26/10
f 27/4/11 28/27/11 29/28/11
f 27/4/12 30/29/12 31/30/12
f 32/31/13 33/7/13 34/6/13
f 35/5/14 33/7/14 36/9/14
f 33/7/15 37/32/15 38/11/15
f 39/14/16 40/22/16 41/13/16
f 42/33/17 43/21/17 44/19/17
f 45/16/18 44/19/18 46/20/18
f 37/32/19 33/7/19 47/34/19
f 48/35/20 49/24/20 50/36/20
f 51/37/21 52/37/21 31/30/21
f 53/29/22 54/30/22 31/30/22
f 55/38/23 53/29/23 30/29/23
f 56/39/24 55/38/24 57/38/24
f 56/39/25 58/39/25 59/40/25
f 60/40/26 59/40/26 36/9/26
f 61/41/27 9/9/27 36/9/27
f 61/41/28 62/41/28 63/42/28
f 64/42/29 63/42/29 65/8/29
f 66/43/30 8/8/30 65/8/30
f 66/43/31 67/43/31 68/44/31
f 11/11/32 69/44/32 68/44/32
f 12/12/33 11/11/33 38/11/33
f 70/45/34 12/12/34 71/12/34
f 70/45/35 72/45/35 73/10/35
f 74/46/36 10/10/36 73/10/36
f 75/47/37 74/46/37 76/46/37
f 77/48/38 75/47/38 78/47/38
f 77/48/39 79/48/39 39/14/39
f 15/15/40 14/14/40 39/14/40
f 15/15/41 80/15/41 81/49/41
f 82/49/42 81/49/42 41/13/42
f 13/13/43 41/13/43 83/50/43
f 84/50/44 83/50/44 85/51/44
f 86/52/45 87/51/45 85/51/45
f 88/53/46 86/52/46 89/52/46
f 90/54/47 88/53/47 91/53/47
f 3/3/48 92/3/48 52/37/48
f 90/54/49 93/54/49 94/55/49
f 95/33/50 42/33/50 44/19/50
f 96/56/51 97/56/51 42/33/51
f 98/57/52 18/18/52 99/18/52
f 98/57/53 100/57/53 46/20/53
f 20/20/54 46/20/54 43/21/54
f 21/21/55 43/21/55 97/56/55
f 101/55/56 94/55/56 102/17/56
f 18/18/57 17/17/57 102/17/57
f 19/19/58 44/19/58 103/58/58
f 23/23/59 104/58/59 103/58/59
f 23/23/60 105/23/60 106/59/60
f 107/60/61 108/59/61 106/59/61
f 24/24/62 107/60/62 109/60/62
f 24/24/63 49/24/63 110/61/63
f 111/61/64 110/61/64 112/25/64
f 25/25/65 112/25/65 113/26/65
f 26/26/66 113/26/66 48/35/66
f 114/35/67 48/35/67 115/62/67
f 116/63/68 117/62/68 115/62/68
f 116/63/69 118/63/69 119/64/69
f 120/65/70 121/64/70 119/64/70
f 122/66/71 120/65/71 123/65/71
f 122/66/72 124/66/72 47/34/72
f 125/67/73 126/34/73 47/34/73
f 125/67/74 127/67/74 128/68/74
f 129/68/75 128/68/75 32/31/75
f 130/69/76 131/31/76 32/31/76
f 130/69/77 132/69/77 133/70/77
f 134/70/78 133/70/78 34/6/78
f 135/71/79 6/6/79 34/6/79
f 135/71/80 136/71/80 29/28/80
f 137/27/81 138/28/81 29/28/81
f 137/27/82 28/27/82 139/72/82
f 140/72/83 139/72/83 141/1/83
f 1/1/84 141/1/84 142/2/84
f 2/2/85 142/2/85 92/3/85
f 4/4/86 1/1/86 3/3/86
f 135/71/87 138/28/87 6/6/87
f 137/27/88 4/4/88 138/28/88
f 1/1/89 4/4/89 140/72/89
f 3/3/90 51/37/90 54/30/90
f 138/28/91 4/4/91 6/6/91
f 4/4/92 137/27/92 140/72/92
f 55/38/93 4/4/93 53/29/93
f 60/40/94 4/4/94 56/39/94
f 3/3/95 54/30/95 4/4/95
f 4/4/96 54/30/96 53/29/96
f 4/4/97 55/38/97 56/39/97
f 126/34/98 131/31/98 7/7/98
f 126/34/99 125/67/99 129/68/99
f 131/31/100 130/69/100 134/70/100
f 131/31/101 6/6/101 7/7/101
f 129/68/102 131/31/102 126/34/102
f 134/70/103 6/6/103 131/31/103
f 8/8/104 9/9/104 61/41/104
f 60/40/105 9/9/105 4/4/105
f 64/42/106 8/8/106 61/41/106
f 8/8/107 66/43/107 69/44/107
f 69/44/108 11/11/108 7/7/108
f 9/9/109 5/5/109 4/4/109
f 7/7/110 5/5/110 9/9/110
f 8/8/111 69/44/111 7/7/111
f 70/45/112 10/10/112 12/12/112
f 74/46/113 75/47/113 77/48/113
f 143/36/114 77/48/114 14/14/114
f 143/36/115 10/10/115 74/46/115
f 11/11/116 144/32/116 7/7/116
f 77/48/117 143/36/117 74/46/117
f 10/10/118 143/36/118 11/11/118
f 143/36/119 144/32/119 11/11/119
f 82/49/120 13/13/120 15/15/120
f 87/51/121 86/52/121 84/50/121
f 86/52/122 16/16/122 22/22/122
f 22/22/123 143/36/123 14/14/123
f 86/52/124 13/13/124 84/50/124
f 88/53/125 101/55/125 86/52/125
f 14/14/126 13/13/126 22/22/126
f 13/13/127 86/52/127 22/22/127
f 88/53/128 90/54/128 101/55/128
f 101/55/129 17/17/129 16/16/129
f 101/55/130 16/16/130 86/52/130
f 18/18/131 98/57/131 20/20/131
f 21/21/132 96/56/132 95/33/132
f 16/16/133 20/20/133 19/19/133
f 16/16/134 18/18/134 20/20/134
f 95/33/135 19/19/135 21/21/135
f 19/19/136 104/58/136 23/23/136
f 23/23/137 108/59/137 107/60/137
f 143/36/138 22/22/138 24/24/138
f 22/22/139 16/16/139 19/19/139
f 24/24/140 114/35/140 143/36/140
f 19/19/141 23/23/141 22/22/141
f 23/23/142 107/60/142 24/24/142
f 24/24/143 111/61/143 25/25/143
f 114/35/144 24/24/144 26/26/144
f 114/35/145 117/62/145 116/63/145
f 121/64/146 120/65/146 122/66/146
f 7/7/147 144/32/147 126/34/147
f 144/32/148 121/64/148 126/34/148
f 143/36/149 114/35/149 121/64/149
f 114/35/150 116/63/150 121/64/150
f 92/3/151 142/2/151 141/1/151
f 144/32/152 143/36/152 121/64/152
f 121/64/153 122/66/153 126/34/153
f 28/27/154 27/4/154 139/72/154
f 27/4/155 141/1/155 139/72/155
f 27/4/156 29/28/156 34/6/156
f 27/4/157 92/3/157 141/1/157
f 29/28/158 136/71/158 34/6/158
f 27/4/159 31/30/159 92/3/159
f 27/4/160 59/40/160 58/39/160
f 30/29/161 27/4/161 57/38/161
f 132/69/162 32/31/162 133/70/162
f 31/30/163 52/37/163 92/3/163
f 27/4/164 58/39/164 57/38/164
f 127/67/165 47/34/165 128/68/165
f 33/7/166 32/31/166 47/34/166
f 35/5/167 27/4/167 34/6/167
f 47/34/168 32/31/168 128/68/168
f 32/31/169 34/6/169 133/70/169
f 33/7/170 35/5/170 34/6/170
f 67/43/171 65/8/171 68/44/171
f 65/8/172 63/42/172 62/41/172
f 36/9/173 59/40/173 27/4/173
f 38/11/174 37/32/174 50/36/174
f 65/8/175 62/41/175 36/9/175
f 36/9/176 27/4/176 35/5/176
f 33/7/177 65/8/177 36/9/177
f 65/8/178 33/7/178 68/44/178
f 79/48/179 78/47/179 76/46/179
f 73/10/180 72/45/180 71/12/180
f 38/11/181 68/44/181 33/7/181
f 40/22/182 45/16/182 89/52/182
f 73/10/183 50/36/183 76/46/183
f 73/10/184 71/12/184 38/11/184
f 73/10/185 38/11/185 50/36/185
f 50/36/186 79/48/186 76/46/186
f 89/52/187 85/51/187 83/50/187
f 41/13/188 81/49/188 80/15/188
f 39/14/189 79/48/189 50/36/189
f 45/16/190 102/17/190 94/55/190
f 89/52/191 83/50/191 41/13/191
f 41/13/192 80/15/192 39/14/192
f 40/22/193 89/52/193 41/13/193
f 39/14/194 50/36/194 40/22/194
f 94/55/195 93/54/195 91/53/195
f 45/16/196 94/55/196 89/52/196
f 94/55/197 91/53/197 89/52/197
f 42/33/198 97/56/198 43/21/198
f 46/20/199 100/57/199 99/18/199
f 99/18/200 102/17/200 45/16/200
f 44/19/201 43/21/201 46/20/201
f 46/20/202 99/18/202 45/16/202
f 44/19/203 45/16/203 40/22/203
f 40/22/204 50/36/204 49/24/204
f 106/59/205 105/23/205 109/60/205
f 105/23/206 103/58/206 44/19/206
f 49/24/207 105/23/207 40/22/207
f 105/23/208 44/19/208 40/22/208
f 105/23/209 49/24/209 109/60/209
f 123/65/210 119/64/210 124/66/210
f 115/62/211 48/35/211 118/63/211
f 112/25/212 49/24/212 113/26/212
f 112/25/213 110/61/213 49/24/213
f 54/30/21 51/37/21 31/30/21
f 48/35/214 50/36/214 119/64/214
f 49/24/215 48/35/215 113/26/215
f 50/36/216 37/32/216 119/64/216
f 119/64/217 47/34/217 124/66/217
f 48/35/218 119/64/218 118/63/218
f 119/64/219 37/32/219 47/34/219
f 30/29/220 53/29/220 31/30/220
f 57/38/221 55/38/221 30/29/221
f 58/39/222 56/39/222 57/38/222
f 60/40/223 56/39/223 59/40/223
f 9/9/224 60/40/224 36/9/224
f 62/41/225 61/41/225 36/9/225
f 64/42/226 61/41/226 63/42/226
f 8/8/227 64/42/227 65/8/227
f 67/43/30 66/43/30 65/8/30
f 69/44/228 66/43/228 68/44/228
f 38/11/229 11/11/229 68/44/229
f 71/12/33 12/12/33 38/11/33
f 72/45/34 70/45/34 71/12/34
f 10/10/230 70/45/230 73/10/230
f 76/46/36 74/46/36 73/10/36
f 78/47/231 75/47/231 76/46/231
f 79/48/232 77/48/232 78/47/232
f 14/14/233 77/48/233 39/14/233
f 80/15/234 15/15/234 39/14/234
f 82/49/235 15/15/235 81/49/235
f 13/13/236 82/49/236 41/13/236
f 84/50/237 13/13/237 83/50/237
f 87/51/44 84/50/44 85/51/44
f 89/52/238 86/52/238 85/51/238
f 91/53/239 88/53/239 89/52/239
f 93/54/240 90/54/240 91/53/240
f 51/37/241 3/3/241 52/37/241
f 101/55/242 90/54/242 94/55/242
f 19/19/243 95/33/243 44/19/243
f 95/33/244 96/56/244 42/33/244
f 100/57/52 98/57/52 99/18/52
f 20/20/245 98/57/245 46/20/245
f 21/21/246 20/20/246 43/21/246
f 96/56/247 21/21/247 97/56/247
f 17/17/248 101/55/248 102/17/248
f 99/18/249 18/18/249 102/17/249
f 104/58/250 19/19/250 103/58/250
f 105/23/251 23/23/251 103/58/251
f 108/59/252 23/23/252 106/59/252
f 109/60/61 107/60/61 106/59/61
f 49/24/253 24/24/253 109/60/253
f 111/61/254 24/24/254 110/61/254
f 25/25/255 111/61/255 112/25/255
f 26/26/256 25/25/256 113/26/256
f 114/35/257 26/26/257 48/35/257
f 117/62/258 114/35/258 115/62/258
f 118/63/68 116/63/68 115/62/68
f 121/64/259 116/63/259 119/64/259
f 123/65/70 120/65/70 119/64/70
f 124/66/71 122/66/71 123/65/71
f 126/34/260 122/66/260 47/34/260
f 127/67/261 125/67/261 47/34/261
f 129/68/74 125/67/74 128/68/74
f 131/31/262 129/68/262 32/31/262
f 132/69/263 130/69/263 32/31/263
f 134/70/264 130/69/264 133/70/264
f 6/6/265 134/70/265 34/6/265
f 136/71/266 135/71/266 34/6/266
f 138/28/267 135/71/267 29/28/267
f 28/27/268 137/27/268 29/28/268
f 140/72/82 137/27/82 139/72/82
f 1/1/83 140/72/83 141/1/83
f 2/2/84 1/1/84 142/2/84
f 3/3/269 2/2/269 92/3/269
# Vertices: 144, normals: 269, texture coordinates: 72, faces: 284

