# Blender v3.0.1 OBJ File: ''
# www.blender.org
mtllib sb4_new.mtl
o obj1
v -0.000111 -0.006145 0.001325
v -0.000325 -0.006169 0.000914
v -0.001037 -0.005363 0.000854
v -0.002283 -0.023886 0.001377
v -0.002294 -0.024178 0.000815
v -0.001086 -0.024186 0.002171
v 0.008531 -0.009164 -0.005906
v 0.008293 -0.007833 -0.005831
v 0.008669 -0.007347 -0.005005
v 0.000213 -0.004617 0.003293
v 0.000475 -0.005055 0.002508
v 0.000277 -0.005500 0.002125
v -0.010003 -0.009328 -0.004743
v -0.010759 -0.009964 -0.002984
v -0.010724 -0.009053 -0.002755
v 0.003683 -0.022339 -0.003375
v 0.003607 -0.023179 -0.002625
v 0.002736 -0.023663 -0.003019
v -0.003245 -0.008906 -0.010082
v -0.005445 -0.008472 -0.009036
v -0.003141 -0.007629 -0.009698
v -0.001398 -0.024426 -0.002342
v -0.007204 -0.015685 -0.006559
v -0.001855 -0.017086 -0.008174
v -0.000401 -0.002564 0.005088
v -0.000506 -0.002575 0.004918
v -0.000656 -0.002593 0.004796
v -0.005687 -0.002696 -0.001364
v -0.005871 -0.002802 -0.001793
v -0.006227 -0.002723 -0.001491
v -0.001084 -0.002890 0.004253
v -0.000918 -0.002630 0.004682
v -0.003517 -0.012248 -0.010113
v -0.000199 -0.010355 -0.010389
v -0.001419 -0.015150 -0.009335
v 0.003052 -0.007581 0.008921
v 0.002836 -0.005975 0.008414
v 0.001886 -0.007544 0.009674
v 0.003496 -0.004128 -0.005621
v 0.001134 -0.004976 -0.007081
v 0.001439 -0.003605 -0.005081
v -0.005558 -0.003477 0.002204
v -0.005175 -0.002562 0.001780
v -0.005726 -0.002620 0.000464
v 0.005236 -0.002358 0.001694
v 0.005141 -0.002312 0.002373
v 0.005551 -0.002457 0.002030
v -0.009332 -0.013607 0.002896
v -0.006266 -0.019018 0.001363
v -0.006994 -0.016467 0.003545
v -0.009456 -0.011486 -0.005950
v -0.008989 -0.010477 -0.006585
v -0.008683 -0.010418 -0.006914
v -0.000433 -0.013848 0.009863
v -0.003392 -0.015178 0.008685
v -0.002413 -0.017726 0.007485
v -0.000545 -0.023811 0.002858
v -0.001116 -0.023754 0.002749
v -0.002216 -0.024404 0.000170
v -0.001839 -0.024620 -0.000137
v 0.004706 -0.002262 0.002748
v 0.004839 -0.004243 0.005831
v 0.006784 -0.003826 0.003737
v -0.001122 -0.005008 -0.002710
v 0.001394 -0.003590 -0.004443
v -0.003486 -0.003745 -0.004124
v 0.002031 -0.003541 -0.004403
v -0.004476 -0.021803 -0.002511
v -0.002360 -0.024295 -0.000316
v -0.002354 -0.024307 0.000035
v 0.005350 -0.005142 0.006676
v 0.003490 -0.005369 0.007338
v 0.004741 -0.006584 0.007951
v 0.000775 -0.023732 0.002301
v 0.000425 -0.023694 0.002601
v 0.000288 -0.023552 0.003162
v 0.000725 -0.023683 0.002940
v -0.005944 -0.007794 0.008375
v -0.006640 -0.006873 0.007088
v -0.007756 -0.008462 0.006417
v -0.007189 -0.009988 0.007876
v 0.006070 -0.002848 0.001017
v 0.005426 -0.002572 0.001093
v 0.002259 -0.023045 0.002741
v 0.001717 -0.023435 0.002051
v 0.003005 -0.023154 0.001501
v 0.001130 -0.002756 0.004712
v 0.000786 -0.002752 0.005012
v 0.000994 -0.002811 0.005233
v 0.000684 -0.002870 0.005558
v 0.003434 -0.019063 0.006265
v 0.000683 -0.021287 0.005450
v 0.001006 -0.023557 0.003283
v -0.001462 -0.023797 0.002455
v -0.005279 -0.014985 0.007908
v -0.007054 -0.013855 0.006941
v 0.001537 -0.002701 0.004496
v 0.001217 -0.002755 0.004636
v -0.002175 -0.002502 0.005164
v -0.001826 -0.002534 0.004864
v -0.002131 -0.002508 0.004526
v 0.003906 -0.023442 -0.001658
v 0.004903 -0.022699 -0.000799
v 0.004422 -0.023156 -0.000334
v 0.009877 -0.007942 0.004179
v 0.009955 -0.006926 0.001639
v 0.009032 -0.005744 0.002926
v -0.006781 -0.018509 -0.002356
v -0.006279 -0.019335 -0.002650
v 0.010500 -0.008595 -0.000472
v 0.010343 -0.011770 -0.001821
v 0.009695 -0.009054 -0.003928
v -0.005101 -0.002671 0.000470
v -0.005435 -0.002552 0.000805
v 0.009019 -0.012784 -0.004771
v 0.009384 -0.009986 -0.004766
v 0.001596 -0.015754 -0.008815
v -0.001052 -0.024720 -0.002014
v -0.000589 -0.024390 -0.002796
v -0.000384 -0.024871 -0.001981
v 0.006228 -0.003323 -0.000276
v 0.005863 -0.003037 0.000014
v -0.005717 -0.011441 0.009140
v -0.007034 -0.012060 0.007947
v -0.000686 -0.024901 -0.001715
v -0.000754 -0.024977 -0.001048
v -0.001404 -0.024664 -0.001713
v 0.002465 -0.013827 0.009012
v 0.004750 -0.018835 0.005556
v 0.006786 -0.011758 0.008131
v -0.009178 -0.010198 0.004225
v -0.009931 -0.011172 0.003176
v -0.009676 -0.011400 0.003578
v -0.006401 -0.006202 0.006813
v -0.005030 -0.003478 0.004747
v -0.007520 -0.006516 0.004135
v -0.006344 -0.017444 -0.004731
v -0.006914 -0.017103 -0.004268
v -0.006267 -0.017424 -0.004979
v -0.007379 -0.016691 -0.004704
v 0.001804 -0.005996 0.008650
v -0.000851 -0.005648 0.009127
v 0.000475 -0.007777 0.010095
v -0.004577 -0.005746 0.008181
v -0.003678 -0.005620 0.008586
v -0.005039 -0.005115 0.007320
v 0.006425 -0.012158 -0.007977
v 0.006696 -0.013046 -0.007524
v 0.006038 -0.012208 -0.008235
v 0.005786 -0.003640 -0.002260
v 0.006081 -0.003744 -0.001907
v 0.006075 -0.003720 -0.002637
v 0.004587 -0.013790 -0.008615
v -0.007864 -0.006241 -0.005085
v -0.007315 -0.007039 -0.006041
v -0.007910 -0.007613 -0.006144
v -0.006321 -0.012621 -0.008833
v -0.007877 -0.012092 -0.007729
v -0.005006 -0.011119 -0.009783
v 0.000235 -0.006545 0.001064
v 0.000030 -0.006568 0.000645
v -0.002150 -0.005003 -0.001815
v 0.000017 -0.006569 0.000587
v -0.004840 -0.003071 -0.002396
v -0.003790 -0.002994 0.002417
v 0.008686 -0.015860 0.003241
v 0.006651 -0.003362 0.002963
v -0.008224 -0.013087 -0.006957
v -0.006375 -0.014594 -0.007935
v -0.001801 -0.005015 -0.002718
v -0.001374 -0.005332 -0.002364
v -0.000784 -0.005243 -0.002381
v 0.005403 -0.003659 -0.001324
v 0.002542 -0.005440 0.000144
v 0.005375 -0.003442 -0.000624
v -0.002424 -0.004755 -0.007606
v -0.002677 -0.005062 -0.007955
v -0.002953 -0.004935 -0.007727
v -0.001075 -0.005520 -0.002100
v -0.001670 -0.005388 -0.001991
v 0.002349 -0.024476 -0.000198
v 0.001116 -0.023717 0.002002
v 0.002336 -0.024487 -0.000215
v -0.000716 -0.024374 0.001862
v -0.004415 -0.002641 0.002617
v 0.000492 -0.003599 -0.005458
v 0.001873 -0.002733 0.004663
v 0.001451 -0.002735 0.005078
v 0.001747 -0.002579 0.004757
v -0.001171 -0.002604 0.004900
v 0.000720 -0.003344 0.003927
v -0.000084 -0.002955 0.004589
v 0.000303 -0.003343 0.004346
v 0.002196 -0.022919 0.003383
v 0.010419 -0.010577 0.003552
v 0.010178 -0.010638 0.004215
v 0.009267 -0.012190 0.005347
v 0.009535 -0.015092 0.001615
v 0.010585 -0.012311 0.001625
v 0.003316 -0.003790 -0.003696
v 0.002992 -0.003690 -0.004040
v 0.002998 -0.003689 -0.004030
v -0.010717 -0.008330 -0.001225
v -0.010486 -0.007690 -0.001490
v -0.010616 -0.008436 -0.002504
v 0.000425 -0.006621 0.000306
v 0.000137 -0.006544 -0.000052
v 0.000093 -0.006543 -0.000013
v 0.009129 -0.010869 0.006153
v 0.008781 -0.009572 0.006719
v 0.007775 -0.009759 0.007604
v -0.008552 -0.008525 0.004714
v -0.008404 -0.011291 0.006062
v -0.010628 -0.013077 -0.001432
v -0.010380 -0.013597 -0.001948
v -0.010111 -0.014200 -0.001771
v 0.005774 -0.009653 0.008805
v 0.003092 -0.010557 0.009714
v 0.003198 -0.011915 0.009825
v 0.005677 -0.003485 -0.000980
v 0.005077 -0.003777 -0.001029
v -0.007117 -0.007000 -0.006295
v -0.007397 -0.007489 -0.006603
v -0.000767 -0.003512 -0.006171
v -0.000163 -0.003525 -0.005495
v -0.008044 -0.004464 0.000265
v -0.008798 -0.005054 -0.000820
v -0.009628 -0.006237 0.000020
v 0.003528 -0.010030 0.009629
v 0.003066 -0.010172 0.009766
v -0.009793 -0.006340 -0.000426
v 0.008269 -0.015195 -0.004478
v 0.009717 -0.014643 -0.000828
v 0.007069 -0.019651 0.000013
v 0.000667 -0.008208 0.010222
v -0.001385 -0.008992 0.010493
v -0.001237 -0.009429 0.010568
v -0.008956 -0.009566 -0.006358
v 0.009896 -0.006895 0.000486
v 0.009410 -0.006793 -0.000902
v -0.002483 -0.002454 0.004828
v -0.002819 -0.002504 0.005125
v -0.010141 -0.007245 0.000335
v -0.010319 -0.007243 -0.000479
v -0.010520 -0.007656 -0.000863
v 0.002244 -0.002607 0.004927
v 0.002914 -0.002566 0.004407
v 0.000531 -0.003828 0.003539
v 0.000058 -0.003825 0.003970
v -0.010704 -0.012796 -0.000192
v -0.010826 -0.012360 -0.000129
v -0.010868 -0.012325 -0.001297
v -0.006348 -0.003005 -0.001958
v -0.006560 -0.002788 -0.001194
v -0.004189 -0.002776 0.003944
v -0.004293 -0.002704 0.003427
v 0.000424 -0.002881 0.004739
v -0.001050 -0.003629 -0.006513
v -0.001942 -0.003464 -0.006092
v -0.001213 -0.003363 -0.005797
v 0.000763 -0.003381 0.003893
v 0.002882 -0.002553 0.003765
v -0.007910 -0.007613 -0.006144
v -0.009683 -0.007477 -0.004012
v -0.008897 -0.006432 -0.004244
v 0.005959 -0.003725 -0.003003
v 0.006949 -0.004895 -0.004351
v 0.005404 -0.004638 -0.005432
v -0.006014 -0.002704 0.000123
v -0.005380 -0.002637 0.000164
v -0.003947 -0.002718 0.003127
v -0.002427 -0.008227 0.010157
v -0.004574 -0.009459 0.009748
v -0.005875 -0.003212 -0.002900
v -0.005658 -0.002963 -0.002564
v -0.005517 -0.003301 -0.003254
v 0.000095 -0.002731 0.005611
v 0.000134 -0.002705 0.004974
v -0.003583 -0.012505 0.009787
v -0.005545 -0.012326 0.009078
v 0.000329 -0.006605 0.000988
v -0.001306 -0.024520 -0.002258
v -0.001533 -0.024570 -0.001839
v -0.001751 -0.024370 -0.002041
v -0.004327 -0.004043 0.006593
v -0.004906 -0.004104 0.005902
v -0.004577 -0.004318 0.006838
v -0.003238 -0.003306 0.006171
v -0.002036 -0.006779 0.009672
v -0.003822 -0.014613 -0.009182
v 0.007845 -0.006103 -0.005011
v 0.006342 -0.007172 -0.007199
v -0.001751 -0.024370 -0.002041
v -0.001533 -0.024570 -0.001839
v 0.003112 -0.003870 -0.005312
v 0.003965 -0.003822 -0.003659
v 0.004249 -0.003936 -0.004495
v 0.000207 -0.023132 0.003844
v -0.002913 -0.006703 -0.009249
v -0.003944 -0.006881 -0.009073
v 0.002915 -0.011962 0.009907
v 0.001823 -0.010320 0.010393
v 0.001620 -0.010353 0.010444
v 0.000821 -0.010481 0.010553
v -0.000985 -0.013422 0.010017
v -0.004679 -0.009697 -0.009803
v 0.005845 -0.009035 -0.008382
v 0.004720 -0.007836 -0.008446
v -0.003782 -0.003798 -0.003699
v -0.004421 -0.003565 -0.003581
v -0.004536 -0.003412 -0.002896
v 0.003451 -0.021347 -0.004473
v 0.001779 -0.023309 -0.004021
v -0.001599 -0.004739 -0.007362
v -0.009107 -0.008585 0.004004
v -0.008863 -0.007793 0.003712
v -0.000140 -0.002883 0.004630
v 0.007688 -0.009315 0.007600
v 0.000436 -0.002710 0.005312
v 0.001108 -0.002894 0.005345
v 0.001896 -0.002718 0.004641
v 0.001620 -0.006110 0.000414
v 0.001294 -0.006353 0.000723
v 0.008531 -0.008572 0.006646
v -0.001465 -0.002645 0.004561
v 0.002426 -0.023601 -0.003355
v 0.001492 -0.023677 -0.003735
v -0.001754 -0.002723 0.004220
v 0.002004 -0.014811 0.008974
v -0.000635 -0.018761 0.007239
v 0.002391 -0.017894 0.007393
v -0.001510 -0.002632 0.005199
v 0.001253 -0.006379 0.000662
v 0.005931 -0.009477 -0.008413
v 0.003284 -0.013051 -0.009354
v 0.000005 -0.010324 -0.010371
v 0.002134 -0.023482 -0.003658
v 0.001600 -0.023558 -0.003840
v 0.001349 -0.006160 0.000055
v 0.004579 -0.002494 0.001680
v 0.004680 -0.002252 0.002169
v 0.002729 -0.024437 -0.001134
v 0.000539 -0.025002 -0.000971
v 0.000361 -0.002931 0.005868
v -0.001022 -0.019310 0.006688
v -0.004356 -0.006187 0.008632
v -0.005475 -0.004038 -0.004252
v -0.005546 -0.006264 -0.007318
v -0.007864 -0.006241 -0.005085
v 0.004741 -0.002256 0.002712
v 0.000193 -0.024985 -0.000671
v -0.000716 -0.024374 0.001862
v 0.008595 -0.005939 0.004528
v -0.004304 -0.003678 -0.004273
v -0.003178 -0.003517 -0.005270
v -0.007379 -0.016691 -0.004704
v -0.006914 -0.017103 -0.004268
v -0.006344 -0.017444 -0.004731
v -0.010845 -0.011468 0.000399
v -0.004304 -0.003678 -0.004273
v -0.004696 -0.003640 -0.003935
v -0.004421 -0.003565 -0.003581
v -0.004011 -0.003689 -0.003927
v -0.008897 -0.006432 -0.004244
v -0.009683 -0.007477 -0.004012
v 0.000237 -0.024995 -0.001309
v 0.000084 -0.005906 0.001732
v 0.000225 -0.006099 0.001629
v 0.000178 -0.006283 -0.000714
v 0.000303 -0.006506 -0.000201
v 0.006763 -0.010282 -0.007857
v 0.010873 -0.010424 0.001187
v 0.010854 -0.009969 0.001157
v 0.010400 -0.010126 0.003625
v 0.005959 -0.003366 -0.000637
v 0.005943 -0.003354 -0.000624
v 0.000022 -0.007246 -0.009490
v -0.001416 -0.003817 -0.006776
v -0.005475 -0.004038 -0.004252
v 0.009382 -0.009909 0.005953
v -0.006525 -0.012903 0.008187
v -0.006642 -0.012466 0.008246
v -0.004011 -0.003689 -0.003927
v 0.002663 -0.003736 -0.003733
v 0.009511 -0.006860 -0.002174
v 0.009619 -0.008610 -0.003906
v 0.000437 -0.006516 0.001165
v 0.000550 -0.006362 0.001372
v 0.000796 -0.006461 0.001168
v 0.000709 -0.006665 0.000662
v 0.000947 -0.006478 0.001038
v 0.001257 -0.006380 0.000757
v 0.002360 -0.005442 0.008111
v 0.002168 -0.004624 0.006956
v 0.000652 -0.005192 0.008373
v 0.006146 -0.020328 0.002194
v 0.002381 -0.003582 -0.004704
v 0.006047 -0.003661 -0.001285
v 0.008971 -0.007210 0.005370
v 0.008790 -0.006777 0.005256
v 0.004418 -0.007111 0.008498
v 0.003642 -0.008632 0.009364
v 0.006060 -0.009143 0.008547
v -0.005941 -0.002624 -0.001149
v -0.000240 -0.005259 0.001951
v 0.008277 -0.006499 -0.004855
v -0.001839 -0.024620 -0.000137
v -0.004536 -0.003412 -0.002896
v -0.000256 -0.004321 -0.007136
v 0.007459 -0.014343 -0.006259
v 0.008643 -0.014688 -0.004254
v -0.002688 -0.004011 -0.006850
v -0.006671 -0.018473 -0.002910
v -0.006523 -0.018910 -0.002836
v 0.010159 -0.007347 0.001502
v 0.005493 -0.003692 -0.002600
v 0.005453 -0.003709 -0.001963
v -0.008264 -0.007770 0.004389
v 0.005745 -0.003653 -0.001623
v -0.007509 -0.012564 0.007210
v -0.007281 -0.013285 0.007082
v 0.003905 -0.002380 0.002857
v 0.004025 -0.009949 0.009509
v -0.000595 -0.018806 0.007209
v -0.000091 -0.019782 0.006266
v 0.003998 -0.004025 -0.003066
v 0.003629 -0.003870 -0.003361
v -0.005216 -0.007701 0.008932
v 0.004312 -0.003839 -0.003958
v 0.004272 -0.003857 -0.003322
v 0.004600 -0.003759 -0.003617
v -0.001404 -0.024664 -0.001713
v -0.006016 -0.002943 -0.002253
v 0.004516 -0.003945 -0.003066
v -0.004275 -0.012372 -0.009908
v 0.001555 -0.023359 0.003255
v 0.000778 -0.003537 -0.005113
v 0.005834 -0.003678 -0.002899
v 0.005236 -0.003706 -0.003577
v 0.003768 -0.006755 0.008529
v -0.010171 -0.013528 -0.002986
v -0.008224 -0.013087 -0.006957
v -0.007849 -0.015346 -0.006030
v -0.007876 -0.013934 0.005593
v 0.005592 -0.003217 -0.000332
v 0.003012 -0.024324 -0.000791
v 0.003039 -0.024223 -0.001425
v -0.008159 -0.016375 -0.004144
v -0.000848 -0.006062 -0.008850
v -0.001286 -0.008250 -0.010052
v -0.002526 -0.023910 0.000991
v -0.010034 -0.009785 -0.004873
v 0.006051 -0.014520 -0.007416
v -0.005386 -0.008111 -0.008895
v -0.002842 -0.008039 -0.009918
v -0.000116 -0.023835 -0.003519
v 0.003541 -0.006380 0.008375
v -0.003105 -0.010806 -0.010322
v -0.004564 -0.002621 0.002454
v -0.007711 -0.004150 -0.001857
v -0.006740 -0.016441 0.003922
v -0.007877 -0.012092 -0.007729
v -0.007780 -0.012535 -0.007713
v -0.001005 -0.024450 0.001521
v 0.004296 -0.004291 -0.002699
v 0.005897 -0.005914 0.007009
v -0.003298 -0.002694 0.004961
v -0.007692 -0.009847 0.007099
v 0.009353 -0.007596 0.005033
v 0.010368 -0.013232 0.000884
v 0.009558 -0.015189 0.001004
v 0.009482 -0.015220 0.001529
v 0.003328 -0.024148 -0.001085
v -0.010751 -0.012762 -0.001356
v 0.009760 -0.013670 -0.002326
v -0.000056 -0.024771 -0.002277
v -0.004557 -0.008939 0.009681
v -0.005346 -0.005084 0.006983
v -0.001195 -0.006185 0.009481
v -0.003632 -0.003670 0.006551
v -0.002788 -0.005010 0.008350
v -0.003096 -0.005532 0.008662
v -0.004836 -0.012007 -0.009777
v -0.007780 -0.012535 -0.007713
v 0.004489 -0.021090 0.003600
v -0.007849 -0.015346 -0.006030
v 0.007351 -0.007944 -0.006800
v 0.006324 -0.009426 -0.008160
v -0.000163 -0.006397 -0.000406
v -0.003507 -0.002962 0.002768
v 0.001356 -0.023600 0.002982
v 0.009130 -0.009962 0.006344
v -0.010361 -0.011005 0.002334
v 0.003909 -0.009509 0.009481
v -0.009683 -0.011535 -0.005530
v 0.005010 -0.022517 -0.000910
v -0.002326 -0.003740 -0.006591
v -0.008956 -0.009566 -0.006358
v -0.007397 -0.007489 -0.006603
v -0.008683 -0.010418 -0.006914
v -0.010003 -0.009328 -0.004743
v 0.003782 -0.004032 -0.005279
v 0.005367 -0.006852 -0.007582
v -0.004287 -0.021757 -0.002974
v -0.002150 -0.005003 -0.001815
v 0.000017 -0.006569 0.000587
v 0.000390 -0.019101 0.006948
v -0.007117 -0.007000 -0.006295
v -0.007315 -0.007039 -0.006041
v -0.007711 -0.004150 -0.001857
v -0.006016 -0.002943 -0.002253
v -0.005875 -0.003212 -0.002900
v -0.006348 -0.003005 -0.001958
v -0.005658 -0.002963 -0.002564
v -0.001005 -0.024450 0.001521
v -0.002537 -0.003986 -0.006886
v -0.004696 -0.003640 -0.003935
v -0.004287 -0.021757 -0.002974
v -0.006267 -0.017424 -0.004979
v -0.008159 -0.016375 -0.004144
v -0.000917 -0.005953 -0.008801
v -0.001296 -0.005563 -0.008564
v 0.010114 -0.007317 0.000464
v -0.002535 -0.005711 -0.008616
v -0.000754 -0.024977 -0.001048
vt 0.372250 0.913240
vt 0.353450 0.935610
vt 0.277240 0.937100
vt 0.159950 0.081960
vt 0.132650 0.078430
vt 0.226380 0.062370
vt 0.666420 0.577550
vt 0.666030 0.616810
vt 0.652610 0.629120
vt 0.376530 0.849020
vt 0.395070 0.868720
vt 0.389610 0.880190
vt 0.056630 0.598990
vt 0.082080 0.579730
vt 0.085310 0.604920
vt 0.712320 0.141220
vt 0.700690 0.116490
vt 0.734480 0.107900
vt 0.853980 0.610440
vt 0.888340 0.625320
vt 0.853370 0.648900
vt 0.902880 0.091800
vt 0.932550 0.409050
vt 0.847050 0.345410
vt 0.354800 0.827680
vt 0.352060 0.832150
vt 0.347890 0.835260
vt 0.094770 0.843100
vt 0.084250 0.835060
vt 0.094000 0.829460
vt 0.333720 0.845830
vt 0.340310 0.837750
vt 0.859410 0.513010
vt 0.811690 0.565200
vt 0.834830 0.415290
vt 0.401470 0.619090
vt 0.402010 0.669360
vt 0.381840 0.616670
vt 0.715740 0.778990
vt 0.777170 0.757710
vt 0.752850 0.829130
vt 0.190650 0.816450
vt 0.186710 0.844670
vt 0.146360 0.842100
vt 0.528880 0.812010
vt 0.513440 0.807990
vt 0.524370 0.800320
vt 0.163490 0.461980
vt 0.143370 0.251650
vt 0.183920 0.345830
vt 0.038630 0.538730
vt 0.028260 0.567440
vt 0.022300 0.569280
vt 0.342320 0.427110
vt 0.292380 0.388740
vt 0.297110 0.291920
vt 0.277620 0.069120
vt 0.249340 0.075620
vt 0.100590 0.076060
vt 0.080720 0.067660
vt 0.500850 0.813590
vt 0.454200 0.730030
vt 0.505160 0.734660
vt 0.852270 0.894020
vt 0.746180 0.846060
vt 0.909190 0.839280
vt 0.727740 0.838350
vt 0.043110 0.177490
vt 0.079720 0.082670
vt 0.095440 0.080440
vt 0.451360 0.691480
vt 0.419300 0.696050
vt 0.431460 0.645840
vt 0.356390 0.046600
vt 0.330890 0.055190
vt 0.328040 0.070940
vt 0.351910 0.063390
vt 0.264820 0.622180
vt 0.246370 0.656230
vt 0.225830 0.612430
vt 0.244490 0.561010
vt 0.549220 0.790020
vt 0.543960 0.809110
vt 0.441740 0.075550
vt 0.438090 0.049690
vt 0.522740 0.069540
vt 0.396730 0.826730
vt 0.385750 0.821880
vt 0.389410 0.813920
vt 0.380130 0.807020
vt 0.419220 0.229690
vt 0.354120 0.153660
vt 0.367090 0.073320
vt 0.226080 0.076350
vt 0.260980 0.401600
vt 0.232500 0.444290
vt 0.409240 0.828850
vt 0.399630 0.827870
vt 0.309730 0.822570
vt 0.316420 0.831470
vt 0.305970 0.838580
vt 0.668310 0.103460
vt 0.624180 0.123180
vt 0.613710 0.103780
vt 0.521000 0.591750
vt 0.554230 0.626990
vt 0.532410 0.662660
vt 0.068830 0.288530
vt 0.059460 0.261730
vt 0.585030 0.581240
vt 0.606100 0.490800
vt 0.634390 0.575150
vt 0.149870 0.856880
vt 0.157700 0.848070
vt 0.652710 0.465810
vt 0.647580 0.549820
vt 0.788150 0.385290
vt 0.899200 0.078980
vt 0.865250 0.092010
vt 0.871810 0.069620
vt 0.577880 0.782820
vt 0.570800 0.796020
vt 0.269360 0.513860
vt 0.244560 0.499650
vt 0.892460 0.067320
vt 0.919570 0.055230
vt 0.920610 0.078940
vt 0.388210 0.419140
vt 0.451890 0.236980
vt 0.452400 0.483590
vt 0.185840 0.567090
vt 0.166980 0.538760
vt 0.173320 0.531140
vt 0.247190 0.678280
vt 0.245230 0.785450
vt 0.201140 0.689990
vt 0.026790 0.332400
vt 0.039090 0.345580
vt 0.022520 0.334650
vt 0.037150 0.367460
vt 0.385240 0.671220
vt 0.343160 0.679340
vt 0.360770 0.609950
vt 0.283190 0.682940
vt 0.298540 0.683920
vt 0.270930 0.707590
vt 0.711400 0.494810
vt 0.705210 0.465670
vt 0.718080 0.494310
vt 0.623010 0.783430
vt 0.613980 0.776270
vt 0.628980 0.772890
vt 0.740780 0.446670
vt 0.037430 0.699600
vt 0.019540 0.677570
vt 0.024100 0.655630
vt 0.901450 0.505070
vt 0.926770 0.521410
vt 0.879160 0.547430
vt 0.409370 0.917110
vt 0.405490 0.943500
vt 0.016860 0.902500
vt 0.407020 0.946890
vt 0.057860 0.850490
vt 0.225960 0.858930
vt 0.529860 0.351380
vt 0.516340 0.753520
vt 0.937640 0.492190
vt 0.910070 0.444160
vt 0.887100 0.883730
vt 0.875240 0.898250
vt 0.836840 0.906150
vt 0.603680 0.797040
vt 0.558330 0.861600
vt 0.586270 0.802660
vt 0.849380 0.754330
vt 0.852440 0.739850
vt 0.858510 0.745530
vt 0.863710 0.910290
vt 0.905280 0.904390
vt 0.647490 0.044820
vt 0.391060 0.040240
vt 0.649250 0.044670
vt 0.226240 0.049460
vt 0.219000 0.847560
vt 0.781860 0.828120
vt 0.415540 0.820500
vt 0.401540 0.815000
vt 0.411690 0.821890
vt 0.333890 0.831900
vt 0.391190 0.843540
vt 0.363770 0.834890
vt 0.375510 0.834450
vt 0.422660 0.090050
vt 0.532130 0.518040
vt 0.522830 0.515820
vt 0.504050 0.470380
vt 0.557920 0.380280
vt 0.558600 0.469660
vt 0.685360 0.823770
vt 0.698800 0.825990
vt 0.698470 0.826070
vt 0.106310 0.624910
vt 0.102600 0.643880
vt 0.088570 0.622450
vt 0.486620 0.944920
vt 0.519690 0.970450
vt 0.503740 0.971730
vt 0.493700 0.508440
vt 0.484940 0.544590
vt 0.467420 0.540620
vt 0.198320 0.618010
vt 0.213040 0.528390
vt 0.100760 0.489020
vt 0.092990 0.473720
vt 0.094420 0.454190
vt 0.436260 0.546820
vt 0.396430 0.524700
vt 0.396560 0.482500
vt 0.594430 0.793750
vt 0.597560 0.804570
vt 0.014360 0.678360
vt 0.013720 0.660060
vt 0.816810 0.815260
vt 0.800380 0.831440
vt 0.132870 0.757710
vt 0.112330 0.732200
vt 0.125540 0.690480
vt 0.402980 0.539780
vt 0.396100 0.536240
vt 0.118470 0.686160
vt 0.656860 0.386400
vt 0.595310 0.398170
vt 0.588440 0.218740
vt 0.362990 0.596510
vt 0.333940 0.575630
vt 0.335680 0.562690
vt 0.030530 0.593600
vt 0.570360 0.631540
vt 0.590650 0.642500
vt 0.299680 0.829320
vt 0.294380 0.818930
vt 0.129240 0.657870
vt 0.117230 0.656930
vt 0.111560 0.644350
vt 0.421000 0.811760
vt 0.441610 0.814370
vt 0.387710 0.850140
vt 0.368770 0.839840
vt 0.117820 0.495720
vt 0.118970 0.508660
vt 0.103370 0.511240
vt 0.083090 0.819950
vt 0.102490 0.821680
vt 0.249230 0.824640
vt 0.238230 0.834160
vt 0.377630 0.829490
vt 0.823340 0.804760
vt 0.846310 0.814960
vt 0.829010 0.826580
vt 0.392810 0.843620
vt 0.451010 0.828380
vt 0.943740 0.655630
vt 0.984330 0.652970
vt 0.976770 0.687280
vt 0.637050 0.772820
vt 0.653700 0.718400
vt 0.685430 0.739940
vt 0.135930 0.835300
vt 0.139220 0.851780
vt 0.239390 0.845770
vt 0.319770 0.599980
vt 0.288890 0.568140
vt 0.057130 0.819720
vt 0.062890 0.831760
vt 0.045030 0.821980
vt 0.366140 0.810600
vt 0.369030 0.827150
vt 0.298640 0.477140
vt 0.270000 0.487440
vt 0.421240 0.918010
vt 0.901920 0.088310
vt 0.920930 0.083740
vt 0.921630 0.092000
vt 0.276690 0.748460
vt 0.260600 0.754260
vt 0.274560 0.736400
vt 0.293240 0.779460
vt 0.325300 0.643610
vt 0.869430 0.439410
vt 0.657350 0.671210
vt 0.699210 0.646560
vt 0.001990 0.092000
vt 0.001290 0.083740
vt 0.718140 0.795740
vt 0.673410 0.809180
vt 0.685400 0.788320
vt 0.330300 0.091790
vt 0.851370 0.678970
vt 0.867450 0.673170
vt 0.392350 0.481460
vt 0.377020 0.532170
vt 0.374140 0.531440
vt 0.362970 0.528930
vt 0.334770 0.442420
vt 0.874410 0.588150
vt 0.718090 0.590990
vt 0.731060 0.632730
vt 0.924860 0.841700
vt 0.940430 0.835320
vt 0.959230 0.845900
vt 0.732560 0.174770
vt 0.775600 0.126100
vt 0.834310 0.762410
vt 0.184950 0.616410
vt 0.183300 0.642840
vt 0.362190 0.834930
vt 0.466710 0.553430
vt 0.375460 0.816960
vt 0.391300 0.809030
vt 0.416340 0.820950
vt 0.531400 0.889360
vt 0.500900 0.894330
vt 0.483670 0.573490
vt 0.324290 0.839470
vt 0.749270 0.112590
vt 0.783540 0.114680
vt 0.313630 0.846170
vt 0.380400 0.386940
vt 0.328630 0.248880
vt 0.391260 0.273590
vt 0.326090 0.822870
vt 0.503390 0.897490
vt 0.717840 0.577520
vt 0.762040 0.474240
vt 0.808750 0.565840
vt 0.761790 0.118140
vt 0.780450 0.118680
vt 0.552710 0.906960
vt 0.523330 0.825900
vt 0.512880 0.821440
vt 0.685180 0.065800
vt 0.832360 0.039090
vt 0.371340 0.800100
vt 0.317370 0.226600
vt 0.288660 0.667010
vt 0.943790 0.796190
vt 0.903420 0.701120
vt 0.957070 0.699600
vt 0.502010 0.813380
vt 0.873030 0.034490
vt 1.145880 0.049460
vt 0.508470 0.653730
vt 0.923910 0.823570
vt 0.883690 0.822680
vt 0.956790 0.367460
vt 0.958730 0.345580
vt 0.946420 0.332400
vt 0.126690 0.534060
vt 0.004270 0.823570
vt 0.018090 0.822900
vt 0.020790 0.835320
vt 0.005240 0.834970
vt 0.057130 0.687280
vt 0.064690 0.652970
vt 0.850560 0.048720
vt 0.382520 0.894320
vt 0.393590 0.894760
vt 0.684120 0.962060
vt 0.567400 0.963250
vt 0.704620 0.551020
vt 0.564000 0.524970
vt 0.564110 0.537990
vt 0.530990 0.530720
vt 0.585990 0.788910
vt 0.585690 0.789510
vt 0.805410 0.662410
vt 0.831290 0.794530
vt 0.024150 0.796190
vt 0.497640 0.535120
vt 0.251200 0.472870
vt 0.250920 0.486340
vt 0.924880 0.834970
vt 0.699730 0.838190
vt 0.609200 0.638820
vt 0.634080 0.588230
vt 0.422740 0.907430
vt 0.423220 0.896730
vt 0.448380 0.897170
vt 0.474310 0.918570
vt 0.464420 0.896750
vt 0.497210 0.894600
vt 0.396710 0.690240
vt 0.400700 0.731740
vt 0.368200 0.700060
vt 0.535470 0.188730
vt 0.724040 0.825200
vt 0.600610 0.780710
vt 0.501040 0.612700
vt 0.501030 0.626070
vt 0.422940 0.628120
vt 0.406620 0.582030
vt 0.441650 0.561490
vt 0.101760 0.838780
vt 0.361000 0.895160
vt 0.652500 0.656370
vt 1.000360 0.067660
vt 0.039590 0.845900
vt 0.805860 0.776570
vt 0.685450 0.420060
vt 0.650490 0.403110
vt 0.858390 0.783680
vt 0.058290 0.292100
vt 0.058260 0.278100
vt 0.556810 0.614280
vt 0.632460 0.787200
vt 0.618600 0.792070
vt 0.197020 0.644580
vt 0.609240 0.787300
vt 0.232180 0.486210
vt 0.232330 0.463280
vt 0.487480 0.827460
vt 0.410130 0.541190
vt 0.329290 0.247010
vt 0.336670 0.201900
vt 0.659920 0.813300
vt 0.672340 0.820750
vt 0.277790 0.621700
vt 0.674340 0.796810
vt 0.661640 0.806170
vt 0.663390 0.796530
vt 0.000970 0.078940
vt 0.073710 0.826570
vt 0.652900 0.801880
vt 0.870100 0.510300
vt 0.395920 0.076900
vt 0.771360 0.836100
vt 0.635920 0.777260
vt 0.654950 0.783860
vt 0.414200 0.641610
vt 0.078490 0.476930
vt 0.018000 0.492190
vt 0.024830 0.420440
vt 0.209110 0.444140
vt 0.578820 0.800570
vt 0.660160 0.066950
vt 0.685230 0.077420
vt 0.051030 0.381820
vt 0.818650 0.703800
vt 0.825920 0.629870
vt 0.140300 0.086120
vt 0.055130 0.586050
vt 0.713240 0.417830
vt 0.888500 0.636540
vt 0.848540 0.636180
vt 0.839520 0.109150
vt 0.412230 0.654910
vt 0.852320 0.554870
vt 0.212540 0.847540
vt 0.091240 0.770200
vt 0.192220 0.344610
vt 0.007130 0.521410
vt 0.006430 0.508530
vt 0.192660 0.050430
vt 0.647530 0.805340
vt 0.454380 0.662950
vt 0.281830 0.815430
vt 0.232160 0.568250
vt 0.507600 0.601230
vt 0.569030 0.442260
vt 0.567450 0.377590
vt 0.559190 0.375940
vt 0.663710 0.078380
vt 0.102160 0.498440
vt 0.616470 0.432550
vt 0.851000 0.073960
vt 0.289250 0.583020
vt 0.263750 0.711110
vt 0.337790 0.661170
vt 0.288510 0.762050
vt 0.311500 0.704850
vt 0.307580 0.686840
vt 0.877540 0.521640
vt 0.926070 0.508530
vt 0.481410 0.155410
vt 0.944470 0.420440
vt 0.685460 0.618300
vt 0.711190 0.577710
vt 0.681160 0.987310
vt 0.241150 0.857720
vt 0.389210 0.067020
vt 0.491590 0.533540
vt 0.154190 0.544990
vt 0.409020 0.554720
vt 0.044920 0.537210
vt 0.626200 0.128640
vt 0.852280 0.796550
vt 0.950160 0.593600
vt 0.933350 0.660060
vt 0.941940 0.569280
vt 0.976270 0.598990
vt 0.705810 0.782250
vt 0.714120 0.661750
vt 0.030910 0.180500
vt 0.936500 0.902500
vt 1.326660 0.946890
vt 0.349640 0.231360
vt 0.934000 0.678360
vt 0.939180 0.677570
vt 1.010880 0.770200
vt 0.993350 0.826570
vt 0.976770 0.819720
vt 1.002730 0.819950
vt 0.982530 0.831760
vt 1.112300 0.050430
vt 0.855070 0.784310
vt 0.937730 0.822900
vt 0.950550 0.180500
vt 0.942160 0.334650
vt 0.970670 0.381820
vt 0.819770 0.707330
vt 0.826310 0.720730
vt 0.571130 0.618050
vt 0.847400 0.713950
vt -0.000070 0.055230
vn 0.7557 0.4864 -0.4385
vn -0.5432 -0.6960 0.4695
vn 0.8671 0.0593 -0.4946
vn -0.4163 0.6800 -0.6036
vn -0.9093 0.1806 -0.3749
vn 0.5273 -0.6679 -0.5252
vn -0.3282 0.2538 -0.9099
vn -0.4262 -0.6093 -0.6687
vn -0.4210 -0.6109 -0.6705
vn -0.0598 0.9971 -0.0469
vn 0.1011 0.9420 -0.3199
vn 0.2030 0.7642 -0.6121
vn 0.2030 0.7642 -0.6122
vn 0.0317 -0.3082 -0.9508
vn 0.5449 0.3334 0.7694
vn 0.1379 0.7609 -0.6341
vn -0.7653 0.5854 0.2675
vn 0.4067 0.9090 -0.0906
vn 0.4067 0.9091 -0.0906
vn -0.8068 -0.4303 0.4048
vn -0.7213 -0.0888 -0.6869
vn -0.1905 -0.3749 0.9073
vn -0.1865 -0.3773 0.9071
vn -0.2645 -0.7207 0.6408
vn -0.3788 -0.8554 0.3533
vn 0.4309 0.7922 0.4322
vn 0.0861 0.8058 0.5859
vn 0.0194 0.9937 -0.1106
vn -0.8160 -0.5771 0.0337
vn 0.2537 0.6386 0.7265
vn -0.0391 0.9355 -0.3511
vn -0.2792 -0.9209 0.2721
vn -0.7252 0.3902 0.5673
vn -0.7227 0.4059 0.5595
vn 0.4483 0.8499 -0.2769
vn 0.4476 0.8500 -0.2778
vn 0.2252 -0.9110 0.3454
vn 0.2228 0.9731 0.0590
vn 0.2228 0.9731 0.0591
vn 0.1329 0.9812 0.1402
vn 0.2386 -0.6003 0.7634
vn -0.6739 -0.4851 0.5572
vn -0.6966 -0.4773 0.5356
vn -0.2066 0.8939 -0.3979
vn 0.1802 0.9800 -0.0847
vn 0.1809 0.9799 -0.0840
vn 0.5685 -0.8225 -0.0154
vn 0.9051 0.3845 0.1815
vn -0.8927 -0.4442 0.0760
vn 0.9729 -0.0586 -0.2236
vn 0.3650 0.9209 -0.1371
vn 0.9074 -0.2343 -0.3490
vn -0.0020 -0.5902 -0.8072
vn -0.2510 -0.8821 -0.3986
vn -0.2444 -0.8832 -0.4002
vn 0.5403 0.7794 -0.3171
vn -0.6684 0.0988 0.7372
vn -0.3965 -0.9156 -0.0667
vn 0.3221 -0.3719 0.8706
vn -0.8266 0.1682 0.5371
vn -0.7160 0.6698 0.1966
vn -0.7058 -0.6769 -0.2090
vn -0.6421 -0.7606 -0.0963
vn 0.2593 0.5563 0.7895
vn -0.3335 0.7161 0.6132
vn -0.3329 0.7166 0.6128
vn -0.3329 0.7167 0.6128
vn 0.5388 -0.3502 -0.7662
vn 0.3891 0.9202 -0.0431
vn 0.4933 -0.3946 -0.7752
vn 0.4933 -0.3947 -0.7752
vn 0.4932 -0.3916 -0.7768
vn -0.3611 0.5400 -0.7602
vn -0.5741 -0.0194 -0.8186
vn 0.6518 0.6439 -0.4007
vn 0.6526 0.6438 -0.3995
vn 0.6540 0.6554 -0.3779
vn -0.5568 0.5673 0.6068
vn 0.7740 0.5812 -0.2512
vn 0.6697 0.7157 -0.1982
vn 0.6285 -0.4253 0.6513
vn 0.4742 0.8046 0.3574
vn -0.6741 -0.3496 -0.6507
vn 0.0502 0.7855 0.6168
vn 0.0504 0.7870 0.6149
vn -0.0268 0.8142 0.5800
vn -0.0271 0.8165 0.5767
vn -0.5280 0.7841 -0.3261
vn -0.0531 0.7462 -0.6636
vn 0.3450 0.8977 0.2741
vn 0.3450 0.8977 0.2742
vn 0.1010 -0.8682 0.4858
vn 0.2148 -0.9025 0.3733
vn 0.5291 0.8196 -0.2199
vn 0.3092 0.7104 -0.6323
vn -0.7001 -0.1264 -0.7028
vn 0.0596 0.9869 -0.1500
vn 0.7027 0.2473 0.6671
vn 0.2132 -0.5923 0.7770
vn 0.8672 -0.3675 0.3360
vn 0.8476 -0.3880 0.3619
vn 0.7139 0.5078 -0.4822
vn -0.9155 0.3784 -0.1365
vn 0.2167 0.9757 0.0337
vn 0.6489 -0.1402 0.7478
vn 0.6487 -0.1405 0.7479
vn -0.8432 0.3015 0.4451
vn -0.9449 -0.3273 0.0013
vn 0.2918 0.1503 0.9446
vn -0.2893 0.8252 -0.4851
vn -0.5916 0.6559 -0.4688
vn 0.2084 0.9645 -0.1622
vn -0.6842 0.7214 0.1068
vn 0.2963 -0.0580 0.9533
vn -0.7012 0.7089 0.0756
vn 0.7879 -0.5800 -0.2070
vn 0.0694 0.2627 0.9624
vn -0.7106 0.2028 -0.6738
vn 0.7665 0.5950 -0.2418
vn 0.7665 0.5950 -0.2417
vn 0.0791 0.9943 0.0720
vn -0.9137 0.3682 0.1722
vn -0.9136 0.3682 0.1722
vn 0.4434 0.7519 0.4880
vn 0.5523 -0.4459 0.7044
vn 0.5520 -0.4466 0.7041
vn -0.1403 -0.9783 0.1526
vn -0.1402 -0.9783 0.1526
vn -0.9840 -0.1742 0.0376
vn -0.9832 -0.1791 0.0359
vn -0.3974 0.8106 -0.4301
vn -0.2673 0.9561 0.1198
vn -0.0865 0.9505 -0.2984
vn -0.0854 0.9510 -0.2972
vn 0.0991 0.9018 -0.4206
vn -0.2276 0.6029 -0.7647
vn -0.2274 0.6028 -0.7648
vn -0.6532 0.4015 -0.6420
vn 0.4932 0.7378 -0.4609
vn 0.1802 0.9195 -0.3492
vn -0.0000 0.9700 -0.2431
vn 0.0006 0.9702 -0.2425
vn 0.1713 0.9261 -0.3361
vn 0.1860 0.9824 -0.0170
vn 0.1870 0.9822 -0.0159
vn -0.2337 0.1954 0.9525
vn -0.1693 0.8267 -0.5366
vn 0.3541 0.9350 -0.0198
vn -0.7903 0.5569 0.2554
vn -0.3842 -0.3028 0.8722
vn 0.2716 0.9540 -0.1272
vn -0.5192 -0.8080 -0.2785
vn -0.4366 0.8528 0.2866
vn -0.3708 0.8409 0.3942
vn 0.0032 0.4159 0.9094
vn 0.0044 0.4179 0.9085
vn -0.1636 -0.4077 -0.8983
vn 0.5359 0.5145 -0.6694
vn 0.5358 0.5145 -0.6694
vn 0.2976 0.9420 -0.1551
vn 0.2946 0.9430 -0.1545
vn -0.6490 -0.7525 -0.1120
vn 0.2167 0.9612 -0.1707
vn 0.2167 0.9612 -0.1706
vn -0.2669 -0.6547 0.7072
vn -0.1746 -0.7954 0.5803
vn -0.1775 0.4176 -0.8911
vn 0.2413 -0.0576 0.9687
vn 0.0632 -0.1595 0.9852
vn -0.5806 0.1135 -0.8063
vn -0.5759 0.1148 -0.8094
vn -0.5805 0.1135 -0.8063
vn 0.4960 0.2760 -0.8233
vn 0.4961 0.2760 -0.8233
vn 0.4007 0.8875 -0.2277
vn 0.3210 -0.5872 -0.7431
vn 0.0058 0.5754 -0.8178
vn 0.2665 0.5745 -0.7739
vn 0.4203 -0.6786 0.6024
vn -0.7963 0.5030 0.3361
vn 0.1925 0.7848 -0.5891
vn 0.1926 0.7848 -0.5891
vn 0.5241 0.7593 -0.3858
vn 0.6463 0.1341 0.7512
vn 0.0641 0.9970 -0.0430
vn 0.0637 0.9970 -0.0435
vn 0.1996 0.5398 -0.8178
vn 0.1261 0.7706 -0.6248
vn 0.3281 0.8855 0.3289
vn 0.2846 0.8854 0.3674
vn 0.4077 0.8454 -0.3451
vn 0.0858 0.8556 0.5104
vn 0.0678 0.9976 0.0164
vn -0.5050 0.8616 -0.0515
vn 0.6562 0.2125 0.7240
vn 0.0924 0.9755 -0.1997
vn 0.0925 0.9755 -0.1996
vn 0.1442 -0.9428 -0.3004
vn 0.4172 0.8579 -0.3000
vn 0.1568 0.9236 -0.3497
vn 0.1573 0.9238 -0.3492
vn 0.0357 -0.3779 0.9251
vn -0.0142 0.9939 -0.1092
vn -0.0141 0.9939 -0.1091
vn 0.2572 -0.1144 0.9596
vn -0.4989 0.8659 -0.0344
vn -0.4955 0.8678 -0.0378
vn -0.4989 0.8659 -0.0345
vn 0.3167 -0.0868 -0.9446
vn 0.2310 -0.8392 -0.4922
vn -0.3868 0.9087 0.1569
vn -0.0909 0.8716 -0.4817
vn 0.1615 -0.9773 0.1373
vn -0.2470 0.9688 0.0189
vn -0.2470 0.9688 0.0190
vn 0.3637 0.8752 0.3191
vn -0.3798 -0.5419 0.7497
vn -0.3575 0.6394 0.6807
vn -0.4096 0.7123 -0.5701
vn -0.4095 0.7123 -0.5700
vn -0.4103 0.7121 -0.5698
vn 0.6597 0.3468 0.6667
vn 0.0687 -0.9294 0.3628
vn 0.0687 -0.9294 0.3627
vn 0.7388 0.6365 0.2215
vn 0.7388 0.6364 0.2215
vn -0.2021 0.9450 -0.2571
vn 0.6571 0.7502 0.0737
vn -0.9910 0.1312 -0.0269
vn -0.9912 0.1302 -0.0246
vn -0.9911 0.1303 -0.0285
vn 0.0437 0.9674 -0.2493
vn 0.2783 0.9387 -0.2036
vn 0.2778 0.9387 -0.2042
vn -0.7435 0.6160 -0.2603
vn -0.7446 0.6151 -0.2592
vn -0.7467 0.6107 -0.2636
vn -0.1272 -0.9894 -0.0695
vn 0.5175 0.5599 -0.6471
vn 0.5181 0.5600 -0.6465
vn -0.1481 0.9335 -0.3267
vn -0.1291 -0.9872 0.0933
vn -0.1286 -0.9872 0.0939
vn -0.3015 0.8779 0.3720
vn 0.7546 -0.2181 -0.6188
vn 0.7547 -0.2190 -0.6184
vn 0.7542 -0.2177 -0.6195
vn 0.9811 -0.0248 0.1920
vn 0.3077 0.7799 -0.5451
vn 0.3085 0.7801 -0.5443
vn 0.2846 0.9308 -0.2295
vn 0.2258 0.9705 -0.0849
vn 0.2255 0.9705 -0.0853
vn 0.3051 0.5616 -0.7691
vn 0.3051 0.5617 -0.7691
vn 0.2883 0.3918 -0.8737
vn 0.2882 0.3918 -0.8738
vn 0.2882 0.3918 -0.8737
vn -0.0863 0.7510 -0.6546
vn -0.0862 0.7510 -0.6546
vn 0.8283 0.2076 0.5205
vn -0.5892 -0.1377 0.7962
vn -0.6010 -0.0488 0.7978
vn -0.5997 -0.0486 0.7988
vn 0.1817 0.9757 -0.1225
vn -0.0312 0.9974 -0.0645
vn -0.0312 0.9974 -0.0644
vn 0.9503 0.1859 -0.2496
vn 0.2141 0.7903 -0.5741
vn 0.1905 0.6955 -0.6929
vn 0.1905 0.6955 -0.6928
vn 0.1904 0.6955 -0.6929
vn 0.4415 0.6856 -0.5788
vn 0.3179 0.5865 -0.7449
vn -0.0439 0.7863 -0.6163
vn 0.0685 0.9865 0.1484
vn -0.3764 0.8999 -0.2201
vn -0.1853 0.9813 -0.0520
vn -0.1848 0.9814 -0.0515
vn 0.4374 0.6994 0.5653
vn 0.2749 0.8339 0.4785
vn -0.8175 0.5622 -0.1251
vn 0.7796 -0.5765 0.2446
vn 0.7800 -0.5762 0.2440
vn 0.1947 0.8987 -0.3930
vn 0.1941 0.8986 -0.3936
vn 0.3783 0.7425 -0.5527
vn 0.3777 0.7424 -0.5534
vn 0.3448 0.5441 -0.7649
vn 0.1774 0.8519 -0.4927
vn 0.1774 0.8519 -0.4928
vn 0.1784 0.8523 -0.4917
vn 0.1895 0.8611 -0.4717
vn 0.6411 0.4249 0.6392
vn 0.6411 0.4248 0.6392
vn 0.2536 0.7272 0.6378
vn 0.2543 0.7252 0.6398
vn 0.3862 0.3501 0.8534
vn 0.3221 0.2770 0.9052
vn -0.0155 0.9996 -0.0253
vn 0.5208 0.3780 -0.7654
vn -0.1675 0.9852 -0.0354
vn 0.6848 0.3447 -0.6420
vn -0.1985 -0.9250 0.3239
vn 0.7830 0.6169 -0.0799
vn -0.0078 0.9854 -0.1702
vn -0.1107 -0.8183 0.5640
vn 0.1085 0.8855 -0.4518
vn 0.1800 0.6605 -0.7290
vn 0.7694 -0.4141 -0.4864
vn 0.7689 -0.4142 -0.4871
vn -0.3726 0.6693 -0.6428
vn 0.5788 0.6442 0.5000
vn -0.5912 0.5998 -0.5392
vn -0.9433 -0.2732 -0.1884
vn 0.9830 0.1159 0.1424
vn -0.5344 0.8126 -0.2325
vn -0.4340 0.8968 -0.0855
vn -0.3447 -0.6929 0.6332
vn -0.3436 -0.6926 0.6343
vn -0.6607 0.5930 0.4602
vn -0.6605 0.5931 0.4605
vn 0.0037 0.9863 -0.1647
vn 0.0039 0.9864 -0.1644
vn -0.7511 -0.2156 0.6240
vn -0.0962 0.9855 -0.1398
vn -0.0957 0.9856 -0.1393
vn -0.3493 0.8467 -0.4013
vn -0.0766 0.8968 -0.4357
vn -0.0766 0.8969 -0.4357
vn 0.2307 0.0138 0.9729
vn -0.1037 -0.6370 0.7638
vn -0.1036 -0.6370 0.7638
vn 0.2036 0.9789 -0.0199
vn 0.2294 0.9433 0.2399
vn -0.2874 0.4569 0.8418
vn -0.2890 0.4534 0.8431
vn -0.1885 0.9795 -0.0710
vn -0.1880 0.9797 -0.0704
vn 0.0213 0.9681 -0.2497
vn 0.0194 0.9683 -0.2490
vn -0.5758 -0.8160 -0.0509
vn -0.0647 0.9445 -0.3221
vn 0.0919 0.9654 0.2440
vn -0.2563 -0.1083 -0.9605
vn -0.2506 -0.1052 -0.9624
vn -0.2563 -0.1082 -0.9605
vn -0.3411 0.9202 -0.1919
vn -0.3412 0.9202 -0.1919
vn 0.4431 -0.8496 0.2861
vn 0.2017 0.9193 -0.3380
vn -0.0977 0.9929 -0.0677
vn -0.0975 0.9930 -0.0674
vn -0.0977 0.9929 -0.0676
vn 0.0506 0.9951 -0.0851
vn 0.0508 0.9951 -0.0848
vn 0.0697 0.4702 0.8798
vn 0.0665 0.4728 0.8787
vn 0.1283 0.9573 -0.2589
vn -0.1693 0.9535 0.2492
vn -0.1701 0.9536 0.2484
vn 0.1205 0.9761 0.1809
vn 0.1671 0.9394 -0.2992
vn 0.1673 0.9395 -0.2990
vn -0.0567 0.9458 -0.3199
vn 0.1067 0.9845 0.1391
vn -0.1701 -0.9853 0.0133
vn -0.8596 -0.2778 -0.4289
vn 0.5313 -0.1526 -0.8333
vn -0.8847 -0.1507 0.4411
vn -0.0474 0.7897 -0.6116
vn 0.2699 0.9123 -0.3081
vn 0.2698 0.9123 -0.3081
vn 0.2620 0.7373 -0.6228
vn 0.9323 0.3573 -0.0568
vn 0.9323 0.3573 -0.0569
vn 0.4053 -0.9133 -0.0404
vn -0.6137 -0.6599 -0.4334
vn 0.0705 0.4009 -0.9134
vn 0.0642 0.4024 -0.9132
vn 0.3622 0.9158 -0.1736
vn -0.5477 -0.6858 0.4793
vn -0.5474 -0.6858 0.4796
vn 0.7309 0.3727 -0.5718
vn 0.6673 0.4017 -0.6272
vn -0.6186 -0.6479 0.4444
vn -0.8506 0.3457 -0.3962
vn -0.8507 0.3486 -0.3935
vn -0.8507 0.3487 -0.3935
vn 0.8567 0.0678 -0.5114
vn 0.8609 0.0507 -0.5063
vn 0.8621 0.0494 -0.5043
vn 0.8596 0.0521 -0.5082
vn -0.9055 0.2172 -0.3646
vn 0.6363 -0.6200 -0.4590
vn -0.8508 0.3514 -0.3906
vn 0.5015 -0.6584 -0.5612
vn 0.4602 -0.6158 -0.6395
vn 0.5877 -0.6002 -0.5425
vn 0.5894 -0.6016 -0.5391
vn 0.5894 -0.6016 -0.5392
vn 0.5950 -0.4388 -0.6734
vn -0.3146 0.2872 -0.9047
vn 0.4731 -0.7325 -0.4894
vn 0.5911 -0.6029 -0.5359
vn -0.4091 -0.6046 -0.6834
vn -0.3432 0.2810 -0.8963
vn -0.3432 0.2809 -0.8963
vn -0.3407 0.3537 -0.8711
vn -0.2332 0.2443 -0.9412
vn -0.4311 -0.6075 -0.6672
vn -0.3482 -0.7935 -0.4991
vn -0.4202 -0.6229 -0.6599
vn -0.4225 -0.6239 -0.6575
vn 0.1140 0.9217 -0.3709
vn 0.1132 0.9214 -0.3717
vn 0.1026 -0.3303 -0.9383
vn 0.2591 0.3716 0.8915
vn 0.0928 -0.3481 -0.9329
vn 0.0844 -0.3240 -0.9423
vn -0.0087 -0.2233 -0.9747
vn 0.5106 0.5618 0.6509
vn 0.5106 0.5617 0.6509
vn 0.1178 0.7311 -0.6721
vn -0.5201 0.7897 0.3255
vn -0.4894 0.8709 0.0446
vn -0.5567 0.6297 0.5418
vn -0.5862 0.7430 0.3230
vn -0.5439 0.7194 -0.4321
vn -0.6002 0.7804 0.1752
vn -0.5598 0.8158 0.1454
vn -0.6940 0.7150 -0.0851
vn -0.6940 0.7149 -0.0851
vn 0.5049 0.8406 -0.1962
vn -0.5549 0.8301 -0.0551
vn -0.8130 -0.4423 0.3787
vn -0.7037 -0.4895 0.5150
vn -0.1784 -0.3938 0.9017
vn -0.7517 -0.0276 -0.6589
vn -0.7902 -0.1660 -0.5900
vn -0.7780 -0.1827 -0.6011
vn -0.2550 -0.2894 0.9226
vn -0.1943 -0.3727 0.9074
vn -0.4404 -0.6696 0.5980
vn 0.5009 0.8012 0.3275
vn -0.4192 -0.8461 0.3292
vn -0.2605 -0.8679 0.4229
vn -0.2603 -0.8679 0.4231
vn -0.4399 -0.8145 0.3784
vn 0.4021 0.8057 0.4349
vn 0.3985 0.8055 0.4386
vn -0.2492 0.9247 0.2879
vn -0.2492 0.9247 0.2878
vn -0.0495 0.8140 0.5787
vn -0.0698 0.8910 0.4486
vn 0.0500 0.7840 0.6187
vn -0.0506 0.8605 0.5070
vn -0.1053 0.8448 0.5247
vn 0.0584 0.8755 0.4796
vn -0.8578 -0.4963 0.1338
vn -0.8579 -0.4960 0.1344
vn -0.2325 0.7265 0.6466
vn 0.0380 0.8429 0.5367
vn 0.3553 0.5832 0.7305
vn 0.0917 -0.9221 0.3760
vn 0.0614 0.9669 0.2475
vn 0.0352 0.9980 -0.0524
vn 0.0353 0.9980 -0.0524
vn 0.0329 0.8465 0.5314
vn 0.0330 0.8465 0.5314
vn -0.3818 0.8556 0.3495
vn 0.1692 0.7597 0.6279
vn 0.0096 0.9128 0.4082
vn -0.7718 0.3561 0.5268
vn 0.1153 -0.9508 0.2877
vn 0.1153 -0.9507 0.2877
vn 0.9241 0.0523 0.3786
vn 0.8810 0.1467 0.4497
vn 0.9325 -0.0744 0.3535
vn 0.9003 0.0570 0.4316
vn 0.8829 -0.4695 0.0089
vn 0.8472 -0.5097 0.1502
vn 0.8821 -0.4507 0.1366
vn 0.8296 -0.5581 -0.0153
vn 0.1649 -0.5180 0.8393
vn 0.0854 -0.6207 0.7794
vn -0.6765 -0.3490 0.6485
vn -0.7142 -0.3045 0.6302
vn 0.0595 0.9917 0.1136
vn 0.2762 0.9605 0.0346
vn 0.3842 0.9205 -0.0718
vn 0.2456 0.9662 -0.0779
vn 0.2457 0.9662 -0.0779
vn 0.6468 -0.7600 -0.0639
vn 0.8625 0.4180 0.2853
vn 0.9368 0.3104 0.1612
vn 0.8689 0.4236 0.2561
vn 0.8368 0.3971 0.3768
vn 0.9414 -0.1386 -0.3074
vn 0.8564 0.4210 0.2987
vn -0.7500 -0.6247 0.2175
vn -0.8481 -0.4724 0.2398
vn -0.9599 -0.2768 0.0438
vn -0.8724 -0.4284 0.2354
vn -0.8724 -0.4284 0.2355
vn -0.9033 -0.4290 -0.0062
vn -0.7390 -0.6369 0.2195
vn -0.8577 -0.4967 0.1331
vn -0.8435 -0.5333 0.0643
vn -0.8454 -0.5267 0.0891
vn -0.9390 -0.3379 0.0644
vn 0.9816 -0.0759 -0.1755
vn 0.9812 -0.0774 -0.1768
vn 0.9669 0.0659 -0.2463
vn 0.9808 -0.0788 -0.1782
vn 0.2640 0.9531 -0.1481
vn 0.3122 0.9365 -0.1596
vn 0.8987 -0.3017 -0.3184
vn 0.8601 -0.3859 -0.3337
vn -0.1137 -0.6102 -0.7841
vn -0.2782 -0.9277 -0.2489
vn -0.2781 -0.9277 -0.2489
vn 0.0035 -0.6036 -0.7973
vn -0.1053 -0.6334 -0.7666
vn -0.2375 -0.8843 -0.4021
vn 0.4412 0.8417 -0.3111
vn -0.2837 -0.8648 -0.4142
vn -0.6007 0.2633 0.7549
vn -0.5825 0.2771 0.7641
vn -0.6587 0.0501 0.7507
vn -0.5849 0.2157 0.7819
vn -0.6172 0.2389 0.7497
vn -0.6183 0.2388 0.7488
vn -0.3933 -0.9123 -0.1143
vn 0.5587 -0.2987 0.7737
vn 0.4552 -0.3105 0.8345
vn 0.4530 -0.3145 0.8342
vn 0.4553 -0.3105 0.8344
vn 0.3400 -0.4515 0.8249
vn 0.4577 -0.3067 0.8345
vn -0.5418 0.7535 0.3723
vn -0.6381 0.6919 0.3377
vn -0.6088 0.6061 0.5118
vn -0.6548 0.6723 0.3453
vn -0.6500 0.7055 0.2823
vn -0.7198 0.6866 0.1023
vn 0.2215 0.5960 0.7718
vn 0.2214 0.5960 0.7718
vn 0.2179 0.6403 0.7366
vn 0.2666 0.6208 0.7372
vn 0.1793 0.5345 0.8259
vn 0.4987 -0.8124 -0.3021
vn 0.5040 -0.8106 -0.2983
vn 0.4987 -0.8124 -0.3022
vn 0.2002 0.5995 0.7750
vn 0.5104 -0.8189 -0.2624
vn 0.5100 -0.8190 -0.2628
vn 0.4936 -0.8140 -0.3061
vn -0.3324 0.7172 0.6125
vn -0.2183 0.7759 0.5920
vn -0.3184 0.8540 0.4115
vn -0.1401 0.6613 0.7369
vn -0.1401 0.6614 0.7369
vn -0.2334 0.7633 0.6025
vn -0.2334 0.7633 0.6024
vn 0.4934 -0.3976 -0.7736
vn -0.5059 -0.1247 -0.8536
vn -0.6151 -0.1660 -0.7708
vn 0.0399 0.9813 -0.1884
vn -0.0489 0.9960 -0.0751
vn -0.0488 0.9960 -0.0750
vn 0.1063 0.9642 -0.2431
vn 0.1061 0.9641 -0.2433
vn 0.0416 0.8230 0.5665
vn -0.0407 0.8273 0.5604
vn -0.0407 0.8273 0.5603
vn 0.1131 0.8551 0.5059
vn 0.1131 0.8552 0.5059
vn 0.0406 0.8317 0.5537
vn 0.1011 0.7892 0.6058
vn -0.5336 0.5655 0.6289
vn -0.5636 0.5578 0.6093
vn -0.5750 0.5959 0.5606
vn -0.5191 0.5455 0.6580
vn -0.5570 0.5810 0.5935
vn 0.6705 0.7072 -0.2245
vn 0.7474 0.6320 -0.2048
vn 0.7474 0.6320 -0.2049
vn 0.5771 -0.4631 0.6727
vn 0.8091 0.5841 -0.0647
vn 0.8091 0.5841 -0.0646
vn 0.6351 -0.5299 0.5620
vn 0.6415 -0.3363 0.6894
vn 0.6233 -0.5415 0.5642
vn 0.6233 -0.5416 0.5641
vn 0.5668 0.8057 0.1717
vn -0.6819 -0.3652 -0.6338
vn -0.6119 -0.3252 -0.7210
vn -0.7251 -0.3508 -0.5925
vn 0.7140 0.0411 -0.6989
vn 0.7143 0.0412 -0.6986
vn 0.7321 0.0037 -0.6812
vn 0.7040 0.0239 -0.7098
vn -0.0267 0.8118 0.5833
vn 0.4554 -0.8226 0.3405
vn 0.3012 0.9432 0.1401
vn 0.1274 0.9410 0.3134
vn 0.1612 0.9543 0.2517
vn 0.3442 0.9028 0.2577
vn -0.0097 0.0442 -0.9990
vn 0.1630 0.9224 0.3502
vn -0.0308 0.1339 -0.9905
vn -0.0258 0.0579 -0.9980
vn 0.2973 -0.7861 0.5419
vn 0.1556 -0.8411 0.5179
vn 0.1556 -0.8412 0.5179
vn 0.4964 0.8097 -0.3130
vn 0.2623 -0.7992 0.5408
vn 0.1887 -0.8350 0.5169
vn 0.3532 0.8606 -0.3670
vn 0.3533 0.8606 -0.3669
vn 0.3792 0.9079 -0.1788
vn 0.4550 0.8751 -0.1648
vn -0.6552 -0.0747 -0.7518
vn 0.4578 0.6905 -0.5600
vn 0.4578 0.6905 -0.5601
vn 0.3707 0.7279 -0.5769
vn 0.4112 0.7244 -0.5533
vn -0.6348 0.3039 -0.7104
vn 0.0076 0.9533 0.3019
vn 0.0360 0.9642 -0.2628
vn 0.7077 0.1684 0.6862
vn 0.1915 -0.5459 0.8157
vn 0.2383 -0.7975 0.5542
vn 0.3916 -0.5977 0.6996
vn -0.0822 -0.0529 0.9952
vn -0.0823 -0.0529 0.9952
vn 0.3729 -0.6070 0.7018
vn -0.3450 0.0123 0.9385
vn -0.3635 -0.0235 0.9313
vn -0.1553 -0.0502 0.9866
vn -0.2479 0.0370 0.9681
vn 0.8574 -0.3762 0.3511
vn 0.8851 -0.4183 0.2040
vn 0.8704 -0.3338 0.3620
vn 0.8703 -0.3338 0.3620
vn -0.9487 0.2909 -0.1239
vn -0.9133 0.3931 -0.1064
vn 0.2167 0.9726 -0.0846
vn 0.2623 0.9649 -0.0136
vn 0.2623 0.9649 -0.0135
vn 0.2445 0.9664 -0.0798
vn 0.2436 0.9665 -0.0809
vn 0.6491 -0.1399 0.7477
vn 0.6129 -0.1554 0.7747
vn -0.8819 0.2724 0.3848
vn -0.8846 0.2665 0.3828
vn -0.8793 0.2780 0.3868
vn -0.8856 0.3457 0.3100
vn -0.8501 0.2767 0.4480
vn -0.8501 0.2767 0.4481
vn 0.2613 0.1367 0.9555
vn -0.7761 0.2393 0.5835
vn -0.8519 0.2254 0.4728
vn -0.8511 0.2256 0.4741
vn -0.8721 0.2432 0.4245
vn 0.2643 0.1520 0.9524
vn 0.5040 -0.0054 0.8637
vn 0.5118 0.1297 0.8493
vn 0.4334 -0.1858 0.8818
vn 0.5214 0.1597 0.8383
vn 0.4419 -0.0589 0.8951
vn 0.4785 0.0860 0.8739
vn -0.5056 0.6890 -0.5192
vn 0.4140 -0.0481 0.9090
vn 0.2125 0.9138 -0.3461
vn 0.2125 0.9138 -0.3460
vn -0.8310 0.0870 -0.5494
vn -0.8734 0.0445 -0.4850
vn -0.7787 0.2407 -0.5793
vn -0.7865 0.1977 -0.5850
vn 0.7397 -0.5124 -0.4363
vn 0.6647 -0.7048 -0.2478
vn 0.6655 -0.7045 -0.2465
vn 0.7801 -0.5924 -0.2013
vn 0.8136 -0.5402 -0.2151
vn 0.6776 -0.6605 -0.3235
vn 0.7333 -0.6267 -0.2637
vn 0.6955 0.7176 -0.0355
vn 0.0923 0.2205 0.9710
vn 0.1180 0.2192 0.9685
vn 0.7303 0.6634 -0.1633
vn 0.7980 0.5708 -0.1932
vn 0.7704 0.5724 -0.2808
vn 0.7617 0.5716 -0.3052
vn 0.6858 0.6800 -0.2594
vn 0.2534 0.9467 -0.1988
vn 0.4157 0.8077 -0.4180
vn 0.4195 0.8045 -0.4205
vn 0.4195 0.8045 -0.4204
vn 0.7700 0.6339 -0.0720
vn 0.7674 0.6277 -0.1305
vn 0.8323 0.5509 -0.0622
vn 0.8624 0.5056 -0.0234
vn 0.7223 0.5735 -0.3865
vn -0.9471 0.2688 0.1755
vn 0.7391 0.6726 -0.0368
vn 0.7493 0.6531 -0.1096
vn -0.9389 0.2703 0.2133
vn -0.9405 0.2512 0.2290
vn -0.9847 -0.1695 0.0394
vn 0.0175 -0.9400 0.3409
vn 0.0175 -0.9400 0.3408
vn 0.0165 -0.9404 0.3397
vn 0.0302 -0.9853 0.1680
vn 0.0292 -0.9852 0.1688
vn 0.0312 -0.9854 0.1671
vn -0.3936 0.8115 -0.4320
vn 0.1493 0.9887 -0.0107
vn -0.3629 0.8993 0.2442
vn -0.4841 0.8617 0.1517
vn -0.4841 0.8618 0.1517
vn -0.0365 0.9323 -0.3598
vn -0.0366 0.9323 -0.3598
vn -0.0850 0.9598 -0.2674
vn -0.0860 0.9594 -0.2685
vn 0.1168 0.9018 -0.4160
vn 0.1158 0.9015 -0.4170
vn 0.0359 0.8508 -0.5242
vn -0.1211 0.7733 -0.6223
vn -0.2655 0.7987 -0.5400
vn -0.2650 0.7985 -0.5405
vn -0.2650 0.7985 -0.5406
vn -0.4639 0.5139 -0.7216
vn -0.4639 0.5139 -0.7215
vn -0.2912 0.5719 -0.7669
vn -0.3636 0.5154 -0.7760
vn -0.5160 0.3100 -0.7985
vn -0.2645 0.7983 -0.5411
vn -0.2273 0.6026 -0.7650
vn -0.4545 0.6249 -0.6348
vn -0.5990 0.5588 -0.5735
vn -0.6649 0.3751 -0.6459
vn -0.5472 0.5023 -0.6696
vn -0.5267 0.4968 -0.6898
vn 0.3714 0.8068 -0.4595
vn -0.6730 0.4637 -0.5762
vn -0.6098 0.3646 -0.7037
vn -0.6128 0.3603 -0.7033
vn -0.6137 0.4279 -0.6635
vn -0.6071 0.3689 -0.7038
vn -0.2477 0.1831 0.9514
vn -0.2489 0.2317 0.9404
vn -0.7127 0.6254 0.3178
vn -0.7640 0.5649 0.3119
vn -0.8087 0.5283 0.2586
vn -0.8087 0.5283 0.2587
vn -0.5200 -0.2814 0.8065
vn -0.4232 -0.2679 0.8655
vn 0.4640 0.8327 -0.3023
vn 0.4647 0.8326 -0.3014
vn -0.5294 -0.7830 -0.3267
vn -0.4620 -0.8521 -0.2460
vn -0.4548 -0.8666 -0.2053
vn -0.3580 0.9084 0.2158
vn -0.0342 0.4113 0.9109
vn -0.3441 0.9111 0.2268
vn -0.3723 0.8924 0.2549
vn -0.3724 0.8924 0.2548
vn -0.3723 0.8924 0.2548
vn -0.5528 0.7737 0.3095
vn -0.3418 0.8699 0.3555
vn -0.3419 0.8699 0.3555
vn -0.4770 0.7316 0.4871
vn -0.4776 0.7315 0.4865
vn -0.4770 0.7316 0.4872
vn -0.4482 0.8077 0.3832
vn -0.4482 0.8077 0.3831
vn -0.2017 -0.5318 -0.8225
vn 0.0384 0.3619 0.9314
vn 0.0020 0.4138 0.9104
vn -0.2186 -0.3923 -0.8935
vn 0.5137 0.5172 -0.6845
vn 0.5605 0.5738 -0.5972
vn 0.5607 0.5738 -0.5970
vn 0.3007 0.9409 -0.1556
vn 0.1728 0.9840 -0.0434
vn 0.1727 0.9840 -0.0434
vn -0.0680 0.6698 0.7394
vn -0.1345 0.6028 0.7865
vn -0.1017 0.6464 0.7562
vn -0.6814 -0.6795 -0.2721
vn -0.6814 -0.6795 -0.2722
vn -0.7179 -0.6802 -0.1482
vn 0.3367 0.9134 -0.2289
vn 0.1715 0.9841 -0.0459
vn -0.0015 0.9693 -0.2457
vn -0.0021 0.9692 -0.2464
vn -0.1607 -0.8688 0.4683
vn -0.0131 -0.8023 0.5968
vn 0.4469 -0.7698 0.4557
vn 0.5176 -0.8204 0.2429
vn 0.5257 -0.7654 0.3712
vn 0.5257 -0.7654 0.3713
vn 0.4927 -0.7703 0.4047
vn 0.4317 -0.7759 0.4601
vn 0.4796 -0.7278 0.4901
vn 0.4796 -0.7278 0.4902
vn 0.6154 0.1689 -0.7699
vn 0.0962 -0.1745 0.9799
vn 0.1384 -0.1272 0.9822
vn -0.5863 0.1127 -0.8022
vn -0.5721 0.0948 -0.8147
vn 0.5371 0.0404 -0.8426
vn 0.4868 0.2975 -0.8213
vn 0.6786 0.7231 -0.1285
vn 0.6786 0.7231 -0.1284
vn 0.5894 0.2185 -0.7777
vn 0.4414 0.8971 0.0183
vn 0.6021 0.7980 0.0242
vn 0.4718 0.8815 0.0191
vn 0.6884 0.7200 -0.0874
vn 0.2660 -0.4582 -0.8481
vn 0.6279 0.7781 -0.0162
vn 0.3382 -0.5990 -0.7258
vn 0.4492 -0.5918 -0.6693
vn 0.4575 -0.6759 -0.5778
vn 0.3387 -0.5805 -0.7404
vn 0.3388 -0.5805 -0.7404
vn 0.2775 0.9192 -0.2795
vn 0.2773 0.9191 -0.2798
vn 0.3148 0.8046 -0.5035
vn 0.4898 0.6714 -0.5561
vn 0.3276 0.8857 -0.3291
vn -0.1661 0.9850 -0.0464
vn -0.8447 0.0781 0.5295
vn -0.8453 0.0780 0.5285
vn -0.8245 0.0609 0.5625
vn -0.8136 0.1048 0.5719
vn -0.7976 0.5847 0.1484
vn -0.8053 0.5769 0.1367
vn -0.7240 0.6096 0.3228
vn 0.2795 0.8461 -0.4539
vn 0.2764 0.8482 -0.4518
vn 0.2802 0.8462 -0.4531
vn 0.1777 0.7743 -0.6073
vn 0.8588 -0.1785 0.4802
vn 0.2826 0.8440 -0.4558
vn 0.3211 0.8059 -0.4975
vn 0.3212 0.8059 -0.4974
vn 0.3240 0.8204 -0.4711
vn 0.3244 0.8205 -0.4707
vn 0.8248 -0.1458 0.5463
vn 0.8498 -0.2267 0.4758
vn 0.1910 -0.9387 -0.2869
vn 0.1900 -0.9386 -0.2878
vn 0.1420 -0.9682 -0.2061
vn -0.0156 -0.9859 -0.1667
vn 0.1746 -0.9412 -0.2893
vn 0.1610 -0.9307 -0.3284
vn -0.5025 0.8640 -0.0310
vn 0.2031 -0.4179 0.8855
vn 0.2030 -0.4179 0.8855
vn 0.0270 -0.4331 0.9009
vn 0.1776 -0.3196 0.9308
vn 0.2660 -0.4296 0.8630
vn 0.2659 -0.4296 0.8630
vn 0.0828 -0.4086 0.9089
vn -0.3465 -0.4729 0.8101
vn 0.0418 -0.4072 0.9124
vn 0.0898 -0.4877 0.8684
vn 0.3870 -0.1557 -0.9088
vn 0.4018 -0.2747 -0.8735
vn 0.3107 0.0168 -0.9503
vn 0.2305 -0.8246 -0.5166
vn 0.2565 -0.7715 -0.5822
vn -0.2691 0.9475 0.1728
vn -0.2803 0.9361 0.2126
vn -0.3712 0.9144 0.1614
vn -0.3689 0.9282 0.0488
vn -0.3541 0.8436 0.4035
vn 0.2018 -0.9672 0.1543
vn -0.3184 0.9427 0.0995
vn -0.2517 0.9218 0.2947
vn -0.2524 0.9219 0.2940
vn -0.0929 0.8856 -0.4550
vn 0.0211 0.8714 -0.4902
vn -0.1268 0.8592 -0.4956
vn -0.1268 0.8593 -0.4956
vn 0.3257 -0.8936 0.3090
vn 0.3256 -0.8936 0.3090
vn 0.1395 -0.9801 -0.1412
vn -0.5410 0.6550 -0.5275
vn 0.2822 0.9064 0.3144
vn 0.4136 0.8908 0.1883
vn -0.4107 -0.4612 0.7865
vn -0.2264 -0.5567 0.7993
vn -0.2264 -0.5567 0.7992
vn -0.4217 -0.4067 0.8104
vn -0.5399 -0.5012 0.6762
vn -0.5400 -0.5012 0.6762
vn -0.2999 -0.5072 0.8080
vn -0.2789 -0.5603 0.7799
vn -0.5433 -0.4696 0.6959
vn -0.7701 0.1845 -0.6106
vn -0.4309 0.7395 -0.5171
vn -0.4423 0.7518 -0.4891
vn -0.2355 0.8364 -0.4949
vn -0.1070 -0.9456 0.3072
vn -0.5447 0.5948 -0.5912
vn -0.5791 0.4281 -0.6938
vn -0.4087 0.7125 -0.5703
vn -0.5273 0.6821 -0.5067
vn -0.4437 0.7352 -0.5125
vn 0.0782 -0.9422 0.3257
vn 0.7381 0.6300 0.2417
vn -0.1728 0.7993 -0.5755
vn -0.1895 0.8514 -0.4891
vn -0.1600 0.9063 -0.3912
vn -0.5903 -0.6761 -0.4409
vn -0.2822 0.8465 -0.4515
vn -0.2801 0.8473 -0.4512
vn -0.2800 0.8473 -0.4512
vn -0.2780 0.8482 -0.4510
vn -0.7161 -0.5972 -0.3613
vn -0.3342 -0.5431 -0.7703
vn -0.9909 0.1327 -0.0236
vn -0.6286 -0.6769 -0.3830
vn -0.8115 -0.5548 -0.1834
vn -0.6233 -0.7241 -0.2953
vn -0.6531 -0.6363 -0.4106
vn -0.9983 0.0536 0.0250
vn -0.9906 0.1330 -0.0315
vn -0.6797 0.6732 -0.2912
vn -0.8057 0.5215 -0.2807
vn -0.7436 0.6172 -0.2570
vn -0.7469 0.6132 -0.2572
vn 0.4314 0.8540 0.2909
vn 0.3995 0.8596 0.3184
vn 0.3995 0.8596 0.3185
vn 0.4173 0.8530 0.3135
vn -0.1417 -0.9892 -0.0384
vn -0.1084 -0.9895 0.0951
vn 0.7463 -0.2842 -0.6018
vn 0.7463 -0.2843 -0.6019
vn 0.7520 -0.2179 -0.6221
vn 0.7539 -0.2198 -0.6191
vn 0.4231 0.8014 -0.4227
vn 0.7524 -0.2205 -0.6207
vn 0.9776 -0.0646 0.2003
vn 0.9624 -0.1823 0.2014
vn 0.2421 0.9625 -0.1224
vn 0.2421 0.9625 -0.1223
vn 0.2812 0.5680 -0.7735
vn 0.3517 0.7739 -0.5267
vn 0.2249 0.5024 -0.8348
vn 0.3680 0.5251 -0.7674
vn 0.3764 0.5181 -0.7680
vn 0.3145 0.5874 -0.7457
vn 0.4122 0.4642 -0.7840
vn 0.4122 0.4642 -0.7839
vn -0.2991 0.7218 -0.6242
vn -0.2991 0.7218 -0.6241
vn 0.2727 0.5783 -0.7689
vn 0.2727 0.5782 -0.7689
vn 0.7968 0.2496 0.5503
vn 0.8233 0.1649 0.5431
vn 0.8195 0.1961 0.5385
vn 0.9607 -0.2691 -0.0686
vn 0.9278 -0.3564 -0.1102
vn 0.9266 -0.3581 -0.1152
vn 0.9291 -0.3545 -0.1053
vn 0.9650 -0.2534 -0.0676
vn 0.0618 0.9978 0.0258
vn 0.0648 0.9977 0.0216
vn 0.1478 0.9637 0.2223
vn 0.1321 0.9831 0.1264
vn 0.2825 0.9417 0.1826
vn 0.0675 0.9976 0.0176
vn 0.8752 0.3357 -0.3484
vn 0.0645 0.9921 0.1077
vn -0.4278 -0.3838 -0.8183
vn 0.8918 0.3477 -0.2896
vn 0.8917 0.3480 -0.2895
vn 0.9027 0.2632 -0.3404
vn 0.8917 0.3482 -0.2894
vn 0.8959 0.4443 0.0084
vn -0.4385 -0.3957 -0.8069
vn -0.4334 -0.3504 -0.8303
vn 0.4712 0.6692 0.5747
vn 0.4712 0.6691 0.5747
vn 0.3933 0.5901 0.7051
vn 0.4037 0.6960 0.5938
vn 0.3495 0.8543 0.3848
vn 0.2535 0.6103 0.7505
vn 0.2535 0.6103 0.7506
vn -0.8078 0.5742 -0.1334
vn 0.3726 0.8089 0.4548
vn 0.3695 0.7403 0.5617
vn 0.3694 0.7403 0.5617
vn 0.4059 0.5567 0.7248
vn 0.4229 0.7512 0.5068
vn 0.7949 -0.5484 0.2598
vn 0.7948 -0.5484 0.2598
vn 0.7001 -0.6739 0.2362
vn 0.7001 -0.6739 0.2361
vn 0.8185 -0.5686 0.0823
vn 0.8091 -0.5691 0.1465
vn 0.1130 0.9752 -0.1905
vn 0.7207 -0.6634 0.2013
vn 0.7792 -0.5768 0.2452
vn 0.2695 0.1653 -0.9487
vn 0.2972 0.1034 -0.9492
vn 0.0797 0.0997 -0.9918
vn 0.2280 0.1713 -0.9585
vn 0.4429 0.5719 -0.6905
vn -0.1910 0.6244 -0.7574
vn 0.5647 0.6117 -0.5540
vn 0.5138 0.7098 -0.4819
vn 0.5137 0.7098 -0.4821
vn 0.4186 0.6264 -0.6575
vn 0.4187 0.6264 -0.6575
vn -0.1537 0.3022 -0.9408
vn 0.3107 0.7386 -0.5983
vn 0.5958 0.5842 -0.5512
vn 0.5957 0.5842 -0.5513
vn 0.3084 0.6864 -0.6586
vn 0.5299 0.7110 -0.4624
vn 0.4610 0.8732 -0.1581
vn 0.2253 0.8978 -0.3784
vn 0.1158 0.8334 -0.5404
vn 0.5567 0.4472 0.7001
vn 0.5235 0.4086 0.7476
vn 0.1428 0.7497 0.6462
vn 0.5934 0.4584 0.6617
vn 0.4549 0.4304 0.7796
vn 0.5401 0.4121 0.7338
vn 0.2156 0.7569 0.6169
vn 0.0238 0.9243 0.3810
vn -0.9293 0.0064 -0.3691
vn -0.9293 0.0064 -0.3692
vn 0.2527 0.7292 0.6359
vn 0.4054 0.8059 0.4314
vn -0.9622 -0.1527 -0.2256
vn -0.9619 -0.2574 -0.0925
vn -0.9561 -0.0901 -0.2788
vn -0.9602 -0.1971 -0.1979
vn -0.9493 -0.0914 -0.3008
vn -0.9492 -0.0913 -0.3012
vn 0.2807 0.4259 0.8601
vn 0.3750 0.2925 0.8797
vn 0.2201 0.2492 0.9431
vn 0.3320 0.2637 0.9057
vn 0.3548 0.1922 0.9150
vn 0.3050 0.2808 0.9100
vn 0.2395 0.4119 0.8792
vn 0.3623 0.2672 0.8929
vn -0.0740 -0.8414 -0.5353
vn -0.0543 -0.8427 -0.5356
vn -0.0543 -0.8427 -0.5357
vn -0.0956 -0.6974 -0.7103
vn -0.0955 -0.6974 -0.7103
vn -0.1586 0.9756 -0.1519
vn 0.6527 0.3504 -0.6717
vn 0.6528 0.3503 -0.6717
vn 0.7429 0.3103 -0.5932
vn 0.6526 0.3505 -0.6718
vn -0.2234 -0.9439 0.2433
vn -0.7366 -0.4530 0.5022
vn -0.7650 -0.4635 0.4471
vn -0.6969 -0.5027 0.5115
vn -0.7471 -0.4622 0.4777
vn -0.7237 -0.4952 0.4807
vn 0.0284 0.4695 -0.8825
vn 0.7482 -0.4572 -0.4807
vn -0.0716 0.7573 -0.6492
vn 0.0153 0.6486 -0.7610
vn 0.0051 0.6185 -0.7858
vn 0.1365 0.7730 -0.6195
vn 0.0416 0.7908 -0.6107
vn 0.0361 0.6191 -0.7845
vn 0.0183 0.7351 -0.6777
vn -0.4741 0.5144 -0.7145
vn -0.1996 0.6685 -0.7164
vn -0.2113 0.6182 -0.7571
vn -0.1741 0.5387 -0.8243
vn 0.5855 0.6154 0.5277
vn 0.5860 0.6143 0.5285
vn -0.2395 0.6074 -0.7575
vn -0.3661 0.6352 -0.6801
vn 0.4800 0.7362 0.4771
vn 0.5850 0.6165 0.5269
vn 0.9749 0.2179 -0.0450
vn -0.5859 0.6428 -0.4934
vn -0.5236 0.6654 -0.5320
vn -0.4805 0.6836 -0.5494
vn -0.1987 0.8323 -0.5174
vn -0.1988 0.8323 -0.5174
vn -0.5610 0.6726 -0.4826
vn 0.9864 0.1642 -0.0023
vn 0.9710 0.1532 0.1838
vn -0.0220 0.5806 -0.8139
vn 0.3267 0.5098 -0.7958
vn 0.0524 0.5901 -0.8056
vn -0.4851 0.8556 -0.1807
vn -0.6442 0.5367 0.5450
vn 0.0951 0.9937 -0.0593
vn 0.1273 0.9918 -0.0151
vn -0.7497 -0.1575 0.6427
vn -0.7496 -0.1574 0.6428
vn -0.7559 -0.1180 0.6440
vn -0.0493 0.9972 -0.0555
vn -0.0491 0.9974 -0.0536
vn -0.0493 0.9972 -0.0561
vn -0.0493 0.9971 -0.0573
vn -0.0494 0.9971 -0.0573
vn 0.3630 -0.2892 0.8858
vn 0.3631 -0.2891 0.8858
vn 0.3631 -0.2892 0.8858
vn -0.0522 0.9035 -0.4255
vn -0.0968 0.9040 -0.4164
vn 0.2196 0.1764 0.9595
vn -0.0900 -0.6347 0.7675
vn 0.1271 0.9845 0.1211
vn 0.2871 0.9577 0.0217
vn 0.1223 0.9775 0.1720
vn 0.0970 0.9924 0.0757
vn 0.0969 0.9924 0.0757
vn -0.1438 0.3656 0.9196
vn -0.2860 0.4602 0.8405
vn -0.2661 0.4708 0.8412
vn -0.2208 0.5534 0.8031
vn 0.0232 0.9679 -0.2504
vn -0.6107 -0.7918 -0.0001
vn -0.6024 -0.7970 0.0425
vn -0.5806 -0.8123 -0.0557
vn -0.5806 -0.8123 -0.0558
vn 0.0634 0.9308 -0.3600
vn 0.0625 0.9305 -0.3609
vn -0.4528 -0.8916 -0.0062
vn -0.2288 0.0473 -0.9723
vn 0.1960 0.9759 -0.0955
vn -0.2620 -0.1105 -0.9587
vn -0.2624 -0.1186 -0.9577
vn -0.2693 -0.0018 -0.9630
vn 0.0111 0.9971 -0.0747
vn 0.1462 0.9889 0.0271
vn 0.0727 0.4674 0.8810
vn -0.0562 0.9303 0.3625
vn -0.0563 0.9303 0.3625
vn 0.3375 -0.9377 0.0825
vn 0.4790 -0.8033 0.3539
vn 0.4523 -0.8820 0.1323
vn 0.1558 0.9761 0.1514
vn 0.1559 0.9761 0.1514
vn -0.0085 0.9594 0.2819
vn -0.8477 -0.3211 -0.4222
vn -0.8394 -0.2868 -0.4616
vn -0.8575 -0.3816 -0.3450
vn 0.5437 -0.1373 -0.8280
vn 0.5546 -0.1659 -0.8154
vn -0.9024 -0.1461 0.4053
vn -0.9004 -0.1458 0.4100
vn 0.9273 0.3708 -0.0508
vn -0.9290 -0.1334 0.3453
vn -0.8995 -0.1314 0.4167
vn -0.8438 -0.2235 0.4880
vn -0.8437 -0.2235 0.4880
vn -0.8429 -0.2235 0.4894
vn -0.8793 -0.1330 0.4573
vn -0.8540 -0.1819 0.4875
vn -0.8982 -0.1457 0.4146
vn -0.9333 -0.1840 0.3085
vn -0.8005 -0.3114 0.5120
vn -0.7998 -0.3114 0.5131
vn 0.2995 -0.9528 -0.0504
vn 0.2999 -0.9527 -0.0498
vn -0.8458 -0.5294 -0.0655
vn -0.9064 -0.3820 -0.1801
vn -0.7655 -0.4986 -0.4066
vn -0.7915 -0.5194 -0.3220
vn -0.7915 -0.5194 -0.3221
vn -0.8777 -0.4339 -0.2033
vn -0.9088 -0.3049 -0.2848
vn -0.6783 -0.5639 -0.4712
vn -0.8932 -0.2985 -0.3363
vn -0.8002 -0.5813 -0.1477
vn 0.0577 0.4042 -0.9128
vn 0.0001 0.3732 -0.9277
vn 0.0002 0.3732 -0.9277
vn 0.0402 0.4705 -0.8815
vn 0.0849 0.3515 -0.9323
vn 0.0280 0.4299 -0.9025
vn 0.0301 0.3721 -0.9277
usemtl mat0
s 1
f 1/1/1 2/2/1 3/3/1
f 4/4/2 5/5/2 6/6/2
f 7/7/3 8/8/3 9/9/3
f 10/10/4 11/11/4 12/12/4
f 13/13/5 14/14/5 15/15/5
f 16/16/6 17/17/6 18/18/6
f 19/19/7 20/20/7 21/21/7
f 22/22/8 23/23/9 24/24/8
f 25/25/10 26/26/10 27/27/10
f 28/28/11 29/29/11 30/30/11
f 27/27/12 31/31/13 32/32/13
f 33/33/14 34/34/14 35/35/14
f 36/36/15 37/37/15 38/38/15
f 39/39/16 40/40/16 41/41/16
f 42/42/17 43/43/17 44/44/17
f 45/45/18 46/46/18 47/47/19
f 48/48/20 49/49/20 50/50/20
f 51/51/21 52/52/21 53/53/21
f 54/54/22 55/55/23 56/56/22
f 6/6/24 57/57/24 58/58/24
f 5/5/25 59/59/25 60/60/25
f 61/61/26 62/62/26 63/63/26
f 64/64/27 65/65/27 66/66/27
f 67/67/28 41/41/28 65/65/28
f 68/68/29 69/69/29 70/70/29
f 71/71/30 72/72/30 73/73/30
f 74/74/31 75/75/31 76/76/31
f 76/76/32 75/75/32 77/77/32
f 78/78/33 79/79/33 80/80/33
f 80/80/34 81/81/34 78/78/34
f 82/82/35 83/83/35 45/45/36
f 84/84/37 85/85/37 86/86/37
f 87/87/38 88/88/39 89/89/39
f 88/88/40 90/90/40 89/89/40
f 91/91/41 92/92/41 93/93/41
f 94/94/42 95/95/42 4/4/42
f 95/95/43 96/96/43 4/4/43
f 97/97/44 98/98/44 87/87/44
f 99/99/45 100/100/46 101/101/46
f 102/102/47 103/103/47 104/104/47
f 105/105/48 106/106/48 107/107/48
f 49/49/49 108/108/49 109/109/49
f 110/110/50 111/111/50 112/112/50
f 113/113/51 114/114/51 43/43/51
f 111/111/52 115/115/52 116/116/52
f 24/24/53 35/35/53 117/117/53
f 118/118/54 119/119/55 120/120/55
f 82/82/56 121/121/56 122/122/56
f 123/123/57 81/81/57 124/124/57
f 125/125/58 126/126/58 127/127/58
f 128/128/59 129/129/59 130/130/59
f 131/131/60 132/132/60 133/133/60
f 134/134/61 135/135/61 136/136/61
f 137/137/62 138/138/62 139/139/62
f 138/138/63 140/140/63 139/139/63
f 141/141/64 142/142/64 143/143/64
f 144/144/65 145/145/66 146/146/67
f 147/147/68 148/148/68 149/149/68
f 150/150/69 151/151/69 152/152/69
f 148/148/70 153/153/71 149/149/72
f 154/154/73 155/155/73 156/156/73
f 157/157/74 158/158/74 159/159/74
f 1/1/75 160/160/76 2/2/76
f 160/160/77 161/161/77 2/2/77
f 78/78/78 144/144/78 79/79/78
f 162/162/79 3/3/79 163/163/79
f 162/162/80 164/164/80 165/165/80
f 166/166/81 130/130/81 129/129/81
f 46/46/82 63/63/82 167/167/82
f 168/168/83 169/169/83 23/23/83
f 64/64/84 170/170/84 171/171/85
f 171/171/86 172/172/86 64/64/87
f 173/173/88 174/174/88 175/175/88
f 176/176/89 177/177/89 178/178/89
f 179/179/90 171/171/91 180/180/91
f 181/181/92 182/182/92 183/183/92
f 184/184/93 182/182/93 74/74/93
f 165/165/94 113/113/94 185/185/94
f 186/186/95 41/41/95 40/40/95
f 187/187/96 188/188/96 189/189/96
f 190/190/97 25/25/97 27/27/97
f 191/191/98 192/192/98 193/193/98
f 194/194/99 91/91/99 93/93/99
f 195/195/100 196/196/100 197/197/100
f 197/197/101 198/198/101 199/199/101
f 200/200/102 201/201/102 202/202/102
f 203/203/103 204/204/103 205/205/103
f 206/206/104 207/207/104 208/208/104
f 209/209/105 210/210/106 211/211/105
f 212/212/107 131/131/107 213/213/107
f 214/214/108 215/215/108 216/216/108
f 217/217/109 218/218/109 219/219/109
f 175/175/110 220/220/110 221/221/110
f 155/155/111 222/222/111 223/223/111
f 186/186/112 224/224/112 225/225/112
f 226/226/113 227/227/113 228/228/113
f 229/229/114 230/230/114 218/218/114
f 227/227/115 231/231/115 228/228/115
f 232/232/116 233/233/116 234/234/116
f 235/235/117 236/236/117 237/237/117
f 52/52/118 238/238/118 53/53/118
f 239/239/119 240/240/119 121/121/120
f 99/99/121 241/241/121 242/242/121
f 243/243/122 244/244/123 245/245/122
f 61/61/124 246/246/124 247/247/124
f 10/10/125 248/248/126 249/249/125
f 77/77/127 75/75/128 74/74/128
f 250/250/129 251/251/130 252/252/129
f 253/253/131 254/254/131 30/30/131
f 255/255/132 242/242/132 256/256/132
f 257/257/133 88/88/134 87/87/133
f 258/258/135 259/259/135 260/260/135
f 261/261/136 262/262/137 11/11/137
f 263/263/138 264/264/138 265/265/138
f 266/266/139 267/267/139 268/268/139
f 164/164/140 29/29/140 28/28/140
f 269/269/141 44/44/142 270/270/141
f 113/113/143 44/44/143 114/114/143
f 256/256/144 271/271/145 185/185/145
f 272/272/146 273/273/146 237/237/146
f 274/274/147 275/275/147 276/276/147
f 277/277/148 278/278/148 25/25/148
f 136/136/149 80/80/149 79/79/149
f 95/95/150 279/279/150 280/280/150
f 281/281/151 163/163/151 161/161/151
f 282/282/152 283/283/152 284/284/152
f 285/285/153 286/286/153 287/287/153
f 286/286/154 288/288/154 135/135/154
f 143/143/155 289/289/155 236/236/156
f 290/290/157 33/33/157 35/35/157
f 268/268/158 291/291/159 292/292/158
f 270/270/160 113/113/161 28/28/160
f 293/293/162 294/294/162 69/69/162
f 295/295/163 296/296/163 297/297/164
f 298/298/165 58/58/165 57/57/165
f 298/298/166 76/76/166 93/93/166
f 299/299/167 21/21/167 300/300/167
f 301/301/168 302/302/168 303/303/168
f 304/304/169 305/305/169 54/54/169
f 20/20/170 306/306/171 159/159/172
f 292/292/173 307/307/174 308/308/174
f 309/309/175 310/310/175 311/311/175
f 312/312/176 313/313/176 117/117/176
f 191/191/177 261/261/177 248/248/177
f 176/176/178 314/314/178 177/177/178
f 261/261/179 249/249/179 248/248/179
f 243/243/180 315/315/180 316/316/180
f 25/25/181 278/278/181 317/317/182
f 25/25/183 317/317/183 26/26/183
f 211/211/184 210/210/184 318/318/184
f 278/278/185 277/277/186 319/319/185
f 192/192/187 257/257/187 193/193/187
f 192/192/188 278/278/188 257/257/188
f 90/90/189 320/320/189 89/89/189
f 89/89/190 320/320/190 187/187/190
f 257/257/191 278/278/191 319/319/191
f 187/187/192 321/321/192 87/87/192
f 89/89/193 187/187/193 87/87/193
f 174/174/194 322/322/194 323/323/194
f 210/210/195 324/324/195 318/318/195
f 325/325/196 190/190/197 32/32/196
f 326/326/198 18/18/198 327/327/198
f 328/328/199 101/101/199 100/100/199
f 328/328/200 100/100/201 325/325/200
f 329/329/202 330/330/202 331/331/202
f 325/325/203 332/332/204 190/190/203
f 54/54/205 329/329/205 128/128/205
f 323/323/206 322/322/207 333/333/208
f 334/334/209 335/335/209 336/336/209
f 337/337/210 327/327/210 338/338/210
f 333/333/211 322/322/211 339/339/211
f 340/340/212 341/341/212 45/45/212
f 342/342/213 183/183/213 343/343/213
f 44/44/214 43/43/214 114/114/215
f 319/319/216 277/277/216 344/344/216
f 56/56/217 94/94/217 345/345/217
f 346/346/218 145/145/218 144/144/218
f 347/347/219 348/348/220 349/349/221
f 46/46/222 350/350/222 61/61/222
f 351/351/223 183/183/224 352/352/224
f 63/63/225 353/353/226 107/107/225
f 354/354/227 355/355/227 347/347/227
f 356/356/228 357/357/228 358/358/228
f 14/14/229 359/359/230 203/203/231
f 360/360/232 361/361/232 362/362/232
f 360/360/233 362/362/234 363/363/233
f 204/204/235 364/364/236 365/365/237
f 120/120/238 366/366/238 125/125/238
f 1/1/239 367/367/240 368/368/239
f 262/262/241 97/97/241 189/189/241
f 366/366/242 343/343/243 351/351/242
f 369/369/244 370/370/244 339/339/244
f 371/371/245 115/115/246 148/148/247
f 372/372/248 373/373/248 374/374/248
f 375/375/249 220/220/249 376/376/250
f 225/225/251 224/224/251 260/260/251
f 341/341/252 350/350/253 46/46/252
f 40/40/254 308/308/255 377/377/254
f 378/378/256 314/314/257 176/176/258
f 276/276/259 361/361/259 379/379/260
f 380/380/261 324/324/261 210/210/261
f 381/381/262 280/280/262 382/382/262
f 280/280/263 123/123/264 382/382/264
f 66/66/265 354/354/265 383/383/265
f 201/201/266 384/384/267 202/202/266
f 385/385/268 110/110/268 386/386/268
f 387/387/269 281/281/269 160/160/269
f 368/368/270 388/388/271 387/387/272
f 1/1/273 368/368/273 387/387/273
f 387/387/274 160/160/274 1/1/274
f 387/387/275 388/388/275 389/389/275
f 370/370/276 207/207/276 206/206/276
f 333/333/277 390/390/277 391/391/277
f 333/333/278 391/391/279 392/392/278
f 72/72/280 393/393/280 37/37/280
f 394/394/281 395/395/281 393/393/281
f 204/204/282 245/245/282 244/244/282
f 234/234/283 166/166/283 396/396/284
f 397/397/285 295/295/286 41/41/286
f 26/26/287 317/317/288 27/27/288
f 31/31/289 317/317/289 192/192/289
f 362/362/290 276/276/291 275/275/292
f 220/220/293 375/375/293 398/398/293
f 324/324/294 399/399/295 400/400/294
f 394/394/296 62/62/296 246/246/297
f 401/401/298 402/402/298 403/403/298
f 302/302/299 402/402/299 38/38/299
f 269/269/300 270/270/300 404/404/300
f 12/12/301 367/367/301 405/405/301
f 404/404/302 254/254/302 269/269/302
f 8/8/303 291/291/303 406/406/303
f 407/407/304 126/126/304 351/351/304
f 408/408/305 362/362/305 164/164/305
f 259/259/306 355/355/306 260/260/306
f 57/57/307 6/6/307 184/184/307
f 362/362/308 29/29/308 164/164/308
f 258/258/309 409/409/309 378/378/309
f 410/410/310 115/115/311 411/411/310
f 178/178/312 348/348/312 412/412/312
f 71/71/313 353/353/313 63/63/313
f 391/391/314 174/174/314 323/323/314
f 108/108/315 413/413/315 414/414/315
f 415/415/316 105/105/316 374/374/316
f 322/322/317 174/174/317 416/416/317
f 174/174/318 417/417/318 416/416/318
f 321/321/319 189/189/320 97/97/320
f 315/315/321 212/212/322 418/418/321
f 419/419/323 417/417/323 173/173/324
f 420/420/325 421/421/325 381/381/325
f 262/262/326 246/246/327 61/61/326
f 340/340/328 422/422/328 341/341/328
f 390/390/329 281/281/330 387/387/330
f 423/423/331 229/229/331 218/218/331
f 424/424/332 345/345/333 425/425/332
f 296/296/334 397/397/334 201/201/334
f 426/426/335 296/296/335 427/427/335
f 272/272/336 346/346/337 428/428/336
f 429/429/338 430/430/339 431/431/338
f 297/297/340 429/429/341 431/431/340
f 432/432/342 60/60/342 69/69/342
f 29/29/343 275/275/343 433/433/343
f 431/431/344 430/430/344 434/434/344
f 159/159/345 33/33/346 435/435/347
f 220/220/348 173/173/348 221/221/349
f 194/194/350 436/436/350 84/84/350
f 41/41/351 186/186/351 437/437/351
f 416/416/352 417/417/353 150/150/354
f 416/416/355 438/438/356 439/439/356
f 36/36/357 402/402/358 440/440/357
f 152/152/359 416/416/359 150/150/359
f 430/430/360 296/296/360 426/426/361
f 150/150/362 417/417/362 151/151/362
f 417/417/363 419/419/364 151/151/363
f 175/175/365 376/376/365 220/220/365
f 65/65/366 427/427/366 200/200/366
f 200/200/367 384/384/367 65/65/367
f 441/441/368 442/442/368 443/443/368
f 371/371/369 149/149/369 334/334/369
f 133/133/370 48/48/370 444/444/370
f 175/175/371 445/445/371 376/376/371
f 121/121/372 376/376/373 445/445/373
f 445/445/374 122/122/374 121/121/374
f 239/239/375 106/106/375 415/415/376
f 446/446/377 342/342/377 447/447/377
f 448/448/378 137/137/378 413/413/378
f 299/299/379 449/449/380 450/450/380
f 266/266/381 438/438/381 152/152/381
f 6/6/382 94/94/383 4/4/383
f 405/405/384 1/1/384 3/3/384
f 405/405/385 367/367/385 1/1/385
f 4/4/386 451/451/386 5/5/386
f 13/13/387 15/15/388 365/365/389
f 386/386/390 7/7/390 9/9/390
f 386/386/391 112/112/392 116/116/391
f 386/386/391 116/116/391 7/7/393
f 13/13/394 452/452/394 14/14/394
f 17/17/395 16/16/395 232/232/395
f 15/15/388 205/205/396 365/365/389
f 326/326/397 16/16/397 18/18/397
f 326/326/398 337/337/398 16/16/398
f 453/453/399 232/232/400 312/312/401
f 453/453/402 148/148/402 410/410/402
f 19/19/403 306/306/403 20/20/403
f 410/410/404 232/232/404 453/453/404
f 232/232/400 16/16/405 312/312/401
f 290/290/406 24/24/406 169/169/406
f 454/454/407 300/300/408 21/21/407
f 20/20/409 454/454/409 21/21/409
f 21/21/410 455/455/410 19/19/410
f 456/456/411 22/22/8 24/24/8
f 282/282/412 22/22/412 119/119/412
f 22/22/413 456/456/413 119/119/413
f 24/24/414 23/23/414 169/169/414
f 404/404/415 28/28/416 30/30/416
f 34/34/417 336/336/417 35/35/417
f 36/36/418 457/457/418 37/37/418
f 117/117/419 35/35/419 335/335/419
f 35/35/420 336/336/420 335/335/420
f 33/33/421 458/458/421 34/34/421
f 38/38/422 402/402/423 36/36/422
f 295/295/424 39/39/424 41/41/424
f 42/42/425 269/269/425 226/226/425
f 42/42/426 135/135/426 255/255/426
f 43/43/427 42/42/427 459/459/427
f 269/269/428 42/42/428 44/44/428
f 254/254/429 253/253/429 460/460/429
f 42/42/430 255/255/430 459/459/430
f 226/226/431 269/269/431 254/254/431
f 460/460/432 226/226/433 254/254/433
f 82/82/434 45/45/434 47/47/434
f 460/460/435 227/227/435 226/226/435
f 50/50/436 444/444/436 48/48/436
f 49/49/437 461/461/437 50/50/437
f 305/305/438 55/55/438 54/54/438
f 462/462/439 51/51/439 53/53/439
f 462/462/440 463/463/440 442/442/440
f 462/462/441 442/442/441 51/51/441
f 305/305/442 279/279/442 55/55/442
f 330/330/443 54/54/22 56/56/22
f 94/94/444 6/6/444 58/58/444
f 46/46/445 61/61/445 63/63/445
f 464/464/446 5/5/446 60/60/446
f 464/464/447 184/184/448 6/6/447
f 464/464/449 6/6/449 5/5/449
f 247/247/450 62/62/450 61/61/451
f 339/339/452 427/427/453 369/369/452
f 434/434/454 426/426/454 465/465/454
f 65/65/455 172/172/455 427/427/455
f 170/170/84 64/64/84 66/66/456
f 427/427/457 172/172/457 369/369/457
f 172/172/458 179/179/458 369/369/458
f 427/427/459 339/339/459 465/465/459
f 109/109/460 68/68/461 70/70/460
f 426/426/462 427/427/462 465/465/462
f 64/64/463 172/172/463 65/65/463
f 466/466/464 71/71/464 73/73/464
f 57/57/465 74/74/465 76/76/465
f 25/25/466 332/332/466 277/277/466
f 25/25/467 190/190/467 332/332/468
f 242/242/469 288/288/469 99/99/470
f 242/242/471 467/467/471 288/288/471
f 288/288/472 332/332/472 99/99/472
f 332/332/473 288/288/473 277/277/473
f 80/80/474 468/468/474 81/81/474
f 194/194/475 84/84/476 86/86/475
f 380/380/477 196/196/477 105/105/477
f 105/105/478 469/469/478 380/380/478
f 195/195/479 374/374/479 196/196/479
f 196/196/480 374/374/480 105/105/480
f 470/470/481 471/471/481 233/233/481
f 472/472/482 471/471/482 198/198/482
f 471/471/483 470/470/483 198/198/483
f 471/471/484 234/234/484 233/233/484
f 91/91/485 331/331/485 92/92/485
f 92/92/486 298/298/486 93/93/486
f 381/381/487 96/96/487 95/95/487
f 381/381/488 421/421/488 96/96/488
f 321/321/489 97/97/489 87/87/489
f 332/332/490 100/100/490 99/99/490
f 332/332/491 325/325/491 100/100/491
f 241/241/492 99/99/493 101/101/493
f 473/473/494 102/102/494 104/104/494
f 105/105/495 353/353/495 469/469/495
f 105/105/496 415/415/496 106/106/496
f 353/353/497 105/105/497 107/107/497
f 399/399/498 469/469/498 400/400/498
f 112/112/499 111/111/499 116/116/499
f 469/469/500 353/353/500 400/400/500
f 451/451/501 70/70/501 5/5/501
f 250/250/502 216/216/502 48/48/502
f 250/250/503 474/474/503 214/214/503
f 216/216/504 49/49/504 48/48/505
f 108/108/506 414/414/506 109/109/506
f 70/70/507 59/59/507 5/5/507
f 451/451/508 109/109/460 70/70/460
f 216/216/509 108/108/509 49/49/509
f 451/451/510 49/49/510 109/109/510
f 250/250/511 214/214/511 216/216/511
f 111/111/512 110/110/513 372/372/513
f 386/386/514 110/110/514 112/112/514
f 110/110/513 373/373/515 372/372/513
f 459/459/516 113/113/516 43/43/516
f 459/459/517 185/185/517 113/113/517
f 475/475/518 115/115/518 111/111/518
f 475/475/519 411/411/519 115/115/519
f 313/313/520 338/338/520 456/456/520
f 125/125/521 118/118/521 120/120/522
f 313/313/523 24/24/523 117/117/523
f 313/313/524 456/456/524 24/24/524
f 119/119/55 476/476/525 120/120/55
f 83/83/526 82/82/526 122/122/526
f 118/118/527 282/282/527 119/119/527
f 428/428/528 78/78/528 477/477/528
f 81/81/529 273/273/529 78/78/529
f 382/382/530 123/123/530 124/124/530
f 273/273/531 81/81/531 123/123/531
f 78/78/532 273/273/533 477/477/532
f 118/118/534 125/125/534 127/127/534
f 128/128/535 329/329/535 331/331/535
f 331/331/536 91/91/537 129/129/538
f 219/219/539 128/128/539 130/130/539
f 331/331/536 129/129/538 128/128/540
f 136/136/541 42/42/541 226/226/541
f 316/316/542 136/136/542 228/228/542
f 316/316/543 418/418/543 136/136/543
f 136/136/544 226/226/544 228/228/544
f 134/134/545 478/478/545 135/135/545
f 135/135/546 42/42/546 136/136/546
f 37/37/547 141/141/548 38/38/548
f 37/37/549 393/393/549 141/141/549
f 141/141/550 395/395/550 142/142/550
f 142/142/551 479/479/551 143/143/551
f 447/447/552 18/18/553 17/17/554
f 141/141/555 143/143/555 38/38/555
f 473/473/556 447/447/556 102/102/557
f 447/447/552 17/17/554 102/102/558
f 145/145/66 287/287/559 146/146/67
f 480/480/560 287/287/560 481/481/560
f 480/480/561 285/285/561 287/287/561
f 145/145/562 482/482/562 481/481/563
f 287/287/564 145/145/565 481/481/565
f 453/453/566 153/153/71 148/148/70
f 483/483/567 157/157/567 159/159/567
f 484/484/568 158/158/568 157/157/568
f 256/256/569 241/241/569 271/271/569
f 256/256/570 242/242/571 241/241/570
f 241/241/572 101/101/573 271/271/573
f 344/344/574 277/277/574 288/288/574
f 288/288/575 480/480/575 481/481/576
f 481/481/577 142/142/578 395/395/578
f 288/288/579 481/481/579 344/344/579
f 481/481/580 395/395/580 344/344/580
f 78/78/581 428/428/581 346/346/581
f 146/146/582 134/134/582 144/144/582
f 146/146/583 478/478/583 134/134/583
f 346/346/584 144/144/584 78/78/584
f 144/144/585 134/134/585 79/79/585
f 162/162/586 408/408/586 164/164/586
f 3/3/80 162/162/80 165/165/80
f 161/161/587 163/163/588 2/2/587
f 130/130/589 166/166/589 197/197/589
f 163/163/590 3/3/591 2/2/590
f 166/166/592 129/129/592 396/396/592
f 209/209/593 130/130/593 197/197/593
f 129/129/594 485/485/595 396/396/595
f 47/47/596 46/46/596 167/167/596
f 484/484/597 169/169/597 168/168/597
f 484/484/598 157/157/598 169/169/598
f 486/486/599 168/168/599 23/23/599
f 487/487/600 8/8/601 7/7/600
f 488/488/602 487/487/602 371/371/602
f 487/487/603 7/7/603 371/371/603
f 171/171/86 179/179/604 172/172/86
f 221/221/605 173/173/605 175/175/605
f 489/489/606 208/208/606 207/207/606
f 369/369/607 489/489/607 370/370/607
f 489/489/608 207/207/608 370/370/608
f 489/489/609 179/179/609 180/180/609
f 19/19/610 450/450/610 458/458/610
f 489/489/611 369/369/611 179/179/611
f 19/19/612 455/455/612 450/450/612
f 450/450/613 34/34/613 458/458/613
f 181/181/614 86/86/614 85/85/614
f 57/57/615 184/184/615 74/74/616
f 271/271/617 165/165/617 185/185/617
f 181/181/618 85/85/618 182/182/618
f 182/182/619 184/184/619 183/183/619
f 271/271/620 490/490/621 165/165/621
f 28/28/622 113/113/622 164/164/622
f 113/113/623 165/165/623 164/164/623
f 189/189/624 321/321/624 187/187/624
f 409/409/625 186/186/626 40/40/626
f 409/409/627 258/258/627 224/224/627
f 409/409/628 224/224/628 186/186/628
f 187/187/629 320/320/629 188/188/629
f 188/188/630 246/246/630 189/189/630
f 32/32/631 190/190/631 27/27/631
f 261/261/632 191/191/632 193/193/632
f 436/436/633 194/194/633 93/93/633
f 93/93/634 491/491/634 436/436/634
f 129/129/635 91/91/635 485/485/635
f 305/305/636 304/304/637 237/237/636
f 91/91/638 194/194/638 485/485/638
f 123/123/639 279/279/639 273/273/639
f 123/123/640 280/280/640 279/279/640
f 279/279/641 305/305/641 237/237/641
f 279/279/642 237/237/642 273/273/642
f 197/197/643 166/166/643 198/198/643
f 198/198/644 470/470/644 199/199/644
f 199/199/645 195/195/646 197/197/646
f 205/205/647 15/15/647 203/203/647
f 203/203/648 245/245/648 204/204/648
f 206/206/649 163/163/649 281/281/649
f 163/163/650 206/206/650 208/208/651
f 390/390/652 206/206/652 281/281/653
f 130/130/654 209/209/105 211/211/105
f 492/492/655 210/210/655 209/209/655
f 468/468/656 212/212/656 213/213/657
f 468/468/656 80/80/658 212/212/656
f 315/315/659 243/243/659 493/493/659
f 493/493/660 132/132/660 131/131/661
f 230/230/662 229/229/662 494/494/662
f 315/315/663 131/131/663 212/212/663
f 315/315/664 493/493/664 131/131/665
f 131/131/666 133/133/666 213/213/666
f 219/219/667 218/218/667 301/301/667
f 211/211/668 217/217/668 130/130/668
f 211/211/669 318/318/669 403/403/669
f 230/230/670 494/494/670 302/302/670
f 211/211/671 403/403/671 217/217/671
f 218/218/672 230/230/672 302/302/672
f 218/218/673 302/302/673 301/301/673
f 156/156/674 155/155/674 223/223/674
f 217/217/675 219/219/675 130/130/675
f 437/437/676 186/186/677 225/225/677
f 51/51/678 452/452/678 52/52/678
f 51/51/679 495/495/679 452/452/679
f 452/452/680 13/13/680 238/238/680
f 452/452/681 238/238/681 52/52/681
f 496/496/682 17/17/682 234/234/682
f 496/496/683 103/103/684 102/102/684
f 233/233/685 232/232/685 411/411/685
f 475/475/686 233/233/686 411/411/686
f 496/496/687 102/102/687 17/17/687
f 17/17/688 232/232/688 234/234/688
f 82/82/689 47/47/689 167/167/689
f 304/304/690 235/235/690 237/237/690
f 304/304/691 303/303/691 235/235/691
f 385/385/692 267/267/692 151/151/692
f 107/107/693 121/121/693 82/82/693
f 406/406/694 267/267/694 385/385/694
f 406/406/695 291/291/695 267/267/695
f 267/267/696 266/266/696 152/152/696
f 151/151/697 419/419/697 398/398/697
f 398/398/698 375/375/699 121/121/700
f 167/167/701 107/107/701 82/82/701
f 107/107/702 239/239/702 121/121/702
f 107/107/703 106/106/703 239/239/703
f 267/267/704 152/152/704 151/151/704
f 121/121/705 240/240/705 398/398/705
f 493/493/706 243/243/706 359/359/706
f 240/240/707 385/385/707 151/151/707
f 240/240/708 151/151/708 398/398/708
f 243/243/709 203/203/709 359/359/709
f 203/203/710 243/243/710 245/245/710
f 474/474/711 250/250/129 252/252/129
f 93/93/712 77/77/713 491/491/714
f 74/74/715 182/182/716 491/491/715
f 77/77/717 74/74/715 491/491/715
f 433/433/718 253/253/718 30/30/718
f 256/256/719 185/185/719 459/459/719
f 255/255/720 467/467/720 242/242/720
f 256/256/721 459/459/722 255/255/721
f 257/257/723 319/319/724 88/88/724
f 87/87/725 98/98/726 257/257/726
f 260/260/727 224/224/728 258/258/728
f 258/258/729 497/497/729 259/259/729
f 98/98/730 261/261/730 257/257/730
f 262/262/731 261/261/732 97/97/733
f 389/389/734 11/11/735 391/391/735
f 389/389/736 388/388/736 11/11/736
f 249/249/737 261/261/737 10/10/737
f 498/498/738 499/499/738 500/500/738
f 261/261/732 98/98/739 97/97/733
f 11/11/137 262/262/137 391/391/740
f 261/261/741 193/193/741 257/257/741
f 261/261/742 11/11/742 10/10/742
f 264/264/743 263/263/743 501/501/743
f 349/349/744 263/263/744 265/265/744
f 499/499/745 348/348/745 454/454/745
f 502/502/746 266/266/746 268/268/746
f 263/263/747 498/498/747 501/501/747
f 499/499/748 20/20/748 500/500/749
f 498/498/750 263/263/750 499/499/750
f 499/499/748 454/454/751 20/20/748
f 236/236/752 272/272/752 237/237/752
f 477/477/753 273/273/753 272/272/753
f 418/418/754 80/80/754 136/136/754
f 418/418/755 212/212/755 80/80/755
f 134/134/756 136/136/757 79/79/756
f 280/280/758 381/381/758 95/95/758
f 95/95/759 55/55/759 279/279/759
f 160/160/760 281/281/761 161/161/761
f 22/22/762 282/282/762 284/284/762
f 118/118/763 283/283/763 282/282/763
f 118/118/764 127/127/764 283/283/764
f 286/286/765 285/285/765 480/480/765
f 289/289/766 272/272/766 236/236/766
f 467/467/767 255/255/767 135/135/767
f 286/286/768 480/480/769 288/288/770
f 286/286/771 478/478/771 287/287/771
f 288/288/772 467/467/772 135/135/773
f 478/478/774 146/146/775 287/287/776
f 286/286/777 135/135/777 478/478/778
f 24/24/779 290/290/779 35/35/779
f 235/235/780 143/143/780 236/236/780
f 143/143/155 479/479/781 289/289/155
f 435/435/782 33/33/782 290/290/782
f 292/292/783 503/503/783 268/268/783
f 268/268/784 267/267/785 291/291/784
f 28/28/160 404/404/786 270/270/160
f 270/270/787 44/44/787 113/113/788
f 479/479/789 142/142/789 481/481/789
f 289/289/790 479/479/790 482/482/790
f 479/479/791 481/481/791 482/482/791
f 504/504/792 293/293/793 68/68/792
f 293/293/794 69/69/794 68/68/794
f 295/295/795 397/397/795 296/296/795
f 296/296/796 430/430/796 429/429/796
f 296/296/797 429/429/798 297/297/798
f 76/76/799 77/77/799 93/93/799
f 298/298/800 57/57/800 76/76/800
f 86/86/801 181/181/801 446/446/801
f 446/446/802 473/473/802 104/104/802
f 485/485/803 86/86/803 396/396/804
f 485/485/805 194/194/805 86/86/805
f 86/86/806 446/446/806 104/104/806
f 86/86/807 104/104/807 396/396/808
f 488/488/809 307/307/809 487/487/809
f 301/301/810 304/304/810 54/54/810
f 301/301/811 303/303/811 304/304/811
f 158/158/812 20/20/170 159/159/172
f 158/158/813 500/500/813 20/20/813
f 488/488/814 334/334/814 307/307/814
f 503/503/815 292/292/815 308/308/815
f 180/180/816 505/505/817 489/489/816
f 307/307/818 292/292/818 487/487/818
f 309/309/819 383/383/819 310/310/819
f 505/505/820 309/309/820 311/311/820
f 208/208/821 489/489/821 506/506/821
f 309/309/822 505/505/822 180/180/822
f 117/117/823 335/335/823 153/153/823
f 489/489/824 505/505/824 506/506/824
f 453/453/825 117/117/825 153/153/825
f 337/337/826 313/313/826 16/16/826
f 313/313/827 312/312/827 16/16/827
f 312/312/828 117/117/828 453/453/829
f 439/439/830 438/438/831 266/266/830
f 502/502/832 39/39/832 295/295/832
f 266/266/833 502/502/833 439/439/833
f 502/502/834 295/295/834 297/297/834
f 502/502/835 297/297/835 439/439/835
f 124/124/836 81/81/837 468/468/837
f 420/420/838 124/124/838 213/213/838
f 124/124/839 468/468/839 213/213/839
f 231/231/840 243/243/840 228/228/840
f 231/231/841 244/244/841 243/243/841
f 243/243/842 316/316/842 228/228/842
f 490/490/843 271/271/844 101/101/845
f 31/31/846 325/325/846 32/32/846
f 380/380/847 209/209/847 196/196/847
f 328/328/848 490/490/843 101/101/845
f 328/328/849 31/31/849 490/490/850
f 31/31/851 328/328/851 325/325/852
f 380/380/853 492/492/853 209/209/853
f 209/209/854 197/197/854 196/196/854
f 447/447/855 342/342/856 18/18/856
f 366/366/857 476/476/857 342/342/857
f 366/366/858 120/120/858 476/476/858
f 18/18/859 342/342/859 476/476/859
f 18/18/860 476/476/860 327/327/860
f 392/392/861 323/323/206 333/333/208
f 54/54/862 128/128/862 301/301/863
f 330/330/864 424/424/864 507/507/864
f 425/425/865 345/345/865 92/92/865
f 128/128/866 219/219/867 301/301/866
f 329/329/868 54/54/868 330/330/868
f 507/507/869 425/425/869 92/92/869
f 331/331/870 330/330/870 507/507/870
f 507/507/871 92/92/871 331/331/871
f 149/149/872 335/335/872 334/334/872
f 149/149/873 153/153/873 335/335/873
f 307/307/874 334/334/874 336/336/874
f 337/337/875 326/326/875 327/327/875
f 338/338/876 313/313/876 337/337/876
f 416/416/877 431/431/877 434/434/877
f 339/339/878 370/370/878 206/206/878
f 333/333/879 339/339/879 390/390/879
f 416/416/880 465/465/880 322/322/880
f 416/416/881 434/434/881 465/465/881
f 446/446/882 183/183/882 342/342/882
f 322/322/883 465/465/883 339/339/883
f 339/339/884 206/206/884 390/390/885
f 83/83/886 340/340/886 45/45/886
f 83/83/887 122/122/887 445/445/887
f 83/83/888 445/445/889 340/340/888
f 446/446/890 181/181/891 183/183/890
f 366/366/892 342/342/892 343/343/892
f 499/499/893 508/508/893 348/348/893
f 90/90/894 319/319/894 344/344/894
f 90/90/895 88/88/895 319/319/895
f 58/58/896 298/298/896 92/92/896
f 345/345/897 424/424/897 330/330/898
f 56/56/899 55/55/899 95/95/899
f 56/56/900 95/95/901 94/94/900
f 345/345/902 330/330/902 56/56/902
f 58/58/903 92/92/903 345/345/903
f 94/94/904 58/58/904 345/345/904
f 508/508/905 509/509/905 349/349/905
f 349/349/906 265/265/906 510/510/906
f 511/511/907 512/512/907 513/513/907
f 511/511/908 514/514/908 512/512/908
f 352/352/909 515/515/909 351/351/909
f 512/512/910 347/347/910 510/510/910
f 348/348/911 508/508/911 349/349/911
f 412/412/912 348/348/220 347/347/219
f 512/512/913 510/510/913 513/513/913
f 347/347/914 349/349/914 510/510/914
f 351/351/915 343/343/915 183/183/915
f 167/167/916 63/63/916 107/107/916
f 497/497/917 516/516/917 412/412/917
f 517/517/918 354/354/918 347/347/918
f 355/355/919 259/259/919 497/497/919
f 22/22/920 284/284/920 518/518/920
f 497/497/921 412/412/922 355/355/923
f 355/355/923 412/412/922 347/347/924
f 23/23/925 356/356/925 486/486/925
f 518/518/926 519/519/926 22/22/926
f 252/252/927 359/359/230 14/14/229
f 23/23/928 519/519/928 356/356/928
f 519/519/929 23/23/929 22/22/929
f 358/358/930 520/520/930 356/356/930
f 356/356/931 520/520/931 486/486/931
f 252/252/932 251/251/932 359/359/932
f 15/15/933 14/14/229 203/203/231
f 227/227/934 460/460/934 364/364/934
f 205/205/935 204/204/935 365/365/935
f 231/231/936 364/364/236 204/204/235
f 231/231/936 227/227/937 364/364/236
f 170/170/938 66/66/938 309/309/938
f 171/171/939 170/170/940 180/180/940
f 170/170/941 309/309/941 180/180/941
f 366/366/942 126/126/942 125/125/942
f 126/126/943 366/366/943 351/351/943
f 115/115/944 410/410/944 148/148/945
f 147/147/946 371/371/245 148/148/247
f 7/7/947 115/115/246 371/371/245
f 121/121/700 375/375/699 376/376/948
f 7/7/947 116/116/949 115/115/246
f 195/195/950 372/372/950 374/374/950
f 195/195/951 199/199/951 372/372/951
f 45/45/952 341/341/952 46/46/953
f 521/521/954 522/522/954 409/409/954
f 39/39/955 502/502/955 268/268/955
f 308/308/956 40/40/956 503/503/956
f 449/449/957 40/40/957 377/377/957
f 409/409/958 40/40/958 521/521/958
f 268/268/959 503/503/959 39/39/959
f 40/40/960 449/449/961 521/521/961
f 274/274/962 276/276/963 379/379/963
f 503/503/964 40/40/965 39/39/965
f 469/469/966 399/399/966 324/324/966
f 492/492/967 380/380/967 210/210/967
f 469/469/968 324/324/968 380/380/968
f 111/111/969 372/372/969 199/199/969
f 233/233/970 111/111/970 470/470/971
f 233/233/970 475/475/972 111/111/970
f 111/111/973 199/199/973 470/470/973
f 437/437/974 225/225/975 65/65/975
f 260/260/976 66/66/976 225/225/976
f 354/354/977 66/66/977 355/355/977
f 309/309/978 66/66/978 383/383/978
f 225/225/975 66/66/979 65/65/975
f 9/9/980 406/406/980 385/385/980
f 66/66/981 260/260/981 355/355/981
f 290/290/982 157/157/982 435/435/982
f 110/110/983 240/240/984 523/523/984
f 9/9/985 385/385/985 386/386/985
f 240/240/984 239/239/986 523/523/984
f 110/110/987 385/385/987 240/240/987
f 290/290/988 169/169/988 157/157/988
f 157/157/989 483/483/989 435/435/989
f 457/457/990 72/72/990 37/37/991
f 401/401/992 73/73/992 440/440/992
f 72/72/993 457/457/993 73/73/993
f 90/90/994 344/344/994 320/320/994
f 395/395/995 141/141/996 393/393/996
f 231/231/997 204/204/997 244/244/997
f 394/394/998 393/393/998 72/72/998
f 394/394/999 344/344/1000 395/395/1000
f 73/73/1001 457/457/1001 440/440/1001
f 344/344/1002 394/394/1002 320/320/1002
f 472/472/1003 198/198/1003 166/166/1004
f 396/396/1005 104/104/1005 103/103/1006
f 496/496/1007 396/396/1007 103/103/1007
f 234/234/1008 471/471/1008 472/472/1008
f 67/67/1009 397/397/1009 41/41/1009
f 234/234/1010 396/396/1010 496/496/1010
f 234/234/283 472/472/1011 166/166/283
f 308/308/1012 336/336/1012 377/377/1012
f 308/308/1013 307/307/1013 336/336/1013
f 336/336/1014 34/34/1014 450/450/1014
f 336/336/1015 450/450/1015 377/377/1015
f 317/317/1016 278/278/1016 192/192/1016
f 192/192/1017 191/191/1017 248/248/1017
f 10/10/1018 12/12/1018 405/405/1018
f 165/165/1019 490/490/1020 3/3/1019
f 31/31/1021 405/405/1022 490/490/1021
f 31/31/1023 248/248/1023 10/10/1023
f 248/248/1024 31/31/1024 192/192/1024
f 405/405/1025 31/31/1026 10/10/1025
f 317/317/1027 31/31/1027 27/27/1027
f 490/490/1028 405/405/1028 3/3/1028
f 275/275/1029 29/29/1029 362/362/1029
f 362/362/1030 361/361/1030 276/276/1030
f 173/173/1031 220/220/1031 398/398/1031
f 401/401/1032 403/403/1032 73/73/1032
f 318/318/1033 466/466/1033 403/403/1033
f 394/394/1034 246/246/1034 320/320/1034
f 466/466/1035 324/324/1035 400/400/1035
f 403/403/1036 466/466/1036 73/73/1036
f 466/466/1037 318/318/1037 324/324/1037
f 71/71/1038 62/62/1038 72/72/1038
f 246/246/1039 188/188/1039 320/320/1039
f 14/14/1040 452/452/1041 495/495/1040
f 62/62/296 394/394/296 72/72/1042
f 62/62/450 247/247/450 246/246/1043
f 441/441/1044 474/474/1044 252/252/1044
f 215/215/1045 214/214/1045 474/474/1045
f 14/14/1046 441/441/1046 252/252/1046
f 441/441/1047 215/215/1047 474/474/1047
f 14/14/1048 495/495/1048 441/441/1049
f 401/401/1050 440/440/1050 402/402/1050
f 402/402/1051 217/217/1051 403/403/1051
f 303/303/1052 302/302/1052 235/235/1052
f 494/494/1053 402/402/1053 302/302/1053
f 494/494/1054 423/423/1054 217/217/1054
f 302/302/1055 38/38/1055 235/235/1055
f 38/38/1056 143/143/1056 235/235/1056
f 494/494/1057 217/217/1057 402/402/1057
f 476/476/1058 456/456/1058 327/327/1058
f 476/476/1059 119/119/1059 456/456/1060
f 456/456/1061 338/338/1062 327/327/1061
f 404/404/1063 30/30/1063 254/254/1063
f 487/487/1064 292/292/1065 291/291/1064
f 9/9/1066 8/8/1066 406/406/1066
f 487/487/1064 291/291/1064 8/8/1067
f 515/515/1068 407/407/1068 351/351/1068
f 451/451/1069 4/4/1069 49/49/1069
f 96/96/1070 461/461/1070 4/4/1070
f 50/50/1071 461/461/1071 444/444/1071
f 4/4/1072 461/461/1072 49/49/1072
f 461/461/1073 96/96/1073 444/444/1073
f 409/409/1074 314/314/1074 378/378/1074
f 232/232/1075 410/410/1075 411/411/1075
f 522/522/1076 314/314/1076 409/409/1076
f 522/522/1077 524/524/1077 177/177/1077
f 176/176/1078 178/178/1078 516/516/1078
f 522/522/1079 177/177/1079 314/314/1079
f 378/378/1080 497/497/1080 258/258/1080
f 176/176/1081 516/516/1081 378/378/1081
f 516/516/1082 497/497/1082 378/378/1082
f 300/300/1083 454/454/1083 348/348/1083
f 516/516/1084 178/178/1084 412/412/1084
f 178/178/1085 177/177/1085 524/524/1085
f 524/524/1086 299/299/1086 300/300/1086
f 466/466/1087 400/400/1088 353/353/1087
f 178/178/1089 524/524/1089 300/300/1089
f 178/178/1090 300/300/1090 348/348/1090
f 62/62/1091 71/71/1091 63/63/1091
f 466/466/1087 353/353/1087 71/71/1092
f 523/523/1093 415/415/1093 110/110/1093
f 262/262/1094 174/174/1094 391/391/1094
f 174/174/1095 340/340/1095 175/175/1095
f 392/392/624 391/391/624 323/323/624
f 262/262/1096 422/422/1096 174/174/1096
f 340/340/1097 445/445/1098 175/175/1098
f 174/174/1099 422/422/1099 340/340/1099
f 415/415/1100 373/373/1100 110/110/1100
f 373/373/1101 415/415/1101 374/374/1101
f 368/368/1102 12/12/1102 388/388/1102
f 368/368/1103 367/367/1103 12/12/1103
f 12/12/1104 11/11/1104 388/388/1104
f 173/173/1105 417/417/1105 174/174/1105
f 316/316/1106 315/315/1106 418/418/1106
f 398/398/1107 419/419/1107 173/173/1107
f 189/189/1108 246/246/1108 262/262/1108
f 382/382/1109 420/420/1109 381/381/1110
f 382/382/1111 124/124/1111 420/420/1111
f 422/422/1112 262/262/1113 61/61/1114
f 61/61/1114 350/350/1115 341/341/1116
f 218/218/1117 217/217/1118 423/423/1119
f 61/61/1114 341/341/1116 422/422/1112
f 389/389/1120 390/390/1120 387/387/1120
f 389/389/1121 391/391/1121 390/390/1121
f 423/423/1122 494/494/1122 229/229/1122
f 507/507/1123 424/424/1123 425/425/1123
f 200/200/1124 427/427/1124 296/296/1124
f 397/397/1125 67/67/1125 384/384/1125
f 201/201/1126 200/200/1126 296/296/1126
f 397/397/1127 384/384/1128 201/201/1128
f 482/482/1129 145/145/1129 346/346/1129
f 477/477/1130 272/272/336 428/428/336
f 289/289/1131 346/346/1131 272/272/1131
f 289/289/1132 482/482/1132 346/346/1132
f 439/439/1133 297/297/340 431/431/340
f 60/60/1134 59/59/1134 70/70/1134
f 69/69/1135 60/60/1135 70/70/1135
f 69/69/1136 294/294/1137 432/432/1137
f 30/30/1138 29/29/1139 433/433/1139
f 432/432/1140 525/525/1140 60/60/1140
f 19/19/1141 458/458/1141 306/306/1141
f 65/65/1142 41/41/1142 437/437/1142
f 483/483/1143 159/159/345 435/435/347
f 159/159/1144 458/458/1144 33/33/1144
f 458/458/1145 159/159/1145 306/306/1145
f 439/439/1146 431/431/1146 416/416/1146
f 416/416/1147 152/152/1147 438/438/1147
f 457/457/1148 36/36/357 440/440/357
f 434/434/1149 430/430/1149 426/426/1150
f 182/182/1151 85/85/1151 491/491/1151
f 436/436/1152 491/491/1152 84/84/1152
f 491/491/1153 85/85/1153 84/84/1153
f 200/200/1154 202/202/1155 384/384/1154
f 384/384/1156 67/67/1156 65/65/1156
f 495/495/1157 442/442/1157 441/441/1157
f 495/495/1158 51/51/1158 442/442/1158
f 448/448/1159 441/441/1159 443/443/1159
f 488/488/1160 371/371/1160 334/334/1160
f 147/147/1161 149/149/1161 371/371/1161
f 493/493/1162 48/48/1163 132/132/1163
f 523/523/1164 239/239/1164 415/415/1164
f 48/48/1165 359/359/1165 250/250/1165
f 444/444/1166 420/420/1166 213/213/1166
f 420/420/1167 444/444/1168 421/421/1169
f 133/133/1170 444/444/1170 213/213/1170
f 359/359/1171 251/251/1171 250/250/1171
f 48/48/1163 133/133/1172 132/132/1163
f 48/48/1173 493/493/1173 359/359/1173
f 444/444/1174 96/96/1175 421/421/1174
f 473/473/1176 446/446/1177 447/447/1177
f 216/216/1178 448/448/1178 108/108/1178
f 216/216/1179 215/215/1179 441/441/1179
f 504/504/1180 109/109/1180 139/139/1180
f 504/504/1181 68/68/1182 109/109/1181
f 441/441/1183 448/448/1183 216/216/1183
f 109/109/1184 137/137/1184 139/139/1184
f 414/414/1185 137/137/1185 109/109/1185
f 137/137/1186 414/414/1186 413/413/1186
f 448/448/1187 413/413/1187 108/108/1187
f 449/449/380 377/377/1188 450/450/380
f 21/21/1189 299/299/1189 455/455/1190
f 524/524/1191 521/521/1191 299/299/1191
f 521/521/1192 449/449/1192 299/299/1192
f 524/524/1193 522/522/1193 521/521/1193
f 299/299/1194 450/450/1194 455/455/1194
