# Blender v3.0.1 OBJ File: ''
# www.blender.org
mtllib sb5_new.mtl
o obj1
v 0.004538 -0.021745 0.002812
v 0.008999 -0.017030 0.002317
v 0.009236 -0.015551 0.004305
v 0.009593 -0.015720 0.003338
v -0.002322 -0.024672 0.001245
v -0.002326 -0.023903 0.002445
v -0.002980 -0.023941 0.002389
v -0.000336 -0.002204 -0.005240
v -0.002209 -0.002213 -0.003145
v -0.001160 -0.002379 -0.003999
v -0.004171 -0.001908 0.000198
v -0.004005 -0.002171 0.001217
v -0.002987 -0.002134 -0.001932
v 0.009349 -0.006122 0.004236
v 0.010700 -0.007684 0.002498
v 0.010431 -0.006901 0.002166
v -0.010762 -0.009876 -0.003019
v -0.009760 -0.007880 -0.004269
v -0.009681 -0.007923 -0.004536
v -0.003601 -0.002303 0.003214
v -0.004728 -0.002187 0.001800
v -0.004836 -0.002379 0.002461
v -0.002036 -0.002064 -0.004443
v -0.003622 -0.002069 -0.001998
v -0.003259 -0.002051 -0.002291
v 0.005831 -0.002995 0.002552
v 0.005080 -0.003165 0.003151
v 0.005737 -0.003110 0.003205
v 0.010168 -0.011543 -0.004218
v 0.010537 -0.012385 -0.002805
v 0.009362 -0.015847 -0.002583
v -0.007903 -0.008096 -0.007417
v -0.009102 -0.010117 -0.006751
v 0.003965 -0.015935 0.008945
v 0.006400 -0.014128 0.008399
v 0.005298 -0.003193 -0.001682
v 0.005377 -0.003159 -0.002327
v 0.004694 -0.003359 -0.002365
v 0.005076 -0.003236 -0.002669
v 0.004396 -0.005024 -0.008015
v 0.005361 -0.004460 -0.007025
v 0.005426 -0.007009 -0.008930
v 0.007672 -0.006763 -0.007089
v -0.003659 -0.003482 -0.006684
v -0.004870 -0.006023 -0.008781
v -0.006912 -0.005390 -0.006374
v -0.003296 -0.023705 0.002655
v -0.003574 -0.023655 0.002299
v -0.003283 -0.024026 0.002048
v -0.002674 -0.023836 0.002728
v 0.000946 -0.002941 -0.004560
v -0.000007 -0.004784 -0.001794
v 0.000628 -0.005529 -0.001501
v 0.005402 -0.012606 -0.009383
v 0.004705 -0.012516 -0.009742
v 0.004849 -0.011625 -0.009821
v -0.010488 -0.012872 -0.004611
v -0.010292 -0.015298 -0.003567
v -0.010625 -0.014554 -0.003267
v -0.004076 -0.002162 0.001857
v -0.003648 -0.002351 0.001713
v -0.011144 -0.012027 -0.002160
v -0.010822 -0.010842 -0.003502
v -0.005930 -0.016322 -0.007390
v -0.005163 -0.016065 -0.007998
v -0.003446 -0.017274 -0.007690
v 0.002280 -0.024266 0.001620
v 0.002155 -0.024177 0.002307
v 0.001843 -0.024288 0.002554
v 0.005412 -0.003338 -0.000035
v 0.005765 -0.003375 -0.000321
v 0.005833 -0.003404 -0.000959
v 0.002022 -0.024110 0.002714
v -0.010945 -0.013747 -0.001229
v -0.010886 -0.010328 0.001195
v 0.010331 -0.013524 0.003510
v 0.008967 -0.014417 0.005790
v 0.009259 -0.012093 0.006387
v 0.002598 -0.003008 0.006326
v 0.003218 -0.003110 0.005239
v 0.000220 -0.002992 0.005919
v -0.002019 -0.016680 -0.008335
v -0.004895 -0.013027 -0.009408
v -0.001073 -0.002990 0.005799
v -0.000708 -0.002965 0.005506
v 0.006769 -0.013254 0.008560
v 0.009103 -0.012039 0.006627
v 0.008701 -0.010974 0.007243
v -0.006592 -0.020581 -0.003866
v -0.008557 -0.017818 -0.004262
v -0.006061 -0.020186 -0.004808
v -0.009020 -0.018090 -0.003277
v -0.003630 -0.012069 0.010395
v -0.001947 -0.010015 0.010868
v -0.004245 -0.008345 0.009541
v -0.004907 -0.011909 0.009687
v 0.007471 -0.019052 -0.001190
v 0.003183 -0.023312 -0.000816
v 0.005263 -0.020624 -0.002383
v -0.004169 -0.015828 0.008927
v -0.003436 -0.016596 0.008885
v -0.002138 -0.016176 0.009601
v 0.005426 -0.003288 -0.002954
v 0.006088 -0.003601 -0.003502
v 0.005580 -0.003244 -0.004241
v -0.001640 -0.024878 0.000686
v -0.001923 -0.024854 0.000333
v -0.001564 -0.024860 0.000043
v 0.000795 -0.005783 -0.000482
v 0.001595 -0.005836 -0.000218
v 0.001453 -0.005895 -0.001018
v 0.003771 -0.002929 -0.005094
v 0.004070 -0.002863 -0.004751
v 0.004411 -0.002963 -0.005031
v 0.004634 -0.002917 -0.004045
v 0.004797 -0.003194 -0.003024
v 0.004165 -0.007688 0.010103
v 0.002175 -0.008462 0.010849
v 0.001963 -0.009791 0.011032
v 0.008330 -0.012875 -0.006864
v 0.007616 -0.011939 -0.007994
v 0.009094 -0.011564 -0.006262
v 0.007672 -0.011490 -0.008021
v 0.004133 -0.003214 0.005660
v 0.004216 -0.003155 0.005013
v 0.003870 -0.003082 0.005296
v 0.000738 -0.005700 0.000150
v 0.000449 -0.005708 -0.000200
v 0.000158 -0.005543 0.000042
v -0.009115 -0.014214 -0.006138
v -0.008073 -0.011813 -0.007853
v -0.005797 -0.012829 -0.009116
v -0.001919 -0.002910 0.004740
v -0.005381 -0.002989 0.003458
v -0.000519 -0.004521 0.008442
v 0.002123 -0.005597 -0.000383
v 0.003817 -0.004088 -0.001688
v 0.001496 -0.005883 -0.001053
v 0.007550 -0.003429 0.001146
v 0.006110 -0.003459 -0.000603
v 0.006336 -0.002995 0.000980
v 0.009258 -0.016822 0.001104
v 0.009681 -0.015800 0.002741
v 0.002442 -0.012151 -0.010227
v 0.004943 -0.009792 -0.009820
v 0.004912 -0.010833 -0.009839
v -0.005918 -0.003553 0.003868
v -0.004163 -0.004932 0.007049
v 0.006618 -0.003022 0.001333
v 0.005984 -0.002957 0.001266
v -0.006644 -0.015128 0.006881
v -0.005371 -0.018150 0.006308
v 0.001310 -0.024413 0.002980
v 0.000881 -0.023749 0.004121
v 0.000745 -0.024390 0.003437
v 0.000011 -0.024060 0.004043
v 0.007750 -0.003850 0.002989
v 0.006184 -0.003030 0.002265
v -0.003237 -0.005440 -0.009169
v -0.005104 -0.006458 -0.008921
v 0.002581 -0.023791 0.002561
v 0.002210 -0.023855 0.002858
v 0.001738 -0.024488 0.000303
v 0.002571 -0.023871 -0.000345
v 0.002447 -0.024147 0.000326
v -0.007901 -0.010481 -0.008084
v -0.009102 -0.010117 -0.006751
v -0.007903 -0.008096 -0.007417
v -0.005439 -0.010063 -0.009596
v -0.005189 -0.012965 -0.009337
v -0.003511 -0.010121 -0.010141
v -0.002087 -0.023816 -0.002401
v -0.001351 -0.024494 -0.001278
v -0.001730 -0.024599 -0.000976
v 0.005657 -0.003198 -0.001972
v 0.002746 -0.023998 0.000673
v 0.005990 -0.003340 -0.002248
v -0.010928 -0.009044 0.000152
v -0.009390 -0.005624 0.000166
v 0.005718 -0.003263 -0.002606
v -0.006690 -0.003191 0.001597
v -0.005218 -0.002129 0.000452
v -0.007844 -0.003903 0.000753
v -0.008112 -0.004203 -0.001664
v -0.000688 -0.006638 0.009992
v 0.001235 -0.005744 -0.001418
v 0.001030 -0.005843 -0.001256
v 0.008098 -0.007555 -0.007036
v 0.008561 -0.007298 -0.006235
v 0.009181 -0.010193 -0.006275
v 0.009699 -0.008752 -0.004887
v -0.000766 -0.024410 0.002328
v 0.000429 -0.024547 0.003103
v -0.000565 -0.024082 0.003925
v 0.002455 -0.023642 -0.000823
v 0.000675 -0.005570 0.009518
v 0.001122 -0.007363 0.010659
v 0.001316 -0.007397 0.010671
v 0.000191 -0.005612 -0.000547
v -0.000517 -0.004978 -0.000162
v -0.002380 -0.023133 0.004267
v -0.000238 -0.023867 0.004253
v -0.001128 -0.018903 0.008089
v 0.001588 -0.023371 -0.002440
v 0.000737 -0.024085 -0.001783
v -0.000670 -0.023540 -0.002952
v -0.010445 -0.007653 0.001011
v -0.010042 -0.007179 0.001808
v -0.003622 -0.002069 -0.001998
v -0.004455 -0.001895 -0.000154
v -0.003681 -0.001993 -0.001366
v -0.005259 -0.011876 0.009391
v -0.004408 -0.008327 0.009434
v -0.006812 -0.009908 0.007817
v -0.009131 -0.005505 0.001725
v 0.003451 -0.017628 -0.007779
v 0.002172 -0.017901 -0.007921
v 0.001968 -0.016545 -0.008864
v -0.009646 -0.016834 -0.000079
v -0.007854 -0.020384 -0.001092
v -0.009430 -0.014122 -0.005823
v 0.003417 -0.002899 -0.004807
v 0.001223 -0.002717 -0.005356
v 0.002122 -0.002906 -0.004926
v 0.001489 -0.002832 -0.004993
v -0.009746 -0.012690 -0.005955
v -0.010342 -0.011092 -0.005022
v 0.005678 -0.006564 0.008659
v 0.006526 -0.009440 0.009188
v 0.009307 -0.005509 0.003131
v 0.008198 -0.005138 0.004694
v 0.010871 -0.007918 0.000604
v 0.011182 -0.009871 -0.000311
v 0.010897 -0.009507 -0.001230
v 0.009772 -0.005805 0.000998
v 0.009254 -0.005106 0.000863
v 0.004496 -0.004203 0.007072
v 0.002392 -0.003756 0.007625
v 0.003158 -0.006876 0.010064
v 0.004394 -0.014095 0.009588
v -0.004829 -0.001970 0.000145
v -0.004530 -0.001908 0.000488
v -0.004259 -0.001993 0.000848
v -0.004912 -0.002028 0.000792
v -0.004624 -0.002020 0.001141
v -0.010530 -0.009370 0.002111
v 0.003351 -0.003005 -0.005340
v 0.003958 -0.003136 -0.005527
v -0.000277 -0.002987 -0.007099
v -0.002433 -0.002589 0.004005
v -0.002650 -0.002259 -0.002209
v -0.003259 -0.002051 -0.002291
v -0.002650 -0.002259 -0.002209
v 0.000084 -0.004970 -0.001620
v -0.000517 -0.004978 -0.000162
v 0.003700 -0.002918 -0.004455
v 0.000191 -0.005612 -0.000547
v 0.000449 -0.005708 -0.000200
v 0.009189 -0.010660 -0.006301
v 0.005671 -0.007873 -0.009164
v -0.006809 -0.010325 0.007797
v -0.007144 -0.009880 0.007504
v -0.010478 -0.015514 -0.002262
v -0.010926 -0.013814 -0.001183
v 0.004535 -0.011275 0.010237
v 0.001146 -0.024561 0.002524
v 0.003065 -0.012282 -0.010154
v 0.002991 -0.012703 -0.010112
v 0.002329 -0.015885 -0.009128
v -0.001923 -0.024854 0.000333
v -0.001640 -0.024878 0.000686
v -0.000585 -0.003189 -0.007408
v -0.003302 -0.003501 -0.006973
v -0.006061 -0.020186 -0.004808
v -0.004710 -0.021748 -0.004101
v -0.006437 -0.020910 -0.003567
v 0.007741 -0.018321 -0.002542
v 0.002440 -0.005039 0.000549
v 0.004783 -0.003244 0.003545
v 0.000360 -0.003052 0.006385
v 0.000508 -0.002990 0.006269
v -0.002284 -0.005640 -0.009399
v -0.009294 -0.018001 -0.002912
v -0.009235 -0.018139 -0.002793
v -0.009798 -0.017290 -0.002303
v -0.002701 -0.024404 -0.000766
v -0.002933 -0.024480 0.001165
v -0.003252 -0.024254 0.001431
v 0.000508 -0.005786 -0.000832
v 0.000193 -0.005615 -0.000571
v 0.006817 -0.003920 -0.001776
v 0.006512 -0.004044 -0.005027
v -0.001748 -0.002854 0.004604
v -0.008201 -0.004363 0.001022
v -0.008320 -0.004530 0.001110
v -0.007481 -0.004255 0.002773
v -0.000633 -0.016956 -0.008527
v -0.000022 -0.003542 0.004346
v 0.000031 -0.004046 0.003118
v 0.000371 -0.004550 0.002240
v 0.001729 -0.005783 -0.000072
v 0.004337 -0.003291 0.003746
v 0.003940 -0.003100 0.004657
v 0.004865 -0.003221 0.003905
v 0.004553 -0.003283 0.004736
v 0.005370 -0.003149 0.003500
v 0.001918 -0.003519 0.007436
v 0.002839 -0.003435 0.007074
v 0.002069 -0.003095 0.006750
v 0.001438 -0.003006 0.006681
v 0.005660 -0.004397 -0.006681
v 0.005636 -0.003260 0.003862
v -0.006737 -0.021555 -0.001461
v -0.006723 -0.021563 -0.001510
v -0.005087 -0.022768 -0.001302
v -0.005858 -0.002863 0.002103
v -0.006886 -0.003374 0.001747
v -0.006474 -0.003930 0.003719
v -0.005087 -0.022768 -0.001302
v -0.006723 -0.021563 -0.001510
v 0.010988 -0.008290 0.001658
v -0.007921 -0.006081 -0.005918
v -0.005878 -0.003814 -0.004905
v -0.001817 -0.002752 0.004082
v -0.004660 -0.002161 0.001746
v -0.006130 -0.006437 0.006829
v -0.008169 -0.008055 0.005498
v -0.006888 -0.008555 0.007353
v 0.004896 -0.008849 -0.009743
v 0.004936 -0.009325 -0.009795
v 0.000408 -0.005699 -0.000984
v 0.000771 -0.005793 -0.001239
v -0.001616 -0.004038 0.000374
v 0.005415 -0.010787 -0.009661
v -0.003567 -0.013015 0.010304
v 0.000331 -0.013207 0.010901
v -0.008994 -0.005139 0.001048
v -0.008356 -0.004356 -0.001181
v 0.000853 -0.005863 -0.001115
v 0.002980 -0.023580 0.002248
v 0.001060 -0.005191 0.009223
v -0.000234 -0.004562 0.008548
v 0.006244 -0.004005 -0.005390
v 0.006235 -0.004002 -0.005379
v -0.008112 -0.004203 -0.001664
v -0.005218 -0.002129 0.000452
v -0.004829 -0.001970 0.000145
v 0.005554 -0.017824 -0.005993
v -0.011044 -0.012117 -0.002827
v 0.004815 -0.003367 -0.001882
v 0.005045 -0.003378 0.000260
v 0.004109 -0.003048 -0.005372
v 0.004587 -0.003541 -0.001705
v 0.005739 -0.003341 -0.004373
v 0.004701 -0.002948 -0.004682
v 0.004981 -0.002986 -0.004328
v -0.005146 -0.002154 0.000975
v -0.000835 -0.002977 0.005026
v 0.011106 -0.009966 -0.000836
v 0.011171 -0.010386 -0.000323
v 0.010267 -0.011687 0.003263
v 0.010599 -0.009365 0.003917
v 0.009627 -0.009907 0.005830
v 0.003667 -0.017652 -0.007637
v 0.004357 -0.002865 -0.004401
v -0.007535 -0.014609 0.005876
v -0.010568 -0.009825 0.002123
v 0.006529 -0.004350 -0.005635
v 0.010136 -0.006970 -0.001091
v 0.009392 -0.009819 0.006244
v 0.009150 -0.008838 0.006353
v 0.007955 -0.008922 0.007842
v -0.008860 -0.004983 -0.001589
v 0.010233 -0.010631 -0.004232
v 0.009840 -0.009720 -0.005041
v -0.006942 -0.021291 -0.001867
v -0.005994 -0.008161 -0.009068
v 0.005909 -0.002964 0.001908
v 0.005542 -0.003003 0.002202
v 0.004778 -0.003852 -0.006479
v 0.004741 -0.003524 -0.005903
v -0.003556 -0.023952 0.001690
v 0.009615 -0.007225 0.004927
v 0.010571 -0.008454 0.003734
v 0.006943 -0.011400 0.008887
v 0.007305 -0.008290 0.008298
v 0.006457 -0.009883 0.009250
v 0.002142 -0.015017 0.010063
v -0.001631 -0.014583 0.010422
v -0.005878 -0.003814 -0.004905
v -0.003627 -0.005345 -0.008948
v 0.006514 -0.019104 -0.003329
v -0.011048 -0.009931 0.000299
v -0.005329 -0.019981 -0.005442
v -0.005713 -0.020111 -0.005138
v 0.001653 -0.024554 0.000950
v 0.002036 -0.024426 0.000646
v -0.008852 -0.017727 -0.003922
v -0.009115 -0.014214 -0.006138
v 0.000341 -0.002436 -0.005796
v -0.004333 -0.013650 0.009733
v 0.000738 -0.005700 0.000150
v 0.002822 -0.023957 0.001195
v 0.008052 -0.012863 -0.007221
v 0.000408 -0.005536 0.000423
v -0.003067 -0.002516 0.003937
v 0.010422 -0.008046 -0.001367
v 0.010576 -0.007303 0.000286
v 0.010190 -0.007039 -0.001003
v -0.001459 -0.008665 -0.010308
v 0.001305 -0.007769 -0.010150
v 0.002442 -0.012151 -0.010227
v -0.008042 -0.011367 -0.007962
v -0.005248 -0.012344 0.009362
v 0.008207 -0.004024 0.002146
v -0.002701 -0.024404 -0.000766
v -0.008883 -0.006716 0.003802
v -0.010350 -0.007623 0.001457
v -0.008039 -0.005086 0.003189
v -0.008456 -0.006305 0.004057
v 0.001100 -0.007803 0.010828
v -0.001793 -0.010039 0.010906
v 0.007887 -0.006743 -0.006832
v -0.002607 -0.023639 0.003474
v -0.001815 -0.023847 0.003781
v -0.000423 -0.024497 0.002047
v -0.000554 -0.004948 0.000060
v 0.000193 -0.005615 -0.000571
v 0.002572 -0.015112 0.009916
v -0.006585 -0.008575 0.007689
v -0.003012 -0.023326 0.003605
v -0.007901 -0.010481 -0.008084
v -0.008042 -0.011367 -0.007962
v 0.000501 -0.011359 0.011163
v 0.011018 -0.008347 0.001172
v 0.000312 -0.004577 -0.008772
v 0.001561 -0.004813 -0.008627
v 0.001605 -0.004889 -0.008666
v -0.004005 -0.002171 0.001217
v -0.001616 -0.004038 0.000374
v -0.002987 -0.002134 -0.001932
v -0.000554 -0.004948 0.000060
v 0.011105 -0.009692 0.001725
v -0.008073 -0.011813 -0.007853
v -0.006592 -0.020581 -0.003866
v 0.005066 -0.004107 -0.006772
v -0.006942 -0.021291 -0.001867
v -0.006912 -0.005390 -0.006374
v -0.004925 -0.002151 0.001379
v -0.006437 -0.020910 -0.003567
v -0.004455 -0.001895 -0.000154
v -0.007921 -0.006081 -0.005918
vt 0.521260 0.183450
vt 0.547620 0.372170
vt 0.520310 0.418700
vt 0.534530 0.416310
vt 0.218240 0.028260
vt 0.284170 0.055660
vt 0.249550 0.063390
vt 0.843400 0.851790
vt 0.928070 0.868100
vt 0.881730 0.869290
vt 0.148330 0.839570
vt 0.176010 0.834650
vt 0.080470 0.865400
vt 0.510210 0.690140
vt 0.541550 0.649000
vt 0.544300 0.672450
vt 0.093270 0.530440
vt 0.076070 0.591360
vt 0.072440 0.590560
vt 0.226030 0.817250
vt 0.183590 0.811150
vt 0.196230 0.799250
vt 0.897090 0.849020
vt 0.981040 0.848560
vt 0.969230 0.855640
vt 0.500080 0.827970
vt 0.476820 0.829800
vt 0.485910 0.818250
vt 0.634830 0.550570
vt 0.615810 0.525750
vt 0.617860 0.417000
vt 0.028360 0.594300
vt 0.041730 0.533190
vt 0.420960 0.379800
vt 0.450630 0.446370
vt 0.619480 0.857950
vt 0.637270 0.851070
vt 0.647700 0.863310
vt 0.650530 0.852760
vt 0.740260 0.736060
vt 0.718040 0.756760
vt 0.730290 0.671740
vt 0.688490 0.682930
vt 0.892300 0.761550
vt 0.884660 0.665660
vt 0.930490 0.678400
vt 0.246320 0.075190
vt 0.224070 0.074740
vt 0.223410 0.062450
vt 0.274530 0.066430
vt 0.804410 0.866780
vt 0.873360 0.928230
vt 0.811910 0.942190
vt 0.728170 0.512010
vt 0.738550 0.512920
vt 0.738220 0.539100
vt 0.070300 0.450280
vt 0.079220 0.379000
vt 0.085230 0.399720
vt 0.190950 0.826660
vt 0.192180 0.836730
vt 0.103000 0.468250
vt 0.086780 0.503970
vt 0.891490 0.354540
vt 0.877250 0.366010
vt 0.852360 0.322580
vt 0.537680 0.096290
vt 0.511850 0.099820
vt 0.498520 0.095280
vt 0.566810 0.856090
vt 0.576200 0.846920
vt 0.594860 0.844340
vt 0.496460 0.102140
vt 0.113090 0.417460
vt 0.146830 0.512410
vt 0.533120 0.483850
vt 0.499640 0.450440
vt 0.492330 0.517410
vt 0.388600 0.789800
vt 0.408920 0.809850
vt 0.338210 0.798910
vt 0.827910 0.348150
vt 0.869470 0.466520
vt 0.309790 0.792860
vt 0.315620 0.803420
vt 0.451780 0.473740
vt 0.488640 0.518130
vt 0.478020 0.545730
vt 0.038360 0.211020
vt 0.056280 0.302500
vt 0.018290 0.225000
vt 0.072930 0.293340
vt 0.307430 0.472980
vt 0.327450 0.536010
vt 0.291660 0.579570
vt 0.288310 0.474150
vt 0.604470 0.297540
vt 0.620560 0.127060
vt 0.638870 0.225240
vt 0.297500 0.354720
vt 0.308710 0.331550
vt 0.329960 0.351190
vt 0.652760 0.840790
vt 0.656180 0.815350
vt 0.677760 0.821140
vt 1.080130 0.006310
vt 0.961560 0.014310
vt 0.845190 0.014060
vt 0.725210 0.988370
vt 0.568440 0.953750
vt 0.686240 0.945940
vt 0.726640 0.837060
vt 0.715110 0.841560
vt 0.712060 0.830090
vt 0.690720 0.845630
vt 0.664320 0.854650
vt 0.403960 0.618420
vt 0.377990 0.590370
vt 0.376910 0.553270
vt 0.676920 0.510050
vt 0.694610 0.536000
vt 0.665080 0.549150
vt 0.694600 0.548890
vt 0.423540 0.791530
vt 0.431780 0.805270
vt 0.421790 0.803770
vt 0.372300 0.977820
vt 0.182530 0.987450
vt 0.210430 0.968590
vt 0.938920 0.416650
vt 0.916630 0.490770
vt 0.882100 0.469600
vt 0.282080 0.808820
vt 0.208910 0.766620
vt 0.333760 0.712380
vt 0.587320 0.932530
vt 0.638820 0.882860
vt 0.685750 0.943460
vt 0.545720 0.799400
vt 0.584240 0.836960
vt 0.542020 0.833830
vt 0.565530 0.380760
vt 0.542780 0.414500
vt 0.769600 0.517550
vt 0.738970 0.591350
vt 0.738380 0.561910
vt 0.210350 0.741330
vt 0.271190 0.696070
vt 0.535510 0.824540
vt 0.532030 0.840110
vt 0.247880 0.365150
vt 0.260700 0.263720
vt 0.473370 0.090080
vt 0.431950 0.108710
vt 0.444370 0.088830
vt 0.406410 0.094760
vt 0.513310 0.772690
vt 0.510600 0.824110
vt 0.862480 0.689700
vt 0.885600 0.651800
vt 0.509570 0.114570
vt 0.494960 0.109640
vt 0.590920 0.078700
vt 0.610890 0.104970
vt 0.587220 0.097850
vt 0.914870 0.528650
vt 0.937690 0.533190
vt 0.924320 0.594300
vt 0.879080 0.550660
vt 0.873480 0.467530
vt 0.853260 0.557280
vt 0.840880 0.080210
vt 0.802640 0.046770
vt 0.835520 0.039920
vt 0.624610 0.847040
vt 0.574090 0.105960
vt 0.628800 0.834770
vt 0.134100 0.549410
vt 0.136950 0.655020
vt 0.640560 0.838880
vt 0.167150 0.752060
vt 0.150920 0.808860
vt 0.148810 0.718500
vt 0.109710 0.709050
vt 0.337600 0.638700
vt 0.738120 0.938460
vt 0.752610 0.948030
vt 0.683340 0.660450
vt 0.670550 0.669310
vt 0.665000 0.587880
vt 0.645730 0.629780
vt 0.400400 0.046770
vt 0.442510 0.076980
vt 0.386070 0.087500
vt 0.628620 0.106950
vt 0.354790 0.675410
vt 0.363180 0.618290
vt 0.365740 0.617700
vt 0.063710 0.972120
vt 0.148310 0.941760
vt 0.312170 0.104560
vt 0.394260 0.098860
vt 0.348220 0.258960
vt 0.694540 0.112670
vt 0.700480 0.081300
vt 0.779520 0.095420
vt 0.146260 0.589290
vt 0.157650 0.604020
vt 0.085080 0.848560
vt 0.138420 0.833170
vt 0.103540 0.851670
vt 0.282340 0.474170
vt 0.289080 0.579900
vt 0.251480 0.529740
vt 0.159520 0.657610
vt 0.736500 0.341880
vt 0.756080 0.325720
vt 0.765450 0.374600
vt 0.125710 0.318030
vt 0.100430 0.209750
vt 0.048780 0.418450
vt 0.731180 0.847650
vt 0.796920 0.848960
vt 0.768080 0.855250
vt 0.787850 0.856590
vt 0.051280 0.459140
vt 0.066820 0.500410
vt 0.428660 0.659440
vt 0.438910 0.578670
vt 0.524180 0.713180
vt 0.493940 0.721500
vt 0.567570 0.647540
vt 0.581200 0.594590
vt 0.593400 0.606930
vt 0.558370 0.711500
vt 0.558680 0.735640
vt 0.419820 0.742700
vt 0.381340 0.749170
vt 0.390200 0.639340
vt 0.419330 0.439140
vt 0.145040 0.821810
vt 0.154450 0.828920
vt 0.164820 0.832930
vt 0.159900 0.816190
vt 0.169620 0.821290
vt 0.159620 0.539820
vt 0.739230 0.834820
vt 0.727740 0.822680
vt 0.829440 0.798130
vt 0.260840 0.821400
vt 0.963010 0.870370
vt 0.073270 0.855640
vt 0.067060 0.870370
vt 0.871450 0.934930
vt 1.044270 0.941760
vt 0.718830 0.851600
vt 0.959660 0.972120
vt 1.078490 0.987450
vt 0.665080 0.574690
vt 0.728070 0.646580
vt 0.251620 0.517420
vt 0.245300 0.529920
vt 0.096720 0.368870
vt 0.113610 0.415390
vt 0.413150 0.521080
vt 0.484280 0.079300
vt 0.761090 0.515420
vt 0.761360 0.502590
vt 0.762250 0.398630
vt 0.065600 0.014310
vt 0.184170 0.006310
vt 0.833840 0.786310
vt 0.883960 0.761410
vt 0.914240 0.225000
vt 0.898960 0.167990
vt 0.936670 0.198520
vt 0.624920 0.327230
vt 0.510380 0.917800
vt 0.464330 0.826280
vt 0.342390 0.787350
vt 0.345140 0.791640
vt 0.847850 0.689730
vt 0.079920 0.296370
vt 0.081160 0.291520
vt 0.091900 0.316240
vt 0.019410 0.047720
vt 0.181940 0.041500
vt 0.191390 0.052470
vt 0.845120 0.971010
vt 0.953870 0.971630
vt 0.611720 0.808650
vt 0.677420 0.780640
vt 0.284030 0.815150
vt 0.152050 0.701370
vt 0.153060 0.695330
vt 0.182020 0.707950
vt 0.804630 0.345840
vt 0.327260 0.830950
vt 0.321770 0.862680
vt 0.331250 0.891070
vt 0.549850 0.946980
vt 0.452280 0.828360
vt 0.430330 0.816800
vt 0.459580 0.818480
vt 0.441850 0.805090
vt 0.474990 0.819060
vt 0.373090 0.757990
vt 0.390610 0.765390
vt 0.376780 0.780130
vt 0.364340 0.783520
vt 0.710200 0.760510
vt 0.473140 0.806770
vt 0.084420 0.169590
vt 0.083190 0.169560
vt 0.068970 0.116750
vt 0.181040 0.772340
vt 0.168790 0.743710
vt 0.203290 0.725260
vt 0.964930 0.116750
vt 0.979150 0.169560
vt 0.553930 0.634200
vt 0.047220 0.651920
vt 0.046230 0.741830
vt 0.275480 0.827700
vt 0.182990 0.813620
vt 0.246760 0.639450
vt 0.214200 0.584600
vt 0.245540 0.570620
vt 0.740070 0.617680
vt 0.739390 0.604360
vt 0.856840 0.962690
vt 0.788760 0.952030
vt 0.171980 0.897620
vt 0.731520 0.564120
vt 0.308920 0.445580
vt 0.361170 0.451670
vt 0.150360 0.670410
vt 0.117520 0.701790
vt 0.771750 0.956800
vt 0.523400 0.122170
vt 0.359890 0.689480
vt 0.338560 0.710890
vt 0.686250 0.780350
vt 0.686210 0.780680
vt 1.005670 0.709050
vt 1.046880 0.808860
vt 1.040990 0.821810
vt 0.691950 0.337180
vt 0.094470 0.467040
vt 0.630900 0.865600
vt 0.555750 0.864030
vt 0.722830 0.825660
vt 0.627850 0.870370
vt 0.677690 0.814870
vt 0.700930 0.832800
vt 0.689510 0.834020
vt 0.162800 0.807710
vt 0.309340 0.813940
vt 0.588170 0.592850
vt 0.581660 0.580430
vt 0.534080 0.537580
vt 0.525050 0.599890
vt 0.498090 0.580120
vt 0.732390 0.341310
vt 0.703100 0.844350
vt 0.226710 0.379110
vt 0.159530 0.526770
vt 0.685700 0.766300
vt 0.591230 0.681570
vt 0.491910 0.581060
vt 0.487690 0.607530
vt 0.463140 0.599340
vt 0.111680 0.679000
vt 0.634660 0.576520
vt 0.646610 0.602000
vt 0.077680 0.181390
vt 0.891610 0.600500
vt 0.515470 0.835030
vt 0.504100 0.838390
vt 0.722260 0.783400
vt 0.716790 0.800190
vt 0.197580 0.063980
vt 0.504880 0.655830
vt 0.526170 0.624760
vt 0.448240 0.526520
vt 0.452020 0.614180
vt 0.438390 0.566390
vt 0.389700 0.402770
vt 0.336620 0.404300
vt 0.942190 0.741830
vt 0.869190 0.691150
vt 0.645140 0.291940
vt 0.135440 0.524060
vt 0.895920 0.231000
vt 0.905120 0.227560
vt 0.560740 0.076540
vt 0.575210 0.086060
vt 0.063220 0.305150
vt 0.042960 0.416650
vt 0.821470 0.839690
vt 0.297340 0.423990
vt 1.268250 0.977820
vt 0.556150 0.109170
vt 0.682880 0.510010
vt 0.299940 0.961930
vt 0.247790 0.812390
vt 0.595340 0.650470
vt 0.571280 0.666820
vt 0.589890 0.679180
vt 0.828270 0.607570
vt 0.791080 0.642880
vt 0.769600 0.517550
vt 0.915980 0.503480
vt 0.282730 0.460340
vt 0.531260 0.768940
vt 0.915370 0.047720
vt 0.188420 0.621920
vt 0.152220 0.590100
vt 0.184890 0.677300
vt 0.194160 0.636380
vt 0.363410 0.605410
vt 0.329490 0.535720
vt 0.683630 0.683960
vt 0.294140 0.083450
vt 0.332150 0.083870
vt 0.435250 0.043960
vt 0.171020 0.938180
vt 0.057910 0.971630
vt 0.396150 0.401330
vt 0.251720 0.570290
vt 0.280550 0.093430
vt 0.018910 0.528650
vt 0.020020 0.503480
vt 0.360590 0.505170
vt 0.560440 0.633850
vt 0.811420 0.737590
vt 0.789780 0.737640
vt 0.788970 0.735330
vt 1.071970 0.834650
vt 1.067930 0.897620
vt 0.976430 0.865400
vt 1.066980 0.938180
vt 0.554490 0.596090
vt 0.020670 0.490770
vt 0.934320 0.211020
vt 0.720350 0.770680
vt 0.973640 0.181390
vt 0.034530 0.678400
vt 0.172950 0.810430
vt 0.040710 0.198520
vt 1.034380 0.833170
vt 0.943180 0.651920
vn 0.7355 -0.5846 0.3423
vn 0.7482 -0.5733 0.3340
vn 0.0642 -0.8701 0.4888
vn 0.4065 0.7852 0.4671
vn 0.3799 0.9012 0.2085
vn 0.8265 0.4629 0.3204
vn -0.9292 0.2128 -0.3021
vn -0.2750 0.9146 0.2965
vn -0.1678 0.9858 -0.0016
vn -0.1670 0.9618 0.2171
vn -0.1669 0.9617 0.2173
vn 0.8759 -0.2279 -0.4252
vn -0.8218 0.2767 -0.4981
vn 0.6040 -0.5668 0.5603
vn 0.6025 -0.5704 0.5582
vn -0.3515 0.9334 0.0722
vn -0.3522 0.9318 0.0876
vn -0.3517 0.9319 0.0883
vn 0.3788 0.6214 -0.6858
vn 0.4651 0.6005 -0.6505
vn -0.5025 0.6833 -0.5298
vn -0.5048 0.6828 -0.5282
vn -0.3868 -0.9049 0.1779
vn -0.3752 -0.7727 0.5120
vn -0.3757 -0.7728 0.5114
vn -0.1731 -0.8892 0.4235
vn -0.1739 -0.8894 0.4228
vn 0.2971 0.7057 0.6432
vn 0.4322 0.6410 0.6343
vn 0.4485 -0.0639 -0.8915
vn 0.4484 -0.0639 -0.8915
vn -0.8681 -0.2810 -0.4093
vn 0.3452 0.9343 0.0888
vn -0.9905 0.0591 -0.1240
vn -0.2818 -0.6251 -0.7279
vn 0.5241 -0.8389 0.1465
vn 0.0013 0.9998 0.0216
vn 0.5796 -0.7731 0.2577
vn -0.9859 -0.1364 0.0968
vn 0.8896 -0.2786 0.3620
vn 0.8861 -0.1827 0.4259
vn -0.0523 0.9984 -0.0230
vn -0.1442 -0.3595 -0.9220
vn -0.0795 0.9874 0.1369
vn -0.0796 0.9874 0.1368
vn 0.6867 -0.1517 0.7109
vn -0.5852 -0.5369 -0.6077
vn -0.6407 -0.5736 -0.5104
vn -0.4286 0.0525 0.9020
vn -0.4785 0.0363 0.8774
vn 0.7058 -0.6185 -0.3454
vn 0.7054 -0.6186 -0.3461
vn -0.3212 -0.4550 0.8305
vn 0.4191 0.8968 0.1420
vn 0.0300 -0.9953 -0.0921
vn 0.0301 -0.9953 -0.0920
vn 0.4610 0.7057 0.5380
vn 0.0225 0.9993 -0.0313
vn 0.0226 0.9993 -0.0311
vn 0.0047 0.9810 -0.1941
vn 0.0463 0.9531 0.2991
vn 0.3197 0.0408 0.9466
vn 0.3156 0.0456 0.9478
vn 0.7780 -0.0694 -0.6244
vn 0.7761 -0.0382 -0.6295
vn 0.2316 0.9557 0.1816
vn 0.2309 0.9560 0.1807
vn 0.2295 0.9502 -0.2108
vn 0.2297 0.9502 -0.2106
vn -0.5380 -0.2990 -0.7881
vn -0.2506 0.8289 0.5002
vn -0.6256 0.7446 0.2327
vn 0.2920 0.9218 -0.2552
vn 0.9655 -0.2500 -0.0731
vn 0.9684 -0.2417 -0.0615
vn 0.1482 0.0825 -0.9855
vn -0.4362 0.6900 0.5776
vn -0.4357 0.6899 0.5781
vn 0.0300 0.9981 0.0538
vn 0.0299 0.9981 0.0537
vn -0.6186 -0.4808 0.6215
vn 0.4819 -0.6986 0.5289
vn 0.2574 -0.7546 0.6036
vn 0.2900 0.9062 0.3077
vn 0.2900 0.9083 0.3014
vn -0.3875 0.4725 -0.7915
vn -0.3884 0.4758 -0.7892
vn -0.3876 0.4725 -0.7915
vn 0.5204 -0.7705 0.3682
vn 0.5204 -0.7705 0.3681
vn 0.7111 -0.6401 0.2908
vn 0.4860 -0.8112 -0.3252
vn 0.4862 -0.8112 -0.3249
vn -0.7144 0.1792 -0.6764
vn -0.3516 -0.0848 -0.9323
vn -0.2640 -0.0716 -0.9619
vn -0.0522 -0.8601 -0.5074
vn 0.0798 0.9700 0.2297
vn 0.0792 0.9702 0.2290
vn 0.7839 -0.6186 0.0529
vn 0.3928 0.9066 0.1543
vn -0.9312 0.3468 -0.1122
vn -0.9328 0.3430 -0.1104
vn 0.2784 0.9605 -0.0045
vn -0.6138 0.7827 0.1034
vn -0.6215 0.7834 0.0055
vn -0.3005 0.2612 0.9173
vn -0.1834 0.8698 0.4581
vn -0.1828 0.8696 0.4587
vn 0.8087 0.2750 -0.5200
vn 0.8253 0.2777 -0.4917
vn -0.1845 -0.9684 0.1680
vn 0.4252 -0.7426 -0.5175
vn 0.0045 0.4953 0.8687
vn 0.5931 0.8051 -0.0035
vn -0.1624 -0.6784 0.7165
vn 0.2507 -0.7263 -0.6400
vn -0.8896 0.4278 0.1597
vn -0.1420 0.9876 -0.0663
vn -0.6227 0.0460 0.7811
vn -0.9039 0.4069 0.1317
vn 0.2454 -0.4720 -0.8467
vn -0.7246 -0.5794 0.3731
vn -0.1182 -0.9551 -0.2715
vn -0.7401 -0.4185 -0.5264
vn -0.1137 0.8366 0.5359
vn 0.0145 0.9536 0.3008
vn -0.8665 -0.0758 -0.4933
vn 0.5068 0.2928 0.8108
vn 0.6361 0.6747 0.3743
vn 0.6255 0.6896 0.3648
vn 0.9290 0.3242 -0.1783
vn 0.7454 0.6542 0.1285
vn 0.2699 0.6106 0.7446
vn 0.2721 0.6097 0.7445
vn 0.4916 -0.3979 0.7746
vn -0.2725 0.9607 0.0531
vn -0.2730 0.9606 0.0525
vn -0.2730 0.9606 0.0526
vn -0.1464 0.9291 0.3397
vn -0.1468 0.9292 0.3392
vn -0.1292 0.9883 0.0806
vn 0.1187 0.9198 0.3740
vn -0.9726 0.0633 0.2237
vn 0.1590 0.9662 -0.2031
vn 0.1587 0.9661 -0.2035
vn 0.0585 0.9783 -0.1989
vn 0.3045 0.9514 -0.0452
vn 0.5705 0.7311 0.3742
vn 0.0124 0.9752 0.2212
vn 0.0120 0.9753 0.2207
vn 0.2567 0.9661 0.0287
vn 0.6693 0.6609 0.3396
vn -0.2481 0.9685 0.0212
vn 0.3736 0.9273 -0.0245
vn 0.3735 0.9273 -0.0245
vn 0.1032 -0.9719 0.2117
vn 0.1926 0.9729 0.1281
vn 0.7310 0.1455 -0.6666
vn 0.6360 0.2104 -0.7424
vn -0.6839 -0.1339 0.7172
vn -0.9017 -0.4144 0.1236
vn 0.4666 -0.2386 0.8517
vn -0.4555 0.4665 0.7582
vn -0.4555 0.4665 0.7583
vn 0.2506 -0.9435 0.2167
vn 0.2506 -0.9435 0.2168
vn 0.2486 -0.9499 0.1893
vn 0.2339 -0.0540 -0.9708
vn 0.2333 -0.0610 -0.9705
vn 0.1912 0.2819 0.9402
vn 0.1964 0.2794 0.9399
vn 0.2579 -0.2585 -0.9309
vn -0.1378 -0.9895 0.0432
vn -0.2322 0.9118 -0.3387
vn -0.4451 -0.6770 -0.5861
vn 0.8677 -0.4733 -0.1521
vn 0.8664 -0.4743 -0.1565
vn 0.8677 -0.4732 -0.1520
vn -0.5182 0.8471 -0.1181
vn 0.1748 -0.8942 -0.4122
vn -0.0565 0.7854 -0.6164
vn -0.8225 -0.5410 -0.1758
vn -0.8928 -0.3974 -0.2123
vn -0.8907 -0.4017 -0.2130
vn -0.5749 -0.8034 -0.1549
vn 0.3583 0.9334 -0.0207
vn 0.3588 0.9332 -0.0201
vn -0.3133 0.9159 0.2509
vn 0.4977 0.8668 -0.0321
vn -0.2253 0.9388 0.2606
vn -0.2293 0.9392 0.2554
vn -0.7652 0.5742 0.2912
vn -0.7657 0.5741 0.2902
vn 0.0269 -0.5227 -0.8521
vn -0.0715 -0.6855 -0.7245
vn -0.0859 0.9418 -0.3251
vn -0.0340 0.9147 -0.4028
vn -0.0340 0.9147 -0.4027
vn -0.3511 0.8962 -0.2711
vn -0.1307 0.9764 -0.1720
vn 0.3825 0.9038 0.1920
vn -0.1579 0.9838 0.0851
vn 0.1016 0.7636 0.6376
vn -0.0025 0.8124 0.5831
vn 0.5162 0.6518 -0.5556
vn -0.0173 0.9879 0.1542
vn -0.5276 -0.8441 -0.0957
vn -0.5667 0.7340 0.3742
vn -0.6117 0.6978 0.3727
vn -0.4752 -0.7979 -0.3708
vn 0.9060 0.4128 0.0935
vn -0.4846 0.6875 0.5409
vn -0.6680 0.6805 -0.3013
vn 0.1458 0.9373 0.3166
vn -0.0696 0.9965 0.0452
vn -0.0695 0.9965 0.0454
vn -0.7292 0.3093 0.6105
vn -0.7292 0.3093 0.6104
vn 0.4680 0.2212 -0.8556
vn 0.4548 0.7358 0.5017
vn 0.4249 0.8735 -0.2376
vn 0.4213 0.8758 -0.2354
vn 0.3315 0.0870 -0.9394
vn 0.3395 0.0327 -0.9400
vn -0.1484 -0.1747 0.9734
vn -0.1483 -0.1741 0.9735
vn -0.6812 0.5877 0.4366
vn -0.7915 0.6046 0.0897
vn -0.7915 0.6046 0.0898
vn 0.1314 0.8930 0.4305
vn 0.0362 -0.8321 -0.5535
vn -0.6492 -0.6400 -0.4110
vn 0.0694 0.9889 -0.1315
vn 0.6928 -0.6363 0.3393
vn -0.5843 0.5461 0.6003
vn -0.0556 0.6866 0.7249
vn 0.1561 0.9877 -0.0055
vn -0.5481 0.8270 -0.1252
vn 0.7444 -0.3896 -0.5423
vn -0.9603 -0.2426 -0.1378
vn -0.4428 0.8820 0.1609
vn -0.4428 0.8821 0.1609
vn -0.4422 0.8827 0.1591
vn -0.1687 0.9829 0.0734
vn -0.1390 0.9819 -0.1283
vn -0.1210 0.9092 -0.3984
vn -0.1210 0.9092 -0.3985
vn 0.0052 0.9987 0.0513
vn -0.5860 0.7870 0.1929
vn 0.3362 0.9270 -0.1664
vn 0.3342 0.8943 0.2975
vn 0.3299 0.8967 0.2952
vn -0.2063 0.9386 0.2765
vn 0.3259 0.8990 0.2926
vn -0.4749 0.8672 0.1496
vn -0.0283 0.9994 0.0220
vn 0.9888 0.0613 -0.1358
vn 0.2482 0.9204 -0.3021
vn 0.2519 0.9208 -0.2976
vn 0.2520 0.9208 -0.2976
vn 0.0412 0.9980 -0.0482
vn 0.9063 -0.1929 0.3760
vn 0.4915 -0.3456 -0.7994
vn -0.1925 0.9232 0.3328
vn -0.1679 0.9467 0.2749
vn -0.8594 -0.3136 0.4038
vn 0.7210 0.6527 -0.2327
vn 0.7593 0.1402 0.6354
vn -0.6472 0.4601 -0.6077
vn -0.8281 0.4866 -0.2783
vn -0.8290 0.4768 -0.2923
vn 0.9304 0.2569 -0.2612
vn 0.9337 0.2637 -0.2423
vn 0.6395 -0.7508 0.1655
vn 0.6369 -0.7526 0.1671
vn 0.0248 -0.9708 0.2387
vn 0.0241 -0.9710 0.2380
vn -0.2465 -0.0810 -0.9658
vn -0.4841 -0.2028 0.8512
vn -0.7204 -0.6557 -0.2259
vn -0.7990 -0.5977 -0.0666
vn -0.2743 0.2223 -0.9356
vn 0.1305 0.9900 0.0532
vn 0.2240 0.9743 -0.0233
vn -0.0104 0.9927 0.1205
vn -0.0458 0.9746 0.2192
vn -0.0461 0.9747 0.2188
vn -0.0241 0.9997 -0.0035
vn -0.0664 0.9721 -0.2248
vn -0.0657 0.9724 -0.2240
vn 0.0754 0.9954 0.0590
vn 0.0753 0.9954 0.0590
vn 0.3395 0.8588 -0.3837
vn 0.3435 0.8593 -0.3790
vn -0.2170 0.9638 0.1550
vn -0.9063 0.0794 -0.4150
vn -0.2712 -0.9278 0.2563
vn -0.6357 -0.7637 0.1126
vn -0.6230 -0.7821 0.0104
vn -0.5300 -0.8453 -0.0678
vn 0.8650 -0.4739 0.1650
vn 0.8650 -0.4738 0.1650
vn -0.1690 -0.9133 0.3706
vn -0.1683 -0.9132 0.3712
vn -0.1666 -0.8645 0.4742
vn 0.2503 0.8771 0.4099
vn 0.2256 0.9435 0.2427
vn 0.2249 0.9439 0.2417
vn 0.1377 0.9879 0.0719
vn 0.1374 0.9879 0.0715
vn 0.3957 0.7956 0.4587
vn -0.0384 0.9407 0.3371
vn -0.0383 0.9407 0.3371
vn 0.2600 0.8815 0.3942
vn 0.0091 0.9995 0.0313
vn 0.0455 0.9785 0.2014
vn 0.0459 0.9783 0.2019
vn 0.8433 0.4113 0.3460
vn 0.3197 0.9203 0.2254
vn 0.7913 0.5439 0.2793
vn 0.8300 0.4447 0.3367
vn 0.0345 0.9928 0.1144
vn -0.9247 0.1941 -0.3274
vn -0.9326 0.1713 -0.3176
vn -0.8635 0.2135 -0.4569
vn 0.8676 -0.2316 -0.4401
vn 0.8676 -0.2019 -0.4544
vn 0.8677 -0.2019 -0.4543
vn 0.8677 -0.2019 -0.4544
vn -0.8058 0.3393 -0.4853
vn 0.5785 -0.5770 0.5766
vn 0.5791 -0.5802 0.5727
vn 0.5329 -0.7851 0.3156
vn 0.6008 -0.5942 0.5347
vn 0.6689 0.0419 0.7421
vn 0.6737 0.0385 0.7380
vn 0.6690 0.0418 0.7421
vn 0.5602 -0.6270 0.5414
vn 0.5396 -0.6667 0.5142
vn 0.6051 -0.5633 0.5627
vn 0.5345 -0.6577 0.5308
vn 0.5346 -0.6577 0.5308
vn 0.5775 -0.5738 0.5807
vn 0.6409 0.1374 0.7552
vn 0.6661 0.0432 0.7446
vn 0.6845 0.0022 0.7290
vn 0.0658 -0.5184 0.8526
vn 0.0658 -0.5183 0.8526
vn 0.0637 -0.5137 0.8556
vn 0.0676 -0.5227 0.8498
vn 0.0707 -0.4332 0.8985
vn -0.5341 0.7341 -0.4193
vn 0.4505 -0.7988 -0.3988
vn -0.5000 0.6838 -0.5314
vn -0.4799 0.6937 -0.5372
vn 0.6935 -0.5348 -0.4828
vn 0.4571 -0.6736 -0.5807
vn 0.5282 -0.6443 -0.5531
vn 0.5595 -0.6003 -0.5716
vn 0.5762 -0.6229 -0.5292
vn 0.5555 0.6965 0.4543
vn 0.3076 0.6797 0.6659
vn 0.4626 -0.0522 -0.8850
vn 0.5605 -0.0272 -0.8277
vn 0.5628 -0.0332 -0.8259
vn 0.5651 -0.0398 -0.8241
vn -0.9513 -0.0442 -0.3051
vn -0.9516 -0.0449 -0.3041
vn -0.9495 -0.1753 -0.2601
vn -0.9510 -0.0434 -0.3062
vn 0.5219 0.8495 -0.0771
vn -0.9870 0.0240 -0.1590
vn -0.9941 0.0742 -0.0794
vn -0.9953 0.0528 -0.0812
vn -0.1382 -0.5138 -0.8467
vn -0.4043 -0.4621 -0.7893
vn -0.3602 -0.3448 -0.8668
vn -0.2624 -0.3489 -0.8997
vn -0.2624 -0.3490 -0.8997
vn -0.4692 -0.3571 -0.8077
vn 0.3417 -0.9325 -0.1168
vn -0.2492 -0.4562 -0.8543
vn -0.1752 -0.4048 -0.8975
vn 0.4219 -0.9020 0.0912
vn 0.4189 -0.9001 0.1194
vn 0.4278 -0.9038 0.0094
vn 0.2197 0.9680 0.1213
vn 0.3928 -0.9185 0.0463
vn 0.1487 0.9882 0.0375
vn 0.4491 0.7966 -0.4046
vn 0.2019 0.8957 -0.3962
vn 0.2013 0.8956 -0.3968
vn 0.3625 0.8740 -0.3234
vn 0.3568 0.8760 -0.3245
vn 0.4347 0.8676 -0.2417
vn -0.1069 0.9701 -0.2178
vn -0.1068 0.9701 -0.2178
vn 0.3512 0.8778 -0.3257
vn 0.3339 0.8912 -0.3071
vn 0.3479 0.8595 -0.3744
vn -0.9552 -0.2179 0.2005
vn -0.9750 -0.1877 0.1188
vn 0.8012 -0.2200 0.5565
vn 0.8844 -0.2707 0.3803
vn -0.0648 0.9967 0.0482
vn -0.1059 0.9929 -0.0539
vn -0.1136 0.9932 0.0261
vn -0.1133 0.9932 0.0264
vn -0.0450 -0.2796 -0.9591
vn -0.1584 -0.1641 -0.9736
vn -0.1423 0.9555 0.2582
vn -0.1423 0.9556 0.2582
vn -0.1494 -0.4425 -0.8842
vn -0.0427 -0.2850 -0.9576
vn -0.0728 -0.2251 -0.9716
vn -0.0841 0.9781 0.1903
vn -0.0580 0.9849 0.1632
vn 0.7062 -0.1774 0.6854
vn 0.6609 -0.3813 0.6464
vn -0.1635 0.9694 -0.1832
vn -0.1634 0.9691 -0.1847
vn 0.7116 -0.2617 0.6520
vn -0.3119 0.9428 -0.1177
vn -0.3119 0.9428 -0.1176
vn -0.1627 0.9691 -0.1854
vn -0.6682 -0.5410 -0.5107
vn -0.6690 -0.4265 -0.6087
vn 0.0540 0.9135 0.4034
vn 0.0540 0.9134 0.4034
vn -0.5388 -0.4457 -0.7149
vn 0.2405 0.9698 0.0411
vn 0.2409 0.9697 0.0416
vn 0.0611 0.9867 -0.1505
vn -0.5415 0.0441 0.8395
vn 0.6859 -0.6608 -0.3048
vn -0.3191 -0.4374 0.8407
vn 0.6301 -0.7379 -0.2416
vn 0.6302 -0.7379 -0.2416
vn 0.6296 -0.7381 -0.2424
vn 0.7017 -0.6402 -0.3128
vn 0.7021 -0.6401 -0.3120
vn 0.6682 -0.7033 -0.2425
vn 0.7445 -0.6480 -0.1609
vn 0.2903 0.9171 0.2734
vn -0.3200 -0.4197 0.8494
vn -0.3230 -0.4153 0.8504
vn -0.3171 -0.4238 0.8485
vn -0.0475 0.9721 0.2298
vn -0.0472 0.9720 0.2302
vn 0.2686 0.9544 0.1301
vn 0.0542 0.9971 -0.0539
vn 0.0543 0.9971 -0.0539
vn 0.0544 0.9971 -0.0538
vn 0.0369 0.9975 -0.0603
vn 0.0427 0.9973 -0.0593
vn 0.0373 0.9975 -0.0598
vn 0.0115 0.9676 -0.2523
vn 0.0109 0.9674 -0.2530
vn -0.0004 0.9982 -0.0595
vn 0.0321 0.9977 -0.0604
vn 0.3241 0.0372 0.9453
vn 0.3960 0.0407 0.9173
vn 0.4036 0.0521 0.9135
vn 0.5771 -0.8066 -0.1277
vn 0.5777 -0.8064 -0.1266
vn 0.5664 -0.8235 -0.0328
vn 0.5775 -0.8145 -0.0548
vn 0.7880 -0.0491 -0.6138
vn 0.7771 -0.0137 -0.6293
vn 0.1415 0.9577 0.2507
vn 0.1408 0.9580 0.2499
vn 0.2221 0.9631 -0.1520
vn -0.5306 -0.4432 -0.7225
vn -0.5293 -0.4436 -0.7233
vn -0.1402 0.7555 0.6400
vn -0.5085 -0.3497 -0.7868
vn -0.5085 -0.3497 -0.7869
vn -0.5320 -0.4428 -0.7217
vn -0.2388 0.7874 0.5683
vn -0.3262 0.5756 0.7499
vn -0.3505 0.8314 0.4311
vn -0.6104 0.5847 0.5343
vn -0.1594 0.7612 0.6287
vn 0.2869 0.9451 -0.1565
vn -0.3296 0.8032 0.4962
vn 0.1788 0.9702 -0.1637
vn 0.2963 0.9512 -0.0856
vn 0.2966 0.9512 -0.0853
vn 0.9256 0.2837 -0.2504
vn 0.8336 0.4864 -0.2619
vn 0.8923 0.4016 -0.2062
vn 0.8923 0.4015 -0.2062
vn 0.9054 0.3603 -0.2247
vn 0.8748 0.3980 -0.2763
vn 0.8932 0.3883 -0.2268
vn 0.9069 0.3731 -0.1960
vn 0.9784 -0.2040 -0.0336
vn 0.9792 -0.2011 -0.0278
vn 0.9792 -0.2011 -0.0279
vn 0.8912 -0.4482 0.0700
vn 0.0461 0.0926 -0.9946
vn 0.1390 0.1884 -0.9722
vn 0.1389 0.1884 -0.9722
vn -0.3506 0.7397 0.5744
vn 0.0639 -0.2933 -0.9539
vn 0.0640 -0.2934 -0.9538
vn 0.0641 -0.2933 -0.9539
vn 0.1168 0.1222 -0.9856
vn 0.1152 0.1187 -0.9862
vn 0.1249 0.1198 -0.9849
vn 0.1135 0.1150 -0.9869
vn 0.0269 0.9962 0.0829
vn -0.4738 -0.0268 -0.8802
vn -0.5199 -0.1559 -0.8399
vn -0.5349 0.0897 -0.8401
vn -0.5031 -0.0685 -0.8615
vn -0.6503 -0.3646 0.6665
vn -0.6329 -0.3923 0.6674
vn -0.3864 0.4691 -0.7941
vn 0.0671 0.9889 0.1325
vn 0.0674 0.9888 0.1328
vn 0.1897 0.9467 0.2602
vn 0.1905 0.9463 0.2611
vn 0.0120 0.9568 0.2904
vn 0.0126 0.9566 0.2910
vn 0.4890 0.8536 0.1799
vn 0.3297 0.9185 0.2183
vn 0.2903 0.9040 0.3137
vn 0.3598 0.8961 0.2599
vn 0.4335 -0.8109 -0.3931
vn 0.4600 -0.7756 -0.4322
vn 0.4599 -0.7756 -0.4323
vn 0.4925 -0.8298 -0.2623
vn -0.6486 0.2038 -0.7334
vn 0.8865 -0.0200 -0.4622
vn 0.8861 -0.0200 -0.4630
vn 0.8685 0.1360 -0.4766
vn 0.8689 0.1360 -0.4759
vn 0.8942 0.0217 -0.4471
vn 0.8919 0.0773 -0.4455
vn -0.7892 0.1241 0.6015
vn -0.1995 -0.8626 -0.4650
vn -0.1995 -0.8626 -0.4649
vn -0.3056 -0.8202 -0.4836
vn -0.8787 0.1625 0.4489
vn -0.8775 0.1625 0.4512
vn -0.8798 0.1625 0.4466
vn -0.8511 0.1041 0.5145
vn -0.8426 0.0260 0.5378
vn -0.8427 0.0260 0.5378
vn 0.7762 -0.6293 0.0387
vn 0.7831 -0.6151 0.0918
vn 0.8003 -0.5994 0.0138
vn 0.8533 -0.5113 -0.1024
vn 0.4664 0.8702 0.1588
vn -0.9343 0.3394 -0.1088
vn 0.1619 0.9867 -0.0176
vn 0.1617 0.9867 -0.0178
vn -0.9422 0.3099 -0.1277
vn -0.9286 0.3470 -0.1312
vn -0.7808 0.4550 0.4281
vn -0.7836 0.4546 0.4234
vn -0.8422 0.3759 0.3866
vn -0.7862 0.4545 0.4187
vn -0.5838 0.7964 0.1579
vn -0.5832 0.7966 0.1589
vn -0.6384 0.7696 0.0082
vn -0.0207 0.3018 0.9531
vn -0.0481 0.9157 0.3989
vn -0.2086 0.2406 0.9479
vn -0.2187 0.2905 0.9316
vn -0.2458 0.2475 0.9372
vn 0.7044 0.3379 0.6242
vn 0.7048 0.3354 0.6251
vn 0.6166 0.5207 0.5905
vn 0.4743 0.6422 0.6023
vn 0.4743 0.6421 0.6023
vn 0.7054 0.3327 0.6258
vn 0.5958 0.5061 0.6236
vn 0.6091 0.4976 0.6176
vn 0.7380 0.4230 -0.5258
vn 0.7381 0.4229 -0.5257
vn 0.8119 0.2947 -0.5039
vn -0.1604 -0.9643 0.2108
vn -0.2249 -0.9698 0.0948
vn -0.2249 -0.9698 0.0949
vn -0.1001 -0.9944 0.0335
vn -0.1340 -0.9773 0.1638
vn 0.5838 0.8103 0.0502
vn 0.0898 -0.9765 0.1957
vn 0.0905 -0.9763 0.1965
vn -0.2380 -0.9661 0.0998
vn -0.2380 -0.9661 0.0997
vn 0.0710 0.5150 0.8543
vn 0.0709 0.5150 0.8543
vn 0.0623 0.4997 0.8639
vn 0.5973 0.8019 0.0084
vn -0.1738 -0.7186 0.6734
vn -0.2793 -0.6458 0.7106
vn -0.1587 -0.7605 0.6296
vn -0.2256 -0.6052 0.7634
vn 0.2389 -0.6006 0.7630
vn 0.2585 -0.6448 -0.7193
vn 0.2945 -0.7823 -0.5489
vn 0.2950 -0.6385 -0.7108
vn 0.2008 -0.6582 0.7256
vn 0.2472 -0.6097 0.7531
vn 0.1973 -0.6196 0.7597
vn 0.1987 -0.5851 0.7863
vn -0.7333 0.1212 0.6690
vn -0.7335 0.1212 0.6688
vn -0.7311 -0.1326 0.6693
vn -0.7309 -0.1326 0.6695
vn -0.6399 0.0882 0.7634
vn -0.6405 0.0882 0.7629
vn -0.6795 0.0907 0.7281
vn -0.6387 0.0496 0.7679
vn -0.6387 0.0496 0.7678
vn -0.8973 0.4050 0.1757
vn -0.8889 0.4398 0.1284
vn 0.4010 -0.3338 -0.8531
vn 0.4043 -0.3366 -0.8504
vn 0.4009 -0.3338 -0.8531
vn -0.6669 -0.7029 0.2473
vn -0.6669 -0.7029 0.2474
vn 0.2992 -0.4071 -0.8630
vn 0.3975 -0.3312 -0.8557
vn -0.5699 -0.7718 0.2821
vn -0.6237 -0.6723 0.3988
vn -0.7443 -0.4998 0.4429
vn -0.7560 -0.5104 0.4097
vn -0.6950 -0.6145 0.3732
vn -0.6951 -0.6145 0.3732
vn -0.1674 -0.9465 -0.2758
vn -0.6640 -0.6283 0.4054
vn 0.1194 0.7145 0.6893
vn -0.7244 -0.4871 -0.4878
vn -0.8230 -0.3007 -0.4820
vn -0.7610 -0.4328 -0.4834
vn -0.7199 -0.3835 -0.5784
vn -0.8186 -0.2618 -0.5113
vn -0.0328 0.7501 0.6605
vn 0.1301 0.7127 0.6893
vn 0.1139 0.7010 0.7040
vn 0.1139 0.7010 0.7041
vn -0.8190 0.0021 -0.5738
vn -0.7386 0.0111 -0.6741
vn -0.7385 0.0111 -0.6741
vn 0.4718 0.2828 0.8351
vn -0.7550 -0.0284 -0.6551
vn 0.0477 0.0718 0.9963
vn -0.0508 0.0588 0.9970
vn -0.0460 0.0230 0.9987
vn 0.6462 0.7092 0.2820
vn 0.9084 0.3621 -0.2089
vn 0.9223 0.3496 -0.1647
vn 0.7206 0.6800 0.1355
vn 0.9571 0.2780 -0.0819
vn 0.7604 0.6357 0.1330
vn 0.2678 0.6115 0.7446
vn 0.2663 0.6652 0.6976
vn 0.1629 0.6021 0.7817
vn 0.4970 -0.3597 0.7897
vn 0.3349 0.4797 0.8110
vn 0.3922 -0.4035 0.8267
vn -0.0529 0.9953 0.0813
vn -0.9758 0.0895 0.1993
vn -0.9667 0.1079 0.2319
vn -0.9636 0.0855 0.2532
vn -0.9636 0.0855 0.2531
vn 0.1696 0.8923 -0.4184
vn 0.1696 0.8923 -0.4185
vn -0.9603 0.0016 0.2788
vn 0.0064 0.9365 -0.3505
vn 0.0228 0.4653 -0.8848
vn 0.1838 0.9827 0.0247
vn 0.1877 0.9820 0.0215
vn 0.2509 0.9667 -0.0513
vn 0.1801 0.9833 0.0277
vn 0.1573 0.5903 -0.7917
vn 0.1306 0.5433 -0.8293
vn 0.2479 0.3948 -0.8847
vn 0.1463 0.4995 -0.8539
vn 0.1464 0.4995 -0.8539
vn 0.1824 0.4129 -0.8924
vn 0.1824 0.4128 -0.8924
vn 0.1935 0.4943 -0.8475
vn 0.1934 0.4943 -0.8475
vn 0.5920 0.7615 0.2639
vn 0.5941 0.8027 0.0525
vn 0.6505 0.6803 0.3377
vn 0.7182 0.6195 0.3169
vn 0.5967 0.7516 0.2811
vn 0.4837 0.8590 0.1677
vn 0.4884 0.7935 0.3630
vn -0.1596 0.9778 0.1356
vn -0.1595 0.9778 0.1357
vn 0.6798 0.6484 0.3427
vn 0.9586 -0.1502 0.2418
vn 0.9494 -0.2671 0.1652
vn 0.9531 0.1239 0.2763
vn 0.9531 0.1240 0.2763
vn 0.9798 -0.1988 -0.0221
vn 0.9650 -0.2342 0.1178
vn 0.5958 0.1734 -0.7842
vn 0.4159 0.1389 -0.8987
vn 0.7088 0.1882 -0.6799
vn 0.5238 0.1854 -0.8314
vn -0.8446 -0.0081 0.5354
vn -0.8443 -0.0081 0.5358
vn -0.8285 -0.2065 0.5206
vn -0.7745 -0.2341 0.5877
vn -0.7376 -0.1511 0.6581
vn -0.7644 -0.2361 0.5999
vn -0.8253 -0.5509 0.1243
vn -0.7463 -0.2472 0.6180
vn -0.9414 -0.3374 -0.0003
vn -0.8957 -0.4309 0.1102
vn -0.3555 -0.7726 0.5260
vn 0.4839 -0.2118 0.8491
vn 0.4879 -0.0688 0.8702
vn -0.3960 -0.8293 0.3943
vn -0.3228 -0.7865 0.5264
vn -0.6283 0.3187 0.7097
vn -0.4021 0.4820 0.7785
vn -0.5196 0.4477 0.7277
vn -0.3902 0.4995 0.7735
vn -0.7056 -0.1302 -0.6966
vn -0.7024 -0.2327 -0.6726
vn -0.6697 -0.2087 -0.7127
vn 0.1862 0.2848 0.9403
vn 0.1331 0.2381 0.9621
vn 0.1998 0.0350 -0.9792
vn -0.2351 -0.9720 -0.0021
vn -0.2354 -0.9719 -0.0025
vn 0.2345 -0.0477 -0.9709
vn -0.1969 0.9012 -0.3860
vn -0.2689 0.9039 -0.3327
vn -0.3222 0.8893 -0.3244
vn -0.3894 -0.6501 -0.6525
vn -0.0714 0.9401 -0.3332
vn -0.2827 -0.6218 -0.7304
vn -0.3915 -0.7052 -0.5911
vn 0.8689 -0.4724 -0.1476
vn -0.4176 0.9086 -0.0111
vn -0.6311 0.7677 0.1108
vn -0.1425 0.7003 -0.6994
vn -0.6012 0.7991 -0.0084
vn -0.5931 0.7987 0.1010
vn -0.0657 0.9946 0.0808
vn 0.0282 0.9276 0.3726
vn -0.1083 0.9782 0.1773
vn -0.2434 0.7546 -0.6094
vn -0.2406 0.7193 -0.6517
vn 0.9549 -0.0321 0.2952
vn 0.8667 0.0146 0.4986
vn 0.9378 0.1259 0.3237
vn -0.8950 -0.3927 -0.2114
vn -0.8480 -0.4373 -0.2994
vn -0.4886 -0.8622 -0.1334
vn -0.3383 -0.9305 -0.1405
vn 0.2187 0.9576 -0.1876
vn 0.5548 0.8295 -0.0651
vn 0.6440 0.7649 0.0125
vn 0.4843 0.8711 -0.0810
vn 0.5285 0.7920 -0.3058
vn 0.5286 0.7920 -0.3055
vn 0.4788 0.8737 0.0861
vn -0.7133 0.6481 0.2667
vn -0.7134 0.6481 0.2667
vn 0.5956 0.7678 -0.2361
vn 0.3812 0.9197 -0.0939
vn 0.9421 0.3257 -0.0799
vn 0.5979 0.8015 0.0110
vn -0.6583 0.7236 0.2075
vn -0.6582 0.7236 0.2075
vn -0.7122 0.6412 0.2857
vn 0.6810 0.4257 -0.5958
vn -0.7200 0.6167 0.3183
vn -0.7195 0.6168 0.3192
vn -0.6957 0.6453 0.3156
vn -0.6952 0.6454 0.3164
vn -0.7775 0.5534 0.2988
vn 0.5398 0.4452 -0.7145
vn 0.5406 0.4452 -0.7139
vn 0.5906 0.3671 -0.7187
vn -0.6374 0.7697 0.0351
vn -0.0591 -0.5837 -0.8098
vn -0.0045 -0.6009 -0.7993
vn -0.0212 -0.6015 -0.7986
vn -0.6308 0.7429 -0.2240
vn -0.7693 0.6272 -0.1218
vn -0.1053 0.9574 -0.2689
vn -0.0661 0.9566 -0.2839
vn -0.1170 0.8495 -0.5144
vn -0.3159 0.9024 -0.2930
vn -0.0786 0.9020 -0.4246
vn -0.0027 0.9048 -0.4257
vn -0.0027 0.9048 -0.4258
vn -0.6668 0.7257 -0.1693
vn -0.6668 0.7257 -0.1692
vn -0.3251 0.9116 -0.2515
vn -0.4787 0.8766 0.0483
vn -0.2245 0.9643 0.1406
vn -0.1929 0.9810 0.0209
vn -0.2333 0.9720 0.0300
vn -0.2332 0.9720 0.0300
vn -0.3457 0.9378 0.0338
vn -0.3462 0.9376 0.0330
vn -0.4677 0.8792 0.0913
vn 0.3829 0.7952 -0.4702
vn 0.3834 0.7953 -0.4697
vn 0.0760 0.8032 0.5908
vn 0.5413 0.6756 -0.5005
vn 0.5557 0.6742 -0.4865
vn -0.0083 0.9521 0.3057
vn -0.0089 0.9523 0.3050
vn 0.1904 0.9554 0.2256
vn 0.1910 0.9551 0.2265
vn 0.0347 -0.9180 0.3952
vn -0.0383 -0.8261 0.5622
vn 0.0091 -0.9228 0.3851
vn -0.4192 -0.8266 -0.3755
vn -0.4349 -0.8046 -0.4043
vn -0.4115 -0.8156 -0.4066
vn -0.4116 -0.8156 -0.4066
vn 0.9016 0.4294 0.0515
vn -0.3437 0.8329 0.4337
vn 0.8719 0.4897 0.0089
vn 0.9114 0.4094 0.0419
vn 0.8352 0.5499 -0.0033
vn -0.0847 0.9888 0.1232
vn -0.4556 0.6544 0.6035
vn -0.6416 0.7514 0.1540
vn -0.1767 0.8786 0.4437
vn -0.6793 0.6786 -0.2793
vn -0.7444 0.6063 -0.2798
vn -0.7678 0.6304 -0.1142
vn 0.0010 0.9108 0.4128
vn -0.2210 0.9384 0.2655
vn -0.1220 0.9763 0.1790
vn 0.0177 0.9609 0.2765
vn 0.1328 0.9475 0.2908
vn -0.3203 0.9109 0.2601
vn -0.3204 0.9109 0.2600
vn 0.1500 0.9852 0.0829
vn 0.1500 0.9852 0.0828
vn -0.7252 0.2946 0.6224
vn -0.1366 0.8973 0.4198
vn -0.1372 0.8975 0.4191
vn -0.7388 0.2834 0.6114
vn -0.6980 0.3073 0.6468
vn -0.6982 0.3073 0.6466
vn 0.5308 0.6782 0.5083
vn 0.5287 0.7811 -0.3323
vn 0.5300 0.7717 -0.3515
vn 0.0383 -0.9962 -0.0783
vn 0.0379 -0.9963 -0.0768
vn 0.2559 0.9211 -0.2934
vn 0.4286 0.8711 -0.2398
vn 0.4836 0.8150 -0.3192
vn 0.4199 0.8856 -0.1985
vn 0.1510 -0.9780 0.1442
vn 0.0374 -0.9965 -0.0753
vn -0.1707 -0.1923 0.9664
vn -0.2455 -0.0959 0.9646
vn 0.9654 0.1501 0.2131
vn -0.1485 -0.1752 0.9733
vn -0.1477 -0.1883 0.9709
vn 0.9479 0.2285 0.2218
vn 0.9659 0.1306 0.2234
vn -0.8170 0.5697 0.0895
vn -0.8216 0.5693 0.0278
vn -0.8216 0.5693 0.0279
vn -0.7491 0.6613 -0.0381
vn 0.1211 -0.8410 -0.5274
vn -0.0906 0.9851 -0.1459
vn -0.0901 0.9853 -0.1452
vn -0.6603 -0.6270 -0.4134
vn -0.6367 -0.6664 -0.3880
vn -0.6613 -0.6453 -0.3826
vn -0.6613 -0.6453 -0.3825
vn -0.6070 0.5348 0.5878
vn -0.6706 0.5670 0.4784
vn -0.6704 0.5670 0.4786
vn -0.6706 0.5670 0.4783
vn -0.6496 0.5049 0.5684
vn -0.6522 0.5062 0.5643
vn -0.1205 0.6048 0.7872
vn -0.6545 0.5078 0.5601
vn 0.0235 0.6703 0.7417
vn 0.0234 0.6703 0.7417
vn 0.7094 -0.4632 -0.5312
vn -0.4303 0.8695 -0.2424
vn -0.4907 0.8398 -0.2320
vn -0.4489 0.8693 -0.2067
vn -0.4963 0.8564 -0.1424
vn -0.4418 0.8763 -0.1921
vn 0.1985 -0.9325 -0.3018
vn 0.1992 -0.9326 -0.3010
vn 0.7435 -0.4031 -0.5336
vn 0.7180 -0.3955 -0.5727
vn 0.1719 -0.9823 -0.0742
vn 0.1339 -0.9402 -0.3131
vn 0.1343 -0.9403 -0.3127
vn 0.1903 -0.9713 -0.1424
vn 0.1978 -0.9324 -0.3026
vn -0.9548 -0.2853 -0.0838
vn -0.9700 -0.2178 -0.1080
vn -0.4434 0.8814 0.1627
vn -0.6294 0.7567 0.1769
vn -0.6300 0.7564 0.1758
vn 0.3427 0.9328 -0.1118
vn 0.0485 0.9954 -0.0825
vn 0.1021 0.9918 -0.0768
vn 0.1020 0.9918 -0.0769
vn 0.1186 0.9914 0.0548
vn 0.1236 0.9923 0.0103
vn 0.1234 0.9923 0.0102
vn 0.3550 0.7739 0.5245
vn 0.6588 0.6832 0.3150
vn 0.1384 0.8621 0.4874
vn 0.3122 0.7984 0.5149
vn 0.3957 0.8035 0.4448
vn 0.2262 0.8617 0.4542
vn 0.2037 0.8881 0.4121
vn -0.3598 0.9094 0.2085
vn -0.3331 0.9368 0.1075
vn -0.3775 0.8806 0.2863
vn -0.3774 0.8806 0.2865
vn -0.4195 0.9031 0.0914
vn -0.4189 0.9033 0.0922
vn 0.9825 0.0047 -0.1861
vn 0.9566 0.0150 -0.2909
vn 0.9693 0.0555 -0.2397
vn 0.5707 -0.3641 -0.7361
vn 0.5993 -0.3516 -0.7192
vn 0.5959 -0.2640 -0.7584
vn 0.9881 0.1483 0.0406
vn 0.9860 0.1550 0.0607
vn 0.9979 0.0470 0.0436
vn 0.7054 0.6789 -0.2037
vn -0.8606 -0.3458 0.3738
vn -0.8606 -0.3458 0.3737
vn -0.8683 -0.3171 0.3814
vn -0.6173 0.5083 -0.6005
vn 0.8173 0.5683 -0.0954
vn 0.7077 0.6527 -0.2704
vn 0.7082 0.6525 -0.2696
vn 0.8011 0.5884 -0.1099
vn 0.7633 0.6315 -0.1363
vn 0.8324 0.2041 0.5152
vn 0.7561 0.1103 0.6451
vn 0.8350 0.0295 0.5494
vn 0.8566 0.1985 0.4763
vn 0.8556 0.1960 0.4792
vn 0.8587 0.1571 0.4877
vn 0.8276 0.0143 0.5612
vn 0.8578 0.2007 0.4732
vn -0.6243 0.3707 -0.6876
vn -0.6423 0.4608 -0.6124
vn 0.1948 0.8080 -0.5561
vn 0.1952 0.8081 -0.5557
vn 0.0629 0.8467 -0.5283
vn 0.2188 0.7555 -0.6175
vn 0.1769 0.5979 -0.7818
vn 0.1086 0.7905 -0.6027
vn 0.1327 0.8962 -0.4234
vn 0.0125 0.8228 -0.5682
vn 0.1596 0.7947 -0.5857
vn 0.0466 0.8731 -0.4852
vn 0.1357 0.8045 -0.5782
vn -0.4225 -0.6320 0.6497
vn -0.4225 -0.6320 0.6496
vn -0.4647 -0.5942 0.6565
vn -0.4626 -0.6420 0.6114
vn 0.6419 -0.7490 0.1640
vn 0.6501 -0.7455 0.1469
vn 0.0569 -0.9731 0.2233
vn -0.2310 0.5252 0.8190
vn -0.1049 -0.3233 -0.9405
vn -0.1051 -0.3238 -0.9403
vn -0.1051 -0.3237 -0.9403
vn 0.1021 -0.0488 -0.9936
vn -0.0305 -0.0068 -0.9995
vn -0.0530 -0.2223 -0.9735
vn -0.0681 -0.1532 -0.9858
vn -0.0682 -0.1532 -0.9858
vn -0.2488 0.5247 0.8141
vn -0.1456 0.4537 0.8792
vn -0.6403 -0.1530 0.7527
vn -0.6409 -0.1530 0.7522
vn -0.4997 -0.2332 0.8342
vn -0.5491 -0.2525 0.7967
vn -0.6550 -0.7420 -0.1431
vn -0.6550 -0.7419 -0.1431
vn -0.5374 0.7956 0.2798
vn -0.6813 -0.7229 -0.1149
vn -0.0549 0.3320 -0.9417
vn -0.2579 0.2465 -0.9342
vn -0.2481 0.2488 -0.9362
vn -0.2510 0.2425 -0.9371
vn -0.2448 0.2542 -0.9357
vn -0.1960 0.2803 -0.9397
vn -0.5652 0.7430 0.3586
vn -0.5654 0.7430 0.3582
vn -0.6421 0.6972 0.3189
vn -0.6430 0.6965 0.3186
vn -0.5444 0.7850 0.2955
vn -0.2923 0.9257 0.2402
vn -0.5326 0.8165 0.2228
vn -0.5204 0.8015 0.2946
vn -0.4987 0.8035 0.3252
vn -0.4989 0.8034 0.3249
vn -0.6412 0.6979 0.3192
vn 0.3920 0.8893 -0.2355
vn 0.2324 -0.1690 0.9578
vn 0.3050 -0.2613 0.9158
vn 0.3049 -0.2613 0.9158
vn 0.2918 -0.2309 0.9282
vn 0.2342 -0.1968 0.9521
vn 0.2544 -0.2362 0.9378
vn 0.2544 -0.2361 0.9378
vn -0.1760 0.9827 0.0583
vn -0.4995 -0.8398 0.2126
vn -0.4992 -0.8399 0.2130
vn -0.2578 -0.9175 0.3030
vn -0.2575 -0.9174 0.3033
usemtl mat0
s 1
f 1/1/1 2/2/1 3/3/1
f 2/2/2 4/4/2 3/3/2
f 5/5/3 6/6/3 7/7/3
f 8/8/4 9/9/4 10/10/4
f 11/11/5 12/12/5 13/13/5
f 14/14/6 15/15/6 16/16/6
f 17/17/7 18/18/7 19/19/7
f 20/20/8 21/21/8 22/22/8
f 23/23/9 24/24/9 25/25/9
f 26/26/10 27/27/11 28/28/11
f 29/29/12 30/30/12 31/31/12
f 19/19/13 32/32/13 33/33/13
f 34/34/14 3/3/14 35/35/15
f 36/36/16 37/37/16 38/38/16
f 37/37/17 39/39/18 38/38/17
f 40/40/19 41/41/19 42/42/19
f 41/41/20 43/43/20 42/42/20
f 44/44/21 45/45/21 46/46/22
f 7/7/23 47/47/23 48/48/23
f 7/7/24 48/48/25 49/49/24
f 50/50/26 47/47/27 7/7/26
f 51/51/28 10/10/28 52/52/28
f 51/51/29 52/52/29 53/53/29
f 54/54/30 55/55/31 56/56/31
f 57/57/32 58/58/32 59/59/32
f 12/12/33 60/60/33 61/61/33
f 62/62/34 17/17/34 63/63/34
f 64/64/35 65/65/35 66/66/35
f 67/67/36 68/68/36 69/69/36
f 70/70/37 71/71/37 72/72/37
f 69/69/38 68/68/38 73/73/38
f 74/74/39 75/75/39 62/62/39
f 3/3/40 4/4/40 76/76/40
f 77/77/41 76/76/41 78/78/41
f 79/79/42 80/80/42 81/81/42
f 82/82/43 65/65/43 83/83/43
f 84/84/44 81/81/44 85/85/45
f 86/86/46 87/87/46 88/88/46
f 89/89/47 90/90/47 91/91/47
f 90/90/48 89/89/48 92/92/48
f 93/93/49 94/94/49 95/95/49
f 95/95/50 96/96/50 93/93/50
f 97/97/51 98/98/52 99/99/51
f 100/100/53 101/101/53 102/102/53
f 103/103/54 104/104/54 105/105/54
f 106/106/55 107/107/56 108/108/55
f 9/9/57 52/52/57 10/10/57
f 109/109/58 110/110/58 111/111/59
f 112/112/60 113/113/60 114/114/60
f 103/103/61 115/115/61 116/116/61
f 117/117/62 118/118/63 119/119/62
f 120/120/64 121/121/64 122/122/64
f 122/122/65 121/121/65 123/123/65
f 124/124/66 125/125/67 126/126/66
f 127/127/68 128/128/69 129/129/68
f 130/130/70 131/131/70 132/132/70
f 133/133/71 134/134/71 135/135/71
f 136/136/72 137/137/72 138/138/72
f 139/139/73 140/140/73 141/141/73
f 142/142/74 31/31/74 30/30/74
f 30/30/75 143/143/75 142/142/75
f 144/144/76 145/145/76 146/146/76
f 134/134/77 147/147/78 148/148/78
f 149/149/79 141/141/80 150/150/79
f 151/151/81 152/152/81 100/100/81
f 153/153/82 154/154/82 155/155/82
f 154/154/83 156/156/83 155/155/83
f 157/157/84 158/158/85 28/28/84
f 159/159/86 160/160/87 45/45/88
f 68/68/89 161/161/89 162/162/90
f 68/68/91 162/162/91 73/73/91
f 163/163/92 164/164/93 165/165/93
f 166/166/94 167/167/94 168/168/94
f 132/132/95 169/169/95 170/170/95
f 169/169/96 171/171/96 170/170/96
f 172/172/97 173/173/97 174/174/97
f 36/36/98 72/72/98 175/175/99
f 1/1/100 176/176/100 97/97/100
f 72/72/101 177/177/101 175/175/101
f 178/178/102 179/179/103 18/18/103
f 175/175/104 177/177/104 180/180/104
f 181/181/105 182/182/105 183/183/105
f 183/183/106 182/182/106 184/184/106
f 185/185/107 95/95/107 94/94/107
f 186/186/108 187/187/109 111/111/109
f 188/188/110 189/189/110 190/190/110
f 190/190/111 189/189/111 191/191/111
f 192/192/112 193/193/112 194/194/112
f 98/98/113 164/164/113 195/195/113
f 196/196/114 197/197/114 198/198/114
f 129/129/115 199/199/115 200/200/115
f 201/201/116 202/202/116 203/203/116
f 204/204/117 205/205/117 206/206/117
f 207/207/118 208/208/118 179/179/118
f 209/209/119 210/210/119 211/211/119
f 212/212/120 213/213/120 214/214/120
f 179/179/121 208/208/121 215/215/121
f 216/216/122 217/217/122 218/218/122
f 219/219/123 220/220/123 152/152/123
f 174/174/124 108/108/124 107/107/124
f 58/58/125 221/221/125 90/90/125
f 222/222/126 223/223/126 224/224/126
f 223/223/127 225/225/127 224/224/127
f 226/226/128 57/57/128 227/227/128
f 228/228/129 117/117/129 229/229/129
f 14/14/130 230/230/130 231/231/130
f 230/230/131 157/157/131 231/231/131
f 232/232/132 233/233/132 234/234/132
f 230/230/133 235/235/133 236/236/133
f 237/237/134 238/238/135 239/239/134
f 240/240/136 34/34/136 35/35/136
f 210/210/137 241/241/138 242/242/139
f 243/243/140 242/242/141 244/244/140
f 244/244/142 245/245/142 243/243/142
f 12/12/143 243/243/143 245/245/143
f 75/75/144 246/246/144 178/178/144
f 104/104/145 103/103/146 180/180/146
f 247/247/147 248/248/147 249/249/147
f 61/61/148 60/60/148 250/250/148
f 9/9/149 251/251/149 52/52/149
f 13/13/150 252/252/151 209/209/150
f 252/252/152 13/13/152 253/253/152
f 254/254/153 52/52/153 255/255/153
f 113/113/154 112/112/154 256/256/154
f 129/129/155 128/128/155 199/199/156
f 7/7/157 6/6/157 50/50/157
f 257/257/158 258/258/158 109/109/158
f 259/259/159 123/123/159 190/190/159
f 260/260/160 188/188/160 123/123/160
f 261/261/161 214/214/161 262/262/161
f 263/263/162 219/219/162 264/264/162
f 265/265/163 240/240/163 86/86/163
f 148/148/164 213/213/165 95/95/165
f 155/155/166 193/193/166 153/153/167
f 193/193/168 266/266/168 153/153/168
f 267/267/169 55/55/169 268/268/170
f 118/118/171 117/117/172 239/239/171
f 55/55/173 269/269/173 268/268/173
f 270/270/174 271/271/174 5/5/174
f 272/272/175 273/273/175 8/8/175
f 274/274/176 275/275/176 276/276/176
f 97/97/177 277/277/178 31/31/179
f 278/278/180 279/279/180 27/27/180
f 280/280/181 84/84/181 281/281/181
f 273/273/182 282/282/182 159/159/182
f 283/283/183 284/284/183 285/285/183
f 58/58/184 285/285/185 263/263/184
f 286/286/186 287/287/186 288/288/186
f 289/289/187 290/290/188 257/257/188
f 280/280/189 281/281/189 81/81/189
f 291/291/190 292/292/190 104/104/190
f 293/293/191 133/133/191 84/84/192
f 294/294/193 295/295/194 296/296/194
f 297/297/195 218/218/195 217/217/195
f 206/206/196 172/172/196 275/275/196
f 298/298/197 80/80/197 299/299/197
f 300/300/198 80/80/198 301/301/199
f 278/278/200 80/80/200 302/302/200
f 302/302/201 303/303/201 304/304/201
f 124/124/202 305/305/202 125/125/202
f 306/306/203 28/28/203 27/27/203
f 307/307/204 238/238/204 308/308/204
f 309/309/205 310/310/205 307/307/205
f 311/311/206 43/43/206 41/41/206
f 304/304/207 305/305/207 312/312/207
f 313/313/208 314/314/208 315/315/208
f 316/316/209 317/317/209 318/318/209
f 317/317/210 296/296/210 318/318/210
f 276/276/211 319/319/211 320/320/211
f 16/16/212 15/15/212 321/321/212
f 137/137/213 224/224/213 186/186/213
f 322/322/214 184/184/214 323/323/214
f 133/133/215 324/324/215 250/250/215
f 325/325/216 60/60/216 12/12/217
f 326/326/218 327/327/218 328/328/219
f 329/329/220 260/260/220 330/330/220
f 331/331/221 332/332/221 53/53/221
f 299/299/222 300/300/223 333/333/222
f 145/145/224 334/334/224 146/146/224
f 334/334/225 56/56/225 146/146/225
f 93/93/226 335/335/227 336/336/226
f 337/337/228 295/295/228 294/294/228
f 294/294/229 338/338/230 179/179/229
f 332/332/231 339/339/231 187/187/231
f 173/173/232 172/172/232 206/206/232
f 284/284/233 283/283/233 92/92/233
f 37/37/234 180/180/234 103/103/234
f 1/1/235 161/161/235 340/340/235
f 326/326/236 148/148/236 147/147/236
f 341/341/237 307/307/237 342/342/237
f 343/343/238 344/344/238 292/292/238
f 345/345/239 346/346/239 347/347/239
f 348/348/240 31/31/240 277/277/240
f 74/74/241 62/62/241 349/349/241
f 36/36/242 350/350/243 70/70/244
f 350/350/245 351/351/245 70/70/245
f 247/247/246 222/222/246 112/112/246
f 112/112/247 352/352/248 248/248/248
f 112/112/249 222/222/249 256/256/249
f 38/38/250 353/353/250 350/350/250
f 354/354/251 355/355/251 356/356/251
f 331/331/252 289/289/253 332/332/253
f 39/39/254 116/116/254 38/38/254
f 289/289/253 339/339/255 332/332/253
f 357/357/256 244/244/256 182/182/256
f 85/85/257 81/81/257 358/358/257
f 359/359/258 233/233/258 360/360/258
f 81/81/259 298/298/260 358/358/261
f 13/13/262 209/209/262 211/211/262
f 361/361/263 362/362/263 363/363/263
f 364/364/264 216/216/264 54/54/264
f 116/116/265 115/115/265 256/256/265
f 115/115/266 365/365/266 256/256/266
f 366/366/267 367/367/267 75/75/267
f 368/368/268 369/369/268 189/189/268
f 370/370/269 371/371/269 372/372/269
f 160/160/270 168/168/270 46/46/270
f 373/373/271 322/322/271 18/18/271
f 322/322/272 19/19/272 18/18/272
f 359/359/273 374/374/273 191/191/273
f 374/374/274 375/375/274 191/191/274
f 67/67/275 340/340/276 161/161/275
f 192/192/277 5/5/278 271/271/277
f 83/83/279 170/170/279 171/171/279
f 335/335/280 93/93/280 96/96/280
f 376/376/281 220/220/281 284/284/281
f 220/220/282 285/285/282 284/284/282
f 171/171/283 169/169/283 377/377/283
f 126/126/284 125/125/284 303/303/284
f 125/125/285 305/305/285 303/303/285
f 37/37/286 36/36/286 175/175/286
f 158/158/287 378/378/288 379/379/287
f 379/379/289 26/26/289 158/158/289
f 141/141/290 140/140/291 71/71/290
f 116/116/292 39/39/292 103/103/293
f 380/380/294 381/381/295 311/311/295
f 27/27/296 26/26/296 379/379/296
f 150/150/297 27/27/297 379/379/297
f 288/288/298 5/5/298 49/49/298
f 382/382/299 220/220/299 313/313/299
f 288/288/300 382/382/300 315/315/300
f 382/382/301 313/313/301 315/315/301
f 143/143/302 4/4/302 2/2/303
f 49/49/304 5/5/305 7/7/305
f 192/192/306 6/6/306 5/5/306
f 8/8/307 51/51/307 223/223/307
f 25/25/308 251/251/308 9/9/309
f 211/211/310 11/11/310 13/13/311
f 8/8/312 25/25/312 9/9/312
f 51/51/313 225/225/313 223/223/314
f 8/8/315 10/10/315 51/51/315
f 211/211/316 210/210/316 11/11/316
f 11/11/317 242/242/318 243/243/318
f 383/383/319 384/384/319 15/15/319
f 11/11/320 243/243/320 12/12/320
f 230/230/321 14/14/321 16/16/321
f 383/383/322 15/15/322 14/14/322
f 8/8/323 23/23/323 25/25/323
f 227/227/324 17/17/324 19/19/324
f 227/227/325 63/63/325 17/17/325
f 227/227/326 19/19/326 33/33/326
f 120/120/327 29/29/327 31/31/327
f 120/120/328 122/122/329 29/29/330
f 322/322/331 32/32/331 19/19/331
f 154/154/332 1/1/332 34/34/333
f 69/69/334 73/73/334 153/153/334
f 162/162/335 161/161/335 1/1/335
f 385/385/336 88/88/337 372/372/338
f 3/3/339 77/77/339 35/35/339
f 153/153/340 73/73/340 162/162/340
f 34/34/14 1/1/341 3/3/14
f 154/154/342 153/153/342 162/162/343
f 154/154/332 162/162/344 1/1/332
f 372/372/345 386/386/345 229/229/345
f 385/385/336 372/372/338 387/387/346
f 372/372/347 229/229/347 387/387/347
f 102/102/348 388/388/349 389/389/350
f 102/102/348 203/203/351 388/388/349
f 388/388/352 336/336/352 389/389/352
f 390/390/353 44/44/353 46/46/353
f 195/195/354 204/204/354 98/98/354
f 45/45/21 44/44/21 391/391/355
f 44/44/356 273/273/356 391/391/356
f 195/195/357 164/164/357 204/204/357
f 348/348/358 99/99/358 364/364/358
f 348/348/359 392/392/359 99/99/359
f 99/99/360 204/204/360 364/364/360
f 204/204/361 99/99/361 98/98/361
f 52/52/362 254/254/362 53/53/362
f 53/53/363 225/225/363 51/51/363
f 334/334/364 54/54/364 56/56/364
f 121/121/365 54/54/366 123/123/366
f 54/54/366 334/334/367 123/123/366
f 57/57/368 349/349/369 63/63/368
f 349/349/370 57/57/370 59/59/370
f 227/227/371 57/57/368 63/63/368
f 333/333/372 12/12/372 61/61/372
f 349/349/373 62/62/373 63/63/373
f 393/393/374 17/17/374 62/62/374
f 393/393/375 178/178/375 17/17/375
f 394/394/376 66/66/376 297/297/376
f 394/394/377 395/395/377 64/64/377
f 170/170/378 65/65/378 132/132/378
f 170/170/379 83/83/380 65/65/380
f 65/65/381 64/64/381 132/132/381
f 396/396/382 163/163/382 397/397/382
f 394/394/383 64/64/383 66/66/383
f 66/66/384 82/82/384 297/297/384
f 67/67/385 69/69/385 266/266/385
f 69/69/386 153/153/386 266/266/386
f 396/396/387 397/397/387 67/67/387
f 72/72/388 36/36/388 70/70/388
f 396/396/389 67/67/389 266/266/389
f 71/71/390 140/140/390 72/72/390
f 343/343/391 368/368/391 311/311/391
f 381/381/392 352/352/393 114/114/393
f 354/354/394 381/381/395 355/355/395
f 354/354/396 292/292/396 344/344/396
f 344/344/397 343/343/397 311/311/398
f 381/381/395 114/114/399 355/355/395
f 344/344/400 381/381/400 354/354/400
f 344/344/401 311/311/295 381/381/295
f 74/74/402 264/264/402 75/75/402
f 75/75/403 393/393/403 62/62/403
f 87/87/404 77/77/404 78/78/404
f 3/3/405 76/76/405 77/77/405
f 281/281/406 79/79/406 81/81/406
f 126/126/407 80/80/407 79/79/407
f 126/126/408 303/303/409 80/80/408
f 268/268/410 82/82/410 83/83/410
f 297/297/411 82/82/411 268/268/411
f 85/85/412 324/324/413 293/293/413
f 82/82/414 66/66/414 65/65/414
f 269/269/415 218/218/415 297/297/415
f 269/269/416 297/297/416 268/268/416
f 84/84/417 280/280/417 81/81/417
f 85/85/418 293/293/418 84/84/418
f 385/385/419 86/86/419 88/88/419
f 86/86/420 35/35/420 77/77/420
f 71/71/421 70/70/422 141/141/422
f 86/86/423 77/77/423 87/87/423
f 70/70/424 351/351/425 150/150/425
f 70/70/422 150/150/426 141/141/422
f 398/398/427 90/90/427 92/92/427
f 90/90/428 221/221/428 399/399/428
f 400/400/429 223/223/430 247/247/430
f 90/90/431 399/399/431 91/91/431
f 400/400/432 8/8/433 223/223/433
f 223/223/434 222/222/434 247/247/434
f 95/95/435 213/213/435 96/96/435
f 392/392/436 277/277/436 97/97/436
f 389/389/437 335/335/437 401/401/437
f 98/98/438 176/176/439 164/164/440
f 99/99/441 392/392/442 97/97/442
f 176/176/443 165/165/443 164/164/443
f 98/98/444 97/97/444 176/176/444
f 105/105/445 356/356/445 115/115/445
f 389/389/446 100/100/446 102/102/447
f 389/389/446 401/401/448 100/100/446
f 187/187/449 339/339/450 111/111/450
f 103/103/451 105/105/451 115/115/451
f 289/289/452 109/109/453 339/339/454
f 109/109/455 258/258/456 402/402/457
f 352/352/458 112/112/459 114/114/459
f 339/339/460 109/109/460 111/111/460
f 109/109/455 402/402/457 110/110/461
f 265/265/462 117/117/62 119/119/62
f 229/229/463 117/117/463 387/387/463
f 117/117/464 265/265/464 387/387/464
f 397/397/465 165/165/466 176/176/466
f 67/67/467 397/397/467 403/403/467
f 397/397/468 176/176/468 403/403/468
f 120/120/469 404/404/469 121/121/469
f 259/259/470 122/122/470 123/123/470
f 79/79/471 124/124/471 126/126/472
f 405/405/473 127/127/473 129/129/473
f 64/64/474 395/395/475 274/274/474
f 307/307/476 310/310/476 342/342/476
f 64/64/477 130/130/478 132/132/478
f 64/64/474 274/274/474 130/130/479
f 84/84/480 135/135/480 310/310/480
f 406/406/481 134/134/481 133/133/481
f 22/22/482 134/134/482 20/20/482
f 84/84/483 133/133/483 135/135/483
f 310/310/484 135/135/484 342/342/484
f 149/149/485 139/139/485 141/141/485
f 134/134/486 406/406/486 20/20/486
f 291/291/487 140/140/487 139/139/487
f 291/291/488 72/72/489 140/140/489
f 234/234/490 359/359/490 191/191/490
f 191/191/491 189/189/491 369/369/491
f 232/232/492 407/407/493 408/408/493
f 407/407/494 234/234/494 191/191/494
f 409/409/495 407/407/495 369/369/495
f 407/407/496 191/191/496 369/369/496
f 407/407/497 409/409/497 408/408/497
f 30/30/498 360/360/499 143/143/500
f 143/143/501 2/2/501 142/142/501
f 144/144/502 410/410/502 411/411/502
f 411/411/503 329/329/504 330/330/504
f 135/135/505 134/134/505 148/148/505
f 412/412/506 144/144/507 267/267/508
f 330/330/509 145/145/510 411/411/510
f 144/144/511 146/146/511 267/267/511
f 145/145/510 144/144/512 411/411/510
f 378/378/513 149/149/513 150/150/513
f 413/413/514 166/166/514 132/132/514
f 132/132/515 131/131/515 413/413/515
f 377/377/516 169/169/516 166/166/516
f 166/166/517 169/169/517 132/132/517
f 414/414/518 151/151/518 401/401/518
f 151/151/519 100/100/519 401/401/519
f 391/391/520 159/159/86 45/45/88
f 149/149/521 378/378/522 158/158/522
f 158/158/523 26/26/524 28/28/524
f 28/28/525 306/306/526 312/312/526
f 157/157/527 415/415/527 139/139/527
f 157/157/528 139/139/528 158/158/528
f 312/312/529 157/157/84 28/28/84
f 139/139/530 149/149/530 158/158/530
f 205/205/531 164/164/531 163/163/531
f 205/205/532 204/204/533 164/164/533
f 397/397/534 163/163/534 165/165/534
f 377/377/535 166/166/535 168/168/535
f 29/29/536 122/122/537 259/259/536
f 259/259/538 190/190/539 375/375/539
f 29/29/540 259/259/540 374/374/540
f 259/259/541 375/375/541 374/374/541
f 328/328/542 327/327/542 262/262/542
f 416/416/543 172/172/543 174/174/544
f 416/416/545 275/275/545 172/172/545
f 208/208/546 246/246/546 417/417/547
f 208/208/546 418/418/548 246/246/546
f 246/246/549 327/327/549 417/417/549
f 327/327/550 246/246/550 262/262/551
f 1/1/552 97/97/552 2/2/552
f 1/1/553 340/340/553 403/403/553
f 97/97/554 142/142/554 2/2/554
f 1/1/555 403/403/555 176/176/555
f 291/291/556 177/177/556 72/72/556
f 179/179/103 373/373/557 18/18/103
f 37/37/558 175/175/558 180/180/559
f 17/17/560 178/178/560 18/18/560
f 178/178/561 207/207/561 179/179/561
f 215/215/562 417/417/563 419/419/563
f 215/215/564 208/208/564 417/417/564
f 417/417/563 420/420/565 419/419/563
f 181/181/566 357/357/566 182/182/567
f 338/338/568 183/183/568 184/184/568
f 198/198/569 197/197/569 421/421/569
f 138/138/570 186/186/570 111/111/570
f 422/422/571 185/185/571 94/94/571
f 421/421/572 197/197/572 185/185/572
f 422/422/573 421/421/573 185/185/573
f 383/383/574 386/386/575 371/371/575
f 383/383/576 14/14/576 231/231/576
f 231/231/577 237/237/578 228/228/577
f 386/386/575 372/372/579 371/371/575
f 231/231/580 386/386/580 383/383/580
f 231/231/581 228/228/581 386/386/581
f 188/188/582 423/423/583 189/189/583
f 375/375/584 190/190/584 191/191/584
f 47/47/585 50/50/585 424/424/585
f 192/192/586 425/425/587 6/6/587
f 192/192/588 426/426/588 193/193/588
f 425/425/589 192/192/589 194/194/589
f 200/200/590 427/427/590 129/129/590
f 50/50/591 6/6/592 424/424/592
f 6/6/593 425/425/594 424/424/594
f 239/239/595 196/196/595 198/198/596
f 239/239/597 341/341/597 196/196/597
f 199/199/598 428/428/598 200/200/598
f 202/202/599 201/201/599 425/425/599
f 201/201/600 203/203/600 101/101/600
f 194/194/601 202/202/601 425/425/601
f 203/203/602 102/102/602 101/101/602
f 203/203/603 154/154/603 34/34/603
f 217/217/604 204/204/604 206/206/604
f 217/217/605 216/216/605 364/364/605
f 217/217/606 364/364/606 204/204/606
f 202/202/607 156/156/607 154/154/607
f 429/429/608 203/203/608 34/34/608
f 203/203/609 202/202/609 154/154/609
f 429/429/610 388/388/610 203/203/610
f 430/430/611 328/328/612 262/262/611
f 214/214/613 261/261/614 212/212/614
f 213/213/615 430/430/616 214/214/615
f 430/430/617 262/262/617 214/214/617
f 212/212/618 96/96/618 213/213/619
f 207/207/620 418/418/620 208/208/620
f 337/337/621 179/179/621 215/215/621
f 269/269/622 55/55/623 54/54/624
f 382/382/625 48/48/626 220/220/625
f 269/269/627 216/216/627 218/218/627
f 269/269/622 54/54/624 216/216/628
f 382/382/629 49/49/629 48/48/629
f 48/48/630 47/47/630 431/431/630
f 152/152/631 151/151/631 366/366/631
f 219/219/632 152/152/632 366/366/632
f 220/220/633 48/48/633 152/152/634
f 416/416/635 174/174/635 107/107/635
f 48/48/636 431/431/636 152/152/636
f 224/224/637 53/53/637 186/186/637
f 398/398/638 92/92/638 283/283/638
f 57/57/639 221/221/639 58/58/639
f 398/398/640 283/283/640 58/58/640
f 398/398/641 58/58/641 90/90/641
f 57/57/642 226/226/642 221/221/642
f 224/224/643 225/225/643 53/53/643
f 53/53/644 332/332/644 187/187/644
f 53/53/645 187/187/645 186/186/646
f 33/33/647 226/226/647 227/227/647
f 33/33/648 432/432/649 433/433/648
f 386/386/650 228/228/650 229/229/650
f 33/33/651 433/433/651 226/226/651
f 118/118/652 421/421/652 119/119/652
f 434/434/653 119/119/653 422/422/653
f 119/119/654 421/421/654 422/422/654
f 415/415/655 157/157/655 230/230/655
f 407/407/656 232/232/656 234/234/656
f 233/233/657 359/359/657 234/234/657
f 415/415/658 230/230/658 236/236/658
f 232/232/659 435/435/659 233/233/659
f 16/16/660 235/235/660 230/230/660
f 237/237/134 239/239/134 228/228/661
f 237/237/662 308/308/662 238/238/662
f 238/238/663 341/341/663 239/239/663
f 35/35/664 86/86/664 240/240/664
f 239/239/665 117/117/665 228/228/665
f 240/240/666 429/429/666 34/34/666
f 11/11/667 210/210/667 242/242/667
f 246/246/668 418/418/668 207/207/668
f 178/178/669 246/246/669 207/207/669
f 178/178/670 393/393/671 75/75/670
f 249/249/672 400/400/672 247/247/673
f 75/75/674 367/367/674 246/246/674
f 247/247/675 112/112/675 248/248/675
f 282/282/676 436/436/676 411/411/676
f 324/324/677 61/61/677 250/250/678
f 324/324/679 85/85/679 358/358/679
f 324/324/677 358/358/680 61/61/677
f 437/437/681 438/438/681 436/436/681
f 42/42/682 411/411/682 40/40/682
f 42/42/683 260/260/683 329/329/683
f 436/436/684 438/438/685 411/411/685
f 329/329/686 411/411/686 42/42/687
f 411/411/688 438/438/689 40/40/689
f 439/439/690 440/440/690 441/441/690
f 440/440/691 442/442/691 255/255/691
f 52/52/692 440/440/692 255/255/692
f 254/254/693 290/290/693 331/331/693
f 52/52/694 251/251/694 440/440/694
f 290/290/695 289/289/695 331/331/695
f 440/440/696 251/251/696 441/441/696
f 365/365/697 113/113/698 256/256/697
f 254/254/699 255/255/699 290/290/699
f 362/362/700 361/361/700 443/443/700
f 4/4/701 143/143/701 76/76/701
f 361/361/702 76/76/703 360/360/703
f 76/76/704 143/143/500 360/360/499
f 361/361/705 360/360/705 443/443/705
f 334/334/706 260/260/706 123/123/706
f 334/334/707 145/145/707 330/330/707
f 123/123/708 188/188/708 190/190/708
f 334/334/709 330/330/709 260/260/709
f 262/262/710 246/246/711 367/367/710
f 366/366/712 262/262/712 367/367/712
f 414/414/713 261/261/713 151/151/713
f 414/414/714 212/212/714 261/261/714
f 261/261/715 366/366/715 151/151/715
f 285/285/716 220/220/716 219/219/716
f 261/261/717 262/262/717 366/366/717
f 74/74/718 263/263/718 264/264/718
f 285/285/719 219/219/719 263/263/719
f 424/424/720 425/425/720 201/201/720
f 385/385/721 265/265/721 86/86/721
f 385/385/722 387/387/722 265/265/722
f 47/47/723 424/424/723 431/431/723
f 424/424/724 201/201/724 431/431/724
f 326/326/725 430/430/725 213/213/725
f 185/185/726 148/148/726 95/95/726
f 148/148/727 326/326/727 213/213/727
f 185/185/728 135/135/728 148/148/728
f 226/226/729 433/433/729 444/444/729
f 221/221/730 226/226/730 399/399/730
f 226/226/731 444/444/731 399/399/731
f 198/198/732 118/118/171 239/239/171
f 198/198/733 421/421/733 118/118/733
f 267/267/734 146/146/734 56/56/734
f 287/287/735 270/270/736 5/5/736
f 267/267/169 56/56/737 55/55/169
f 273/273/738 23/23/738 8/8/738
f 272/272/739 8/8/739 249/249/739
f 44/44/740 23/23/740 273/273/740
f 395/395/741 275/275/741 274/274/741
f 8/8/742 400/400/742 249/249/742
f 395/395/743 394/394/743 275/275/743
f 445/445/744 274/274/744 276/276/744
f 142/142/745 97/97/177 31/31/179
f 27/27/746 150/150/746 351/351/746
f 351/351/747 350/350/747 353/353/747
f 272/272/748 436/436/748 282/282/748
f 351/351/749 278/278/749 27/27/749
f 351/351/750 353/353/750 278/278/750
f 281/281/751 310/310/751 79/79/751
f 310/310/752 309/309/752 79/79/752
f 281/281/753 84/84/753 310/310/753
f 391/391/754 273/273/754 159/159/754
f 272/272/755 282/282/755 273/273/755
f 363/363/756 78/78/756 361/361/756
f 363/363/757 370/370/757 78/78/757
f 78/78/758 76/76/758 361/361/758
f 59/59/759 58/58/184 263/263/184
f 283/283/760 285/285/760 58/58/760
f 288/288/761 315/315/761 286/286/761
f 286/286/762 270/270/762 287/287/762
f 109/109/763 289/289/763 257/257/763
f 291/291/764 104/104/764 177/177/764
f 415/415/765 236/236/765 139/139/765
f 368/368/766 291/291/766 236/236/766
f 368/368/767 343/343/768 292/292/768
f 105/105/769 104/104/769 354/354/769
f 317/317/770 294/294/770 296/296/771
f 236/236/772 291/291/772 139/139/772
f 104/104/773 180/180/773 177/177/773
f 291/291/774 368/368/774 292/292/774
f 104/104/775 292/292/775 354/354/775
f 317/317/776 181/181/777 183/183/776
f 295/295/778 337/337/778 215/215/778
f 43/43/779 423/423/779 188/188/779
f 317/317/780 183/183/781 294/294/780
f 215/215/782 419/419/782 295/295/783
f 295/295/784 419/419/784 296/296/784
f 42/42/785 43/43/785 260/260/786
f 43/43/787 188/188/787 260/260/787
f 278/278/788 353/353/788 137/137/788
f 394/394/789 297/297/789 275/275/789
f 217/217/790 206/206/790 297/297/790
f 297/297/791 206/206/791 275/275/791
f 301/301/792 278/278/792 136/136/792
f 278/278/793 137/137/793 136/136/793
f 298/298/794 81/81/794 80/80/794
f 301/301/795 110/110/795 127/127/795
f 405/405/796 301/301/796 127/127/796
f 302/302/797 279/279/797 278/278/797
f 300/300/798 301/301/798 405/405/798
f 80/80/799 300/300/800 299/299/800
f 278/278/801 301/301/802 80/80/801
f 80/80/803 303/303/803 302/302/803
f 138/138/804 110/110/804 136/136/804
f 279/279/805 306/306/805 27/27/805
f 279/279/806 302/302/806 304/304/806
f 279/279/807 304/304/808 306/306/808
f 138/138/809 111/111/810 110/110/810
f 110/110/811 301/301/811 136/136/811
f 446/446/812 311/311/812 41/41/813
f 309/309/814 307/307/814 308/308/814
f 423/423/815 43/43/815 368/368/815
f 43/43/816 311/311/816 368/368/816
f 312/312/817 306/306/818 304/304/817
f 304/304/819 303/303/820 305/305/820
f 155/155/821 156/156/821 193/193/821
f 156/156/822 202/202/822 194/194/822
f 156/156/823 194/194/823 193/193/823
f 447/447/824 276/276/824 320/320/824
f 275/275/825 319/319/825 276/276/825
f 275/275/826 416/416/827 319/319/826
f 16/16/828 321/321/828 232/232/828
f 256/256/829 137/137/829 116/116/829
f 408/408/830 16/16/830 232/232/830
f 321/321/831 435/435/831 232/232/831
f 408/408/832 235/235/832 16/16/832
f 256/256/833 222/222/833 224/224/833
f 138/138/834 137/137/834 186/186/834
f 137/137/835 38/38/835 116/116/835
f 224/224/836 137/137/836 256/256/836
f 448/448/837 322/322/837 323/323/837
f 373/373/838 184/184/838 322/322/838
f 373/373/839 338/338/839 184/184/839
f 250/250/840 406/406/840 133/133/840
f 133/133/191 293/293/191 324/324/841
f 20/20/842 60/60/842 21/21/842
f 20/20/843 406/406/843 250/250/843
f 245/245/844 325/325/844 12/12/844
f 245/245/845 449/449/846 325/325/846
f 250/250/847 60/60/847 20/20/848
f 420/420/849 327/327/849 326/326/849
f 60/60/850 325/325/851 21/21/850
f 420/420/852 417/417/852 327/327/852
f 430/430/853 326/326/854 328/328/853
f 254/254/855 331/331/855 53/53/855
f 405/405/856 427/427/856 300/300/856
f 405/405/857 129/129/857 427/427/857
f 193/193/858 426/426/859 266/266/859
f 298/298/260 299/299/860 358/358/261
f 299/299/222 333/333/222 61/61/861
f 300/300/862 427/427/862 333/333/862
f 299/299/863 61/61/863 358/358/863
f 426/426/864 271/271/864 396/396/864
f 426/426/859 396/396/865 266/266/859
f 434/434/866 422/422/866 336/336/866
f 94/94/867 93/93/867 422/422/867
f 321/321/868 384/384/868 443/443/868
f 422/422/869 93/93/226 336/336/226
f 335/335/870 389/389/870 336/336/870
f 321/321/871 15/15/871 384/384/871
f 384/384/872 362/362/872 443/443/872
f 294/294/873 183/183/873 338/338/873
f 338/338/874 373/373/875 179/179/874
f 179/179/876 337/337/876 294/294/876
f 205/205/877 173/173/877 206/206/877
f 39/39/878 37/37/878 103/103/879
f 89/89/880 284/284/880 92/92/880
f 89/89/881 450/450/881 376/376/881
f 89/89/882 376/376/883 284/284/883
f 318/318/884 326/326/884 147/147/884
f 318/318/885 296/296/886 419/419/887
f 326/326/888 318/318/889 420/420/889
f 196/196/890 341/341/890 342/342/890
f 318/318/889 419/419/891 420/420/889
f 238/238/892 307/307/893 341/341/892
f 392/392/894 348/348/894 277/277/894
f 44/44/895 390/390/895 23/23/895
f 345/345/896 347/347/896 24/24/896
f 347/347/897 451/451/897 24/24/897
f 24/24/898 390/390/898 345/345/898
f 390/390/899 24/24/899 23/23/899
f 108/108/900 173/173/901 205/205/900
f 31/31/902 348/348/902 120/120/902
f 348/348/903 404/404/903 120/120/903
f 396/396/904 106/106/904 108/108/904
f 108/108/905 174/174/906 173/173/905
f 163/163/907 396/396/907 108/108/907
f 163/163/908 108/108/900 205/205/900
f 263/263/909 74/74/909 59/59/909
f 74/74/910 349/349/910 59/59/910
f 350/350/243 36/36/242 38/38/911
f 38/38/912 137/137/913 353/353/913
f 105/105/914 354/354/914 356/356/914
f 114/114/915 365/365/915 355/355/915
f 114/114/916 113/113/917 365/365/917
f 365/365/918 115/115/918 356/356/918
f 365/365/919 356/356/919 355/355/920
f 231/231/921 157/157/921 312/312/921
f 124/124/922 237/237/922 305/305/922
f 309/309/923 308/308/923 79/79/923
f 237/237/924 124/124/924 308/308/924
f 237/237/925 231/231/925 312/312/925
f 308/308/926 124/124/926 79/79/926
f 237/237/927 312/312/927 305/305/927
f 357/357/928 449/449/928 245/245/928
f 244/244/929 242/242/929 241/241/929
f 357/357/930 245/245/930 244/244/931
f 244/244/932 241/241/933 182/182/932
f 30/30/934 359/359/934 360/360/934
f 30/30/935 29/29/935 374/374/935
f 30/30/936 374/374/936 359/359/936
f 54/54/937 404/404/937 348/348/937
f 364/364/938 54/54/938 348/348/938
f 54/54/939 121/121/939 404/404/939
f 435/435/940 443/443/940 233/233/940
f 435/435/941 321/321/941 443/443/941
f 443/443/942 360/360/942 233/233/942
f 236/236/943 369/369/943 368/368/943
f 264/264/944 366/366/945 75/75/944
f 264/264/946 219/219/946 366/366/946
f 46/46/947 45/45/947 160/160/947
f 369/369/948 235/235/948 409/409/948
f 423/423/949 368/368/950 189/189/950
f 235/235/951 408/408/951 409/409/951
f 369/369/952 236/236/952 235/235/952
f 383/383/953 363/363/953 384/384/953
f 88/88/954 370/370/954 372/372/954
f 88/88/955 87/87/955 78/78/955
f 363/363/956 383/383/957 371/371/956
f 363/363/958 362/362/958 384/384/958
f 88/88/959 78/78/959 370/370/959
f 370/370/960 363/363/956 371/371/956
f 160/160/961 377/377/961 168/168/961
f 168/168/962 452/452/962 46/46/962
f 248/248/963 437/437/964 249/249/963
f 248/248/965 352/352/965 381/381/965
f 446/446/966 41/41/966 40/40/966
f 40/40/967 438/438/967 437/437/967
f 272/272/968 249/249/968 436/436/968
f 381/381/969 380/380/969 248/248/969
f 380/380/970 446/446/970 40/40/970
f 249/249/971 437/437/971 436/436/971
f 248/248/972 380/380/972 437/437/972
f 380/380/973 40/40/973 437/437/973
f 101/101/974 152/152/974 201/201/975
f 101/101/976 100/100/976 152/152/976
f 152/152/977 431/431/977 201/201/977
f 161/161/275 68/68/978 67/67/275
f 67/67/979 403/403/979 340/340/979
f 426/426/980 192/192/980 271/271/980
f 342/342/981 185/185/981 196/196/981
f 412/412/982 171/171/983 144/144/984
f 412/412/985 267/267/985 268/268/985
f 171/171/986 410/410/986 144/144/986
f 412/412/987 268/268/987 83/83/987
f 412/412/988 83/83/989 171/171/989
f 342/342/990 135/135/990 185/185/990
f 185/185/991 197/197/991 196/196/991
f 96/96/992 212/212/993 414/414/992
f 335/335/994 96/96/994 401/401/994
f 96/96/995 414/414/995 401/401/995
f 376/376/996 314/314/997 313/313/997
f 181/181/998 316/316/998 357/357/998
f 376/376/999 313/313/999 220/220/999
f 411/411/1000 410/410/1000 282/282/1000
f 171/171/1001 377/377/1001 160/160/1001
f 160/160/1002 159/159/1003 410/410/1002
f 171/171/1004 160/160/1002 410/410/1002
f 410/410/1005 159/159/1005 282/282/1005
f 181/181/1006 317/317/1007 316/316/1007
f 316/316/1008 318/318/1009 147/147/1008
f 22/22/1010 316/316/1010 134/134/1010
f 21/21/1011 325/325/1011 449/449/1011
f 316/316/1012 22/22/1012 21/21/1012
f 316/316/1013 449/449/1013 357/357/1013
f 449/449/1014 316/316/1015 21/21/1015
f 316/316/1008 147/147/1008 134/134/1016
f 446/446/1017 380/380/1017 311/311/1017
f 265/265/1018 119/119/1018 434/434/1018
f 240/240/1019 265/265/1020 388/388/1019
f 388/388/1021 429/429/1021 240/240/1021
f 434/434/1022 336/336/1022 265/265/1022
f 265/265/1023 336/336/1024 388/388/1023
f 379/379/1025 378/378/1025 150/150/1025
f 49/49/1026 382/382/1027 288/288/1026
f 288/288/1028 287/287/1029 5/5/1029
